<svg xmlns="http://www.w3.org/2000/svg" viewBox="0 0 39.994 39.994">
  <defs>
    <style>
      .cls-1 {
        fill: #fff;
      }
    </style>
  </defs>
  <title>Youtube</title>
  <g id="Capa_2" data-name="Capa 2">
    <g id="Capa_1-2" data-name="Capa 1">
      <g>
        <circle cx="19.997" cy="19.997" r="19.997"/>
        <path d="M30.063,13.306c-.6.183-1.225.34-1.851.5-4.444.943-10.369-1.616-12.927,2.559-2.134,3.319-2.808,7.473-5.235,10.441L23.015,39.768A20.011,20.011,0,0,0,39.768,23.011Z"/>
        <path class="cls-1" d="M26.687,11.9H13.307a4.753,4.753,0,0,0-4.753,4.753v6.689A4.753,4.753,0,0,0,13.307,28.1H26.687a4.753,4.753,0,0,0,4.753-4.753V16.653A4.753,4.753,0,0,0,26.687,11.9Zm-3.215,8.423-6.258,2.985a.251.251,0,0,1-.36-.227V16.924a.251.251,0,0,1,.365-.224l6.258,3.171a.251.251,0,0,1-.005.451Z"/>
      </g>
    </g>
  </g>
</svg>
