<svg xmlns="http://www.w3.org/2000/svg" xmlns:xlink="http://www.w3.org/1999/xlink" viewBox="0 0 189.645 187.18">
  <defs>
    <style>
      .cls-1, .cls-6 {
        fill: none;
      }

      .cls-1, .cls-2, .cls-4, .cls-5 {
        stroke: #572a99;
        stroke-miterlimit: 10;
      }

      .cls-1, .cls-4, .cls-5 {
        stroke-width: 4px;
      }

      .cls-2 {
        fill: #7d40dd;
        stroke-linecap: round;
        stroke-width: 2px;
      }

      .cls-3, .cls-5 {
        fill: #a171ff;
      }

      .cls-4, .cls-9 {
        fill: #fff;
      }

      .cls-7 {
        clip-path: url(#clip-path);
      }

      .cls-8 {
        fill: #572a99;
      }
    </style>
    <clipPath id="clip-path">
      <path class="cls-1" d="M106.108,116.268c-6.49-1.675-15.1-3.818-23.674-5.79a4.913,4.913,0,0,1-.921,2.207,16.906,16.906,0,0,1-28.482,0,4.913,4.913,0,0,1-.921-2.207c-9.885,2.273-18.5,4.433-25.579,6.287-10.153,2.658-13.861,3.825-17.346,7.185C3.493,129.438,2.288,137.024,2,141.3v33.53H24.439l-.373,10.355h86.413l-.373-10.355h22.439V141.3h0"/>
    </clipPath>
  </defs>
  <title>Busqueda</title>
  <g id="Capa_2" data-name="Capa 2">
    <g id="Capa_1-2" data-name="Capa 1">
      <g>
        <path class="cls-2" d="M10.517,90.152s23.33,17.687,57.187,17.687a90.437,90.437,0,0,0,38.438-8.367c.914-8.09,4.387-12.535,4.387-12.535s3.526-3.305,7.435-3.228a84.388,84.388,0,0,1-5.024-21.393C110.665,42.685,110.1,2,67.7,2s-47.8,31.865-49.79,58.325S10.517,90.152,10.517,90.152Z"/>
        <path class="cls-1" d="M117.814,83.326a88.94,88.94,0,0,1-4.873-21.009C110.665,42.685,110.1,2,67.7,2s-47.8,31.865-49.79,58.325-7.4,29.827-7.4,29.827,23.33,17.687,57.187,17.687a91.715,91.715,0,0,0,38.214-8.262"/>
        <path class="cls-3" d="M154.889,140.8s17.833-6.046,17.833-19.879V83.112s14.923.605,14.923,14.375v31.471s-1,11.844-16.378,11.844Z"/>
        <polyline class="cls-4" points="52.109 110.478 52.109 94.781 82.434 94.781 82.434 110.478"/>
        <path class="cls-5" d="M2,174.825H24.439a0,0,0,0,1,0,0V185.18a0,0,0,0,1,0,0H12.355A10.355,10.355,0,0,1,2,174.825v0A0,0,0,0,1,2,174.825Z"/>
        <path class="cls-5" d="M120.46,174.825h12.084a0,0,0,0,1,0,0V185.18a0,0,0,0,1,0,0H110.1a0,0,0,0,1,0,0v0A10.355,10.355,0,0,1,120.46,174.825Z" transform="translate(242.648 360.005) rotate(180)"/>
        <path class="cls-4" d="M34.647,43.372a46.436,46.436,0,0,0-3.8,7.829l-.129-.052a5.431,5.431,0,0,0-2.831-.4,9.985,9.985,0,0,0,0,19.97,8.648,8.648,0,0,0,1.406-.1l.327-.048a37.167,37.167,0,0,0,36.234,29.55,36.787,36.787,0,0,0,36.265-29.7l.1.025a8.234,8.234,0,0,0,2.346.276,9.985,9.985,0,1,0,0-19.97,8.456,8.456,0,0,0-3.534.641l-.085.035c-1.207-3.646-4.85-9.415-7.059-12.451"/>
        <path class="cls-6" d="M132.544,141.3c-.288-4.272-1.493-11.858-7.185-17.346-3.485-3.36-7.192-4.527-17.346-7.185-7.081-1.854-15.694-4.014-25.579-6.287a4.913,4.913,0,0,1-.921,2.207,16.906,16.906,0,0,1-28.482,0,4.913,4.913,0,0,1-.921-2.207c-9.885,2.273-18.5,4.433-25.579,6.287-10.153,2.658-13.861,3.825-17.346,7.185C3.493,129.438,2.288,137.024,2,141.3v33.53H24.439l-.373,10.355h86.413l-.373-10.355h22.439Z"/>
        <g>
          <g class="cls-7">
            <circle class="cls-1" cx="67.272" cy="103.082" r="26.296"/>
          </g>
          <path class="cls-1" d="M106.108,116.268c-6.49-1.675-15.1-3.818-23.674-5.79a4.913,4.913,0,0,1-.921,2.207,16.906,16.906,0,0,1-28.482,0,4.913,4.913,0,0,1-.921-2.207c-9.885,2.273-18.5,4.433-25.579,6.287-10.153,2.658-13.861,3.825-17.346,7.185C3.493,129.438,2.288,137.024,2,141.3v33.53H24.439l-.373,10.355h86.413l-.373-10.355h22.439V141.3h0"/>
        </g>
        <rect class="cls-1" x="105.917" y="83.112" width="81.728" height="57.691" rx="14.375" ry="14.375"/>
        <circle class="cls-8" cx="146.781" cy="111.957" r="19.045"/>
        <path class="cls-9" d="M146.179,120.673l-5.644,2.967a1.294,1.294,0,0,1-1.878-1.364l1.078-6.284a1.294,1.294,0,0,0-.372-1.146l-4.566-4.451a1.294,1.294,0,0,1,.717-2.208l6.31-.917a1.294,1.294,0,0,0,.975-.708l2.822-5.718a1.294,1.294,0,0,1,2.321,0l2.822,5.718a1.294,1.294,0,0,0,.975.708l6.31.917a1.294,1.294,0,0,1,.717,2.208l-4.566,4.451a1.294,1.294,0,0,0-.372,1.146l1.078,6.284a1.294,1.294,0,0,1-1.878,1.364l-5.644-2.967A1.294,1.294,0,0,0,146.179,120.673Z"/>
        <rect class="cls-2" x="141.419" y="140.803" width="10.601" height="44.377"/>
        <rect class="cls-1" x="141.419" y="140.803" width="10.601" height="44.377"/>
        <path class="cls-2" d="M97.252,25.175s2.39,26.3-31.3,26.3V38.327s-.528,11.989-30.836,11.989c0,0-2.287-16.183,3.24-25.142"/>
        <path class="cls-1" d="M97.252,25.21s2.39,26.3-31.3,26.3V38.362s-.528,11.989-30.836,11.989c0,0-2.287-16.183,3.24-25.142"/>
        <path class="cls-8" d="M65.965,89.093A14.435,14.435,0,0,0,80.4,74.658H51.53A14.435,14.435,0,0,0,65.965,89.093Z"/>
        <line class="cls-1" x1="24.065" y1="185.18" x2="26.389" y2="143.34"/>
        <line class="cls-1" x1="110.38" y1="185.18" x2="108.056" y2="143.34"/>
      </g>
    </g>
  </g>
</svg>
