<svg xmlns="http://www.w3.org/2000/svg" viewBox="0 0 164.026 164.026">
  <defs>
    <style>
      .cls-1, .cls-3 {
        fill: #7d40dd;
      }

      .cls-1, .cls-4 {
        stroke: #572a99;
        stroke-miterlimit: 10;
      }

      .cls-1 {
        stroke-linecap: round;
        stroke-width: 2px;
      }

      .cls-2 {
        fill: #a171ff;
      }

      .cls-4 {
        fill: none;
        stroke-width: 4px;
      }

      .cls-5 {
        fill: #572a99;
      }
    </style>
  </defs>
  <title>Pago</title>
  <g id="Capa_2" data-name="Capa 2">
    <g id="Capa_1-2" data-name="Capa 1">
      <g>
        <path class="cls-1" d="M155.775,53.258H8.36V20.436H17.9S15.526,41.381,28.254,41.381c14.022,0,8.647-20.945,8.647-20.945H73.276S68.589,41,82.013,41.381c12.883.367,8.514-20.945,8.514-20.945h36.667s-4.75,21,8.579,20.945c13.091-.054,8.921-20.945,8.921-20.945h11.082Z"/>
        <polygon class="cls-2" points="75.36 97.103 82.026 84.936 88.693 97.103 102.193 100.436 91.693 110.436 94.36 123.436 81.989 117.936 68.638 125.27 71.026 109.77 62.36 99.436 75.36 97.103"/>
        <polygon class="cls-3" points="72.86 114.77 81.989 111.103 86.776 112.936 86.026 107.853 94.276 98.77 101.693 100.52 92.86 110.103 94.276 123.02 81.989 117.936 70.11 123.02 72.86 114.77"/>
        <path class="cls-4" d="M151.4,14.5h-6.251V11.376a9.377,9.377,0,0,0-18.753,0V14.5H91.39V11.376a9.377,9.377,0,0,0-18.753,0V14.5H37.631V11.376a9.377,9.377,0,0,0-18.753,0V14.5H12.627A10.639,10.639,0,0,0,2,25.129V151.4a10.64,10.64,0,0,0,10.627,10.627H151.4A10.639,10.639,0,0,0,162.026,151.4V25.129A10.639,10.639,0,0,0,151.4,14.5Zm-18.753-3.125a3.126,3.126,0,0,1,6.251,0V32a3.126,3.126,0,0,1-6.251,0Zm-53.759,0a3.125,3.125,0,0,1,6.251,0V32a3.125,3.125,0,0,1-6.251,0Zm-53.759,0a3.126,3.126,0,0,1,6.251,0V32a3.126,3.126,0,0,1-6.251,0ZM155.775,151.4a4.381,4.381,0,0,1-4.376,4.375H12.627A4.381,4.381,0,0,1,8.251,151.4V59.51H155.775Zm0-98.141H8.251V25.129a4.381,4.381,0,0,1,4.376-4.376h6.251V32a9.377,9.377,0,0,0,18.753,0V20.753H72.637V32A9.377,9.377,0,0,0,91.39,32V20.753H126.4V32a9.377,9.377,0,0,0,18.753,0V20.753H151.4a4.381,4.381,0,0,1,4.376,4.376Z"/>
        <path class="cls-5" d="M95.364,110.772l9.742-9.5a2.46,2.46,0,0,0-1.362-4.2L90.28,95.124l-6.021-12.2a2.46,2.46,0,0,0-4.412,0l-6.02,12.2L60.362,97.08a2.46,2.46,0,0,0-1.363,4.2l9.743,9.5-2.3,13.41a2.46,2.46,0,0,0,3.569,2.592l12.042-6.331,12.042,6.331a2.46,2.46,0,0,0,3.569-2.592ZM91,108.152a2.46,2.46,0,0,0-.707,2.176l1.676,9.771L83.2,115.487a2.461,2.461,0,0,0-2.29,0L72.133,120.1l1.676-9.771a2.46,2.46,0,0,0-.707-2.176L66,101.232l9.811-1.426a2.461,2.461,0,0,0,1.852-1.345l4.388-8.89,4.387,8.89a2.461,2.461,0,0,0,1.852,1.345l9.811,1.426Z"/>
        <path class="cls-4" d="M81.964,131.321h-.021a3.127,3.127,0,0,0-3.1,3.146l.049,7.577a3.126,3.126,0,0,0,3.126,3.1h.02A3.126,3.126,0,0,0,85.139,142l-.049-7.576A3.126,3.126,0,0,0,81.964,131.321Z"/>
        <path class="cls-4" d="M117.465,114l-7.43-2.425a3.125,3.125,0,0,0-1.939,5.942l7.429,2.425a3.125,3.125,0,0,0,1.94-5.942Z"/>
        <path class="cls-4" d="M62.984,84.893a3.125,3.125,0,1,0,5.057-3.674L63.231,74.6a3.125,3.125,0,1,0-5.057,3.674Z"/>
        <path class="cls-4" d="M53.968,111.575,46.559,114a3.126,3.126,0,0,0,1.945,5.941l7.408-2.426a3.126,3.126,0,1,0-1.945-5.941Z"/>
        <path class="cls-4" d="M96.648,85.581a3.125,3.125,0,0,0,4.368-.681l4.832-6.621a3.126,3.126,0,0,0-5.05-3.686l-4.832,6.621A3.126,3.126,0,0,0,96.648,85.581Z"/>
      </g>
    </g>
  </g>
</svg>
