<svg xmlns="http://www.w3.org/2000/svg" viewBox="0 0 214.356 167.925">
  <defs>
    <style>
      .cls-1 {
        fill: #7d40dd;
      }

      .cls-2 {
        fill: #fff;
      }

      .cls-3 {
        fill: #a171ff;
      }

      .cls-4 {
        fill: #572a99;
      }
    </style>
  </defs>
  <title>Mascota</title>
  <g id="Capa_2" data-name="Capa 2">
    <g id="Capa_1-2" data-name="Capa 1">
      <g>
        <g>
          <path class="cls-1" d="M209.612,125.8c0-21.683-23.436-39.26-52.347-39.26s-52.347,17.578-52.347,39.26,23.437,39.26,52.347,39.26S209.612,147.479,209.612,125.8Z"/>
          <path class="cls-2" d="M198.4,97.987l-5.968,47.439H172.315V141.5a9.814,9.814,0,0,0-9.815-9.815H152.03a9.814,9.814,0,0,0-9.815,9.815v3.926H122.094l-5.967-47.439Z"/>
          <path class="cls-1" d="M132.277,141.5v3.926h9.938V141.5a9.814,9.814,0,0,1,9.815-9.815h-9.938A9.814,9.814,0,0,0,132.277,141.5Z"/>
          <path class="cls-3" d="M188.466,97.987,182.5,145.427h9.938L198.4,97.987Z"/>
          <path class="cls-2" d="M148.758,165.057H113.424a3.271,3.271,0,0,1-3.272-3.272v-6.543a9.814,9.814,0,0,1,9.815-9.815h22.247a9.814,9.814,0,0,1,9.815,9.815v6.543A3.271,3.271,0,0,1,148.758,165.057Z"/>
          <path class="cls-2" d="M201.105,165.057H165.771a3.271,3.271,0,0,1-3.272-3.272v-6.543a9.814,9.814,0,0,1,9.815-9.815h22.247a9.814,9.814,0,0,1,9.815,9.815v6.543A3.271,3.271,0,0,1,201.105,165.057Z"/>
          <path class="cls-3" d="M142.215,145.427H132.4a9.814,9.814,0,0,1,9.815,9.815v6.543a3.271,3.271,0,0,1-3.272,3.272h9.815a3.271,3.271,0,0,0,3.272-3.272v-6.543A9.814,9.814,0,0,0,142.215,145.427Z"/>
          <path class="cls-3" d="M194.562,145.427h-9.815a9.814,9.814,0,0,1,9.815,9.815v6.543a3.271,3.271,0,0,1-3.272,3.272h9.815a3.271,3.271,0,0,0,3.272-3.272v-6.543A9.814,9.814,0,0,0,194.562,145.427Z"/>
          <path class="cls-3" d="M126.838,67.888H114.406a11.778,11.778,0,0,1-11.778-11.778V14.232A11.778,11.778,0,0,1,114.406,2.454H136a2.617,2.617,0,0,1,2.617,2.617V56.109A11.778,11.778,0,0,1,126.838,67.888Z"/>
          <path class="cls-3" d="M187.692,67.888h12.432A11.778,11.778,0,0,0,211.9,56.109V14.232A11.778,11.778,0,0,0,200.124,2.454H178.531a2.617,2.617,0,0,0-2.617,2.617V56.109A11.778,11.778,0,0,0,187.692,67.888Z"/>
          <path class="cls-1" d="M136,2.454H126.17a2.617,2.617,0,0,1,2.617,2.617V56.109a11.778,11.778,0,0,1-11.778,11.778h9.829a11.778,11.778,0,0,0,11.778-11.778V5.071A2.617,2.617,0,0,0,136,2.454Z"/>
          <path class="cls-1" d="M200.124,2.454h-9.829a11.778,11.778,0,0,1,11.778,11.778V56.109a11.778,11.778,0,0,1-11.778,11.778h9.829A11.778,11.778,0,0,0,211.9,56.109V14.232A11.778,11.778,0,0,0,200.124,2.454Z"/>
          <path class="cls-2" d="M186.219,102.895H128.31a17.719,17.719,0,0,1-17.667-17.667V61.671A13.782,13.782,0,0,1,124.384,47.93h65.761a13.781,13.781,0,0,1,13.741,13.741V85.227A17.719,17.719,0,0,1,186.219,102.895Z"/>
          <path class="cls-3" d="M190.145,47.93h-9.828a13.782,13.782,0,0,1,13.741,13.741V85.227a17.719,17.719,0,0,1-17.667,17.667h9.828a17.719,17.719,0,0,0,17.667-17.667V61.671A13.781,13.781,0,0,0,190.145,47.93Z"/>
          <path class="cls-2" d="M189.982,47.93H124.548V23.72a13.087,13.087,0,0,1,13.087-13.087h39.26A13.087,13.087,0,0,1,189.982,23.72Z"/>
          <path class="cls-3" d="M176.895,10.633H167.08A13.087,13.087,0,0,1,180.167,23.72V47.93h9.815V23.72A13.087,13.087,0,0,0,176.895,10.633Z"/>
          <path class="cls-4" d="M144.832,29.609a4.921,4.921,0,1,0-9.815,0,4.921,4.921,0,1,0,9.815,0Z"/>
          <path class="cls-4" d="M179.512,29.609a4.921,4.921,0,1,0-9.815,0,4.921,4.921,0,1,0,9.815,0Z"/>
          <path class="cls-1" d="M162.172,65.27h-9.815a6.563,6.563,0,0,1-6.543-6.543V48.912a6.563,6.563,0,0,1,6.543-6.543h9.815a6.563,6.563,0,0,1,6.543,6.543v9.815A6.563,6.563,0,0,1,162.172,65.27Z"/>
          <path class="cls-4" d="M162.172,42.368h-9.815a6.563,6.563,0,0,1,6.543,6.543v9.815a6.563,6.563,0,0,1-6.543,6.543h9.815a6.563,6.563,0,0,0,6.543-6.543V48.912A6.563,6.563,0,0,0,162.172,42.368Z"/>
          <path class="cls-4" d="M206.34,85.227V68.916a14.224,14.224,0,0,0,8.016-12.807V14.232A14.248,14.248,0,0,0,200.124,0H178.531a5.077,5.077,0,0,0-5.071,5.071V8.179H141.07V5.071A5.077,5.077,0,0,0,136,0H114.406a14.249,14.249,0,0,0-14.232,14.232v6.652a2.454,2.454,0,0,0,4.908,0V14.232a9.335,9.335,0,0,1,9.324-9.324H136a.163.163,0,0,1,.164.164v3.18A15.561,15.561,0,0,0,122.094,23.72V45.641a16.218,16.218,0,0,0-13.9,16.03v1.39a9.324,9.324,0,0,1-3.108-6.952V31.353a2.454,2.454,0,0,0-4.908,0V56.109a14.226,14.226,0,0,0,8.016,12.807V85.227a20.213,20.213,0,0,0,5.607,13.9l.138,1.1c-7.406,7.272-11.47,16.307-11.47,25.57a32.645,32.645,0,0,0,.488,5.607,2.456,2.456,0,0,0,2.414,2.031,2.461,2.461,0,0,0,2.419-2.878,27.675,27.675,0,0,1-.414-4.759,29.657,29.657,0,0,1,7.361-19.221l4.582,36.415a12.171,12.171,0,0,0-5.079,1.408,34.039,34.039,0,0,1-3.213-4.789c-3.847-6.133-3.636-4.531-4.822-3.876s-1.917,2.326.525,6.246a39.111,39.111,0,0,0,3.718,5.536,12.211,12.211,0,0,0-2.745,7.724v6.543a5.732,5.732,0,0,0,5.725,5.725h35.334a5.7,5.7,0,0,0,1.845-.311c2.206.2,4.442.311,6.661.311s4.455-.107,6.661-.311a5.694,5.694,0,0,0,1.845.311h35.334a5.732,5.732,0,0,0,5.725-5.725v-6.543a12.209,12.209,0,0,0-2.746-7.724,34.508,34.508,0,0,0,7.981-21.721c0-9.263-4.064-18.3-11.47-25.57l.138-1.1A20.214,20.214,0,0,0,206.34,85.227ZM178.531,4.908h21.593a9.335,9.335,0,0,1,9.324,9.324V56.109a9.324,9.324,0,0,1-3.108,6.952v-1.39a16.216,16.216,0,0,0-13.9-16.03V23.72A15.56,15.56,0,0,0,178.367,8.251V5.071A.163.163,0,0,1,178.531,4.908ZM127,23.72a10.645,10.645,0,0,1,10.633-10.633h39.26A10.644,10.644,0,0,1,187.528,23.72V45.476H170.487a9.012,9.012,0,0,0-8.315-5.562h-9.815a9.009,9.009,0,0,0-8.313,5.562H127Zm25.356,39.1a4.094,4.094,0,0,1-4.09-4.09V48.912a4.094,4.094,0,0,1,4.09-4.09h9.815a4.093,4.093,0,0,1,4.09,4.09v9.815a4.093,4.093,0,0,1-4.09,4.09ZM113.1,61.671a11.3,11.3,0,0,1,11.287-11.287H143.36v8.343a9.007,9.007,0,0,0,9,9h2.454V79.175h-20.12a7.37,7.37,0,0,1-7.363-7.361,2.454,2.454,0,0,0-4.908,0,12.283,12.283,0,0,0,12.27,12.269h45.147a12.283,12.283,0,0,0,12.27-12.269,2.454,2.454,0,0,0-4.908,0,7.37,7.37,0,0,1-7.363,7.361h-20.12V67.724h2.454a9.007,9.007,0,0,0,9-9V50.384h18.976a11.3,11.3,0,0,1,11.287,11.287V85.227a15.26,15.26,0,0,1-15.213,15.213H178.2a2.454,2.454,0,0,0,0,4.908h8.016a19.968,19.968,0,0,0,9.058-2.167l-5.007,39.792h-15.5V141.5A12.282,12.282,0,0,0,162.5,129.232H152.03A12.283,12.283,0,0,0,139.761,141.5v1.472h-15.5l-5.006-39.791a19.975,19.975,0,0,0,9.057,2.166h39.424a2.454,2.454,0,0,0,0-4.908H128.31A15.262,15.262,0,0,1,113.1,85.227Zm-.491,100.114v-6.543a7.37,7.37,0,0,1,7.361-7.361h22.247a7.37,7.37,0,0,1,7.361,7.361v6.543a.817.817,0,0,1-.452.728l-.015.008a.8.8,0,0,1-.35.082H141.07v-4.744a2.454,2.454,0,1,0-4.908,0V162.6H126.02v-4.744a2.454,2.454,0,0,0-4.908,0V162.6h-7.688A.819.819,0,0,1,112.606,161.785Zm41.823.753a5.845,5.845,0,0,0,.055-.753v-6.543a12.289,12.289,0,0,0-9.815-12.022V141.5a7.37,7.37,0,0,1,7.361-7.361H162.5a7.37,7.37,0,0,1,7.361,7.361v1.719a12.291,12.291,0,0,0-9.815,12.022v6.543a5.845,5.845,0,0,0,.055.753C158.213,162.616,156.317,162.616,154.429,162.538Zm47.494-.753a.819.819,0,0,1-.818.818h-7.688v-4.744a2.454,2.454,0,0,0-4.908,0V162.6H178.367v-4.744a2.454,2.454,0,1,0-4.908,0V162.6h-7.688a.81.81,0,0,1-.35-.082l-.015-.008a.817.817,0,0,1-.452-.728v-6.543a7.37,7.37,0,0,1,7.361-7.361h22.247a7.37,7.37,0,0,1,7.361,7.361Zm5.235-35.989a29.665,29.665,0,0,1-6.869,18.6,12.164,12.164,0,0,0-5.074-1.406l4.582-36.417A29.66,29.66,0,0,1,207.158,125.8Z"/>
          <path class="cls-4" d="M147.286,29.609a7.362,7.362,0,1,0-7.361,7.494A7.436,7.436,0,0,0,147.286,29.609Zm-9.815,0c0-1.673,1.123-3.086,2.454-3.086s2.454,1.413,2.454,3.086-1.123,3.086-2.454,3.086S137.471,31.281,137.471,29.609Z"/>
          <path class="cls-4" d="M174.6,37.1a7.495,7.495,0,1,0-7.361-7.494A7.436,7.436,0,0,0,174.6,37.1Zm0-10.579c1.33,0,2.454,1.413,2.454,3.086s-1.123,3.086-2.454,3.086-2.454-1.413-2.454-3.086S173.274,26.523,174.6,26.523Z"/>
          <path class="cls-4" d="M136.162,57.418a2.454,2.454,0,1,1-2.454-2.454A2.454,2.454,0,0,1,136.162,57.418Z"/>
          <path class="cls-4" d="M136.162,67.56a2.454,2.454,0,1,1-2.454-2.454A2.454,2.454,0,0,1,136.162,67.56Z"/>
          <path class="cls-4" d="M183.275,57.418a2.454,2.454,0,1,1-2.454-2.454A2.454,2.454,0,0,1,183.275,57.418Z"/>
          <path class="cls-4" d="M183.275,67.56a2.454,2.454,0,1,1-2.454-2.454A2.454,2.454,0,0,1,183.275,67.56Z"/>
          <circle class="cls-2" cx="138.042" cy="28.081" r="2.42"/>
          <circle class="cls-2" cx="172.722" cy="28.081" r="2.42"/>
        </g>
        <g id="surface1">
          <path class="cls-3" d="M75.155,153.734a5.786,5.786,0,0,1,0-11.573c16.553,0,18.224-6.973,21.255-19.631,2.751-11.485,6.174-25.779,23.535-34.355a5.786,5.786,0,0,1,5.126,10.376c-12.5,6.173-14.881,16.131-17.406,26.675-1.621,6.768-3.3,13.766-7.868,19.222C94.561,150.7,86.5,153.734,75.155,153.734Z"/>
          <path class="cls-1" d="M94,131.336c-2.535,7.045-6.655,10.825-18.841,10.825a5.786,5.786,0,1,0,0,11.573c7.708,0,13.9-1.4,18.718-4.263A33.243,33.243,0,0,0,94,131.336Z"/>
          <path class="cls-2" d="M76.437,105.681H32.021c2.157,16.8-23.763,29.032-.461,56.661a9.771,9.771,0,0,0,7.477,3.447H69.421a9.771,9.771,0,0,0,7.477-3.447C100.2,134.713,74.28,122.48,76.437,105.681Z"/>
          <path class="cls-2" d="M76.437,32.293s8.524-9.481,24.073-7.854a5.425,5.425,0,0,1,4.757,4.223c1.394,6.42,2.88,20.35-5.939,33.559Z"/>
          <path class="cls-1" d="M92.11,57.4a34.471,34.471,0,0,0,5.119-24.465h-.215A20.589,20.589,0,0,0,82.892,38.1Z"/>
          <path class="cls-2" d="M32.021,32.293S23.5,22.812,7.948,24.439a5.425,5.425,0,0,0-4.757,4.223C1.8,35.082.311,49.012,9.131,62.221Z"/>
          <path class="cls-1" d="M16.348,57.4a34.471,34.471,0,0,1-5.119-24.465h.215A20.589,20.589,0,0,1,25.566,38.1Z"/>
          <path class="cls-1" d="M32.021,105.681c.5,3.892-.508,7.539-2.061,11.19a105.811,105.811,0,0,0,24.269,2.372A105.811,105.811,0,0,0,78.5,116.871c-1.553-3.651-2.561-7.3-2.061-11.19Z"/>
          <path class="cls-2" d="M54.229,110.7c24.377,0,47.063-5.089,47.063-32.239,0-35.222-24.477-51.74-47.063-51.74S7.166,43.238,7.166,78.461C7.166,105.609,29.852,110.7,54.229,110.7Z"/>
          <path class="cls-1" d="M78.525,82.185H72.842a2.136,2.136,0,0,1,0-4.272h5.682a2.136,2.136,0,1,1,0,4.272Z"/>
          <path class="cls-1" d="M35.616,82.185H29.933a2.136,2.136,0,1,1,0-4.272h5.682a2.136,2.136,0,0,1,0,4.272Z"/>
          <path class="cls-4" d="M75.7,76.053a2.136,2.136,0,0,0,2.136-2.136V69.747a2.136,2.136,0,0,0-4.272,0v4.171A2.136,2.136,0,0,0,75.7,76.053Z"/>
          <path class="cls-4" d="M32.791,76.053a2.136,2.136,0,0,0,2.136-2.136V69.747a2.136,2.136,0,0,0-4.272,0v4.171A2.135,2.135,0,0,0,32.791,76.053Z"/>
          <path class="cls-4" d="M54.246,81.95a7.212,7.212,0,0,0,5.445-2.428,2.136,2.136,0,1,0-3.216-2.811,3.051,3.051,0,0,1-4.459,0A2.136,2.136,0,1,0,48.8,79.522,7.21,7.21,0,0,0,54.246,81.95Z"/>
          <path class="cls-4" d="M5.047,78.461c0,13.19,5.221,22.672,15.517,28.183a43.464,43.464,0,0,0,9.249,3.58c-.611,3.687-2.444,7.358-4.372,11.213-2.807,5.614-5.988,11.978-5.77,19.55a46.749,46.749,0,0,0,1.912,9.244c.592,1.85.219-2.6.935-2.617,1.179-.033,1.457-5.572,1.424-6.751-.188-6.5,2.612-12.1,5.321-17.515,2.04-4.08,3.985-7.972,4.726-12.163A89.266,89.266,0,0,0,45.82,112.6a146.61,146.61,0,0,0,16.853,0,89.207,89.207,0,0,0,11.83-1.416c.741,4.192,2.688,8.083,4.728,12.163,2.531,5.059,5.147,10.29,5.323,16.246a21.773,21.773,0,0,1-.154,3.249c-.7,5.744-3.709,11.705-9.119,18.121a7.617,7.617,0,0,1-5.845,2.689H67.932c5.621-12.091,3.994-26.939,3.914-27.621a2.136,2.136,0,0,0-4.243.492c.019.162,1.752,15.919-4.458,27.129H56.382V136.278a2.136,2.136,0,1,0-4.272,0v27.375H45.346c-6.183-11.168-4.481-26.918-4.458-27.13a2.136,2.136,0,0,0-4.243-.491c-.079.682-1.708,15.53,3.914,27.621H39.054a7.615,7.615,0,0,1-5.844-2.689,43.829,43.829,0,0,1-7.637-12.258c-.217-.568-1.742-5.358-1.632-7.843.024-.529-.592,6.406-1.126,6.61a2.137,2.137,0,0,0-1.233,2.758,47.392,47.392,0,0,0,8.361,13.487,11.881,11.881,0,0,0,9.11,4.206H69.437a11.877,11.877,0,0,0,9.11-4.206,55.188,55.188,0,0,0,6.092-8.666c7.235-1.357,12.746-4.382,16.811-9.233,4.895-5.841,6.63-13.088,8.309-20.1a76.643,76.643,0,0,1,3.409-11.584,2.136,2.136,0,1,0-3.946-1.638,81.252,81.252,0,0,0-3.618,12.226c-1.563,6.528-3.18,13.278-7.428,18.347a22.182,22.182,0,0,1-11.222,7.05,28.815,28.815,0,0,0,1.579-5.976c.13-.868.222-1.742.267-2.62,6.117-3.525,7.715-10.192,9.7-18.5,1.336-5.579,2.851-11.9,6.079-17.73a36.28,36.28,0,0,1,16.324-15.208,3.651,3.651,0,0,1,3.233,6.547,30.171,30.171,0,0,0-10.395,8.105,2.136,2.136,0,0,0,3.322,2.685,26.03,26.03,0,0,1,8.965-6.962,8,8,0,0,0,3.624-10.549l-.03-.062a8,8,0,0,0-10.549-3.624l-.062.03a40.417,40.417,0,0,0-18.168,16.967c-3.511,6.336-5.1,12.961-6.5,18.807-1.64,6.846-2.764,11.53-5.8,14.395-.817-5.616-3.279-10.556-5.5-14.99-1.929-3.856-3.762-7.527-4.373-11.213a43.43,43.43,0,0,0,9.248-3.58c10.3-5.511,15.519-14.993,15.519-28.184A67.38,67.38,0,0,0,101.637,62.6c8.548-13.415,7.283-27.257,5.734-34.4a7.548,7.548,0,0,0-6.621-5.895,36.449,36.449,0,0,0-3.778-.2,31.5,31.5,0,0,0-20.913,7.594,49,49,0,0,0-43.625,0,31.51,31.51,0,0,0-20.914-7.594,36.428,36.428,0,0,0-3.777.2,7.547,7.547,0,0,0-6.621,5.895C-.43,35.348-1.693,49.19,6.855,62.6A67.383,67.383,0,0,0,5.047,78.461Zm8.076-43.326a19.693,19.693,0,0,1,8,2.374c-.323.3-.639.607-.952.918a47.525,47.525,0,0,0-6.36,7.8A34.308,34.308,0,0,1,13.123,35.135ZM94.684,46.226a47.379,47.379,0,0,0-7.18-8.591c-.044-.041-.088-.085-.132-.126a19.694,19.694,0,0,1,8-2.373A34.331,34.331,0,0,1,94.684,46.226Zm2.288-19.839a32.186,32.186,0,0,1,3.332.176,3.284,3.284,0,0,1,2.891,2.553c1.28,5.891,2.356,16.8-3.236,27.83-.09-.254-.645-1.639-.8-2.09q-.724-1.8-1.567-3.508a38.079,38.079,0,0,0,1.762-18.73A2.135,2.135,0,0,0,97.267,30.8h-.236a23.667,23.667,0,0,0-13.1,3.793,46.747,46.747,0,0,0-3.848-2.665A27.686,27.686,0,0,1,96.972,26.387ZM82.724,39.1c11.47,9.583,16.449,24.77,16.449,39.357,0,11.655-4.337,19.641-13.261,24.417-8.133,4.352-17.793,5.319-26.87,5.612-.073,0-9.518,0-9.591,0-9.08-.3-18.727-1.255-26.87-5.612C13.656,98.1,9.319,90.115,9.319,78.46c0-13.519,4.056-27.181,13.79-36.921A44.63,44.63,0,0,1,82.724,39.1ZM5.3,29.116a3.286,3.286,0,0,1,2.892-2.553,32.186,32.186,0,0,1,3.332-.176A27.848,27.848,0,0,1,28.4,31.934q-1.991,1.238-3.836,2.659A23.67,23.67,0,0,0,11.46,30.8h-.236a2.135,2.135,0,0,0-2.091,1.818A38.079,38.079,0,0,0,10.9,51.348q-.848,1.719-1.573,3.522c-.174.429-.7,1.813-.79,2.077C2.94,45.912,4.016,35.007,5.3,29.116Z"/>
        </g>
      </g>
    </g>
  </g>
</svg>
