<svg xmlns="http://www.w3.org/2000/svg" viewBox="0 0 32 30.643">
  <defs>
    <style>
      .cls-1 {
        fill: #038aef;
      }
    </style>
  </defs>
  <title>Estrella_1</title>
  <g id="Capa_2" data-name="Capa 2">
    <g id="Capa_1-2" data-name="Capa 1">
      <path class="cls-1" d="M15,26.936,8.43,30.393a2.138,2.138,0,0,1-3.1-2.254l1.256-7.322a2.138,2.138,0,0,0-.615-1.893L.648,13.739a2.138,2.138,0,0,1,1.185-3.648L9.185,9.023a2.138,2.138,0,0,0,1.61-1.17l3.288-6.661a2.138,2.138,0,0,1,3.835,0l3.288,6.661a2.138,2.138,0,0,0,1.61,1.17l7.351,1.068a2.138,2.138,0,0,1,1.185,3.648l-5.319,5.185a2.138,2.138,0,0,0-.615,1.893l1.256,7.322a2.138,2.138,0,0,1-3.1,2.254L17,26.936A2.138,2.138,0,0,0,15,26.936Z"/>
    </g>
  </g>
</svg>
