<svg xmlns="http://www.w3.org/2000/svg" viewBox="0 0 41.61 35.091">
  <defs>
    <style>
      .cls-1 {
        fill: none;
        stroke: #666;
        stroke-linecap: round;
        stroke-linejoin: round;
        stroke-width: 1.5px;
      }
    </style>
  </defs>
  <title>Mediano</title>
  <g id="Capa_2" data-name="Capa 2">
    <g id="Capa_1-2" data-name="Capa 1">
      <g>
        <path class="cls-1" d="M12.163,18.223s-2.207,7.656-5.824,9.534-3.053,3.429-3.053,3.429,1.785.376,1.785,1.127-1.362,1.127-2.583.939A2.8,2.8,0,0,1,.75,32.407l.7-5.307a4.24,4.24,0,0,0,2.4-3.194c.188-2.207,0-5.73,0-7.468s1.315-4.978,6.012-4.978H20.382S27.051,10.8,27.9,4.086"/>
        <path class="cls-1" d="M31.138,1.08s5.354-.141,5.354,3.006"/>
        <path class="cls-1" d="M30.057,8.266a7.473,7.473,0,0,0,3.992,1.268c2.254,0,6.528.094,6.81-5.448H34.284"/>
        <path class="cls-1" d="M26.347,2.7l3.992,3.076.8-4.955S27.967.187,26.347,2.7Z"/>
        <path class="cls-1" d="M24.938,19.068l.376,13.808a3.8,3.8,0,0,0,3.1,1.456c1.926-.141.986-2.207.564-2.4s-1.717-.658-1.717-.658,1.952-7.656,3.878-10S33.672,9.521,33.672,9.521"/>
        <path class="cls-1" d="M24.938,23.06a51.5,51.5,0,0,1-7.8-2.254c-2.63-1.174-5.893,0-5.893,0"/>
        <path class="cls-1" d="M6,12.505s-2.807-2.819.4-8.068c.6-.141,1.268.07,1.3.6S5.579,9.988,9.317,11.475"/>
      </g>
    </g>
  </g>
</svg>
