<svg xmlns="http://www.w3.org/2000/svg" viewBox="0 0 37.987 32.062">
  <defs>
    <style>
      .cls-1 {
        fill: #666;
      }
    </style>
  </defs>
  <title>Pequeño</title>
  <g id="Capa_2" data-name="Capa 2">
    <g id="Capa_1-2" data-name="Capa 1">
      <g>
        <path class="cls-1" d="M6.162,27.9a6.659,6.659,0,0,1-.469-3.964,6.52,6.52,0,0,1,2.883-4.49c3.162-1.976,6.367-3.883,9.555-5.817.454-.275.913-.542,1.507-.894a4.343,4.343,0,0,0-.6-.228,4.43,4.43,0,0,1-3.655-3.847,4.967,4.967,0,0,1,1.642-4.811c.909-.755,1.691-1.664,2.531-2.5A4.332,4.332,0,0,1,22.813,0c1.582.025,3.165.008,4.748.005a4.031,4.031,0,0,1,2.933,1.21c.582.572,1.156,1.152,1.737,1.725a4.224,4.224,0,0,0,3.085,1.221,11.3,11.3,0,0,1,1.407.033c.861.109,1.5.91,1.182,1.621C37.113,7.6,36.32,9.451,34.465,10.4a7.508,7.508,0,0,1-2.674.706c-1.25.117-2.519.029-3.888.029,0,.922-.017,1.825.017,2.726.006.15.223.3.363.435A6.9,6.9,0,0,1,27.7,25.214a1.246,1.246,0,0,0-.413.7c-.127.626-.18,1.266-.27,1.955l.9.3a3.934,3.934,0,0,1,2.1,1.676,1.378,1.378,0,0,1-1.181,2.2c-1.681.022-3.363.014-5.044,0a1.348,1.348,0,0,1-1.467-1.483c-.017-1.063,0-2.127-.006-3.19,0-.266-.023-.531-.034-.779-2.085-.417-2.929-.015-3.4,1.48a17.38,17.38,0,0,1,1.744,1.84,1.325,1.325,0,0,1-1.155,2.128q-8.717.022-17.433,0A2.072,2.072,0,1,1,2.108,27.9C3.417,27.89,4.726,27.9,6.162,27.9ZM23.713,1.425c0,2.293.007,4.517,0,6.741A4.051,4.051,0,0,1,21.5,12a.874.874,0,0,0-.576,1.026.816.816,0,0,1-.529.924c-1.1.606-2.191,1.243-3.27,1.892-2.561,1.541-5.145,3.046-7.659,4.661a5.521,5.521,0,0,0,2.452,10.1c1.769.148,3.556.072,5.335.091.7.007,1.408,0,2.2,0-.583-1.135-1.708-1.279-2.6-1.837A7.144,7.144,0,0,0,18.1,24.952a5.825,5.825,0,0,0-1.611-3.829l.97-.934a7.077,7.077,0,0,1,2.068,5.024l2.751-.191.09-1.259h1.363v6.875h5.088c-.762-1.368-2.134-1.258-3.353-1.537.142-1.172.32-2.269.394-3.373a2.09,2.09,0,0,1,1.017-1.713c2.786-1.988,3.354-5.7,1.008-7.97a4.389,4.389,0,0,1-1.411-3.966c.026-.269-.02-.546.009-.815a1.509,1.509,0,0,0-.475-1.243,9.777,9.777,0,0,1-.949-1.535l.248-.279c.467.159,1.1.182,1.365.506a2.572,2.572,0,0,0,2.088,1.061c.717.006,1.438-.043,2.151.01a4.511,4.511,0,0,0,4.935-3.135c-.116-.09-.37-.19-.452-.368-.31-.675-.927-.717-1.524-.928a9.366,9.366,0,0,1-2.336-1.2c-.694-.5-1.209-1.242-1.884-1.776a3.7,3.7,0,0,0-1.719-.9C26.57,1.333,25.184,1.425,23.713,1.425Zm-1.446-.157a12.323,12.323,0,0,0-1.7,1.066c-.864.771-1.59,1.7-2.487,2.426A3.815,3.815,0,0,0,16.76,8.531a2.757,2.757,0,0,0,1.794,2.422,2.672,2.672,0,0,0,2.883-.591,3.105,3.105,0,0,0,.89-2.5c0-1.9,0-3.8,0-5.7C22.324,1.953,22.3,1.737,22.266,1.267ZM8.136,30.693l.092-.159a11.5,11.5,0,0,0-.958-.893,1.587,1.587,0,0,0-.822-.364c-1.379-.037-2.759-.017-4.139-.016-.465,0-.858.137-.883.674-.026.587.387.753.879.755C4.249,30.7,6.192,30.693,8.136,30.693Z"/>
        <path class="cls-1" d="M28.969,5.542A1.02,1.02,0,1,1,28.9,3.5a1.02,1.02,0,1,1,.065,2.039Z"/>
      </g>
    </g>
  </g>
</svg>
