<svg xmlns="http://www.w3.org/2000/svg" viewBox="0 0 112.023 87.352">
  <defs>
    <style>
      .cls-1 {
        fill: #7d40dd;
      }

      .cls-1, .cls-2, .cls-3 {
        stroke: #572a99;
        stroke-linecap: round;
        stroke-width: 4px;
      }

      .cls-1, .cls-2 {
        stroke-miterlimit: 10;
      }

      .cls-2, .cls-3 {
        fill: none;
      }

      .cls-3 {
        stroke-linejoin: round;
      }
    </style>
  </defs>
  <title>Servicios - Ambulancia</title>
  <g id="Capa_2" data-name="Capa 2">
    <g id="Capa_1-2" data-name="Capa 1">
      <g>
        <path class="cls-1" d="M66.367,8.5H83.759a12.62,12.62,0,0,1,11,6.432l11.76,20.9H66.367Z"/>
        <path class="cls-2" d="M2,8.5V64.844a6.5,6.5,0,0,0,6.5,6.5h95.028a6.5,6.5,0,0,0,6.5-6.5V41.595a6.5,6.5,0,0,0-6.5-6.5H72.865a6.5,6.5,0,0,1-6.5-6.5V8.5a6.5,6.5,0,0,0-6.5-6.5H8.5A6.5,6.5,0,0,0,2,8.5Z"/>
        <circle class="cls-1" cx="30.579" cy="71.342" r="14.01"/>
        <circle class="cls-1" cx="83.575" cy="71.342" r="14.01"/>
        <line class="cls-3" x1="33.146" y1="16.586" x2="33.146" y2="38.955"/>
        <line class="cls-3" x1="44.33" y1="27.771" x2="21.961" y2="27.771"/>
      </g>
    </g>
  </g>
</svg>
