<svg xmlns="http://www.w3.org/2000/svg" viewBox="0 0 88.977 88.824">
  <defs>
    <style>
      .cls-1 {
        fill: none;
      }

      .cls-1, .cls-2 {
        stroke: #572a99;
        stroke-linecap: round;
        stroke-miterlimit: 10;
        stroke-width: 4px;
      }

      .cls-2 {
        fill: #7d40dd;
      }
    </style>
  </defs>
  <title>Servicios - Kmivet inn</title>
  <g id="Capa_2" data-name="Capa 2">
    <g id="Capa_1-2" data-name="Capa 1">
      <g>
        <path class="cls-1" d="M27.432,21.8H61.545a8.528,8.528,0,0,1,8.528,8.528v56.5a0,0,0,0,1,0,0H18.9a0,0,0,0,1,0,0v-56.5A8.528,8.528,0,0,1,27.432,21.8Z"/>
        <path class="cls-2" d="M53.093,11.594H49.361V7.863A5.863,5.863,0,0,0,43.5,2h0a5.863,5.863,0,0,0-5.863,5.863v3.731H33.9a5.863,5.863,0,0,0-5.863,5.863h0A5.863,5.863,0,0,0,33.9,23.32h3.731v3.731A5.863,5.863,0,0,0,43.5,32.914h0a5.863,5.863,0,0,0,5.863-5.863V23.32h3.731a5.863,5.863,0,0,0,5.863-5.863h0A5.863,5.863,0,0,0,53.093,11.594Z"/>
        <path class="cls-2" d="M35.2,65.656H51.341a4.873,4.873,0,0,1,4.873,4.873V86.824a0,0,0,0,1,0,0H30.326a0,0,0,0,1,0,0V70.529A4.873,4.873,0,0,1,35.2,65.656Z"/>
        <line class="cls-1" x1="28.498" y1="54.311" x2="58.042" y2="54.311"/>
        <line class="cls-1" x1="28.498" y1="42.661" x2="58.042" y2="42.661"/>
        <path class="cls-1" d="M10.071,54.311H8.092A6.092,6.092,0,0,0,2,60.4V86.824H18.9"/>
        <path class="cls-1" d="M78.905,54.311h1.98A6.092,6.092,0,0,1,86.977,60.4V86.824h-16.9"/>
      </g>
    </g>
  </g>
</svg>
