<svg xmlns="http://www.w3.org/2000/svg" xmlns:xlink="http://www.w3.org/1999/xlink" viewBox="0 0 47.117 35.565">
  <defs>
    <style>
      .cls-1 {
        fill: #fff;
      }

      .cls-2 {
        mask: url(#mask);
      }

      .cls-3 {
        fill: #666;
      }
    </style>
    <mask id="mask" x="0" y="0" width="47.127" height="35.565" maskUnits="userSpaceOnUse">
      <g id="mask1_outline" data-name="mask1 outline">
        <g id="Clip_2" data-name="Clip 2">
          <path id="path2_fill" data-name="path2 fill" class="cls-1" d="M.017,0V35.565h47.11V0Z"/>
        </g>
      </g>
    </mask>
  </defs>
  <title>Gigante</title>
  <g id="Capa_2" data-name="Capa 2">
    <g id="Capa_1-2" data-name="Capa 1">
      <g id="_007-dog-17" data-name="007-dog-17">
        <g class="cls-2">
          <g id="Fill_1" data-name="Fill 1">
            <path id="path3_fill" data-name="path3 fill" class="cls-3" d="M47.077,4a.707.707,0,0,0-.439-.426l-3.5-1.205-.588-1a1.375,1.375,0,0,0-.92-.646L38.271.045a2.21,2.21,0,0,0-2.264.9L31.1,8.071a2.26,2.26,0,0,1-1.523.94,70.056,70.056,0,0,1-11.232.848,17.418,17.418,0,0,0-5.919.874,15.256,15.256,0,0,0-1.644.652c-.949-.053-6.531-.21-7.371,3.314-.784,3.288,1.682,6.622,2.1,7.158,0,.035,0,.071,0,.106-.059,2.031-.068,2.343-1.543,3.172C1.126,26.732.4,27.63.329,27.727a.674.674,0,0,0-.137.387L0,34.853a.677.677,0,0,0,.2.5.738.738,0,0,0,.518.209H3.754a.732.732,0,0,0,.586-.287.67.67,0,0,0,.1-.624l-.075-.215a2.354,2.354,0,0,0-1.228-1.346c.064-1.418.5-4.067,2.086-4.8a25.5,25.5,0,0,0,2.687-1.439,4.929,4.929,0,0,1,.082,1.92.7.7,0,0,0,.593.8.82.82,0,0,0,.12.009A.714.714,0,0,0,9.415,29a6.547,6.547,0,0,0-.239-2.995c.209-.151.416-.308.621-.47a9.928,9.928,0,0,0,3.5-4.589c.136-.426.5-1.441.566-1.559a2.63,2.63,0,0,1,1.422-1.206,2.8,2.8,0,0,1,2.066.07l7.119,3.151a14.752,14.752,0,0,0,5.711,1.247,20.318,20.318,0,0,1,.237,8.189,2.4,2.4,0,0,0,.224,1.582L31.985,35a.725.725,0,0,0,.646.383h2.888a.728.728,0,0,0,.626-.347.669.669,0,0,0,0-.694l-.283-.465a2.287,2.287,0,0,0-1.218-.964l-.416-1.262.586-9.482a3.411,3.411,0,0,1,.57-1.7,9.844,9.844,0,0,0,1.532-5.831c-.076-3.361,2.25-7.156,2.983-8.266l3.89.216A3.161,3.161,0,0,0,46.6,5.2l.4-.609A.667.667,0,0,0,47.077,4ZM4.819,15.008c.335-1.405,2.078-1.943,3.6-2.141a6.867,6.867,0,0,0-2.488,4.27c-.133.853-.22,1.6-.28,2.269A6.612,6.612,0,0,1,4.819,15.008Zm39.052-9.8-4.308-.24a1.421,1.421,0,0,1-1-.484l-.722-.839a.743.743,0,0,0-1.016-.093.673.673,0,0,0-.1.975l.723.838a2.823,2.823,0,0,0,.936.709c-.993,1.577-3,5.194-2.919,8.6a8.6,8.6,0,0,1-1.3,5.049,4.759,4.759,0,0,0-.8,2.365l-.594,9.609a.661.661,0,0,0,.032.25l.578,1.754a.686.686,0,0,0,.2.3h-.507l-1.141-2.189a1.061,1.061,0,0,1-.1-.7,22.986,22.986,0,0,0-2.012-13.963.735.735,0,0,0-.952-.353.682.682,0,0,0-.368.913,24.848,24.848,0,0,1,1.323,3.554,13.266,13.266,0,0,1-4.751-1.109L17.958,17a4.3,4.3,0,0,0-3.181-.109c.253-.6.407-.916.41-.924a.68.68,0,0,0-.343-.922.736.736,0,0,0-.962.329,40.662,40.662,0,0,0-1.963,5.172c-.351,1.1-1.765,3.936-7.323,6.5-2.982,1.377-2.916,6.336-2.911,6.546a.689.689,0,0,0,.361.587H1.464l.165-5.772A15.8,15.8,0,0,1,4.7,26.331C6.862,25.113,6.89,24.138,6.953,22a34.266,34.266,0,0,1,.4-4.661c.376-2.416,2.241-4.2,5.544-5.3a15.936,15.936,0,0,1,5.412-.8A71.526,71.526,0,0,0,29.8,10.38a3.711,3.711,0,0,0,2.5-1.545L37.212,1.7a.743.743,0,0,1,.706-.309l-.137.142a.673.673,0,0,0,.039.979.744.744,0,0,0,1.02-.038l.732-.758,1.736.347.2.34a.688.688,0,0,0-.419.722.713.713,0,0,0,.715.6.816.816,0,0,0,.1-.006l.665-.085,2.735.942A1.708,1.708,0,0,1,43.871,5.207Z"/>
          </g>
        </g>
      </g>
    </g>
  </g>
</svg>
