<svg xmlns="http://www.w3.org/2000/svg" viewBox="0 0 44.031 37.119">
  <defs>
    <style>
      .cls-1 {
        fill: none;
        stroke: #666;
        stroke-linecap: round;
        stroke-linejoin: round;
        stroke-width: 1.5px;
      }
    </style>
  </defs>
  <title>Mediano</title>
  <g id="Capa_2" data-name="Capa 2">
    <g id="Capa_1-2" data-name="Capa 1">
      <g>
        <path class="cls-1" d="M12.852,19.277S10.511,27.4,6.676,29.387s-3.237,3.636-3.237,3.636,1.892.4,1.892,1.2-1.444,1.2-2.739,1a2.966,2.966,0,0,1-1.843-.9L1.5,28.69A4.5,4.5,0,0,0,4.037,25.3c.2-2.341,0-6.076,0-7.919s1.394-5.279,6.375-5.279H21.567s7.072-.7,7.968-7.819"/>
        <path class="cls-1" d="M32.972,1.1S38.65.95,38.65,4.287"/>
        <path class="cls-1" d="M31.827,8.719a7.924,7.924,0,0,0,4.233,1.345c2.391,0,6.923.1,7.221-5.777H36.309"/>
        <path class="cls-1" d="M27.892,2.818,32.126,6.08,32.972.826S29.611.153,27.892,2.818Z"/>
        <path class="cls-1" d="M26.4,20.174l.4,14.642a4.03,4.03,0,0,0,3.287,1.544c2.042-.149,1.046-2.341.6-2.54s-1.821-.7-1.821-.7S30.93,25,32.972,22.515,35.66,10.051,35.66,10.051"/>
        <path class="cls-1" d="M26.4,24.407a54.608,54.608,0,0,1-8.267-2.391c-2.789-1.245-6.248,0-6.248,0"/>
        <path class="cls-1" d="M6.317,13.215S3.34,10.226,6.739,4.66c.635-.149,1.345.075,1.382.635S5.87,10.546,9.834,12.123"/>
      </g>
    </g>
  </g>
</svg>
