<svg xmlns="http://www.w3.org/2000/svg" viewBox="0 0 40.281 33.998">
  <defs>
    <style>
      .cls-1 {
        fill: #666;
      }
    </style>
  </defs>
  <title>Pequeño</title>
  <g id="Capa_2" data-name="Capa 2">
    <g id="Capa_1-2" data-name="Capa 1">
      <g>
        <path class="cls-1" d="M6.534,29.585a7.061,7.061,0,0,1-.5-4.2A6.913,6.913,0,0,1,9.094,20.62c3.353-2.1,6.752-4.118,10.132-6.169.481-.292.968-.575,1.6-.948a4.605,4.605,0,0,0-.635-.242,4.7,4.7,0,0,1-3.875-4.079,5.267,5.267,0,0,1,1.741-5.1c.964-.8,1.793-1.764,2.684-2.654A4.593,4.593,0,0,1,24.19,0c1.678.027,3.356.008,5.034.006a4.275,4.275,0,0,1,3.11,1.284c.617.606,1.225,1.222,1.842,1.829a4.479,4.479,0,0,0,3.271,1.295,11.977,11.977,0,0,1,1.492.035c.913.116,1.588.965,1.253,1.719-.84,1.89-1.681,3.854-3.648,4.86a7.961,7.961,0,0,1-2.835.748c-1.325.124-2.671.031-4.123.031,0,.978-.018,1.935.018,2.89.006.159.236.323.385.461a7.317,7.317,0,0,1-.616,11.578,1.322,1.322,0,0,0-.438.743c-.135.663-.191,1.343-.286,2.073l.958.32a4.171,4.171,0,0,1,2.23,1.777,1.462,1.462,0,0,1-1.253,2.334c-1.783.023-3.566.015-5.349,0a1.429,1.429,0,0,1-1.556-1.572c-.018-1.127,0-2.255-.007-3.382,0-.282-.024-.563-.036-.826-2.211-.442-3.106-.016-3.608,1.57a18.429,18.429,0,0,1,1.85,1.952,1.405,1.405,0,0,1-1.225,2.256q-9.243.023-18.486,0a2.2,2.2,0,1,1,.068-4.394C3.623,29.573,5.011,29.585,6.534,29.585ZM25.144,1.511c0,2.432.007,4.79,0,7.148A4.3,4.3,0,0,1,22.8,12.721a.927.927,0,0,0-.611,1.088.865.865,0,0,1-.56.98c-1.17.642-2.323,1.318-3.467,2.006-2.715,1.634-5.456,3.23-8.121,4.942a5.855,5.855,0,0,0,2.6,10.713c1.875.157,3.771.077,5.658.1.747.008,1.493,0,2.336,0-.618-1.2-1.811-1.356-2.762-1.947a7.575,7.575,0,0,0,1.33-4.142,6.177,6.177,0,0,0-1.708-4.06l1.028-.99a7.5,7.5,0,0,1,2.193,5.328l2.917-.2.095-1.335h1.445v7.29h5.395c-.808-1.451-2.263-1.334-3.556-1.63.151-1.243.34-2.406.418-3.577A2.216,2.216,0,0,1,28.5,25.465c2.954-2.108,3.557-6.041,1.068-8.451a4.654,4.654,0,0,1-1.5-4.206c.028-.286-.021-.579.009-.864a1.6,1.6,0,0,0-.5-1.318A10.367,10.367,0,0,1,26.576,9l.263-.3c.495.169,1.167.193,1.448.537A2.727,2.727,0,0,0,30.5,10.363c.76.007,1.524-.046,2.281.01A4.784,4.784,0,0,0,38.014,7.05c-.123-.1-.392-.2-.479-.39-.329-.715-.983-.761-1.616-.984A9.932,9.932,0,0,1,33.441,4.4c-.736-.53-1.282-1.317-2-1.883a3.919,3.919,0,0,0-1.823-.959C28.175,1.413,26.7,1.511,25.144,1.511Zm-1.533-.167a13.067,13.067,0,0,0-1.8,1.13c-.916.817-1.686,1.806-2.638,2.573a4.045,4.045,0,0,0-1.4,4,2.923,2.923,0,0,0,1.9,2.568,2.833,2.833,0,0,0,3.058-.627,3.293,3.293,0,0,0,.944-2.646c0-2.014,0-4.028,0-6.042C23.672,2.071,23.644,1.842,23.611,1.344ZM8.627,32.547l.1-.169a12.19,12.19,0,0,0-1.016-.947,1.682,1.682,0,0,0-.871-.386c-1.462-.039-2.925-.018-4.388-.017-.493,0-.91.146-.936.715-.028.622.41.8.932.8C4.506,32.551,6.566,32.547,8.627,32.547Z"/>
        <path class="cls-1" d="M30.718,5.877a1.082,1.082,0,1,1-.069-2.162,1.082,1.082,0,1,1,.069,2.162Z"/>
      </g>
    </g>
  </g>
</svg>
