<svg xmlns="http://www.w3.org/2000/svg" viewBox="0 0 34.999 33.703">
  <defs>
    <style>
      .cls-1 {
        fill: #4d4d4d;
      }
    </style>
  </defs>
  <title>Ver mapa</title>
  <g id="Capa_2" data-name="Capa 2">
    <g id="Capa_1-2" data-name="Capa 1">
      <g>
        <path class="cls-1" d="M34.686.093a.647.647,0,0,0-.637-.017L23.333,5.748,12.618.075c-.008,0-.018-.006-.027-.01A.651.651,0,0,0,12.5.03c-.018-.005-.036-.011-.054-.015A.674.674,0,0,0,12.333,0c-.016,0-.032,0-.049,0a.627.627,0,0,0-.1.016.57.57,0,0,0-.058.012l-.013,0L.443,3.922A.648.648,0,0,0,0,4.537v27.87a.648.648,0,0,0,.648.648.637.637,0,0,0,.2-.034L12.29,29.209l10.8,4.446c.009,0,.019,0,.029.006a.588.588,0,0,0,.391.017c.018-.005.035-.014.053-.02a.663.663,0,0,0,.078-.03l11.018-5.833A.649.649,0,0,0,35,27.222V.648A.649.649,0,0,0,34.686.093ZM1.3,5l10.37-3.456V19.042c-.279.051-.554.108-.819.178a.648.648,0,0,0,.166,1.275.675.675,0,0,0,.167-.021c.156-.041.325-.062.487-.1v7.674L1.3,31.507ZM12.963,20.2c.208-.016.41-.043.623-.047a.648.648,0,0,0-.014-1.3h-.014c-.2,0-.4.016-.595.029V1.725l9.722,5.147V20.608a9.691,9.691,0,0,1-1.427-.17.648.648,0,1,0-.246,1.272,11.012,11.012,0,0,0,1.673.187V32.087l-9.723-4ZM33.7,26.831l-9.722,5.147V21.828a.637.637,0,0,0,0-1.167V6.872L33.7,1.725Z"/>
        <path class="cls-1" d="M7.129,5.185A3.241,3.241,0,0,0,6.481,11.6v1.362a.648.648,0,1,0,1.3,0V11.6a3.241,3.241,0,0,0-.648-6.416Zm0,5.185A1.944,1.944,0,1,1,9.074,8.426,1.947,1.947,0,0,1,7.129,10.37Z"/>
        <path class="cls-1" d="M29.211,17.288a.65.65,0,0,0,.84-.368,14.515,14.515,0,0,0,.728-2.608.648.648,0,1,0-1.274-.238,13.2,13.2,0,0,1-.66,2.374A.649.649,0,0,0,29.211,17.288Z"/>
        <path class="cls-1" d="M8.3,20.314a8.989,8.989,0,0,0-2.1,1.828.648.648,0,0,0,.991.835,7.67,7.67,0,0,1,1.794-1.565.648.648,0,0,0-.688-1.1Z"/>
        <path class="cls-1" d="M5.591,24.16a.648.648,0,0,0-.86.317,10.344,10.344,0,0,0-.837,2.657.647.647,0,0,0,.554.729.6.6,0,0,0,.089.006.65.65,0,0,0,.642-.558,9.158,9.158,0,0,1,.729-2.291A.649.649,0,0,0,5.591,24.16Z"/>
        <path class="cls-1" d="M26.2,21.213a.647.647,0,0,0,.294-.071,6.753,6.753,0,0,0,2.193-1.806.648.648,0,1,0-1.011-.811A5.453,5.453,0,0,1,25.9,19.988a.648.648,0,0,0,.3,1.225Z"/>
        <path class="cls-1" d="M18.906,19.724c-.286-.12-.453-.2-.464-.209a.645.645,0,0,0-.133-.051c-.7-.18-1.393-.323-2.057-.424a.648.648,0,1,0-.2,1.281c.6.092,1.227.22,1.865.382.087.041.253.12.485.216a.649.649,0,0,0,.5-1.2Z"/>
        <path class="cls-1" d="M30.412,12.27h.042a.648.648,0,0,0,.646-.607c.04-.623.06-1.282.06-1.957,0-.225,0-.453-.006-.686a.667.667,0,0,0-.66-.636.648.648,0,0,0-.636.66c0,.225.006.446.006.662,0,.648-.019,1.279-.058,1.875A.649.649,0,0,0,30.412,12.27Z"/>
        <path class="cls-1" d="M5.375,17.958a.648.648,0,0,0,.916,0l.838-.838.838.838a.648.648,0,1,0,.916-.916L8.046,16.2l.838-.838a.648.648,0,0,0-.916-.916l-.838.838-.838-.838a.648.648,0,0,0-.916.916l.838.838-.838.838A.647.647,0,0,0,5.375,17.958Z"/>
      </g>
    </g>
  </g>
</svg>
