<svg xmlns="http://www.w3.org/2000/svg" viewBox="0 0 21.463 18.863">
  <defs>
    <style>
      .cls-1 {
        fill: #fff;
      }
    </style>
  </defs>
  <title>Descargar</title>
  <g id="Capa_2" data-name="Capa 2">
    <g id="Capa_1-2" data-name="Capa 1">
      <g>
        <path class="cls-1" d="M20.917,12.951a.546.546,0,0,0-.546.546v2.088a2.188,2.188,0,0,1-2.186,2.186H3.278a2.188,2.188,0,0,1-2.186-2.186V13.5A.546.546,0,0,0,0,13.5v2.088a3.282,3.282,0,0,0,3.278,3.278H18.185a3.282,3.282,0,0,0,3.278-3.278V13.5A.546.546,0,0,0,20.917,12.951Z"/>
        <path class="cls-1" d="M17.6,15.1H3.864a.546.546,0,1,0,0,1.093H17.6a.546.546,0,0,0,0-1.093Z"/>
        <path class="cls-1" d="M16.262,7.416a.546.546,0,0,0-.772-.044l-4.212,3.763V.546a.546.546,0,1,0-1.093,0V11.136L5.973,7.373a.546.546,0,0,0-.728.815l4.577,4.088a1.365,1.365,0,0,0,1.82,0l4.577-4.089A.546.546,0,0,0,16.262,7.416Z"/>
      </g>
    </g>
  </g>
</svg>
