<svg xmlns="http://www.w3.org/2000/svg" viewBox="0 0 14.884 19.44">
  <defs>
    <style>
      .cls-1 {
        fill: #4d4d4d;
      }
    </style>
  </defs>
  <title>Factura</title>
  <g id="Capa_2" data-name="Capa 2">
    <g id="Capa_1-2" data-name="Capa 1">
      <g>
        <path class="cls-1" d="M14.719,3.624,11.3.169A.576.576,0,0,0,10.9,0H.57A.57.57,0,0,0,0,.57v18.3a.57.57,0,0,0,.57.57H14.314a.57.57,0,0,0,.57-.57V4.025A.574.574,0,0,0,14.719,3.624ZM11.467,1.955l1.483,1.5H11.467ZM13.745,18.3H1.139V1.139h9.188V4.025a.57.57,0,0,0,.57.57h2.848Z"/>
        <path class="cls-1" d="M12.036,5.733H8.543a.57.57,0,1,0,0,1.139h3.493a.57.57,0,0,0,0-1.139Z"/>
        <path class="cls-1" d="M12.036,10.289H8.543a.57.57,0,1,0,0,1.139h3.493a.57.57,0,0,0,0-1.139Z"/>
        <path class="cls-1" d="M12.036,14.846H8.543a.57.57,0,1,0,0,1.139h3.493a.57.57,0,0,0,0-1.139Z"/>
        <path class="cls-1" d="M6.668,3.622a.569.569,0,0,0-.805,0L3.987,5.5,3.25,4.761a.57.57,0,0,0-.805.805L3.584,6.706a.57.57,0,0,0,.805,0L6.668,4.427A.57.57,0,0,0,6.668,3.622Z"/>
        <path class="cls-1" d="M6.668,8.178a.569.569,0,0,0-.805,0L3.987,10.054,3.25,9.317a.57.57,0,0,0-.805.805l1.139,1.139a.57.57,0,0,0,.805,0L6.668,8.984A.57.57,0,0,0,6.668,8.178Z"/>
        <path class="cls-1" d="M6.668,12.734a.569.569,0,0,0-.805,0L3.987,14.61l-.736-.736a.57.57,0,0,0-.805.805l1.139,1.139a.57.57,0,0,0,.805,0L6.668,13.54A.57.57,0,0,0,6.668,12.734Z"/>
      </g>
    </g>
  </g>
</svg>
