<svg xmlns="http://www.w3.org/2000/svg" viewBox="0 0 18.788 26.84">
  <defs>
    <style>
      .cls-1 {
        fill: #666;
      }
    </style>
  </defs>
  <title>Facturación</title>
  <g id="Capa_2" data-name="Capa 2">
    <g id="Capa_1-2" data-name="Capa 1">
      <g>
        <path class="cls-1" d="M11.183,0H2.237A2.239,2.239,0,0,0,0,2.237v16.1a2.239,2.239,0,0,0,2.237,2.237h8.052v-.895H2.237A1.344,1.344,0,0,1,.895,18.34V2.237A1.344,1.344,0,0,1,2.237.895h8.947a1.344,1.344,0,0,1,1.342,1.342V15.209h.895V2.237A2.239,2.239,0,0,0,11.183,0Z"/>
        <path class="cls-1" d="M17.71,11.915,13.322,6.431l-.7.559,4.388,5.484a4.037,4.037,0,0,1,.882,2.516V25.945H11.349a4.2,4.2,0,0,1-4.191-4.191V20.13H6.263v1.624a5.092,5.092,0,0,0,5.086,5.086H18.34a.447.447,0,0,0,.447-.447V14.99A4.939,4.939,0,0,0,17.71,11.915Z"/>
        <path class="cls-1" d="M7.6,10.549a1.168,1.168,0,0,1,.821.368L14.436,17.3l.652-.613L9.075,10.3a2.057,2.057,0,0,0-1.447-.648,2.031,2.031,0,0,0-1.476.56l-.045.044a2.065,2.065,0,0,0-.119,2.8l3.853,4.549v1.384a5.985,5.985,0,0,0,3.869,5.581l.314-.838a5.087,5.087,0,0,1-3.288-4.743V17.446a.449.449,0,0,0-.106-.289L6.672,12.483a1.181,1.181,0,0,1,.089-1.613A1.2,1.2,0,0,1,7.6,10.549Z"/>
        <rect class="cls-1" x="9.841" y="0.895" width="0.895" height="11.183"/>
        <rect class="cls-1" x="7.605" y="14.762" width="0.895" height="5.368"/>
        <rect class="cls-1" x="7.605" y="0.447" width="0.895" height="9.841"/>
        <rect class="cls-1" x="2.237" y="2.237" width="0.895" height="5.815"/>
        <rect class="cls-1" x="4.473" y="2.237" width="0.895" height="3.579"/>
        <path class="cls-1" d="M5.368,14.762H2.684a.447.447,0,0,0-.447.447v2.684a.447.447,0,0,0,.447.447H5.368a.447.447,0,0,0,.447-.447V15.209A.447.447,0,0,0,5.368,14.762Zm-.447,2.684H3.131V15.656H4.921Z"/>
      </g>
    </g>
  </g>
</svg>
