<svg xmlns="http://www.w3.org/2000/svg" viewBox="0 0 25.432 22.432">
  <defs>
    <style>
      .cls-1 {
        fill: none;
        stroke: #666;
        stroke-linejoin: round;
        stroke-width: 2px;
      }
    </style>
  </defs>
  <title>Favoritos</title>
  <g id="Capa_2" data-name="Capa 2">
    <g id="Capa_1-2" data-name="Capa 1">
      <path class="cls-1" d="M22.253,2.6q-.2-.164-.426-.316a6.279,6.279,0,0,0-5.656-.943,6.151,6.151,0,0,0-3.455,3.771A6.151,6.151,0,0,0,9.261,1.341,6.279,6.279,0,0,0,3.6,2.284q-.223.152-.426.316a6.214,6.214,0,0,0-.413,9.071l8.827,9.279a1.55,1.55,0,0,0,2.247,0l8.827-9.279A6.214,6.214,0,0,0,22.253,2.6Z"/>
    </g>
  </g>
</svg>
