<svg xmlns="http://www.w3.org/2000/svg" viewBox="0 0 41.167 34.355">
  <defs>
    <style>
      .cls-1 {
        fill: #fff;
      }
    </style>
  </defs>
  <title>Foto</title>
  <g id="Capa_2" data-name="Capa 2">
    <g id="Capa_1-2" data-name="Capa 1">
      <path class="cls-1" d="M38.723,6.516H29.246V4.146A4.146,4.146,0,0,0,25.1,0H16.215a4.146,4.146,0,0,0-4.146,4.146V6.516H2.443A2.443,2.443,0,0,0,0,8.959V31.912a2.443,2.443,0,0,0,2.443,2.443h36.28a2.443,2.443,0,0,0,2.443-2.443V8.959A2.443,2.443,0,0,0,38.723,6.516ZM20.713,28.395A8.089,8.089,0,1,1,28.8,20.306,8.089,8.089,0,0,1,20.713,28.395Z"/>
    </g>
  </g>
</svg>
