<svg xmlns="http://www.w3.org/2000/svg" viewBox="0 0 28.604 20.976">
  <title>Nube</title>
  <g id="Capa_2" data-name="Capa 2">
    <g id="Capa_1-2" data-name="Capa 1">
      <path d="M27.36,11.7a5.639,5.639,0,0,0-3.181-2.019,3.644,3.644,0,0,0,.611-2.056,3.676,3.676,0,0,0-1.117-2.7A3.793,3.793,0,0,0,18.5,4.738,7.636,7.636,0,0,0,11.441,0,7.349,7.349,0,0,0,6.048,2.235,7.348,7.348,0,0,0,3.814,7.628q0,.194.03.641A6.662,6.662,0,0,0,0,14.3a6.428,6.428,0,0,0,1.959,4.715,6.426,6.426,0,0,0,4.715,1.959H22.883A5.722,5.722,0,0,0,28.6,15.255,5.537,5.537,0,0,0,27.36,11.7Zm-8.439.574-5.229,5.23a.505.505,0,0,1-.685,0L7.762,12.261a.464.464,0,0,1-.134-.343.483.483,0,0,1,.476-.477h3.337V6.2a.483.483,0,0,1,.477-.477h2.861a.482.482,0,0,1,.477.477v5.244h3.337a.458.458,0,0,1,.476.477A.558.558,0,0,1,18.92,12.276Z"/>
    </g>
  </g>
</svg>
