<svg xmlns="http://www.w3.org/2000/svg" viewBox="0 0 22.928 22.5">
  <defs>
    <style>
      .cls-1 {
        fill: #666;
      }
    </style>
  </defs>
  <title>Panel de control</title>
  <g id="Capa_2" data-name="Capa 2">
    <g id="Capa_1-2" data-name="Capa 1">
      <g>
        <path class="cls-1" d="M22.111,20.9H.817a.8.8,0,0,0-.8.8.815.815,0,0,0,.8.8H22.13a.8.8,0,0,0,.8-.8A.819.819,0,0,0,22.111,20.9Z"/>
        <path class="cls-1" d="M.019,13.839,0,17.634a.824.824,0,0,0,.234.584.78.78,0,0,0,.564.234l3.776-.019a.78.78,0,0,0,.564-.234L18.179,5.158a.822.822,0,0,0,0-1.148L14.442.234a.822.822,0,0,0-1.148,0L10.686,2.861.253,13.274A.867.867,0,0,0,.019,13.839ZM13.878,1.946l2.628,2.628L15.026,6.053,12.4,3.426ZM1.635,14.189,11.25,4.574,13.878,7.2,4.263,16.8l-2.647.019Z"/>
      </g>
    </g>
  </g>
</svg>
