<svg xmlns="http://www.w3.org/2000/svg" viewBox="0 0 15.902 21.406">
  <defs>
    <style>
      .cls-1 {
        fill: #4d4d4d;
      }
    </style>
  </defs>
  <title>pass</title>
  <g id="Capa_2" data-name="Capa 2">
    <g id="Capa_1-2" data-name="Capa 1">
      <g>
        <path class="cls-1" d="M14.546,9.252H1.356A1.356,1.356,0,0,0,0,10.608v6.977a3.822,3.822,0,0,0,3.822,3.822H12.08A3.822,3.822,0,0,0,15.9,17.585V10.608A1.356,1.356,0,0,0,14.546,9.252Zm.02,8.621A2.428,2.428,0,0,1,12.138,20.3H3.689a2.428,2.428,0,0,1-2.428-2.428v-7.4h13.3Z"/>
        <path class="cls-1" d="M7.951,12.983A2.346,2.346,0,1,0,10.3,15.329,2.346,2.346,0,0,0,7.951,12.983Zm0,3.606a1.26,1.26,0,1,1,1.26-1.26A1.26,1.26,0,0,1,7.951,16.589Z"/>
        <path class="cls-1" d="M8.227,0a6.487,6.487,0,0,0-6.7,5.911.523.523,0,0,0,.529.564h0A.52.52,0,0,0,2.569,6,5.429,5.429,0,0,1,7.977,1.045h0a5.429,5.429,0,0,1,5.429,5.429V9.252h1.07V6.642A6.588,6.588,0,0,0,8.227,0Z"/>
      </g>
    </g>
  </g>
</svg>
