<svg xmlns="http://www.w3.org/2000/svg" viewBox="0 0 24.521 25.37">
  <defs>
    <style>
      .cls-1 {
        fill: #666;
      }
    </style>
  </defs>
  <title>Reservas</title>
  <g id="Capa_2" data-name="Capa 2">
    <g id="Capa_1-2" data-name="Capa 1">
      <g>
        <path class="cls-1" d="M23.773,1.485h-4.9V.748a.748.748,0,0,0-1.5,0v.738H13.008V.748a.748.748,0,0,0-1.5,0v.738H7.329V.748a.748.748,0,0,0-1.5,0v.738H.748A.748.748,0,0,0,0,2.233v16.9a.748.748,0,0,0,.748.748h4.59a7.109,7.109,0,0,0,13.845,0h4.59a.748.748,0,0,0,.748-.748V2.233a.748.748,0,0,0-.748-.748Zm-17.94,1.5v.676a.748.748,0,0,0,1.5,0V2.981h4.183v.676a.748.748,0,0,0,1.5,0V2.981h4.369v.676a.748.748,0,0,0,1.5,0V2.981h4.152V6.039H1.5V2.981Zm6.427,20.893a5.615,5.615,0,1,1,5.615-5.615A5.622,5.622,0,0,1,12.261,23.874Zm7.108-5.491c0-.042,0-.083,0-.125a7.111,7.111,0,1,0-14.222,0c0,.042,0,.083,0,.125H1.5V7.535h21.53V18.383H19.368Z"/>
        <path class="cls-1" d="M13.008,18.447V14.829a.748.748,0,1,0-1.5,0v3.928a.748.748,0,0,0,.219.529L13.45,21a.748.748,0,1,0,1.058-1.058l-1.5-1.5Z"/>
      </g>
    </g>
  </g>
</svg>
