<svg xmlns="http://www.w3.org/2000/svg" viewBox="0 0 26 26">
  <defs>
    <style>
      .cls-1 {
        fill: none;
        stroke: #CCC;
        stroke-miterlimit: 10;
      }

      .cls-2 {
        fill: #CCC;
      }
    </style>
  </defs>
  <title>Servicios Baño</title>
  <g id="Capa_2" data-name="Capa 2">
    <g id="Capa_1-2" data-name="Capa 1">
      <g>
        <rect class="cls-1" x="0.5" y="0.5" width="25" height="25" rx="3.976" ry="3.976"/>
        <g id="Group">
          <g id="Group-2">
            <g id="Fill_1" data-name="Fill 1">
              <path id="path1_fill" data-name="path1 fill" class="cls-2" d="M15.677,17.151a1.9,1.9,0,0,0-2.08,1.617c0,.423.3.677.8.677a3.993,3.993,0,0,0,.727-.1,3.412,3.412,0,0,1,.555-.08,3.281,3.281,0,0,1,.515.076,4.074,4.074,0,0,0,.75.1c.51,0,.814-.253.814-.677A1.9,1.9,0,0,0,15.677,17.151Zm1.4,1.723a.293.293,0,0,1-.129.017,3.565,3.565,0,0,1-.6-.085,3.651,3.651,0,0,0-.667-.09,3.9,3.9,0,0,0-.7.093,3.491,3.491,0,0,1-.576.082.356.356,0,0,1-.114-.013.191.191,0,0,1-.02-.108c0-.586.634-1.062,1.415-1.062s1.415.475,1.415,1.062A.191.191,0,0,1,17.072,18.874Z"/>
            </g>
            <g id="Fill_2" data-name="Fill 2">
              <path id="path2_fill" data-name="path2 fill" class="cls-2" d="M14.642,16.617a.905.905,0,1,0-.924.887h.019A.9.9,0,0,0,14.642,16.617Zm-1.145,0c0-.19.127-.331.24-.331s.24.142.24.331-.127.331-.24.331-.24-.142-.24-.331Z"/>
            </g>
            <g id="Fill_3" data-name="Fill 3">
              <path id="path3_fill" data-name="path3 fill" class="cls-2" d="M15.738,16.957a.887.887,0,1,0-.9-.887A.9.9,0,0,0,15.738,16.957Zm0-1.215c.113,0,.24.142.24.331s-.127.331-.24.331-.24-.142-.24-.331.126-.333.24-.333Z"/>
            </g>
            <g id="Fill_4" data-name="Fill 4">
              <path id="path4_fill" data-name="path4 fill" class="cls-2" d="M17.738,15.73a.887.887,0,1,0,.9.887A.9.9,0,0,0,17.738,15.73Zm0,1.217c-.114,0-.24-.142-.24-.331s.127-.331.24-.331.24.142.24.331-.127.332-.24.332Z"/>
            </g>
            <g id="Fill_5" data-name="Fill 5">
              <path id="path5_fill" data-name="path5 fill" class="cls-2" d="M18.534,9.025h-.352v-.8a.746.746,0,0,0-.8-.67h-1.31V6.772h.548a.746.746,0,0,0,.8-.67V5.383a.745.745,0,0,0-.8-.67H13.26a3.31,3.31,0,0,0-1.776.37A2.507,2.507,0,0,0,10.471,7.42.309.309,0,0,0,10.8,7.7h1.162A.309.309,0,0,0,12.3,7.42a.546.546,0,0,1,.361-.555,1.324,1.324,0,0,1,.46-.093h2.289v.784H14.1a.746.746,0,0,0-.8.67v.8h-.352a2.236,2.236,0,0,0-2.405,2.007v9.281a.309.309,0,0,0,.332.278h9.737a.309.309,0,0,0,.332-.278V11.034A2.237,2.237,0,0,0,18.534,9.025ZM13.116,6.217a1.432,1.432,0,0,0-1.456.925h-.519c.1-1.873,1.26-1.873,2.116-1.873h3.358a.127.127,0,0,1,.137.114V6.1a.127.127,0,0,1-.137.115Zm.841,2.007a.127.127,0,0,1,.137-.115h3.285a.127.127,0,0,1,.137.115v.8H13.958ZM12.941,9.58h5.593a1.618,1.618,0,0,1,1.74,1.454V11.8a6.247,6.247,0,0,0-3.933,1.087,4.43,4.43,0,0,1-3.006.883,3.2,3.2,0,0,1-2.134-1.06V11.035a1.618,1.618,0,0,1,1.741-1.454ZM11.2,20.036v-6.5a4.025,4.025,0,0,0,2.06.783q.222.021.447.021A5.256,5.256,0,0,0,16.78,13.3a5.575,5.575,0,0,1,3.5-.951v7.684Z"/>
            </g>
            <g id="Fill_6" data-name="Fill 6">
              <path id="path6_fill" data-name="path6 fill" class="cls-2" d="M7.506,10.037a1.073,1.073,0,0,0,1.154-.963,1.073,1.073,0,0,0-1.154-.964,1.073,1.073,0,0,0-1.154.964A1.073,1.073,0,0,0,7.506,10.037Zm0-1.373a.415.415,0,1,1-.489.408.455.455,0,0,1,.489-.408Z"/>
            </g>
            <g id="Fill_7" data-name="Fill 7">
              <path id="path7_fill" data-name="path7 fill" class="cls-2" d="M7.8,12.535a1.836,1.836,0,0,0-1.975,1.649A1.836,1.836,0,0,0,7.8,15.835a1.836,1.836,0,0,0,1.975-1.65A1.836,1.836,0,0,0,7.8,12.535Zm0,2.746a1.218,1.218,0,0,1-1.31-1.094A1.218,1.218,0,0,1,7.8,13.093a1.218,1.218,0,0,1,1.31,1.094A1.218,1.218,0,0,1,7.8,15.282Z"/>
            </g>
            <g id="Fill_8" data-name="Fill 8">
              <path id="path8_fill" data-name="path8 fill" class="cls-2" d="M6.176,17.406a1.036,1.036,0,0,0-1.114.931,1.036,1.036,0,0,0,1.114.931,1.036,1.036,0,0,0,1.114-.931A1.037,1.037,0,0,0,6.176,17.406Zm0,1.308a.382.382,0,1,1,0-.752.382.382,0,1,1,0,.752Z"/>
            </g>
          </g>
        </g>
      </g>
    </g>
  </g>
</svg>
