<svg xmlns="http://www.w3.org/2000/svg" viewBox="0 0 26 26">
  <defs>
    <style>
      .cls-1 {
        fill: none;
        stroke: #CCC;
        stroke-miterlimit: 10;
      }

      .cls-2 {
        fill: #CCC;
      }
    </style>
  </defs>
  <title>Servicios Corte</title>
  <g id="Capa_2" data-name="Capa 2">
    <g id="Capa_1-2" data-name="Capa 1">
      <g>
        <rect class="cls-1" x="0.5" y="0.5" width="25" height="25" rx="3.976" ry="3.976"/>
        <path class="cls-2" d="M9.166,10.308a5.425,5.425,0,0,1,.185.6c.193,1.021.35,2.049.576,3.063.055.249.322.451.494.672.211.275.536.517.626.826.283.973.461,1.976.713,2.958A1.863,1.863,0,0,0,13.869,19.9a1.887,1.887,0,0,0-.47-3.726c-1.385-.023-1.754-.306-2.153-1.642Q10.13,10.805,9.008,7.075c-.024-.081-.053-.158-.077-.24-.045-.136-.1-.423-.228-.391-.078.02-.043.29-.022.429L9.093,9.59c.011.074-.006.211-.034.211-.069,0-.161.034-.2-.012a.592.592,0,0,1-.071-.264c-.013-.115-.176-.687-.221-.885a5.572,5.572,0,0,1,.077-2.873.183.183,0,0,1,.343.021l1.567,5.13h.158l1.59-5.208a.185.185,0,0,1,.3-.085A1.308,1.308,0,0,1,12.99,6.99c-.411,2.3-.829,4.6-1.218,6.906-.236,1.395.23,1.917,1.648,1.924a2.242,2.242,0,0,1,1.994,3.318,2.152,2.152,0,0,1-2.033,1.172A2.288,2.288,0,0,1,11.416,18.6c-.221-.845-.394-1.7-.594-2.551a.616.616,0,0,0-.269-.379c-.231.99-.434,1.987-.7,2.967a2.192,2.192,0,0,1-2.188,1.679,2.266,2.266,0,0,1-.884-4.248,2.871,2.871,0,0,1,1.156-.239c1.289-.035,1.806-.623,1.591-1.9-.158-.931-.343-1.857-.5-2.788-.045-.261-.043-.528-.063-.8Zm.988,4.653A2.436,2.436,0,0,1,7.676,16.2a1.263,1.263,0,0,0-.211.016,1.867,1.867,0,0,0-.52,3.486,1.574,1.574,0,0,0,2.065-.323c.931-1.3.88-2.892,1.145-4.416ZM11.488,13.4,12.7,6.456l-.177-.045a4.9,4.9,0,0,0-.217.581c-.35,1.371-.788,2.715-1.248,4.054a2.653,2.653,0,0,0,.432,2.354Z"/>
        <path class="cls-2" d="M13.443,19.388A1.349,1.349,0,0,1,13.6,16.7a1.364,1.364,0,0,1,1.235,1.4,1.323,1.323,0,0,1-1.348,1.3ZM12.6,18.02a.941.941,0,0,0,1.881.06q0-.02,0-.04a1.04,1.04,0,0,0-.955-.962.922.922,0,0,0-.928.915q0,.014,0,.027Z"/>
        <path class="cls-2" d="M9.069,18.068a1.291,1.291,0,0,1-1.256,1.324h-.08a1.351,1.351,0,0,1-1.289-1.326A1.373,1.373,0,0,1,7.769,16.7a1.317,1.317,0,0,1,1.3,1.333Zm-.37-.011a1,1,0,0,0-.985-.98.969.969,0,0,0-.892,1,.928.928,0,0,0,.935.921h.028a.883.883,0,0,0,.916-.848q0-.044,0-.088Z"/>
        <path class="cls-2" d="M18.145,6.93a.191.191,0,0,0-.191-.191h-.4a.179.179,0,0,0-.184.174v.006a.184.184,0,0,0,.166.2h.416A.191.191,0,0,0,18.145,6.93Z"/>
        <path class="cls-2" d="M20.226,17.331c-.1-.242-.18-.78-.451-.64a6.539,6.539,0,0,1,.208,1.194,3.483,3.483,0,0,1-.22,1.358c-.346.743-1.118.782-1.456.049a3.548,3.548,0,0,1-.221-1.694c.088-1.151.28-2.294.445-3.438.053-.38-.046-.561-.386-.587V13.6h-2.82a.132.132,0,0,1-.132-.132v-.631h2.762a.188.188,0,0,0,.18-.139l.035-.011-.025-.2-.1-.008a.185.185,0,0,0-.088-.024H15.193v-.761h2.762a.185.185,0,0,0,.106-.035h.085q0-.069,0-.137c0-.006,0-.011,0-.017l0-.022q0-.072,0-.144l-.106-.008a.189.189,0,0,0-.077-.017H15.193V10.55h2.762a.189.189,0,0,0,.176-.26l-.012-.121H15.193V9.408h2.762a.189.189,0,0,0,.178-.128h.011V9.217h0L18.149,9h-.005v.026H15.191V8.264h2.762a.188.188,0,0,0,.181-.144h0V8.1a.18.18,0,0,0,.005-.027.025.025,0,0,0,0-.015l.013-.216h-.01v.042H15.19V7.121h1.55V6.739H15.193v-.6a.158.158,0,0,1,.158-.158h2.793V6c1.02.064,1.328.475,1.332,1.649.007,2.271,0,4.542.026,6.813.007.6.119,1.2.183,1.8l.3-.022c0-.217.011-.435,0-.651-.04-.634-.122-1.272-.128-1.908-.019-2.011-.009-4.022-.013-6.033,0-1.483-.539-2.026-1.994-2.029-.781,0-1.562.021-2.342-.008-.483-.018-.68.139-.677.643q.025,3.549,0,7.1c0,.475.193.613.639.6.687-.026,1.373.013,2.06-.013.479-.018.707.1.614.64a26.2,26.2,0,0,0-.423,3.011,4.877,4.877,0,0,0,.293,1.969.988.988,0,0,0,1.367.528A2.186,2.186,0,0,0,20.226,17.331Z"/>
      </g>
    </g>
  </g>
</svg>
