<svg xmlns="http://www.w3.org/2000/svg" viewBox="0 0 26 26">
  <defs>
    <style>
      .cls-1 {
        fill: none;
        stroke: #CCC;
        stroke-miterlimit: 10;
      }

      .cls-2 {
        fill: #CCC;
      }
    </style>
  </defs>
  <title>Servicios Dental</title>
  <g id="Capa_2" data-name="Capa 2">
    <g id="Capa_1-2" data-name="Capa 1">
      <g>
        <rect class="cls-1" x="0.5" y="0.5" width="25" height="25" rx="3.979" ry="3.979"/>
        <g>
          <path id="_Trazado_compuesto_" data-name=" Trazado compuesto " class="cls-2" d="M19.769,10.936H14.792c-.512,0-.951-.585-1.025-1.317V8.668a2.459,2.459,0,0,0,1.171.366h3.878c.512,0,.951.585.951,1.317v.585Zm-.951-2.561H14.94A1.6,1.6,0,0,1,13.7,7.716a.181.181,0,0,0-.293-.073.569.569,0,0,0-.146.366l.073,1.683a1.826,1.826,0,0,0,1.537,1.976h5.2a.335.335,0,0,0,.293-.366v-.947c-.074-1.1-.733-1.977-1.538-1.977Z"/>
          <path class="cls-2" d="M19.769,15.037V12.549a.3.3,0,1,0-.585,0v2.415h-.805V12.549a.3.3,0,1,0-.585,0v2.415h-.8V12.549a.3.3,0,1,0-.585,0v2.415h-.732V12.549a.335.335,0,0,0-.293-.366c-.146,0-.22.22-.22.439v2.415h-.732V12.622a.3.3,0,1,0-.585,0v2.415H13.33v1.1H5.646V18.4H19.111c.659,0,1.171-.732,1.171-1.683V15.037ZM13.33,17.849H6.158V16.672H13.33Zm6.439-.951c0,.512-.293.951-.659.951h-5.2V15.538h5.854Z"/>
        </g>
      </g>
    </g>
  </g>
</svg>
