<svg xmlns="http://www.w3.org/2000/svg" viewBox="0 0 26 26">
  <defs>
    <style>
      .cls-1 {
        fill: none;
        stroke: #CCC;
        stroke-miterlimit: 10;
      }

      .cls-2 {
        fill: #CCC;
      }
    </style>
  </defs>
  <title>Servicios T. Sencillo</title>
  <g id="Capa_2" data-name="Capa 2">
    <g id="Capa_1-2" data-name="Capa 1">
      <g>
        <rect class="cls-1" x="0.5" y="0.5" width="25" height="25" rx="3.72" ry="3.72"/>
        <g>
          <path id="_Trazado_" data-name=" Trazado " class="cls-2" d="M8.44,11.873a.222.222,0,0,0,.251-.251V9.862a.251.251,0,0,0-.5,0V11.7C8.105,11.787,8.273,11.873,8.44,11.873Z"/>
          <path id="_Trazado_2" data-name=" Trazado 2" class="cls-2" d="M10.7,11.873a.222.222,0,0,0,.251-.251V9.862a.251.251,0,0,0-.5,0V11.7C10.364,11.787,10.532,11.873,10.7,11.873Z"/>
          <path id="_Trazado_3" data-name=" Trazado 3" class="cls-2" d="M12.959,11.873a.222.222,0,0,0,.251-.251V9.862a.251.251,0,1,0-.5,0V11.7C12.708,11.787,12.791,11.873,12.959,11.873Z"/>
          <path id="_Trazado_4" data-name=" Trazado 4" class="cls-2" d="M15.218,11.873a.222.222,0,0,0,.251-.251V9.862a.251.251,0,1,0-.5,0V11.7C14.967,11.787,15.051,11.873,15.218,11.873Z"/>
          <path id="_Trazado_5" data-name=" Trazado 5" class="cls-2" d="M17.477,11.873a.222.222,0,0,0,.251-.251V9.862a.251.251,0,0,0-.5,0V11.7C17.226,11.787,17.394,11.873,17.477,11.873Z"/>
          <path id="_Trazado_compuesto_" data-name=" Trazado compuesto " class="cls-2" d="M20.908,12.791V10.364a.72.72,0,0,0-.669-.669h-.418A1.9,1.9,0,0,0,17.9,8.105H15.051V6.934a.72.72,0,0,0-.669-.669H11.536a.616.616,0,0,0-.669.669V8.105H8.021A1.9,1.9,0,0,0,6.1,9.695H5.678a.616.616,0,0,0-.671.669v2.344a.854.854,0,0,0-.418.669v1.171a.629.629,0,0,0,.418.586v2.343a.72.72,0,0,0,.669.669h.418a1.9,1.9,0,0,0,1.925,1.59h9.96a1.9,1.9,0,0,0,1.925-1.59h.42a.616.616,0,0,0,.669-.669V15.134a.629.629,0,0,0,.418-.586V13.377A.885.885,0,0,0,20.908,12.791Zm-1.088-2.51h.335a.18.18,0,0,1,.167.167v2.343h-.5ZM11.369,7.017a.18.18,0,0,1,.167-.167H14.3a.18.18,0,0,1,.167.167V8.189h-3.1V7.017ZM6.6,10.028A1.466,1.466,0,0,1,8.022,8.605h9.958A1.41,1.41,0,0,1,19.4,10q0,.012,0,.024v2.761H6.6V10.028Zm1.674,3.18H9.779v1.506H8.273Zm2.092,0h5.272v1.506H10.364Zm5.691,0h1.506v1.506H16.055V13.207ZM5.511,10.364a.18.18,0,0,1,.167-.167H6.01v2.511h-.5Zm.5,7.364H5.676a.18.18,0,0,1-.167-.167V15.218h.5Zm-.753-3.011a.18.18,0,0,1-.167-.167V13.377a.18.18,0,0,1,.167-.167h2.51v1.506ZM19.32,17.979A1.466,1.466,0,0,1,17.894,19.4H8.017A1.41,1.41,0,0,1,6.6,18q0-.012,0-.024V15.218H19.4v2.761Zm1.088-.418a.18.18,0,0,1-.167.167H19.9v-2.51h.5v2.343Zm.418-3.011a.18.18,0,0,1-.167.167H18.147V13.293h2.51a.18.18,0,0,1,.167.167Z"/>
        </g>
      </g>
    </g>
  </g>
</svg>
