<svg xmlns="http://www.w3.org/2000/svg" viewBox="0 0 26 26">
  <defs>
    <style>
      .cls-1 {
        fill: none;
        stroke: #CCC;
        stroke-miterlimit: 10;
      }

      .cls-2 {
        fill: #CCC;
      }
    </style>
  </defs>
  <title>Servicios Veterinario</title>
  <g id="Capa_2" data-name="Capa 2">
    <g id="Capa_1-2" data-name="Capa 1">
      <g>
        <rect class="cls-1" x="0.5" y="0.5" width="25" height="25" rx="5" ry="5"/>
        <g>
          <path id="path1_fill" data-name="path1 fill" class="cls-2" d="M14.766,7.486V8.65a3.43,3.43,0,0,0-1.242-.466H11.661a4.148,4.148,0,0,0-1.087.466V6.244a.932.932,0,0,1,.854-.932h2.484a.881.881,0,0,1,.854.932V7.486Zm.466-.854V6.244a1.377,1.377,0,0,0-1.32-1.4H11.428a1.328,1.328,0,0,0-1.32,1.4V8.961A4.151,4.151,0,0,0,9.1,9.97H6.538a1.328,1.328,0,0,0-1.32,1.4v2.562a1.377,1.377,0,0,0,1.32,1.4H9.1a6.205,6.205,0,0,0,1.009,1.009v2.717a1.377,1.377,0,0,0,1.32,1.4h2.484a1.328,1.328,0,0,0,1.32-1.4V16.335a6.205,6.205,0,0,0,1.009-1.009H18.8a1.328,1.328,0,0,0,1.32-1.4V11.367a1.377,1.377,0,0,0-1.32-1.4H16.241a6.205,6.205,0,0,0-1.009-1.009V6.632ZM5.606,12.144v-.776a.932.932,0,0,1,.854-.932H8.789a4.058,4.058,0,0,0-.466,1.242h0v.078h0v1.708h0v.078h0a3.43,3.43,0,0,0,.466,1.242H6.46a.881.881,0,0,1-.854-.932V12.144Zm9.16,6.831a.932.932,0,0,1-.854.932H11.428a.881.881,0,0,1-.854-.932V16.568a3.43,3.43,0,0,0,1.242.466H13.68a3.43,3.43,0,0,0,1.242-.466l-.155,2.407Zm1.785-5.512c0,.078-.078.155-.078.233h0a4.091,4.091,0,0,1-2.717,2.795h0c-.078,0-.155.078-.233.078H11.816c-.078,0-.155-.078-.233-.078h0A4.091,4.091,0,0,1,8.867,13.7h0c0-.078-.078-.155-.078-.233v-.621h0v-.155h0v-.311h0v-.155h0v-.466c0-.078.078-.155.078-.233h0a3.818,3.818,0,0,1,2.717-2.795h0c.078,0,.155-.078.233-.078h1.708c.078,0,.155.078.233.078h0a4.091,4.091,0,0,1,2.717,2.795h0c0,.078.078.155.078.233v.621h0v.155h0v.311h0V13h0v.466q0-.116,0,0Zm3.183.466a.932.932,0,0,1-.854.932H16.552a4.058,4.058,0,0,0,.466-1.242h0v-.078h0V11.833h0v-.078h0a3.43,3.43,0,0,0-.466-1.242h2.329a.881.881,0,0,1,.854.932Z"/>
          <path id="path2_fill" data-name="path2 fill" class="cls-2" d="M13.059,12.376h0a1.536,1.536,0,0,0-1.087-.388,2.72,2.72,0,0,0-2.018.854.623.623,0,0,0-.078.621,1.145,1.145,0,0,0,.7.776,1.693,1.693,0,0,1,.388.311,1.363,1.363,0,0,1,.311.388,2.2,2.2,0,0,0,.776.7H12.2q.582,0,.932-.932A2.266,2.266,0,0,0,13.059,12.376Zm-.311,2.174c-.155.388-.388.621-.543.621h0a1.044,1.044,0,0,1-.543-.466,2.359,2.359,0,0,0-.388-.543,2.058,2.058,0,0,0-.466-.388,1.044,1.044,0,0,1-.466-.543.24.24,0,0,1,.078-.155,2.27,2.27,0,0,1,1.63-.621c.311,0,.621.078.7.233h0A2.214,2.214,0,0,1,12.748,14.55Z"/>
          <path id="path3_fill" data-name="path3 fill" class="cls-2" d="M13.524,9.582a3.362,3.362,0,0,1-.388-.078,1.105,1.105,0,0,0-1.009.7,3.48,3.48,0,0,0-.078.932,1.023,1.023,0,0,0,.543.776c.078,0,.155.078.233.078a1.528,1.528,0,0,0,1.164-1.009A1.023,1.023,0,0,0,13.524,9.582Zm.155,1.242a1.012,1.012,0,0,1-.776.7h-.078a.66.66,0,0,1-.233-.388.85.85,0,0,1,0-.621.567.567,0,0,1,.543-.466h.233A.738.738,0,0,1,13.68,10.824Z"/>
          <path id="path4_fill" data-name="path4 fill" class="cls-2" d="M11.816,10.591a.922.922,0,0,0-.932-.776H10.73a.959.959,0,0,0-.7,1.087c.078.388.543,1.009,1.009,1.009H11.2C11.661,11.911,11.894,11.057,11.816,10.591Zm-.776.932h0c-.233,0-.543-.388-.543-.621-.078-.311.078-.543.311-.543h.078a.492.492,0,0,1,.466.388C11.428,10.979,11.2,11.522,11.04,11.522Z"/>
          <path id="path5_fill" data-name="path5 fill" class="cls-2" d="M15.776,11.911a1.087,1.087,0,0,0-.932-.7.7.7,0,0,0-.388.078c-.543.233-1.164.854-.932,1.475a1.1,1.1,0,0,0,1.087.621,1.321,1.321,0,0,0,.543-.078A1.163,1.163,0,0,0,15.776,11.911ZM15,12.842c-.078,0-.233.078-.311.078a.852.852,0,0,1-.7-.311c-.078-.233.311-.7.621-.854h.233a.584.584,0,0,1,.543.388C15.387,12.376,15.31,12.765,15,12.842Z"/>
          <path id="path6_fill" data-name="path6 fill" class="cls-2" d="M14.766,13.7h-.233a1.2,1.2,0,0,0-1.164.7c-.078.543.543,1.087,1.009,1.164h.155a.984.984,0,0,0,.932-.776A.847.847,0,0,0,14.766,13.7Zm.311,1.009a.492.492,0,0,1-.466.388h-.078c-.311-.078-.7-.388-.621-.621,0-.155.311-.311.621-.311h.155A.584.584,0,0,1,15.077,14.705Z"/>
        </g>
      </g>
    </g>
  </g>
</svg>
