<svg xmlns="http://www.w3.org/2000/svg" viewBox="0 0 26.712 32.054">
  <defs>
    <style>
      .cls-1 {
        fill: #630e7f;
      }
    </style>
  </defs>
  <title>Cat purple</title>
  <g id="Capa_2" data-name="Capa 2">
    <g id="Capa_1-2" data-name="Capa 1">
      <g>
        <path class="cls-1" d="M0,12.688a.667.667,0,0,0,.668.668c1.342,0,3.339,1.067,3.339,4.007a7.222,7.222,0,0,1-1.166,3.605,9.975,9.975,0,0,0-1.505,5.076c0,3.876,2.134,6.01,6.01,6.01H23.373a.668.668,0,0,0,.668-.668V30.051a2.006,2.006,0,0,0-2-2h-.668V22.2A11.834,11.834,0,0,0,22.7,18.03a6.3,6.3,0,0,0-.973-3.73,1.723,1.723,0,0,1-.363-.944v-.343a8.808,8.808,0,0,1,.128-2.3h0a3.249,3.249,0,0,1,.539-.03c1.808,0,4.675-.906,4.675-3.339,0-.875-.82-1.457-1.544-1.969a5.345,5.345,0,0,1-.655-.506,4.741,4.741,0,0,1-.472-.638c-.463-.7-1.04-1.561-2-1.561-.209,0-.668-.969-.668-2A.667.667,0,0,0,20.7,0c-2.036,0-2.937,2.028-3.218,2.846A3.5,3.5,0,0,0,15.359,6.01v6.678c0,.837-2.011,2.632-3.214,3.7-.486.434-.933.833-1.265,1.166-.227.227-.49.458-.771.7-1.448,1.272-3.432,3.014-3.432,6.446V27.38a4.655,4.655,0,0,0,1.413,3.339H7.346c-3.146,0-4.675-1.529-4.675-4.675A8.626,8.626,0,0,1,4.018,21.6a8.5,8.5,0,0,0,1.324-4.235c0-3.469-2.409-5.342-4.675-5.342A.667.667,0,0,0,0,12.688ZM8.013,27.38V24.708c0-2.826,1.582-4.217,2.978-5.443.3-.267.588-.518.833-.763.318-.318.745-.7,1.21-1.114,2.074-1.849,3.66-3.37,3.66-4.7V6.01a2.3,2.3,0,0,1,1.551-2.039.676.676,0,0,0,.432-.47A3.457,3.457,0,0,1,20.1,1.469c.18,1.127.737,2.538,1.936,2.538.249,0,.636.58.892.965a5.5,5.5,0,0,0,.639.843,6.729,6.729,0,0,0,.827.651c.31.22.955.677.981.882,0,1.5-2.293,2-3.339,2a1.66,1.66,0,0,0-1.788.886,8.35,8.35,0,0,0-.215,2.779v.342a2.962,2.962,0,0,0,.553,1.632,5.015,5.015,0,0,1,.783,3.043,11.262,11.262,0,0,1-1.26,3.7.673.673,0,0,0-.076.309v6.678a.667.667,0,0,0,.668.668h1.336a.669.669,0,0,1,.668.668v.668H18.7v-.668a2.007,2.007,0,0,0-1.744-1.986l.213-.213a4.358,4.358,0,0,0,1.235-4.86,4.933,4.933,0,0,0-4.379-2.958.668.668,0,1,0,0,1.336A3.6,3.6,0,0,1,17.168,23.5a2.972,2.972,0,0,1-.946,3.4l-1.336,1.336a.668.668,0,0,0,.472,1.14h1.336a.669.669,0,0,1,.668.668v.668h-6.01A3.342,3.342,0,0,1,8.013,27.38Z"/>
        <path class="cls-1" d="M21.235,7.012a.667.667,0,0,0,.668-.668V5.676a.668.668,0,1,0-1.336,0v.668A.667.667,0,0,0,21.235,7.012Z"/>
      </g>
    </g>
  </g>
</svg>
