<svg xmlns="http://www.w3.org/2000/svg" viewBox="0 0 22 22">
  <defs>
    <style>
      .cls-1 {
        fill: #cacaca;
      }
    </style>
  </defs>
  <title>GPS</title>
  <g id="Capa_2" data-name="Capa 2">
    <g id="Capa_1-2" data-name="Capa 1">
      <path class="cls-1" d="M11,7a4,4,0,1,0,4,4A4,4,0,0,0,11,7Zm8.94,3A8.994,8.994,0,0,0,12,2.06V0H10V2.06A8.994,8.994,0,0,0,2.06,10H0v2H2.06A8.994,8.994,0,0,0,10,19.94V22h2V19.94A8.994,8.994,0,0,0,19.94,12H22V10ZM11,18a7,7,0,1,1,7-7A6.995,6.995,0,0,1,11,18Z"/>
    </g>
  </g>
</svg>
