<svg xmlns="http://www.w3.org/2000/svg" viewBox="0 0 36.217 30.124">
  <defs>
    <style>
      .cls-1 {
        fill: none;
        stroke: #666;
        stroke-linecap: round;
        stroke-linejoin: round;
        stroke-width: 1.5px;
      }
    </style>
  </defs>
  <title>Grande</title>
  <g id="Capa_2" data-name="Capa 2">
    <g id="Capa_1-2" data-name="Capa 1">
      <g>
        <path class="cls-1" d="M10.767,16.076a7.875,7.875,0,0,0-2.4,4.5c-.218,2.532-3.842,6.288-3.842,6.288l1.572,1.7s.175.786-.742.786H3.738a.959.959,0,0,1-1.048-.568,19.23,19.23,0,0,1-1.048-2.707A1.917,1.917,0,0,1,1.816,24.9c.306-.7,1.659-3.187,1.659-3.187A44.966,44.966,0,0,1,1.03,17.08c-.306-1-.437-3.537,0-4.235s2.707-4.89,2.707-4.89S3,4.156,5.179,3.108s5.851-1.485,7.99.175a4.146,4.146,0,0,1,1.572,4.8l-.437.742s-.8.939-1.539.9c0,0-1.955-.32-1.726-1.663"/>
        <path class="cls-1" d="M5.4,8.577s1.9-3.762,7.267-.684"/>
        <path class="cls-1" d="M17.775,9.232A2.257,2.257,0,0,0,15,7.4"/>
        <path class="cls-1" d="M16.759,7.7S18,5.826,22.131,6.481C22.393,5.007,23.8.75,28.287.75s4.355,4.912,4.355,4.912"/>
        <path class="cls-1" d="M30.842,6.907a2.486,2.486,0,0,1,2.849-1.179c2,.491,1.768,1.179,1.768,1.179s-1.277,3.34-1.834,3.5a15.451,15.451,0,0,1-2.784,0"/>
        <path class="cls-1" d="M24.194,10.345l5.076,4.879a4.763,4.763,0,0,0,3.5-4.741"/>
        <path class="cls-1" d="M8.559,19.561h3.519s4.366,2.147,5.021,2.147H18.54"/>
        <path class="cls-1" d="M17.775,17.691l1.55,8.514s1.834.83,2.183,1.834.786,1.389,2.052,1.328a21.857,21.857,0,0,1,2.221,0,.45.45,0,0,0,.262-.782A12.048,12.048,0,0,0,23.67,26.85l1.31-5.5a8.6,8.6,0,0,0,4.007-6.4"/>
      </g>
    </g>
  </g>
</svg>
