<svg xmlns="http://www.w3.org/2000/svg" viewBox="0 0 150 150">
  <defs>
    <style>
      .cls-1, .cls-5, .cls-6 {
        fill: none;
      }

      .cls-2 {
        fill: #00d2c6;
      }

      .cls-2, .cls-3, .cls-4, .cls-5, .cls-6 {
        stroke: #00d2c6;
        stroke-linecap: round;
        stroke-linejoin: round;
      }

      .cls-2, .cls-3, .cls-4, .cls-5 {
        stroke-width: 3px;
      }

      .cls-3 {
        fill: #cffbf2;
      }

      .cls-4 {
        fill: #fff;
      }

      .cls-6 {
        stroke-width: 4px;
      }
    </style>
  </defs>
  <title>Paseos 3</title>
  <g id="Capa_2" data-name="Capa 2">
    <g id="Capa_1-2" data-name="Capa 1">
      <g>
        <rect class="cls-1" width="150" height="150"/>
        <g>
          <path class="cls-2" d="M111.639,7.933h0A18.792,18.792,0,0,1,130.43,26.725V55.183a10.25,10.25,0,0,1-10.25,10.25H104.389A11.542,11.542,0,0,1,92.847,53.892V26.725A18.792,18.792,0,0,1,111.639,7.933Z"/>
          <path class="cls-3" d="M122.473,59.272l1.214.528a4.08,4.08,0,0,1,2.563,3.937l-.82,9.821a4.776,4.776,0,0,0,1.113,3.482L137.176,88.7l-6.315,5.342L119.583,81.618a11.071,11.071,0,0,1-2.568-8.206l1-10.413A4.135,4.135,0,0,1,122.473,59.272Z"/>
          <rect class="cls-4" x="130.391" y="90.593" width="11.521" height="6.604" transform="translate(-28.438 110.139) rotate(-40.228)"/>
          <path class="cls-3" d="M112.868,53.058h0a14.187,14.187,0,0,1,14.187,14.187V96.058a0,0,0,0,1,0,0H98.68a0,0,0,0,1,0,0V67.246A14.187,14.187,0,0,1,112.868,53.058Z"/>
          <path class="cls-3" d="M109.485,61.738h0a4.135,4.135,0,0,1,0,5.848l-6.969,6.969a4.776,4.776,0,0,0-1.4,3.377V92.517H92.847V76.932a11.071,11.071,0,0,1,3.339-7.924l7.487-7.306A4.135,4.135,0,0,1,109.485,61.738Z"/>
          <path class="cls-4" d="M99.1,24.683V35.768a4.239,4.239,0,0,0-1.855.039,4.088,4.088,0,0,0-2.985,3,4.122,4.122,0,0,0,5.662,4.778,15.663,15.663,0,0,0,14.844,10.685h0A15.667,15.667,0,0,0,130.43,38.6V24.683h0a21.588,21.588,0,0,1-14.289-5.406l-1.711-1.511-3.716,2.909A18.844,18.844,0,0,1,99.1,24.683Z"/>
          <rect class="cls-4" x="110.696" y="96.058" width="11.359" height="36.875"/>
          <path class="cls-4" d="M108.805,132.808h12.25a8.375,8.375,0,0,1,8.375,8.375v0a0,0,0,0,1,0,0H108.805a0,0,0,0,1,0,0v-8.375A0,0,0,0,1,108.805,132.808Z"/>
          <path class="cls-4" d="M88.1,128.451h9.917a8.375,8.375,0,0,1,8.375,8.375v0a0,0,0,0,1,0,0H88.1a0,0,0,0,1,0,0v-8.375A0,0,0,0,1,88.1,128.451Z" transform="translate(122.271 -29.912) rotate(45)"/>
          <polygon class="cls-4" points="101.772 95.819 101.772 116.808 94.038 124.542 102.274 132.777 110.907 124.144 110.907 96.058 101.772 95.819"/>
          <rect class="cls-4" x="91.222" y="92.517" width="11.521" height="6.604"/>
          <path class="cls-3" d="M66.847,141.661H76.68v-2.686a3.208,3.208,0,0,0-3.208-3.208H72.347l-9.875-9.875H51.6l8.333,4.153Z"/>
          <path class="cls-3" d="M27.43,141.661v-15.81H33.6v9.593h1.865a2.8,2.8,0,0,1,2.8,2.8v3.415Z"/>
          <path class="cls-4" d="M63.305,106.063H28.39a3.91,3.91,0,0,1-.918-2.005c-.317-2.58,2.507-4.388,2.125-8.583a4.459,4.459,0,0,0-1.11-2.871,4.676,4.676,0,0,0-3.6-1.213A5.55,5.55,0,0,0,21.634,92.8c-2.569,2.216-2.28,6.089-2.412,7.386a11.407,11.407,0,0,0,3.334,8.87v18.005a3,3,0,0,0,3,3h37.75a3,3,0,0,0,3-3V109.063A3,3,0,0,0,63.305,106.063Z"/>
          <polyline class="cls-4" points="32.368 123.933 21.818 134.994 12.984 137.077 12.984 141.661 7.318 141.661 7.318 132.077 16.984 126.494 23.276 110.041"/>
          <path class="cls-4" d="M81.1,100.1H79.469a12.185,12.185,0,0,0-12.1-10.792H59.493a12.188,12.188,0,0,0,0,24.375H81.1A3.083,3.083,0,0,0,84.18,110.6v-7.417A3.083,3.083,0,0,0,81.1,100.1Z"/>
          <rect class="cls-2" x="47.305" y="95.819" width="10.625" height="20.49" rx="5.312" ry="5.312"/>
          <path class="cls-4" d="M54.055,123.433l-2.365,12.01h1.865a2.8,2.8,0,0,1,2.8,2.8v3.415H45.524v-15.81"/>
          <path class="cls-5" d="M84.18,106.767s12.8,4.208,12.8-7.646"/>
        </g>
        <line class="cls-6" x1="68.94" y1="65.433" x2="42.738" y2="65.433"/>
        <line class="cls-6" x1="73.607" y1="42.101" x2="64.139" y2="42.101"/>
        <line class="cls-6" x1="32.847" y1="53.058" x2="19.843" y2="53.058"/>
      </g>
    </g>
  </g>
</svg>
