<svg xmlns="http://www.w3.org/2000/svg" viewBox="0 0 150 150">
  <defs>
    <style>
      .cls-1, .cls-2 {
        fill: none;
      }

      .cls-2, .cls-4 {
        stroke: #7ad2c4;
        stroke-linecap: round;
        stroke-linejoin: round;
        stroke-width: 4px;
      }

      .cls-3 {
        fill: #cffbf2;
      }

      .cls-4 {
        fill: #fff;
      }
    </style>
  </defs>
  <title>Paseos 2</title>
  <g id="Capa_2" data-name="Capa 2">
    <g id="Capa_1-2" data-name="Capa 1">
      <g>
        <rect class="cls-1" width="150" height="150"/>
        <g>
          <circle class="cls-2" cx="75" cy="75" r="63.867"/>
          <circle class="cls-3" cx="75" cy="75" r="50.831"/>
          <path class="cls-4" d="M106.247,71.181a16.381,16.381,0,0,0-31.571-6.134,16.381,16.381,0,0,0-31.571,6.134,10.052,10.052,0,0,0,.074,1.46,16.282,16.282,0,0,0,.778,3.727c1.985,6.657,8.539,18.679,30.075,29.814a88.887,88.887,0,0,0,11.194-6.662s16.14-11.161,19.827-21.884c.427-1.243.738-2.619.738-2.619a18.387,18.387,0,0,0,.376-2.2A15.91,15.91,0,0,0,106.247,71.181Z"/>
          <path class="cls-2" d="M89.639,63.841A9.558,9.558,0,0,1,96.7,70.9"/>
        </g>
      </g>
    </g>
  </g>
</svg>
