<svg xmlns="http://www.w3.org/2000/svg" viewBox="0 0 38.313 31.852">
  <defs>
    <style>
      .cls-1 {
        fill: none;
        stroke: #666;
        stroke-linecap: round;
        stroke-linejoin: round;
        stroke-width: 1.5px;
      }
    </style>
  </defs>
  <title>Grande</title>
  <g id="Capa_2" data-name="Capa 2">
    <g id="Capa_1-2" data-name="Capa 1">
      <g>
        <path class="cls-1" d="M11.372,17A8.35,8.35,0,0,0,8.826,21.77c-.231,2.685-4.074,6.667-4.074,6.667l1.667,1.806s.185.833-.787.833H3.918a1.017,1.017,0,0,1-1.111-.6A20.391,20.391,0,0,1,1.7,27.6a2.033,2.033,0,0,1,.185-1.25c.324-.741,1.759-3.38,1.759-3.38a47.68,47.68,0,0,1-2.593-4.908c-.324-1.065-.463-3.75,0-4.491S3.918,8.389,3.918,8.389,3.131,4.361,5.446,3.25s6.2-1.574,8.473.185a4.4,4.4,0,0,1,1.667,5.093l-.463.787s-.845,1-1.632.949c0,0-2.073-.339-1.83-1.763"/>
        <path class="cls-1" d="M5.677,9.049s2.011-3.99,7.706-.725"/>
        <path class="cls-1" d="M18.8,9.744s-.254-2.222-2.94-1.945"/>
        <path class="cls-1" d="M17.725,8.121s1.321-1.989,5.7-1.295C23.7,5.264,25.193.75,29.95.75s4.618,5.209,4.618,5.209"/>
        <path class="cls-1" d="M32.659,7.278a2.637,2.637,0,0,1,3.021-1.25c2.118.521,1.875,1.25,1.875,1.25S36.2,10.82,35.61,10.994a16.384,16.384,0,0,1-2.952,0"/>
        <path class="cls-1" d="M25.609,10.924,30.992,16.1a5.05,5.05,0,0,0,3.716-5.027"/>
        <path class="cls-1" d="M9.03,20.7h3.731s4.63,2.277,5.324,2.277h1.528"/>
        <path class="cls-1" d="M18.8,18.714l1.644,9.028s1.945.88,2.315,1.945.833,1.473,2.176,1.408a23.176,23.176,0,0,1,2.356,0,.478.478,0,0,0,.278-.829,12.776,12.776,0,0,0-2.518-1.84l1.389-5.834a9.114,9.114,0,0,0,4.248-6.782"/>
      </g>
    </g>
  </g>
</svg>
