<svg xmlns="http://www.w3.org/2000/svg" viewBox="0 0 25.934 28.7">
  <defs>
    <style>
      .cls-1 {
        fill: #fff;
      }
    </style>
  </defs>
  <title>Compartir</title>
  <g id="Capa_2" data-name="Capa 2">
    <g id="Capa_1-2" data-name="Capa 1">
      <path class="cls-1" d="M21.611,20.286A4.2,4.2,0,0,0,18.787,21.4L8.515,15.416a4.716,4.716,0,0,0,.13-1.009,4.716,4.716,0,0,0-.13-1.009L18.672,7.478a4.313,4.313,0,1,0-1.383-3.155,4.716,4.716,0,0,0,.13,1.009L7.261,11.252a4.322,4.322,0,1,0,0,6.311L17.52,23.556a4.065,4.065,0,0,0-.115.936,4.207,4.207,0,1,0,4.207-4.207Z"/>
    </g>
  </g>
</svg>
