<svg xmlns="http://www.w3.org/2000/svg" viewBox="0 0 34.093 39.328">
  <defs>
    <style>
      .cls-1 {
        fill: #fff;
      }
    </style>
  </defs>
  <title>Registro</title>
  <g id="Capa_2" data-name="Capa 2">
    <g id="Capa_1-2" data-name="Capa 1">
      <path class="cls-1" d="M33.97,30.017a5.473,5.473,0,0,0-2.43-4.291,51.8,51.8,0,0,0-6.2-2.791c-.861-.327-3.2-1.323-5.14-2.1,3.278-1.641,5.58-5.5,5.58-9.993C25.776,4.853,21.7,0,16.666,0s-9.11,4.853-9.11,10.839c0,4.667,2.484,8.633,5.961,10.16-1.817.727-3.93,1.622-4.76,1.937a51.749,51.749,0,0,0-6.2,2.791,5.473,5.473,0,0,0-2.43,4.291,52.219,52.219,0,0,0-.092,5.428v.435a1.216,1.216,0,0,0,.874,1.174,58.459,58.459,0,0,0,15.76,2.273,58.467,58.467,0,0,0,16.519-2.273,1.219,1.219,0,0,0,.877-1.174v-.435A52.219,52.219,0,0,0,33.97,30.017Z"/>
    </g>
  </g>
</svg>
