<svg xmlns="http://www.w3.org/2000/svg" viewBox="0 0 26 26">
  <defs>
    <style>
      .cls-1 {
        fill: none;
        stroke: #6b1c9b;
        stroke-miterlimit: 10;
      }

      .cls-2 {
        fill: #6b1c9b;
      }
    </style>
  </defs>
  <title>Servicios T. Redondo</title>
  <g id="Capa_2" data-name="Capa 2">
    <g id="Capa_1-2" data-name="Capa 1">
      <g>
        <rect class="cls-1" x="0.5" y="0.5" width="25" height="25" rx="3.72" ry="3.72"/>
        <g>
          <path id="_Trazado_compuesto_" data-name=" Trazado compuesto " class="cls-2" d="M17.667,17.9a.275.275,0,0,1-.55,0V15.429a.275.275,0,1,1,.55-.024q0,.012,0,.024ZM17.392,14.7a.808.808,0,0,0-.825.733V17.9a.748.748,0,0,0,.76.737l.065,0a.808.808,0,0,0,.825-.733V15.429a.808.808,0,0,0-.824-.733Z"/>
          <path id="_Trazado_compuesto_2" data-name=" Trazado compuesto 2" class="cls-2" d="M14.552,17.9a.275.275,0,0,1-.55,0V15.429a.275.275,0,1,1,.55-.024q0,.012,0,.024ZM14.185,14.7a.808.808,0,0,0-.825.733V17.9a.748.748,0,0,0,.76.737l.065,0a.808.808,0,0,0,.825-.733V15.429c.091-.367-.275-.733-.825-.733Z"/>
          <path id="_Trazado_compuesto_3" data-name=" Trazado compuesto 3" class="cls-2" d="M11.985,17.9a.275.275,0,0,1-.55,0V15.429a.275.275,0,0,1,.55,0ZM11.71,14.7a.808.808,0,0,0-.825.733V17.9a.748.748,0,0,0,.76.737l.065,0a.808.808,0,0,0,.825-.733V15.429a.808.808,0,0,0-.825-.733Z"/>
          <path id="_Trazado_compuesto_4" data-name=" Trazado compuesto 4" class="cls-2" d="M8.869,17.721a.275.275,0,0,1-.55,0V15.246a.275.275,0,1,1,.55-.024q0,.012,0,.024ZM8.5,14.514a.808.808,0,0,0-.825.733v2.474a.748.748,0,0,0,.76.737l.065,0a.808.808,0,0,0,.825-.733V15.246C9.419,14.879,9.052,14.514,8.5,14.514Z"/>
          <path id="_Trazado_compuesto_5" data-name=" Trazado compuesto 5" class="cls-2" d="M21.333,13.413H4.653a.275.275,0,0,1,0-.55h16.68a.243.243,0,0,1,.275.275A.293.293,0,0,1,21.333,13.413Zm-2.291,4.766a1.845,1.845,0,0,1-1.743,1.1H8.5a1.713,1.713,0,0,1-1.743-1.192l-1.1-4.216H20.324ZM6.67,9.93h0A1.792,1.792,0,0,1,8.413,8.738h8.8a1.845,1.845,0,0,1,1.743,1.1h0l1.283,2.474H5.753Zm4.124-1.648H15.1V6.723H10.794Zm10.54,4.033h-.458L19.5,9.565a2.486,2.486,0,0,0-2.294-1.376H15.65V6.264h-5.5V8.282H8.5A2.32,2.32,0,0,0,6.211,9.84L5.2,12.406h-.46a.808.808,0,0,0-.825.733.748.748,0,0,0,.761.736l.064,0h.37l1.008,4.308h0a2.4,2.4,0,0,0,2.291,1.558h8.8A2.486,2.486,0,0,0,19.5,18.364l1.373-4.4h.367a.808.808,0,0,0,.828-.735.739.739,0,0,0-.734-.916Z"/>
        </g>
      </g>
    </g>
  </g>
</svg>
