<svg xmlns="http://www.w3.org/2000/svg" viewBox="0 0 29.795 29.797">
  <defs>
    <style>
      .cls-1 {
        fill: #666;
      }

      .cls-2 {
        fill: none;
        stroke: #666565;
        stroke-linejoin: round;
      }
    </style>
  </defs>
  <title>Hospedaje_2</title>
  <g id="Capa_2" data-name="Capa 2">
    <g id="Capa_1-2" data-name="Capa 1">
      <g>
        <path class="cls-1" d="M29.631,13.5,15.243.136a.508.508,0,0,0-.691,0L.164,13.5a.514.514,0,0,0,.7.753l1.705-1.583V29.8H27.226V12.665l1.705,1.583a.514.514,0,0,0,.7-.753ZM26.2,28.77H3.6V11.711L14.9,1.217,26.2,11.711Z"/>
        <path class="cls-2" d="M20.7,13.19a4.076,4.076,0,0,0-.411-.321,3.918,3.918,0,0,0-3.53-.588A3.838,3.838,0,0,0,14.6,14.634a3.838,3.838,0,0,0-2.156-2.353,3.918,3.918,0,0,0-3.53.588,4.076,4.076,0,0,0-.411.321,3.877,3.877,0,0,0-.112,5.537l5.508,5.79a.967.967,0,0,0,1.4,0l5.508-5.79A3.877,3.877,0,0,0,20.7,13.19Z"/>
      </g>
    </g>
  </g>
</svg>
