<?xml version="1.0" encoding="utf-8"?>
<!-- Generator: Adobe Illustrator 19.2.1, SVG Export Plug-In . SVG Version: 6.00 Build 0)  -->
<svg version="1.1" id="Capa_1" xmlns="http://www.w3.org/2000/svg" xmlns:xlink="http://www.w3.org/1999/xlink" x="0px" y="0px"
	 viewBox="0 0 2748.1 509.8" style="enable-background:new 0 0 2748.1 509.8;" xml:space="preserve">
<style type="text/css">
	.st0{fill:#FAFAFA;}
	.st1{fill:#7AD2C4;}
	.st2{fill:none;stroke:#000000;stroke-width:2;stroke-miterlimit:10;}
	.st3{fill:none;stroke:#639E93;stroke-width:2;stroke-miterlimit:10;}
	.st4{opacity:0.5;fill-rule:evenodd;clip-rule:evenodd;fill:#FFFFFF;}
	.st5{fill-rule:evenodd;clip-rule:evenodd;fill:#71BCAD;}
	.st6{fill-rule:evenodd;clip-rule:evenodd;fill:#62A89A;}
	.st7{fill:#6AADA0;}
	.st8{fill:#78C1B3;}
	.st9{fill:#528279;}
	.st10{fill:#5F9E92;}
	.st11{fill:none;stroke:#53877D;stroke-width:5;stroke-miterlimit:10;}
	.st12{fill:#62A89A;}
	.st13{fill:#53877D;}
	.st14{fill:#598E84;}
	.st15{fill:#11BF58;}
	.st16{fill:#14AD51;}
	.st17{fill:#62A094;}
	.st18{fill:#D8C39E;}
	.st19{fill:#00C5E5;}
	.st20{fill:#BCA46F;}
	.st21{fill:#84714A;}
	.st22{fill:#575E60;}
	.st23{fill:#29373A;}
	.st24{fill:#FFFFFF;}
	.st25{fill:#C993A4;}
	.st26{fill:#FF2963;}
	.st27{fill:#DBDBDB;}
	.st28{fill:#716B6A;}
	.st29{fill:#615756;}
	.st30{fill:#F7BD9F;}
	.st31{fill:#E53F2F;}
	.st32{fill:#84211C;}
	.st33{fill:#DFA27D;}
	.st34{fill:#76A2BA;}
	.st35{fill:#84ADC6;}
	.st36{fill:#020303;}
	.st37{fill:#A95E34;}
	.st38{fill:#D4375C;}
	.st39{fill:#DE6A82;}
	.st40{fill:#F1B499;}
	.st41{fill:#5F93AF;}
	.st42{fill:#A56132;}
	.st43{fill:#DCA162;}
	.st44{fill:#F3A59C;}
	.st45{fill:#149141;}
	.st46{fill-rule:evenodd;clip-rule:evenodd;fill:#E4E4E4;}
	.st47{fill-rule:evenodd;clip-rule:evenodd;fill:#D2D2D2;}
	.st48{fill-rule:evenodd;clip-rule:evenodd;fill:#EE5A24;}
	.st49{fill-rule:evenodd;clip-rule:evenodd;fill:#BBBBBB;}
	.st50{fill-rule:evenodd;clip-rule:evenodd;fill:#F5901C;}
	.st51{fill-rule:evenodd;clip-rule:evenodd;fill:#979A9A;}
	.st52{fill-rule:evenodd;clip-rule:evenodd;fill:#1D1D1C;}
	.st53{fill-rule:evenodd;clip-rule:evenodd;fill:#050504;}
	.st54{fill-rule:evenodd;clip-rule:evenodd;fill:#F39000;}
	.st55{fill-rule:evenodd;clip-rule:evenodd;fill:#AC0D0D;}
	.st56{fill-rule:evenodd;clip-rule:evenodd;fill:#A4A4A4;}
	.st57{fill-rule:evenodd;clip-rule:evenodd;fill:#A4A8AB;}
	.st58{fill-rule:evenodd;clip-rule:evenodd;fill:#ABABAB;}
	.st59{fill-rule:evenodd;clip-rule:evenodd;fill:#F5CD4E;}
	.st60{fill-rule:evenodd;clip-rule:evenodd;fill:#B69B71;}
	.st61{fill-rule:evenodd;clip-rule:evenodd;fill:#F7D171;}
	.st62{fill-rule:evenodd;clip-rule:evenodd;fill:#F2A829;}
	.st63{fill-rule:evenodd;clip-rule:evenodd;fill:#CBA069;}
	.st64{fill-rule:evenodd;clip-rule:evenodd;fill:#F0AF6F;}
	.st65{fill-rule:evenodd;clip-rule:evenodd;fill:#EB880B;}
	.st66{fill-rule:evenodd;clip-rule:evenodd;fill:#B48934;}
	.st67{fill-rule:evenodd;clip-rule:evenodd;fill:#1A1B1A;}
	.st68{fill:#F2BE8C;}
	.st69{fill:#D0A27E;}
	.st70{fill:#FFBF8B;}
	.st71{clip-path:url(#XMLID_331_);}
	.st72{fill:#DDB397;}
	.st73{fill:#EA8B9F;}
	.st74{fill:#E25271;}
	.st75{fill:#301614;}
	.st76{fill:#080808;}
	.st77{fill:#565656;}
	.st78{fill:#A5A5A5;}
	.st79{fill:#00D8B5;}
	.st80{fill:#00B190;}
	.st81{fill:#3F3E43;}
	.st82{fill:#FFFFBD;}
	.st83{fill:#D3D1A5;}
	.st84{fill-rule:evenodd;clip-rule:evenodd;fill:#79D6B3;}
	.st85{clip-path:url(#XMLID_333_);}
	.st86{opacity:0.5;}
	.st87{fill:#017761;}
	.st88{fill:#CC9F7A;}
	.st89{opacity:0.95;}
	.st90{fill:#1E1E1E;}
	.st91{fill:#79562E;}
	.st92{fill:#100800;}
	.st93{fill:#372E29;}
	.st94{fill:#FFD18D;}
	.st95{fill:#A3EEB3;}
	.st96{fill:#48C9AF;}
	.st97{fill:#8BA4CC;}
	.st98{fill:#C6C6C6;}
	.st99{fill:#67686A;}
	.st100{fill:#9E1B15;}
	.st101{fill-rule:evenodd;clip-rule:evenodd;fill:#907442;}
	.st102{fill-rule:evenodd;clip-rule:evenodd;fill:#DA2243;}
	.st103{fill-rule:evenodd;clip-rule:evenodd;fill:#FFFFFF;}
	.st104{fill-rule:evenodd;clip-rule:evenodd;fill:#2A1612;}
	.st105{fill-rule:evenodd;clip-rule:evenodd;}
	.st106{fill-rule:evenodd;clip-rule:evenodd;fill:#E8BCB3;}
	.st107{fill-rule:evenodd;clip-rule:evenodd;fill:#355963;}
	.st108{fill-rule:evenodd;clip-rule:evenodd;fill:#CA5B64;}
	.st109{fill-rule:evenodd;clip-rule:evenodd;fill:#450014;}
	.st110{fill-rule:evenodd;clip-rule:evenodd;fill:#69B596;}
	.st111{fill-rule:evenodd;clip-rule:evenodd;fill:#272425;}
	.st112{fill-rule:evenodd;clip-rule:evenodd;fill:#60546E;}
	.st113{fill-rule:evenodd;clip-rule:evenodd;fill:#CACACA;}
	.st114{fill-rule:evenodd;clip-rule:evenodd;fill:#E7998A;}
	.st115{fill:url(#SVGID_1_);}
	.st116{fill:#333333;}
	.st117{fill:#999999;}
	.st118{fill:#F1F1F1;}
	.st119{opacity:0.15;}
	.st120{fill:none;}
	.st121{fill:none;stroke:#999999;stroke-width:5;stroke-miterlimit:10;}
	.st122{clip-path:url(#XMLID_337_);}
	.st123{clip-path:url(#XMLID_339_);}
	.st124{fill:url(#SVGID_2_);}
</style>
<g>
	<path class="st1" d="M1682.4,175.4c6,5,20.4,3.6,30.3-4.7c9.9-8.4,14.9-23.8,7.4-32.9c-7.5-9.1-22-6.5-32.3,3.6
		C1675.9,153.3,1676.9,170.9,1682.4,175.4z"/>
	<path class="st1" d="M1725.2,211c7.7,3.6,21.2-4.2,25-16.4c2.2-7.1,1-19.6-5.1-22.6c-5.8-3-15.9,1.4-22.2,9.4
		C1715.9,190.4,1716.7,207.1,1725.2,211z"/>
	<path class="st1" d="M1568.9,211.5c8.7,6.3,25.1-0.9,31.6-11.8c5.4-9,4.9-24.2-0.4-28.2c-5.3-4-18.3-2.7-27.7,6.8
		C1562,188.7,1561.1,205.9,1568.9,211.5z"/>
	<path class="st1" d="M1657.7,161.4c6.9-9,9.9-23.6,2.7-30c-10.3-8.8-24.5-2-29.5,1.6c-15.7,11.3-16.7,32.1-10.7,38
		C1625.5,176.3,1646.1,176.7,1657.7,161.4z"/>
	<path class="st1" d="M1713.5,219.7c-12.6-21.4-35.3-34.6-62.5-35.1c-14.3-0.3-18.8,12.8-18.8,18.4c0,5.6,3.6,16.8,17,18
		c13.4,1.2,25.7,7.6,36.3,21.6c10.6,14,14.3,40.4-4.1,71.2c-14.7,24.6-44.2,42.8-77,41.8c-8.3-0.3-22.3-3.9-31-16.5
		c-8.5-12.4-7.8-28.5-3.1-37.7c8.1-15.9,26.6-33.8,50.2-39.3c18.1-4.2,12-30.2-4.7-26.8c-16.7,3.5-46,15.5-65.3,46.5
		c-19.2,31-18.1,55-3.7,78.5c14.5,23.5,35.9,29.3,59.8,29.8c36.6,0.7,87.2-21.3,109.4-75.8C1729.7,280.8,1728.2,244.8,1713.5,219.7z
		"/>
	<path class="st1" d="M1815.7,205.7c-10.4-13.2-25.6-15.3-36.5-12.1s-17.7,10.3-20.7,15.5c-3.1,5.2-4.8,10.8-6,18.3
		c-1.2,7.5,1.7,20.1,4.4,26.2s10.3,23.2,19,37.5c8.7,14.3,12.1,22.6,13.2,29.4c1.1,6.7-4.4,19.4-18.4,19.4
		c-13.4,0-19.5-14.3-15.9-25.4c2.4-7.3-1.6-14.5-7.8-17c-8.8-3.5-15.5,2.1-17.7,6.8c-2.2,4.7-6.8,13.4-5.4,26.7
		c1.3,13.3,10.1,28.9,30.7,33.6c20.5,4.8,39.1-5.7,48.1-15.2c10.7-11.3,15.4-22.6,12.2-37.5c-3.2-14.8-7.7-22.2-14.7-31.2
		c-3.5-4.5-13-16.7-19.6-27.4c-6.1-9.9-8.9-17.6-9.2-23.1s4.6-14.4,14.4-14.4c9.2,0,14.4,8.4,14.4,14.2c0,4.7-1.3,5.3-0.6,9.2
		c0.7,3.9,4.5,8.8,10.7,8.8c6.3,0,9.6-4.1,11.3-9.9C1823.3,232.3,1826.1,218.9,1815.7,205.7z"/>
	<path class="st1" d="M1464,218.6c0,0-6.8-31.5-30-31.5s-39.1,31.4-39.1,31.4s3.9-10.8-7.8-21.3c-13-11.7-29.1-7.7-28.3,5.2
		c0.7,12.6-0.6,47.1-1,52.2c-0.3,5.1-1.7,32.4-9.8,79.3c-2.3,12.3,12.4,12.4,19.2,10.4c6.8-2,12.8-6.1,14.5-16.5
		c1.7-10.4,5.5-36.1,6.6-47.7c1.1-11.7,11.7-58.7,35-60.1c18.2-1.1,12.8,39.2,12.1,45.3c-2.5,23.2-5.2,38.9-7.6,51.1
		c-3.6,18.3,6.8,30.2,15.3,30.2c6,0,10.9-3.2,13.8-16.1c5.1-23.1,9.1-50.8,11.8-74.4c2.3-20.4,5.3-27.5,14.3-33.9
		c5.4-3.9,15.8-3.8,15.7,9s-1.2,18.9-3.6,43.1c-2.3,24.2-5.6,35-7,45.2c-1.4,10.2,3.1,22.9,13.4,26.8c10.4,3.9,14.8-9.3,16.2-15.8
		c1.3-6.4,6.6-30.3,11.2-68.2c4.6-37.9,5-53.6-8.5-69.8C1507.6,177,1479.9,188.5,1464,218.6z"/>
	<path class="st1" d="M1206.1,218.6c0,0-6.8-31.5-30-31.5c-23.2,0-39.1,31.4-39.1,31.4s3.9-10.8-7.8-21.3
		c-13-11.7-29.1-7.7-28.3,5.2c0.7,12.6-0.6,47.1-1,52.2c-0.3,5.1-1.7,32.4-9.8,79.3c-2.3,12.3,12.4,12.4,19.2,10.4
		s12.8-6.1,14.5-16.5c1.7-10.4,5.5-36.1,6.6-47.7c1.1-11.7,11.7-58.7,35-60.1c18.2-1.1,12.8,39.2,12.1,45.3
		c-2.5,23.2-5.2,38.9-7.6,51.1c-3.6,18.3,6.8,30.2,15.3,30.2c6,0,10.9-3.2,13.8-16.1c5.1-23.1,9.1-50.8,11.8-74.4
		c2.3-20.4,5.3-27.5,14.3-33.9c5.4-3.9,15.8-3.8,15.7,9c-0.1,12.7-1.2,18.9-3.6,43.1c-2.3,24.2-5.6,35-7,45.2
		c-1.4,10.2,3.1,22.9,13.4,26.8c10.4,3.9,14.8-9.3,16.2-15.8c1.3-6.4,6.6-30.3,11.2-68.2c4.6-37.9,5-53.6-8.5-69.8
		C1249.8,177,1222,188.5,1206.1,218.6z"/>
	<path class="st1" d="M1058.1,181.2c-17.1,14-30.4,24.3-56.4,42.1c0,0,15.4-60.2,19.3-78.1c3.9-18-12.1-40.7-26-32
		c-13.9,8.8-12.5,22-16.3,43.9c-3.9,21.8-5.7,31.4-12.1,62.8c-6.4,31.4-29,113-31.1,119.6c-2,6.6,0.6,17,17.4,17.8
		c16.8,0.8,24-9.4,25.1-13.8c1-4.4,10.5-44.7,14.9-68.8c0,0,23.4,43.4,35.4,63.3c12,19.9,41.2,16.7,43.2,4.3
		c1.6-9.3-0.9-8.7-16.2-30c-15.3-21.3-42.7-61.7-45.1-65.5c0,0,34.5-10.2,63.7-31.3c8.3-6.5,12.1-20.7,9.6-29.9
		C1080.6,175.5,1070.6,170.9,1058.1,181.2z"/>
	<path class="st1" d="M1320.5,225.8c-10.1,0-23.1,5.4-25.3,15.1c-2.1,9.7-8,63-9.6,80.4c-1.9,19.7,14.2,28.6,21.3,30.4
		c6.3,1.6,12.6-3.2,13.6-9.9c1-6.7,2.7-20.1,7.8-51.7c5.1-31.6,9.7-46.9,9.9-51.7C1338.4,233.6,1333.6,225.8,1320.5,225.8z"/>
	
		<ellipse transform="matrix(0.9696 -0.2446 0.2446 0.9696 -7.3606 328.903)" class="st1" cx="1320.5" cy="194.1" rx="23.8" ry="19.1"/>
</g>
<linearGradient id="SVGID_1_" gradientUnits="userSpaceOnUse" x1="1379.0769" y1="729.5083" x2="1379.0769" y2="471.3333">
	<stop  offset="0.5758" style="stop-color:#FFFFFF;stop-opacity:0"/>
	<stop  offset="0.894" style="stop-color:#000000;stop-opacity:0.5"/>
</linearGradient>
<rect y="509.8" class="st115" width="2758.2" height="177.1"/>
</svg>
