<svg xmlns="http://www.w3.org/2000/svg" viewBox="0 0 150.5 139.938">
  <defs>
    <style>
      .cls-1, .cls-4 {
        fill: #a171ff;
      }

      .cls-1, .cls-2, .cls-3, .cls-5, .cls-6 {
        stroke: #572a99;
        stroke-linecap: round;
        stroke-width: 2px;
      }

      .cls-1, .cls-2, .cls-5, .cls-6 {
        stroke-linejoin: round;
      }

      .cls-2 {
        fill: #fff;
      }

      .cls-3 {
        fill: #7d40dd;
        stroke-miterlimit: 10;
      }

      .cls-5 {
        fill: none;
      }

      .cls-6 {
        fill: #572a99;
      }
    </style>
  </defs>
  <title>Consulta virtual</title>
  <g id="Capa_2" data-name="Capa 2">
    <g id="Capa_1-2" data-name="Capa 1">
      <g>
        <rect class="cls-1" x="1" y="21.577" width="131.75" height="93.361"/>
        <rect class="cls-2" x="9.167" y="29.604" width="113.5" height="74.167"/>
        <rect class="cls-3" x="59.999" y="50.115" width="17.001" height="7.823"/>
        <path class="cls-3" d="M86.264,9.028S97.375,20.063,86,34.125C76.447,34.125,73.255,17.109,86.264,9.028Z"/>
        <path class="cls-2" d="M86,22.563V36.75A16.437,16.437,0,0,1,69.563,53.188h0A16.437,16.437,0,0,1,53.125,36.75V15.063H78.5a7.5,7.5,0,0,1,7.5,7.5Z"/>
        <path class="cls-3" d="M53.125,30.438s-.5-9.25,13.25-10a21.4,21.4,0,0,0,20.5-19.25C77,1.188,53.5-1.687,47.125,15.063S53.125,30.438,53.125,30.438Z"/>
        <path class="cls-2" d="M55.625,37.813H51.5a3.687,3.687,0,0,1-3.687-3.687h0A3.687,3.687,0,0,1,51.5,30.438h4.125"/>
        <path class="cls-2" d="M113,103.771,90.631,63.034a9.824,9.824,0,0,0-8.612-5.1H46.274A14.555,14.555,0,0,0,31.842,70.6L27.5,103.771Z"/>
        <polygon class="cls-4" points="67.667 96.938 55.625 57.938 77.636 57.938 67.667 96.938"/>
        <polyline class="cls-5" points="46.167 57.938 53.125 66.271 47.813 70.271 67.667 96.938 55.625 57.938"/>
        <polyline class="cls-5" points="77.636 57.938 67.667 96.938 86 71.271 81.333 66.271 86.842 59.208"/>
        <line class="cls-5" x1="45.3" y1="103.771" x2="46.167" y2="85.771"/>
        <line class="cls-5" x1="92.167" y1="103.771" x2="91.125" y2="84.271"/>
        <path class="cls-5" d="M113.313,103.771,90.944,63.034a9.824,9.824,0,0,0-8.612-5.1H46.587A14.555,14.555,0,0,0,32.154,70.6l-4.342,33.167Z"/>
        <path class="cls-3" d="M46.417,128.438h42.5a6.833,6.833,0,0,1,6.833,6.833v3.667a0,0,0,0,1,0,0H39.583a0,0,0,0,1,0,0v-3.667A6.833,6.833,0,0,1,46.417,128.438Z"/>
        <rect class="cls-6" x="55.083" y="114.938" width="25.167" height="13.5"/>
        <polygon class="cls-2" points="149.5 65.418 116.5 65.418 106.167 71.688 106.167 40.184 149.5 40.184 149.5 65.418"/>
        <line class="cls-5" x1="117" y1="49.188" x2="140.5" y2="49.188"/>
        <line class="cls-5" x1="117" y1="56.688" x2="140.5" y2="56.688"/>
      </g>
    </g>
  </g>
</svg>
