<svg xmlns="http://www.w3.org/2000/svg" viewBox="0 0 59.641 60.458">
  <defs>
    <style>
      .cls-1 {
        fill: #cdf3fc;
      }

      .cls-2 {
        fill: #95ebf9;
      }

      .cls-3 {
        fill: #fff;
      }

      .cls-4 {
        fill: #00d2c6;
      }

      .cls-5 {
        fill: none;
        stroke: #00d2c6;
        stroke-linejoin: round;
        stroke-width: 2px;
      }
    </style>
  </defs>
  <title>Servicios baño</title>
  <g id="Capa_2" data-name="Capa 2">
    <g id="Capa_1-2" data-name="Capa 1">
      <g>
        <polygon class="cls-1" points="22.089 9.166 23.328 3.593 28.584 1.191 44.764 1.191 44.538 6.146 43.037 6.604 27.42 6.604 25.092 9.825 22.878 10.05 22.089 9.166"/>
        <g>
          <rect class="cls-2" x="32.831" y="12.499" width="14.456" height="4.053"/>
          <g id="Group">
            <path class="cls-3" d="M28.425,18.129H52.039a6.335,6.335,0,0,1,6.335,6.335v35a0,0,0,0,1,0,0H22.089a0,0,0,0,1,0,0v-35A6.335,6.335,0,0,1,28.425,18.129Z"/>
            <polygon class="cls-2" points="33.338 53.956 36.087 49.231 42.731 48.778 45.825 51.367 46.781 54.687 44.981 55.081 39.806 54.068 35.531 55.081 33.338 53.956"/>
            <circle class="cls-2" cx="32.541" cy="45.396" r="1.828"/>
            <circle class="cls-2" cx="39.835" cy="43.709" r="2.166"/>
            <ellipse class="cls-1" cx="9.932" cy="36.143" rx="6.212" ry="4.875"/>
            <circle class="cls-2" cx="48.45" cy="45.743" r="1.8"/>
            <g id="Group-2">
              <g id="Fill_1" data-name="Fill 1">
                <g id="path1_fill" data-name="path1 fill">
                  <path class="cls-4" d="M40.078,49.558c2.986,0,5.41,1.816,5.41,4.06a.73.73,0,0,1-.111.4H45.4a1.119,1.119,0,0,1-.389.07q-.052,0-.1,0a13.626,13.626,0,0,1-2.294-.325,13.963,13.963,0,0,0-2.55-.344,14.909,14.909,0,0,0-2.676.355,13.346,13.346,0,0,1-2.2.314l-.065,0a1.363,1.363,0,0,1-.37-.051.73.73,0,0,1-.076-.413c0-2.24,2.424-4.06,5.41-4.06m0-2c-4.05,0-7.352,2.671-7.409,5.973a2.721,2.721,0,0,0,.3,1.415,2,2,0,0,0,1.235,1.01,3.363,3.363,0,0,0,.915.127q.081,0,.162,0a15.427,15.427,0,0,0,2.552-.362,12.949,12.949,0,0,1,2.23-.3,12.006,12.006,0,0,1,2.1.291,15.677,15.677,0,0,0,2.6.371q.122.01.245.01a3.109,3.109,0,0,0,1.084-.194,2,2,0,0,0,1.216-1.284,2.725,2.725,0,0,0,.181-1.018c0-3.369-3.255-6.031-7.41-6.031Z"/>
                </g>
              </g>
              <g id="Fill_2" data-name="Fill 2">
                <g id="path2_fill" data-name="path2 fill">
                  <path class="cls-4" d="M32.626,44.122c.432,0,.918.543.918,1.265s-.486,1.266-.918,1.266-.918-.543-.918-1.266.486-1.265.918-1.265m0-2a3.286,3.286,0,0,0,0,6.531,3.286,3.286,0,0,0,0-6.531Z"/>
                </g>
              </g>
              <g id="Fill_3" data-name="Fill 3">
                <g id="path3_fill" data-name="path3 fill">
                  <path class="cls-4" d="M40.276,42.034v.008c.432,0,.918.543.918,1.265s-.486,1.266-.918,1.266-.918-.543-.918-1.266.482-1.273.918-1.273m0-2a3.29,3.29,0,1,0,2.918,3.273,3.165,3.165,0,0,0-2.561-3.241,2.005,2.005,0,0,0-.356-.032Z"/>
                </g>
              </g>
              <g id="Fill_4" data-name="Fill 4">
                <g id="path4_fill" data-name="path4 fill">
                  <path class="cls-4" d="M47.923,44.118c.432,0,.918.543.918,1.266s-.486,1.269-.918,1.269v0c-.436,0-.918-.543-.918-1.266s.486-1.266.918-1.266m0-2a3.11,3.11,0,0,0-2.918,3.266,3.149,3.149,0,0,0,2.663,3.253,2.011,2.011,0,0,0,.254.016,3.15,3.15,0,0,0,2.918-3.269,3.11,3.11,0,0,0-2.918-3.266Z"/>
                </g>
              </g>
              <g id="Fill_5" data-name="Fill 5">
                <g id="path5_fill" data-name="path5 fill">
                  <path class="cls-4" d="M43.67,2a.486.486,0,0,1,.483.438V5.179a.486.486,0,0,1-.483.441l-.041,0-13.377.008c-.148-.012-.3-.018-.442-.018a5.474,5.474,0,0,0-5.124,3.554H22.7C23.084,2,27.518,2,30.791,2H43.629l.041,0m2.92,10.858a.486.486,0,0,1,.483.441v3.058h-13.6l0-3.058a.486.486,0,0,1,.483-.441l.041,0H46.55l.041,0m4.878,5.605a6.186,6.186,0,0,1,6.15,5.579v2.929q-.753-.048-1.505-.047a23.882,23.882,0,0,0-13.531,4.2,16.937,16.937,0,0,1-10.211,3.424q-.64,0-1.282-.049a12.234,12.234,0,0,1-8.159-4.053v-6.4a6.187,6.187,0,0,1,6.15-5.579c.168,0,.336.007.507.021l0,0H50.966q.253-.02.5-.02m4.766,10.56q.7,0,1.406.046V58.447l-34.714.011V33.608A15.387,15.387,0,0,0,30.8,36.6q.849.08,1.709.08A20.1,20.1,0,0,0,44.26,32.706a21.314,21.314,0,0,1,11.975-3.682M43.67,0l-.081,0h-12.8c-3.117,0-9.6,0-10.087,9.054a2,2,0,0,0,2,2.107h1.984a2,2,0,0,0,1.873-1.3A3.489,3.489,0,0,1,29.81,7.608c.093,0,.187,0,.282.011q.08.006.161.006h0L43.59,7.618l.08,0a2.474,2.474,0,0,0,2.475-2.259q.008-.091.008-.182V2.438c0-.066,0-.132-.01-.2A2.477,2.477,0,0,0,43.67,0Zm2.92,10.858-.081,0H34.031l-.081,0a2.474,2.474,0,0,0-2.475,2.259c-.006.061-.008.123-.008.185l0,3.058q0,.062,0,.123H29.606q-.264-.017-.526-.017a8.155,8.155,0,0,0-8.14,7.383q-.01.1-.01.2v6.4a2,2,0,0,0,.507,1.331q.119.133.241.264a2,2,0,0,0-.752,1.563V58.458a2,2,0,0,0,2,2h0l34.714-.011a2,2,0,0,0,2-2V29.07A1.992,1.992,0,0,0,59.332,28a2,2,0,0,0,.286-1.031V24.042q0-.1-.01-.2a8.155,8.155,0,0,0-8.14-7.383q-.287,0-.578.02H49.07c0-.042,0-.083,0-.126V13.3q0-.091-.008-.182a2.474,2.474,0,0,0-2.475-2.259Z"/>
                </g>
              </g>
              <g id="Fill_6" data-name="Fill 6">
                <g id="path6_fill" data-name="path6 fill">
                  <path class="cls-4" d="M8.664,14.976q.07,0,.14.006a1.587,1.587,0,1,1-1.87,1.56,1.74,1.74,0,0,1,1.729-1.565m0-2h0a3.727,3.727,0,0,0-3.719,3.365c-.007.066-.01.132-.01.2a3.587,3.587,0,1,0,4.226-3.526q-.1-.018-.2-.026-.151-.012-.3-.012Z"/>
                </g>
              </g>
              <g id="Fill_7" data-name="Fill 7">
                <g id="path7_fill" data-name="path7 fill">
                  <path class="cls-4" d="M10.307,31.9a4.657,4.657,0,0,1,4.629,4.2,4.657,4.657,0,0,1-4.63,4.2q-.188,0-.379-.015v0c-.127.01-.254.015-.379.015A4.657,4.657,0,0,1,4.92,36.1a4.657,4.657,0,0,1,4.629-4.2q.188,0,.379.015c.127-.01.254-.015.379-.015m0-2q-.188,0-.379.011-.191-.011-.379-.011a6.632,6.632,0,0,0-6.619,6,2,2,0,0,0,0,.394,6.632,6.632,0,0,0,6.619,6q.172,0,.346-.009.207.013.412.013a6.631,6.631,0,0,0,6.62-6.006,2,2,0,0,0,0-.393,6.632,6.632,0,0,0-6.619-6Z"/>
                </g>
              </g>
              <g id="Fill_8" data-name="Fill 8">
                <g id="path8_fill" data-name="path8 fill">
                  <path class="cls-4" d="M3.979,50.506a1.461,1.461,0,1,1-.26,2.9A1.46,1.46,0,1,1,3.2,50.529a1.46,1.46,0,0,1,.516,0,1.471,1.471,0,0,1,.26-.023m0-2q-.13,0-.26.01-.129-.01-.257-.01a3.461,3.461,0,0,0,0,6.921c.086,0,.173,0,.26-.01s.172.01.257.01a3.461,3.461,0,0,0,0-6.921Z"/>
                </g>
              </g>
            </g>
          </g>
          <line class="cls-5" x1="40.171" y1="12.85" x2="40.171" y2="5.62"/>
        </g>
      </g>
    </g>
  </g>
</svg>
