<svg xmlns="http://www.w3.org/2000/svg" viewBox="0 0 67.245 61.279">
  <defs>
    <style>
      .cls-1 {
        fill: #cffbf2;
      }

      .cls-2 {
        fill: #fff;
      }

      .cls-3 {
        fill: #b1f8e7;
      }

      .cls-4 {
        fill: #00d2c6;
      }
    </style>
  </defs>
  <title>Servicios corte</title>
  <g id="Capa_2" data-name="Capa 2">
    <g id="Capa_1-2" data-name="Capa 1">
      <g>
        <polyline class="cls-1" points="52.193 32.643 49.05 0.651 45.591 1.871 45.381 32.643 52.193 32.643"/>
        <path class="cls-2" d="M48.8,1.282l2.9,32.359,4.2.488L55.46,54.638l2.5,3.275s3.186,1.156,5.042.375a5.032,5.032,0,0,0,2.542-2.673L59.106.957Z"/>
        <polygon class="cls-1" points="58.953 0.499 65.54 55.615 64.362 2.84 58.953 0.499"/>
        <polygon class="cls-3" points="28.841 28.04 24.478 18.604 21.333 28.421 25.087 38.846 26.964 35.535 28.841 28.04"/>
        <g>
          <polygon class="cls-2" points="24.765 21.069 31.545 1.208 32.525 1.482 33.395 3.263 29.13 27.827 24.765 21.069"/>
          <path class="cls-4" d="M60.62,2a2.74,2.74,0,0,1,2.74,2.74c.627,17.643,1.254,31.123,1.881,48.766a4.584,4.584,0,0,1-4.483,4.162c-.082,0-.164,0-.247-.007a4.561,4.561,0,0,1-4.2-4.155l.717-20.251a.564.564,0,0,0-.564-.584H47.886a1.5,1.5,0,0,1-1.365-2.122,1.705,1.705,0,0,1,1.588-1.016H56.46a.726.726,0,0,0,0-1.451H47.886a1.5,1.5,0,0,1-1.365-2.122,1.705,1.705,0,0,1,1.588-1.016h8.514a.726.726,0,1,0,0-1.451H47.886A1.5,1.5,0,0,1,46.52,21.37a1.7,1.7,0,0,1,1.588-1.016h8.676a.726.726,0,0,0,0-1.451h-8.9a1.5,1.5,0,0,1-1.365-2.122,1.705,1.705,0,0,1,1.588-1.016h8.839a.726.726,0,1,0,0-1.451H47.886a1.5,1.5,0,0,1-1.365-2.122,1.705,1.705,0,0,1,1.588-1.016h9a.726.726,0,1,0,0-1.451H47.886A1.5,1.5,0,0,1,46.52,7.6a1.705,1.705,0,0,1,1.588-1.016h9.164a.726.726,0,0,0,0-1.451H47.886A1.5,1.5,0,0,1,46.52,3.016,1.705,1.705,0,0,1,48.109,2H60.62m0-2H48.109a3.684,3.684,0,0,0-3.437,2.253,3.51,3.51,0,0,0,.559,3.662,3.6,3.6,0,0,0-.249,4.26,3.517,3.517,0,0,0,.249.329,3.6,3.6,0,0,0-.249,4.26,3.519,3.519,0,0,0,.249.329,3.6,3.6,0,0,0-.249,4.26,3.528,3.528,0,0,0,.249.329,3.6,3.6,0,0,0-.249,4.26,3.517,3.517,0,0,0,.249.329,3.6,3.6,0,0,0-.249,4.26,3.528,3.528,0,0,0,.249.329,3.6,3.6,0,0,0-.249,4.26,3.489,3.489,0,0,0,2.9,1.552h7.091l-.665,18.765,0,.128.012.128A6.575,6.575,0,0,0,60.4,59.657c.121.007.242.011.363.011a6.605,6.605,0,0,0,6.474-5.97l.013-.131,0-.132c-.314-8.825-.633-16.738-.941-24.391S65.673,13.5,65.36,4.7A4.745,4.745,0,0,0,60.62,0Z"/>
          <path class="cls-4" d="M32.045,2c.242,0,.5.28.479,1.512-.042,2.186-4.5,28.138-4.915,30.382-.531.921-1.748,2.86-1.748,2.86l-2.495-8.926L31.655,2.194A.656.656,0,0,1,32.045,2m0-2h0a2.6,2.6,0,0,0-1.826.8l-.324.334-.143.443L21.463,27.212l-.185.573.162.58,2.495,8.926,1.217,4.355,2.4-3.831c.05-.08,1.242-1.981,1.786-2.923l.173-.3.062-.339c.224-1.22,4.9-28.17,4.948-30.7A3.859,3.859,0,0,0,33.688.694,2.287,2.287,0,0,0,32.045,0Z"/>
          <g>
            <path class="cls-1" d="M36.543,60.279A10.06,10.06,0,0,1,26.5,50.51L19.436,38.5,16.98,34.244l-.031-.17c-.45-2.453-4.241-28.259-4.285-30.543a2.856,2.856,0,0,1,.549-2.137A1.3,1.3,0,0,1,14.144,1a1.621,1.621,0,0,1,1.107.5l.171.177.07.236S23.525,29.118,25.84,36.877a6.9,6.9,0,0,0,5.069,5.045,9.944,9.944,0,0,1,5.633-1.738,10.048,10.048,0,0,1,0,20.1Zm-.149-15.163a5.115,5.115,0,1,0,5.115,5.115A5.121,5.121,0,0,0,36.394,45.116Z"/>
            <path class="cls-4" d="M14.143,2a.656.656,0,0,1,.39.194S22.566,29.4,24.882,37.163A7.913,7.913,0,0,0,31.122,43,9.04,9.04,0,1,1,27.5,50.231L20.3,37.993l-2.365-4.1c-.412-2.243-4.226-28.2-4.268-30.381C13.641,2.28,13.9,2,14.143,2m22.25,54.346a6.115,6.115,0,1,0-6.115-6.115,6.115,6.115,0,0,0,6.115,6.115M14.144,0h0A2.287,2.287,0,0,0,12.5.694a3.859,3.859,0,0,0-.835,2.856c.048,2.515,4.016,29.157,4.3,30.7l.062.339.172.3,1.183,2.05,1.182,2.05L25.51,50.8A11.048,11.048,0,1,0,36.543,39.183a10.922,10.922,0,0,0-5.793,1.65A5.879,5.879,0,0,1,26.8,36.591C24.51,28.923,16.532,1.9,16.451,1.628l-.139-.472L15.969.8A2.6,2.6,0,0,0,14.144,0Zm22.25,54.346a4.115,4.115,0,1,1,4.115-4.115,4.119,4.119,0,0,1-4.115,4.115Z"/>
          </g>
          <g>
            <path class="cls-2" d="M10.954,60.178a9.954,9.954,0,0,1,0-19.908c3.06,0,6.867-2.359,6.9-2.383l.89-.557L21.6,42.415l-.692,7.9A9.942,9.942,0,0,1,10.954,60.178Zm-.148-15.109a5.156,5.156,0,1,0,5.156,5.155A5.161,5.161,0,0,0,10.806,45.068Z"/>
            <path class="cls-4" d="M18.389,38.735l2.185,3.9-.666,7.589a8.954,8.954,0,1,1-8.954-8.954c3.382,0,7.435-2.535,7.435-2.535M10.806,56.379a6.156,6.156,0,1,0-6.156-6.156,6.156,6.156,0,0,0,6.156,6.156m8.3-20.453-1.778,1.112c-1,.621-4.09,2.231-6.376,2.231A10.954,10.954,0,1,0,21.908,50.316l.658-7.507.054-.615-.3-.538-2.185-3.9-1.026-1.831Zm-8.3,18.453a4.156,4.156,0,1,1,4.155-4.156,4.16,4.16,0,0,1-4.155,4.156Z"/>
          </g>
        </g>
      </g>
    </g>
  </g>
</svg>
