<svg xmlns="http://www.w3.org/2000/svg" viewBox="0 0 72 51.246">
  <defs>
    <style>
      .cls-1, .cls-3 {
        fill: #fff;
      }

      .cls-2 {
        fill: #00d2c6;
      }

      .cls-3 {
        stroke: #00d2c6;
        stroke-miterlimit: 10;
        stroke-width: 2px;
      }

      .cls-4 {
        fill: #cdf3fc;
      }
    </style>
  </defs>
  <title>Servicios T Redondo</title>
  <g id="Capa_2" data-name="Capa 2">
    <g id="Capa_1-2" data-name="Capa 1">
      <g>
        <g>
          <path class="cls-1" d="M3.313,28.542a2.313,2.313,0,0,1,0-4.625H68.688a2.312,2.312,0,0,1,0,4.625Z"/>
          <path class="cls-2" d="M68.688,24.917a1.312,1.312,0,0,1,0,2.625H3.313a1.313,1.313,0,0,1,0-2.625H68.688m0-2H3.313a3.313,3.313,0,0,0,0,6.625H68.688a3.313,3.313,0,0,0,0-6.625Z"/>
        </g>
        <g>
          <path class="cls-1" d="M6.129,23.917l4.53-10.953a7.338,7.338,0,0,1,6.8-4.547H53.717a7.326,7.326,0,0,1,6.566,4.035l5.8,11.465Z"/>
          <path class="cls-2" d="M53.716,9.417A6.359,6.359,0,0,1,59.39,12.9l5.068,10.013H7.625l3.958-9.571A6.359,6.359,0,0,1,17.46,9.417H53.716m0-2H17.46a8.334,8.334,0,0,0-7.725,5.165L5.777,22.152,4.634,24.917H67.712l-1.47-2.9L61.175,12a8.32,8.32,0,0,0-7.458-4.584Z"/>
        </g>
        <path class="cls-2" d="M41.783,2a2.283,2.283,0,0,1,2.283,2.283V7.229H27.5V4.283A2.283,2.283,0,0,1,29.78,2h12m0-2h-12A4.288,4.288,0,0,0,25.5,4.283V9.229H46.067V4.283A4.288,4.288,0,0,0,41.783,0Z"/>
        <path class="cls-3" d="M6.325,29.17l4.442,16.972a5.5,5.5,0,0,0,5.316,4.1H55.6a5.5,5.5,0,0,0,5.275-3.954l5-17.122Z"/>
        <g>
          <path class="cls-4" d="M17.389,44.948a1.781,1.781,0,0,1-1.779-1.779V35.5a1.779,1.779,0,0,1,3.558,0v7.671A1.781,1.781,0,0,1,17.389,44.948Z"/>
          <path class="cls-2" d="M17.389,34.719a.78.78,0,0,1,.779.779v7.671a.779.779,0,0,1-1.557,0V35.5a.78.78,0,0,1,.779-.779m0-2h0A2.779,2.779,0,0,0,14.61,35.5v7.671a2.779,2.779,0,0,0,2.779,2.779h0a2.779,2.779,0,0,0,2.779-2.779V35.5a2.779,2.779,0,0,0-2.779-2.779Z"/>
        </g>
        <g>
          <path class="cls-4" d="M29.771,44.948a1.781,1.781,0,0,1-1.779-1.779V35.5a1.779,1.779,0,0,1,3.558,0v7.671A1.781,1.781,0,0,1,29.771,44.948Z"/>
          <path class="cls-2" d="M29.77,34.719a.78.78,0,0,1,.779.779v7.671a.779.779,0,0,1-1.557,0V35.5a.78.78,0,0,1,.779-.779m0-2A2.779,2.779,0,0,0,26.991,35.5v7.671a2.779,2.779,0,0,0,5.557,0V35.5a2.779,2.779,0,0,0-2.779-2.779Z"/>
        </g>
        <g>
          <path class="cls-4" d="M41.835,44.948a1.781,1.781,0,0,1-1.779-1.779V35.5a1.779,1.779,0,0,1,3.558,0v7.671A1.781,1.781,0,0,1,41.835,44.948Z"/>
          <path class="cls-2" d="M41.835,34.719a.78.78,0,0,1,.779.779v7.671a.779.779,0,0,1-1.557,0V35.5a.78.78,0,0,1,.779-.779m0-2A2.779,2.779,0,0,0,39.056,35.5v7.671a2.779,2.779,0,0,0,5.557,0V35.5a2.779,2.779,0,0,0-2.779-2.779Z"/>
        </g>
        <g>
          <path class="cls-4" d="M54.216,44.948a1.781,1.781,0,0,1-1.778-1.779V35.5A1.779,1.779,0,0,1,56,35.5v7.671A1.781,1.781,0,0,1,54.216,44.948Z"/>
          <path class="cls-2" d="M54.216,34.719a.78.78,0,0,1,.779.779v7.671a.779.779,0,0,1-1.557,0V35.5a.78.78,0,0,1,.779-.779m0-2h0A2.779,2.779,0,0,0,51.437,35.5v7.671a2.779,2.779,0,0,0,2.779,2.779h0a2.779,2.779,0,0,0,2.779-2.779V35.5a2.779,2.779,0,0,0-2.779-2.779Z"/>
        </g>
      </g>
    </g>
  </g>
</svg>
