<svg xmlns="http://www.w3.org/2000/svg" viewBox="0 0 65.311 52.594">
  <defs>
    <style>
      .cls-1, .cls-4 {
        fill: #fff;
      }

      .cls-2 {
        fill: #00d2c6;
      }

      .cls-3 {
        fill: #cdf3fc;
      }

      .cls-4 {
        stroke: #00d2c6;
        stroke-linecap: round;
        stroke-miterlimit: 10;
        stroke-width: 2px;
      }
    </style>
  </defs>
  <title>Servicios T Sencillo</title>
  <g id="Capa_2" data-name="Capa 2">
    <g id="Capa_1-2" data-name="Capa 1">
      <g>
        <g>
          <rect class="cls-1" x="6.771" y="8.219" width="51.5" height="43.375" rx="7.083" ry="7.083"/>
          <path class="cls-2" d="M51.188,9.219A6.083,6.083,0,0,1,57.271,15.3V44.51a6.083,6.083,0,0,1-6.083,6.083H13.854A6.083,6.083,0,0,1,7.771,44.51V15.3a6.083,6.083,0,0,1,6.083-6.083H51.188m0-2H13.854A8.093,8.093,0,0,0,5.771,15.3V44.51a8.093,8.093,0,0,0,8.083,8.083H51.188a8.093,8.093,0,0,0,8.083-8.083V15.3a8.093,8.093,0,0,0-8.083-8.083Z"/>
        </g>
        <g>
          <path class="cls-1" d="M3.135,33.655A2.138,2.138,0,0,1,1,31.521V27.729a2.138,2.138,0,0,1,2.135-2.136H13.564v8.062Z"/>
          <path class="cls-2" d="M12.564,26.594v6.062H3.135A1.135,1.135,0,0,1,2,31.52V27.729a1.135,1.135,0,0,1,1.135-1.135h9.428m2-2H3.135A3.139,3.139,0,0,0,0,27.729V31.52a3.139,3.139,0,0,0,3.135,3.135H14.564V24.594Z"/>
        </g>
        <g>
          <rect class="cls-1" x="13.688" y="25.594" width="12.564" height="8.062"/>
          <path class="cls-2" d="M25.251,26.594v6.062H14.688V26.594H25.251m2-2H12.688V34.656H27.251V24.594Z"/>
        </g>
        <g>
          <path class="cls-1" d="M51.747,33.655V25.594H62.176a2.138,2.138,0,0,1,2.135,2.136v3.791a2.138,2.138,0,0,1-2.135,2.135Z"/>
          <path class="cls-2" d="M62.176,26.594a1.135,1.135,0,0,1,1.135,1.135V31.52a1.135,1.135,0,0,1-1.135,1.135H52.747V26.594h9.428m0-2H50.747V34.656H62.176a3.139,3.139,0,0,0,3.135-3.135V27.729a3.139,3.139,0,0,0-3.135-3.135Z"/>
        </g>
        <g>
          <rect class="cls-1" x="39.06" y="25.594" width="12.564" height="8.062"/>
          <path class="cls-2" d="M50.623,26.594v6.062H40.06V26.594H50.623m2-2H38.06V34.656H52.623V24.594Z"/>
        </g>
        <g>
          <rect class="cls-3" x="21.875" y="25.594" width="22.204" height="8.062"/>
          <path class="cls-2" d="M43.078,26.594v6.062h-20.2V26.594h20.2m2-2h-24.2V34.656h24.2V24.594Z"/>
        </g>
        <g>
          <path class="cls-3" d="M2.771,25.594V16.3a2.21,2.21,0,0,1,2.208-2.208H6.688v11.5Z"/>
          <path class="cls-2" d="M5.688,15.094v9.5H3.771V16.3a1.208,1.208,0,0,1,1.208-1.208h.708m2-2H4.979A3.212,3.212,0,0,0,1.771,16.3V26.594H7.688v-13.5Z"/>
        </g>
        <g>
          <path class="cls-3" d="M58.354,25.594v-11.5h1.7a2.216,2.216,0,0,1,2.214,2.214v9.286Z"/>
          <path class="cls-2" d="M60.057,15.094a1.214,1.214,0,0,1,1.214,1.214v8.286H59.354v-9.5h.7m0-2h-2.7v13.5h5.917V16.307a3.217,3.217,0,0,0-3.214-3.214Z"/>
        </g>
        <g>
          <path class="cls-3" d="M58.354,45.338v-11.5h3.917V43.13a2.211,2.211,0,0,1-2.208,2.208Z"/>
          <path class="cls-2" d="M61.271,34.838V43.13a1.208,1.208,0,0,1-1.208,1.208h-.708v-9.5h1.917m2-2H57.354v13.5h2.708a3.212,3.212,0,0,0,3.208-3.208V32.838Z"/>
        </g>
        <g>
          <path class="cls-3" d="M4.984,45.338a2.216,2.216,0,0,1-2.213-2.214V33.838H6.688v11.5Z"/>
          <path class="cls-2" d="M5.688,34.838v9.5h-.7a1.214,1.214,0,0,1-1.214-1.214V34.838H5.688m2-2H1.771V43.124a3.217,3.217,0,0,0,3.214,3.214h2.7v-13.5Z"/>
        </g>
        <path class="cls-2" d="M38.063,2a.531.531,0,0,1,.531.531V6.688a.531.531,0,0,1-.531.531h-11a.531.531,0,0,1-.531-.531V2.531A.531.531,0,0,1,27.063,2h11m0-2h-11a2.534,2.534,0,0,0-2.531,2.531V6.688a2.534,2.534,0,0,0,2.531,2.531h11a2.534,2.534,0,0,0,2.531-2.531V2.531A2.534,2.534,0,0,0,38.063,0Z"/>
        <line class="cls-4" x1="16.009" y1="14.219" x2="16.009" y2="20.594"/>
        <line class="cls-4" x1="24.189" y1="14.219" x2="24.189" y2="20.594"/>
        <line class="cls-4" x1="40.936" y1="14.219" x2="40.936" y2="20.594"/>
        <line class="cls-4" x1="49.116" y1="14.219" x2="49.116" y2="20.594"/>
        <line class="cls-4" x1="32.598" y1="14.219" x2="32.598" y2="20.594"/>
      </g>
    </g>
  </g>
</svg>
