<svg xmlns="http://www.w3.org/2000/svg" viewBox="0 0 481.916 303.649">
  <defs>
    <style>
      .cls-1 {
        fill: #f0f0f0;
      }

      .cls-2 {
        fill: #a171ff;
      }

      .cls-3 {
        fill: #333649;
      }

      .cls-4 {
        fill: #572a99;
      }

      .cls-5 {
        fill: #c3abff;
      }

      .cls-6 {
        fill: #7d40dd;
      }

      .cls-7 {
        fill: #94ead9;
      }

      .cls-8 {
        fill: #3d999b;
      }

      .cls-14, .cls-28, .cls-9 {
        fill: none;
      }

      .cls-14, .cls-18, .cls-19, .cls-20, .cls-21, .cls-23, .cls-25, .cls-26, .cls-27, .cls-28, .cls-29, .cls-9 {
        stroke: #3d3735;
      }

      .cls-14, .cls-23, .cls-25, .cls-26, .cls-27, .cls-9 {
        stroke-linecap: round;
      }

      .cls-19, .cls-20, .cls-21, .cls-23, .cls-25, .cls-26, .cls-27, .cls-9 {
        stroke-linejoin: round;
      }

      .cls-18, .cls-19, .cls-20, .cls-21, .cls-23, .cls-25, .cls-26, .cls-27, .cls-28, .cls-29, .cls-9 {
        stroke-width: 2px;
      }

      .cls-10 {
        fill: #b1b1b1;
      }

      .cls-11, .cls-20 {
        fill: #f8cfb1;
      }

      .cls-12, .cls-21, .cls-29 {
        fill: #ecb890;
      }

      .cls-13 {
        fill: #fce4d4;
      }

      .cls-14, .cls-18, .cls-28, .cls-29 {
        stroke-miterlimit: 10;
      }

      .cls-14 {
        stroke-width: 3px;
      }

      .cls-15, .cls-23 {
        fill: #fff;
      }

      .cls-16 {
        fill: #3d3735;
      }

      .cls-17 {
        fill: #eeba95;
      }

      .cls-18 {
        fill: #6d554a;
      }

      .cls-19 {
        fill: #ffd400;
      }

      .cls-22 {
        fill: #224547;
      }

      .cls-24, .cls-25 {
        fill: #ff83ff;
      }

      .cls-26 {
        fill: #f5911e;
      }

      .cls-27 {
        fill: #4eb2d3;
      }
    </style>
  </defs>
  <title>Mananddogonacoach</title>
  <g id="Capa_2" data-name="Capa 2">
    <g id="Capa_1-2" data-name="Capa 1">
      <g>
        <g>
          <polygon class="cls-1" points="405.934 230.484 412.359 277.105 455.095 277.105 461.968 230.484 405.934 230.484"/>
          <path class="cls-1" d="M430.689,217.584s.4-16.038,3.586-26,5.579-28.49,4.682-38.452-3.487-15.839-3.487-15.839-14.046-2.789-15.939-16.337c11.157-6.475,20.72,6.674,20.123,15.64-1.494-4.483-6.824-8.99-11.354-9.192,4.881,1.693,10.258,5.7,12.848,17.958s2.69,21.916,1,31.28-5.678,20.82-6.674,27.992a69.82,69.82,0,0,0-.6,12.95Z"/>
          <path class="cls-1" d="M441.273,176.691s4.557-12.477,10.684-17.408c7.172.448,14.121-.971,17.483-5.3a34.98,34.98,0,0,1,4.931-5.454l.448-.523a1.083,1.083,0,0,0-.822-1.2,28.363,28.363,0,0,0-11.057-2.466c-5.678.075-11.73,5.977-12.328,13.374,2.914-4.483,10.908-5.678,10.908-5.678a32.309,32.309,0,0,0-18.437,17.277A34.078,34.078,0,0,0,441.273,176.691Z"/>
          <path class="cls-1" d="M434.474,210.237S439.853,193.2,450.943,190c6.767,2.419,13.837,2.98,18.268-.251a34.98,34.98,0,0,1,6.249-3.874l.576-.378a1.083,1.083,0,0,0-.458-1.376,28.363,28.363,0,0,0-9.941-5.434c-5.476-1.5-12.927,2.492-15.551,9.433,4.042-3.5,12.054-2.433,12.054-2.433s-15.413.5-26.919,16.262C433.861,203.632,435.207,208.5,434.474,210.237Z"/>
          <path class="cls-1" d="M437.761,178.367s-4.782-13.374-10.908-18.3c-7.172.448-14.121-.971-17.483-5.3a34.98,34.98,0,0,0-4.931-5.454l-.448-.523a1.083,1.083,0,0,1,.822-1.2,28.363,28.363,0,0,1,11.057-2.466c5.678.075,11.73,5.977,12.328,13.374-2.914-4.483-10.908-5.678-10.908-5.678s10.321,2.572,20.994,21.037C439.123,175.851,437.537,176.5,437.761,178.367Z"/>
          <path class="cls-1" d="M433.7,204.04s-4.782-13.374-10.908-18.3c-7.172.448-14.121-.971-17.483-5.3a34.98,34.98,0,0,0-4.931-5.454l-.448-.523a1.083,1.083,0,0,1,.822-1.2,28.363,28.363,0,0,1,11.057-2.466c5.678.075,11.73,5.977,12.328,13.374-2.914-4.483-10.908-5.678-10.908-5.678s10.321,2.572,20.994,21.037C435.066,201.524,433.48,202.172,433.7,204.04Z"/>
          <polyline class="cls-1" points="398.911 217.584 402.796 227.545 464.957 227.545 469.539 217.584 398.911 217.584"/>
        </g>
        <g>
          <rect class="cls-1" x="49.687" width="180.75" height="11.106"/>
          <path class="cls-1" d="M55.854,102.173s70.732,13.516,70.732-91.067H55.854Z"/>
          <path class="cls-1" d="M223.979,102.173s-70.732,13.516-70.732-91.067h70.732Z"/>
          <rect class="cls-1" x="132.855" y="11.106" width="13.606" height="162.276"/>
          <rect class="cls-1" x="55.854" y="113.654" width="70.732" height="59.729"/>
          <rect class="cls-1" x="153.247" y="113.654" width="70.732" height="59.729"/>
        </g>
        <rect class="cls-1" y="292.774" width="481.916" height="10.875" rx="5.437" ry="5.437"/>
        <rect class="cls-1" x="368.7" y="81.254" width="21.389" height="10.875" rx="5.437" ry="5.437"/>
        <rect class="cls-1" x="0.018" y="238.89" width="40.326" height="10.875" rx="5.437" ry="5.437"/>
        <rect class="cls-1" x="58.981" y="146.71" width="20.163" height="10.875" rx="5.437" ry="5.437"/>
        <rect class="cls-1" x="14.373" y="182.212" width="20.163" height="10.875" rx="5.437" ry="5.437"/>
        <rect class="cls-2" x="104.541" y="241.453" width="269.5" height="35.863"/>
        <path class="cls-3" d="M90.791,276.483h14.5a0,0,0,0,1,0,0V293.4a7.25,7.25,0,0,1-7.25,7.25h0a7.25,7.25,0,0,1-7.25-7.25V276.483A0,0,0,0,1,90.791,276.483Z"/>
        <path class="cls-3" d="M373.541,276.483h14.5a0,0,0,0,1,0,0V293.4a7.25,7.25,0,0,1-7.25,7.25h0a7.25,7.25,0,0,1-7.25-7.25V276.483A0,0,0,0,1,373.541,276.483Z"/>
        <rect class="cls-4" x="104.541" y="245.355" width="6.5" height="31.961"/>
        <rect class="cls-4" x="367.541" y="245.355" width="6.5" height="31.961"/>
        <path class="cls-4" d="M197.362,59.6H299.028a0,0,0,0,1,0,0V328.887a0,0,0,0,1,0,0H197.362a18.019,18.019,0,0,1-18.019-18.019V77.618A18.019,18.019,0,0,1,197.362,59.6Z" transform="translate(433.428 -44.943) rotate(90)"/>
        <g>
          <g>
            <path class="cls-5" d="M214.291,127.149h-84.75a25,25,0,0,0-25,25v6.222a25,25,0,0,1,25-25h84.75a25,25,0,0,1,25,25v-6.222A25,25,0,0,0,214.291,127.149Z"/>
            <rect class="cls-2" x="104.541" y="133.371" width="134.75" height="85.028" rx="25" ry="25"/>
            <path class="cls-6" d="M214.291,212.649h-84.75a25,25,0,0,1-25-25v6.222a25,25,0,0,0,25,25h84.75a25,25,0,0,0,25-25v-6.222A25,25,0,0,1,214.291,212.649Z"/>
            <circle class="cls-5" cx="171.916" cy="174.649" r="4.362"/>
          </g>
          <g>
            <path class="cls-5" d="M349.041,127.149h-84.75a25,25,0,0,0-25,25v6.222a25,25,0,0,1,25-25h84.75a25,25,0,0,1,25,25v-6.222A25,25,0,0,0,349.041,127.149Z"/>
            <rect class="cls-2" x="239.291" y="133.371" width="134.75" height="85.028" rx="25" ry="25"/>
            <path class="cls-6" d="M349.041,212.649h-84.75a25,25,0,0,1-25-25v6.222a25,25,0,0,0,25,25h84.75a25,25,0,0,0,25-25v-6.222A25,25,0,0,1,349.041,212.649Z"/>
            <circle class="cls-7" cx="306.666" cy="174.649" r="4.362"/>
          </g>
        </g>
        <g>
          <path class="cls-5" d="M232.9,218.871H110.93a6.389,6.389,0,0,0-6.389,6.389v4.333a6.389,6.389,0,0,1,6.389-6.389H232.9a6.389,6.389,0,0,1,6.389,6.389V225.26A6.389,6.389,0,0,0,232.9,218.871Z"/>
          <path class="cls-6" d="M232.9,245.355H110.93a6.389,6.389,0,0,1-6.389-6.389V243.3a6.389,6.389,0,0,0,6.389,6.389H232.9a6.389,6.389,0,0,0,6.389-6.389v-4.333A6.389,6.389,0,0,1,232.9,245.355Z"/>
          <rect class="cls-2" x="104.541" y="223.205" width="134.75" height="22.151" rx="6.389" ry="6.389"/>
          <path class="cls-5" d="M367.652,218.871H245.68a6.389,6.389,0,0,0-6.389,6.389v4.333a6.389,6.389,0,0,1,6.389-6.389H367.652a6.389,6.389,0,0,1,6.389,6.389V225.26A6.389,6.389,0,0,0,367.652,218.871Z"/>
          <path class="cls-6" d="M367.652,245.355H245.68a6.389,6.389,0,0,1-6.389-6.389V243.3a6.389,6.389,0,0,0,6.389,6.389H367.652a6.389,6.389,0,0,0,6.389-6.389v-4.333A6.389,6.389,0,0,1,367.652,245.355Z"/>
          <rect class="cls-2" x="239.291" y="223.205" width="134.75" height="22.151" rx="6.389" ry="6.389"/>
        </g>
        <path class="cls-4" d="M82.791,183.483h21.75a0,0,0,0,1,0,0v78a3.5,3.5,0,0,1-3.5,3.5H75.791a3.5,3.5,0,0,1-3.5-3.5v-67.5A10.5,10.5,0,0,1,82.791,183.483Z"/>
        <path class="cls-5" d="M82.791,192.149h11.25a10.5,10.5,0,0,1,10.5,10.5v67.5a3.5,3.5,0,0,1-3.5,3.5H75.791a3.5,3.5,0,0,1-3.5-3.5v-67.5A10.5,10.5,0,0,1,82.791,192.149Z"/>
        <path class="cls-2" d="M82.791,198.4h11.25a10.5,10.5,0,0,1,10.5,10.5v67.5a3.5,3.5,0,0,1-3.5,3.5H75.791a3.5,3.5,0,0,1-3.5-3.5V208.9A10.5,10.5,0,0,1,82.791,198.4Z"/>
        <path class="cls-8" d="M377.541,183.483h25.25a3.5,3.5,0,0,1,3.5,3.5v78a0,0,0,0,1,0,0h-21.75a10.5,10.5,0,0,1-10.5-10.5v-67.5a3.5,3.5,0,0,1,3.5-3.5Z" transform="translate(780.332 448.465) rotate(-180)"/>
        <path class="cls-5" d="M377.541,192.149h25.25a3.5,3.5,0,0,1,3.5,3.5v67.5a10.5,10.5,0,0,1-10.5,10.5h-11.25a10.5,10.5,0,0,1-10.5-10.5v-67.5a3.5,3.5,0,0,1,3.5-3.5Z" transform="translate(780.332 465.799) rotate(-180)"/>
        <path class="cls-2" d="M377.541,198.4h25.25a3.5,3.5,0,0,1,3.5,3.5v67.5a10.5,10.5,0,0,1-10.5,10.5h-11.25a10.5,10.5,0,0,1-10.5-10.5V201.9A3.5,3.5,0,0,1,377.541,198.4Z" transform="translate(780.332 478.299) rotate(-180)"/>
        <path class="cls-9" d="M82.2,182.932h22.086a0,0,0,0,1,0,0v92.622a3.795,3.795,0,0,1-3.795,3.795H75.836a3.795,3.795,0,0,1-3.795-3.795V193.1A10.164,10.164,0,0,1,82.2,182.932Z"/>
        <path class="cls-9" d="M104.31,183.232V152.221a25.05,25.05,0,0,1,25.05-25.05H349.01a25.05,25.05,0,0,1,25.05,25.05v24.1"/>
        <line class="cls-9" x1="374.041" y1="277.316" x2="104.541" y2="277.316"/>
        <path class="cls-9" d="M377.586,182.932h24.66a3.795,3.795,0,0,1,3.795,3.795v92.622a0,0,0,0,1,0,0H383.954a10.164,10.164,0,0,1-10.164-10.164V186.727a3.795,3.795,0,0,1,3.795-3.795Z" transform="translate(779.832 462.28) rotate(-180)"/>
        <g>
          <rect class="cls-10" x="271.416" y="292.774" width="36.375" height="8.25" rx="4.125" ry="4.125"/>
          <polygon class="cls-3" points="284.171 282.036 279.041 292.774 303.666 292.774 301.506 282.061 284.171 282.036"/>
          <rect class="cls-10" x="313.119" y="292.774" width="36.375" height="8.25" rx="4.125" ry="4.125" transform="translate(662.613 593.799) rotate(180)"/>
          <polygon class="cls-3" points="336.739 282.036 341.869 292.774 317.244 292.774 319.404 282.061 336.739 282.036"/>
          <rect class="cls-11" x="298.853" y="114.348" width="25.313" height="12.802"/>
          <rect class="cls-12" x="314.166" y="114.348" width="10" height="12.802"/>
          <path class="cls-12" d="M330.541,50.024V88.462a26.861,26.861,0,0,1-30.02,26.709,26.893,26.893,0,0,0,37.895-24.543v-40.6Z"/>
          <path class="cls-11" d="M292.208,47.649v61.668a26.963,26.963,0,0,0,8.314,5.854,26.861,26.861,0,0,0,30.02-26.709V47.649Z"/>
          <circle class="cls-12" cx="285.562" cy="80.962" r="7.188"/>
          <path class="cls-13" d="M284.624,50.024v40.6a26.771,26.771,0,0,0,7.583,18.689V50.024Z"/>
          <path class="cls-14" d="M300.416,97.774a11.169,11.169,0,0,0,8.5,3.375,11.015,11.015,0,0,0,7.375-3.625"/>
          <g>
            <rect class="cls-15" x="285.562" y="72.556" width="13.292" height="17.885" rx="6.646" ry="6.646"/>
            <circle class="cls-16" cx="292.207" cy="81.608" r="5.083"/>
          </g>
          <g>
            <rect class="cls-15" x="312.437" y="72.556" width="13.292" height="17.885" rx="6.646" ry="6.646"/>
            <circle class="cls-16" cx="319.082" cy="81.608" r="5.083"/>
          </g>
          <path class="cls-14" d="M294.041,67.149a6.658,6.658,0,0,0-6.083-.833,6.305,6.305,0,0,0-3.333,3.417"/>
          <path class="cls-14" d="M319.082,67.149a6.658,6.658,0,0,1,6.083-.833,6.305,6.305,0,0,1,3.333,3.417"/>
          <path class="cls-17" d="M308.978,75.837a8.188,8.188,0,0,0,0,16.375"/>
          <circle class="cls-12" cx="340.603" cy="80.962" r="7.188"/>
          <path class="cls-18" d="M339.929,46.377c-.164,0-.324.015-.485.025a11.416,11.416,0,0,0-14.5-16.234,13.637,13.637,0,0,0-17.671-3.728,13.672,13.672,0,0,0-22.248,10.656c0,.069.009.136.01.2-.06,0-.117-.009-.177-.009a11.43,11.43,0,1,0,11.274,13.234,13.558,13.558,0,0,0,9.3-1.524,13.628,13.628,0,0,0,16.762.28,11.315,11.315,0,0,0,10.154,2.4,8.077,8.077,0,1,0,7.582-5.3Z"/>
          <path class="cls-19" d="M353.059,134.489a13.509,13.509,0,0,0-12.018-7.339h-59l-14.583-1.167L266.124,144.4l15.917,2.583v61.667h59v-53l4.25,6,16.833-9.5Z"/>
          <path class="cls-20" d="M362.124,152.147l11.006,22.014.482.964.562.473,19.616,5.885c3.025,3.169,3.939,7.661,2.333,11.167-2.113,4.615-8.36,7.015-14,4.5l-18.667-4.167a6.694,6.694,0,0,1-5-4.667l-13.167-26.667Z"/>
          <path class="cls-20" d="M267.457,125.983l-21.038-3.237a34.653,34.653,0,0,0-5.624-.4l-46,.471c-5.035.412-8.874,4.315-9.167,8.667-.349,5.176,4.37,10.238,10.5,10h45.969a39.657,39.657,0,0,1,5.371.365l18.66,2.551Z"/>
          <circle class="cls-21" cx="189.457" cy="133.371" r="11.5"/>
          <circle class="cls-21" cx="396.905" cy="191.488" r="11.5"/>
          <path class="cls-22" d="M372.978,219.166c.066-.151.124-.306.18-.462.029-.08.062-.16.088-.241.044-.137.08-.277.116-.417.027-.1.057-.206.08-.31s.043-.239.063-.359.044-.255.059-.383c.012-.108.017-.218.024-.327.01-.14.02-.28.021-.421,0-.033,0-.064,0-.1,0-.085-.01-.167-.013-.251,0-.127-.008-.254-.019-.38s-.03-.275-.049-.411c-.014-.1-.027-.2-.045-.3-.028-.155-.062-.307-.1-.458-.02-.079-.039-.157-.061-.235-.045-.159-.1-.314-.15-.468-.026-.073-.052-.146-.08-.218-.058-.15-.122-.3-.189-.441-.036-.078-.073-.155-.112-.232-.067-.132-.138-.261-.213-.388-.051-.087-.1-.173-.157-.258-.072-.112-.147-.222-.225-.33-.066-.092-.134-.183-.2-.273s-.158-.193-.24-.288-.156-.177-.238-.262-.182-.182-.277-.271-.161-.15-.245-.223c-.113-.1-.229-.188-.348-.278-.072-.055-.144-.111-.218-.163-.146-.1-.3-.2-.449-.29-.041-.025-.079-.054-.121-.078-.016-.009-.033-.016-.05-.025-.169-.1-.342-.183-.519-.266-.051-.024-.1-.051-.153-.074-.167-.074-.339-.138-.513-.2-.065-.023-.128-.049-.193-.071-.15-.049-.3-.088-.457-.127-.091-.023-.181-.05-.273-.07-.127-.027-.256-.046-.385-.067s-.24-.041-.36-.055-.223-.018-.335-.025c-.139-.009-.277-.019-.416-.021-.032,0-.063,0-.1,0H254.791c-.032,0-.064,0-.1,0-.139,0-.277.012-.416.021-.112.008-.225.013-.335.025s-.24.035-.36.055-.259.04-.385.067c-.091.02-.181.047-.272.07-.154.039-.307.079-.457.128-.064.021-.128.047-.192.07-.174.062-.346.126-.514.2-.051.023-.1.049-.152.073-.177.083-.35.17-.519.266-.016.009-.033.016-.05.025h0c-.042.024-.08.054-.122.079-.152.092-.3.187-.447.289-.075.053-.147.109-.219.164-.118.09-.234.181-.347.278-.084.072-.165.147-.245.223s-.187.177-.276.27-.161.174-.239.263-.162.188-.239.286-.139.181-.205.274c-.078.108-.153.217-.224.329-.054.085-.106.171-.157.259-.075.127-.146.257-.213.389-.039.076-.075.153-.111.231-.068.145-.131.293-.19.443-.028.072-.053.144-.079.216-.055.155-.106.311-.151.471-.022.077-.041.155-.06.233-.037.152-.072.3-.1.46-.018.1-.031.2-.045.294-.019.136-.037.273-.049.411s-.015.254-.019.381c0,.084-.013.166-.013.25,0,.033,0,.064,0,.1,0,.141.012.282.021.423.008.109.012.218.024.325.014.128.037.255.058.382s.037.241.063.36.053.206.08.31c.036.14.072.28.116.417.026.081.059.16.088.24.057.156.114.312.181.463.031.069.066.137.1.206.075.157.152.313.237.463.012.022.021.044.034.065l35.874,62.135,17.335.025-33.724-58.412h85.341L319.4,282.061l17.335-.025L372.608,219.9c.012-.021.021-.044.033-.065.085-.151.162-.306.237-.463C372.911,219.3,372.947,219.235,372.978,219.166Z"/>
          <circle class="cls-15" cx="290.556" cy="79.792" r="1.652"/>
          <circle class="cls-15" cx="317.431" cy="79.792" r="1.652"/>
        </g>
        <g>
          <path class="cls-23" d="M244.152,220.578c0-3.835-8.159-14.163-11.994-14.163-1.189,0-3.272,3.657-4.25,4.183-2.178,1.172,2.355,7.333,2.355,9.98a6.944,6.944,0,1,0,13.889,0Z"/>
          <path class="cls-15" d="M214.962,111.645s44-8.333,52.667-8.333c.982,14.027,2.731,33.345,2.025,37.75s-3.084,8.481-5.721,8.7a12.66,12.66,0,0,0-4.094.78,39.66,39.66,0,0,1-7.377.215s-4.083,3.447-7.167,2.585-3.174-2.862-4.337-2.112-2.094,4.628-4.4,5.083L233.8,157.74l-4.843,38.947-13.333,31.375h-59.3s-24.037-1.917-24.037-25,27.247-23.074,27.247-23.074H192.8s2.807-25.323,3.131-27.49,4.7-28.019,4.7-28.019Z"/>
          <g>
            <path class="cls-15" d="M133.736,195.812S114.962,184.72,109.962,162.6s2.94-41.787,11.887-43.954,16.447,3.5,16.947,14.669c.165,3.692-2.342,8.371-4.171,10.944,2.787,4.429-.5,17.3-.5,17.3s6.685,1.3,5.863,24.836A56.669,56.669,0,0,0,133.736,195.812Z"/>
            <path class="cls-24" d="M198.925,136.705s2.245,4.232,12.745,4.357,16.25-9.625,16.75-17.875,3.328-15.514,7.464-16.325c-13.051,2.86-20.922,4.783-20.922,4.783s-9.458-16.958-16-18.333c-2.917,9.625-2.25,17.583,1.667,31.167A58.55,58.55,0,0,1,198.925,136.705Z"/>
            <path class="cls-9" d="M259.56,139.718c-1.39,3.4-1.036,6.847.916,8.667a4.982,4.982,0,0,0,3.456,1.375c2.234-.093,3.623-1.979,4.079-2.6a9.019,9.019,0,0,0,1.618-5.018c.18-4.317-.5-19.035-2-38.833-13.5-1.833-52.667,8.333-52.667,8.333s-10.167-18.333-16-18.333c-4.833,11.333,1.667,31.167,1.667,31.167-1.556,11.167-5.833,28.862-6.8,48.838"/>
            <path class="cls-9" d="M251.42,141.062c-1.812,3.351-1.421,7.09.693,9.064a6.289,6.289,0,0,0,4.132,1.541,7.077,7.077,0,0,0,5.459-2.89"/>
            <path class="cls-9" d="M251.854,150.451a7.077,7.077,0,0,1-5.459,2.89,6.289,6.289,0,0,1-4.132-1.541c-2.113-1.974-2.5-5.713-.693-9.064"/>
            <path class="cls-9" d="M233.17,144.687a6.485,6.485,0,0,0-6.125,4.5c-.894,3.443,2.1,6.817,5.125,7.5,3.575.807,7.885-1.991,8.788-6.791"/>
            <circle class="cls-25" cx="259.295" cy="110.187" r="11.75"/>
            <path class="cls-9" d="M205.129,118.645s-2.25-9.417-1.583-11.5,6.583,8,6.583,8"/>
            <path class="cls-9" d="M209.67,129.062a4.509,4.509,0,1,1,9,.25"/>
            <path class="cls-25" d="M206.775,99.567s2.77-7.131,5.27-8.756c5.125,3.625,7.631,7.527,10.878,18.888-4.878,1.237-7.961,1.945-7.961,1.945Z"/>
            <circle class="cls-26" cx="223.277" cy="213.58" r="7.165"/>
            <line class="cls-9" x1="233.921" y1="156.825" x2="228.962" y2="195.812"/>
            <path class="cls-25" d="M194.654,162.6s-7.609,1.471-7.484,10.717c-4.375,1.746-2.625,11.5-2.625,11.5s13.125,18.625,34.125,24.25,17.214-11.5,17.214-11.5,3.514-11.5-5.475-13.126c-.552,4.337-1.447,12.251-1.447,12.251s-24.356,1.375-35.137-22.625A49.562,49.562,0,0,1,194.654,162.6Z"/>
            <path class="cls-27" d="M195.045,186.4s-6.25-5.827-7.875-13.082"/>
            <path class="cls-27" d="M235.884,197.562a8.849,8.849,0,0,1-8.339,5.5"/>
            <path class="cls-9" d="M218.681,228.062H156.332A24.037,24.037,0,0,1,132.3,204.025h0a24.037,24.037,0,0,1,24.037-24.037h27.877"/>
            <path class="cls-9" d="M133.192,195.812S114.419,184.72,109.419,162.6s2.94-41.787,11.887-43.954,16.447,3.5,16.947,14.669-12.5,17.442-12.5,17.442"/>
            <path class="cls-9" d="M130.962,166.145s7.825-9.775,3.663-21.888"/>
            <path class="cls-9" d="M140.653,185.814s.977-17.111-6.524-25.473"/>
          </g>
        </g>
        <path class="cls-28" d="M338.416,62.4v11.72a5.971,5.971,0,0,1,2.188-.341c3.031.111,7.188,2.725,7.188,7.188s-4.157,7.076-7.187,7.188a5.973,5.973,0,0,1-2.187-.341v2.82a26.9,26.9,0,0,1-26.9,26.9h0a26.9,26.9,0,0,1-26.9-26.9V88.149a7.219,7.219,0,0,1,0-14.307V60.149"/>
        <line class="cls-29" x1="298.853" y1="114.348" x2="298.853" y2="127.149"/>
        <line class="cls-29" x1="324.166" y1="114.348" x2="324.166" y2="127.149"/>
        <path class="cls-23" d="M154.077,223.281l9.694,7.249v11.277a7.093,7.093,0,1,0,14.187,0V226.149H177.9a7.067,7.067,0,0,0-2.791-4.854l-12.539-9.376"/>
        <path class="cls-23" d="M197.73,223.281l9.694,7.249v11.277a7.093,7.093,0,1,0,14.187,0V226.149h-.055a7.067,7.067,0,0,0-2.791-4.854l-12.539-9.376"/>
      </g>
    </g>
  </g>
</svg>
