<svg xmlns="http://www.w3.org/2000/svg" viewBox="0 0 123.676 156.688">
  <defs>
    <style>
      .cls-1, .cls-4 {
        fill: #a171ff;
      }

      .cls-1, .cls-2, .cls-3, .cls-5, .cls-6, .cls-8 {
        stroke: #572a99;
      }

      .cls-1, .cls-2 {
        stroke-miterlimit: 10;
      }

      .cls-1, .cls-2, .cls-3, .cls-5, .cls-6 {
        stroke-width: 2px;
      }

      .cls-2 {
        fill: #7d40dd;
      }

      .cls-2, .cls-3, .cls-5, .cls-6, .cls-8 {
        stroke-linecap: round;
      }

      .cls-3 {
        fill: #fff;
      }

      .cls-3, .cls-5, .cls-6, .cls-8 {
        stroke-linejoin: round;
      }

      .cls-5 {
        fill: #b1f8e7;
      }

      .cls-6 {
        fill: none;
      }

      .cls-7, .cls-8 {
        fill: #572a99;
      }

      .cls-8 {
        stroke-width: 3px;
      }
    </style>
  </defs>
  <title>Pagos</title>
  <g id="Capa_2" data-name="Capa 2">
    <g id="Capa_1-2" data-name="Capa 1">
      <g>
        <path class="cls-1" d="M12.836,98.85l14.136,12.118s7.637,19.492,13.455,22.983,10.9,6.4,25.526,0S89.3,115.332,89.3,115.332a77.728,77.728,0,0,0,3.491-11.782,81.864,81.864,0,0,0,.945-12.073L26.972,44.347,16.188,65.741Z"/>
        <rect class="cls-1" x="9.095" y="18.8" width="14.186" height="34.94" rx="7.093" ry="7.093" transform="translate(-22.234 26.204) rotate(-51.267)"/>
        <rect class="cls-2" x="23.844" y="1" width="58.093" height="114.332" rx="7.709" ry="7.709"/>
        <rect class="cls-3" x="26.972" y="14.092" width="50.402" height="89.459"/>
        <circle class="cls-4" cx="51.991" cy="48.222" r="21.456"/>
        <g>
          <rect class="cls-5" x="50.422" y="44.982" width="7.537" height="3.468" transform="translate(108.38 93.433) rotate(-180)"/>
          <path class="cls-2" d="M46.315,26.767s-4.926,4.892.117,11.127C50.667,37.893,52.082,30.349,46.315,26.767Z"/>
          <path class="cls-3" d="M46.431,32.767v6.29a7.287,7.287,0,0,0,7.287,7.287h0a7.287,7.287,0,0,0,7.287-7.287V29.442H49.757a3.325,3.325,0,0,0-3.325,3.325Z"/>
          <path class="cls-2" d="M61.006,36.258s.222-4.1-5.874-4.433a9.488,9.488,0,0,1-9.089-8.534c4.378,0,14.8-1.275,17.623,6.151S61.006,36.258,61.006,36.258Z"/>
          <path class="cls-3" d="M59.9,39.528h1.829a1.635,1.635,0,0,0,1.635-1.635h0a1.635,1.635,0,0,0-1.635-1.635H59.9"/>
          <path class="cls-3" d="M34.461,68.77,44.378,50.71A4.356,4.356,0,0,1,48.2,48.45H64.044a6.453,6.453,0,0,1,6.4,5.615l1.925,14.7Z"/>
          <polygon class="cls-1" points="54.559 65.741 59.898 48.45 50.14 48.45 54.559 65.741"/>
          <polyline class="cls-6" points="64.091 48.45 61.006 52.145 63.362 53.918 54.559 65.741 59.898 48.45"/>
          <polyline class="cls-6" points="50.14 48.45 54.559 65.741 46.431 54.362 48.5 52.145 46.058 49.014"/>
          <line class="cls-6" x1="64.475" y1="68.77" x2="64.091" y2="60.79"/>
          <line class="cls-6" x1="43.698" y1="68.77" x2="44.159" y2="60.125"/>
        </g>
        <circle class="cls-4" cx="51.191" cy="84.64" r="9.455"/>
        <path class="cls-7" d="M50.78,88.852a5.991,5.991,0,0,1-1.612-.424,5.886,5.886,0,0,1-1.419-.847l.822-1.169a6.248,6.248,0,0,0,1.091.726,3.936,3.936,0,0,0,1.169.378V85a4.955,4.955,0,0,1-2.08-.956,2.131,2.131,0,0,1-.668-1.676v-.026a2.283,2.283,0,0,1,.193-.944,2.212,2.212,0,0,1,.552-.751,2.793,2.793,0,0,1,.854-.514,3.931,3.931,0,0,1,1.1-.244v-.745H51.9v.77a4.99,4.99,0,0,1,1.291.334,5.375,5.375,0,0,1,1.124.642L53.592,82.1a4.405,4.405,0,0,0-1.746-.822v2.44a4.849,4.849,0,0,1,2.125,1,2.161,2.161,0,0,1,.661,1.65v.026a2.249,2.249,0,0,1-.2.956,2.279,2.279,0,0,1-.559.751,2.864,2.864,0,0,1-.86.52,3.893,3.893,0,0,1-1.117.25v1.271H50.78Zm.051-7.666a1.476,1.476,0,0,0-.924.347.957.957,0,0,0-.308.719v.026a.983.983,0,0,0,.244.674,2.174,2.174,0,0,0,.989.495Zm1.014,6.382a1.591,1.591,0,0,0,.944-.34.956.956,0,0,0,.328-.751v-.026a1,1,0,0,0-.263-.706,2.293,2.293,0,0,0-1.008-.5Z"/>
        <rect class="cls-1" x="44.159" y="106.314" width="16.487" height="4.655"/>
        <rect class="cls-1" x="11.196" y="49.032" width="14.186" height="16.128" rx="5.042" ry="5.042" transform="translate(-37.693 35.638) rotate(-51.267)"/>
        <rect class="cls-3" x="15.323" y="55.976" width="9.709" height="5.269" rx="2.635" ry="2.635" transform="translate(-38.167 37.678) rotate(-51.267)"/>
        <rect class="cls-1" x="12.984" y="64.723" width="14.186" height="24.068" rx="6.394" ry="6.394" transform="translate(-52.361 44.392) rotate(-51.267)"/>
        <rect class="cls-3" x="18.041" y="75.086" width="9.709" height="7.864" rx="3.341" ry="3.341" transform="translate(-53.07 47.437) rotate(-51.267)"/>
        <rect class="cls-1" x="9.64" y="81.451" width="14.186" height="22.722" rx="6.216" ry="6.216" transform="translate(-75.021 71.008) rotate(-66.412)"/>
        <rect class="cls-3" x="15.004" y="90.465" width="9.709" height="7.424" rx="3.248" ry="3.248" transform="translate(-74.396 74.691) rotate(-66.412)"/>
        <path class="cls-1" d="M83.047,86.749s-5.354-7.914-2.182-21.969c2.182-9.669,12.873-4.655,12.873-4.655V98.314"/>
        <path class="cls-3" d="M90.466,73.112h-.327a5.346,5.346,0,0,1-5.346-5.346V65.476a2.946,2.946,0,0,1,2.946-2.946h2.727Z"/>
        <rect class="cls-3" x="47.918" y="126.242" width="51.057" height="11.564" rx="3.683" ry="3.683" transform="matrix(0.816, -0.578, 0.578, 0.816, -62.799, 66.741)"/>
        <path class="cls-8" d="M122.176,155.188h-63.7a4.828,4.828,0,0,1,1.149-6.731l33.784-23.93a4.828,4.828,0,0,1,6.731,1.149Z"/>
      </g>
    </g>
  </g>
</svg>
