<svg xmlns="http://www.w3.org/2000/svg" viewBox="0 0 228.144 156.188">
  <defs>
    <style>
      .cls-1, .cls-5 {
        fill: #fff;
      }

      .cls-1, .cls-2, .cls-3, .cls-4, .cls-5, .cls-6 {
        stroke: #572a99;
        stroke-linecap: round;
      }

      .cls-1, .cls-3, .cls-4, .cls-5, .cls-6 {
        stroke-linejoin: round;
      }

      .cls-1, .cls-2, .cls-3, .cls-4 {
        stroke-width: 2px;
      }

      .cls-2 {
        fill: #7d40dd;
        stroke-miterlimit: 10;
      }

      .cls-3, .cls-6 {
        fill: none;
      }

      .cls-4 {
        fill: #572a99;
      }

      .cls-5, .cls-6 {
        stroke-width: 3px;
      }
    </style>
  </defs>
  <title>Domicilio</title>
  <g id="Capa_2" data-name="Capa 2">
    <g id="Capa_1-2" data-name="Capa 1">
      <g>
        <g>
          <polygon class="cls-1" points="208.072 113.464 20.072 113.464 34.896 93.538 196.659 93.538 208.072 113.464"/>
          <rect class="cls-1" x="20.072" y="112.683" width="188" height="19.926"/>
          <rect class="cls-1" x="34.896" y="53.059" width="158.352" height="40.479"/>
          <circle class="cls-1" cx="145.953" cy="92.689" r="4.583"/>
          <path class="cls-1" d="M184.325,94.689H139.241a8.916,8.916,0,0,0-8.916,8.916v38.916h12.167v-33h30.667a11.167,11.167,0,0,0,11.167-11.167Z"/>
          <path class="cls-1" d="M196.659,94.689H151.575a8.916,8.916,0,0,0-8.916,8.916v38.916h12.167v-33h30.667a11.167,11.167,0,0,0,11.167-11.167Z"/>
          <polygon class="cls-1" points="113.659 150.521 139.825 150.521 139.825 142.521 113.659 145.854 113.659 150.521"/>
          <path class="cls-2" d="M166.325,73.854l-11.5,19-9.333-5,13.833-23,2.131-8.924a17.467,17.467,0,0,1,16.989-13.41h6.671A17.875,17.875,0,0,1,202.992,60.4V76.6h-6.333V94.689h-30Z"/>
          <polygon class="cls-1" points="128.159 155.188 152.992 150.521 152.992 142.521 128.159 150.521 128.159 155.188"/>
          <path class="cls-2" d="M190.962,55.021l1.193,16.547a4.368,4.368,0,0,1-1.034,3.149L177.492,90.688l8.409,7.5,16.575-21.2"/>
          <circle class="cls-1" cx="178.539" cy="98.187" r="4.583"/>
          <g>
            <circle class="cls-1" cx="85.601" cy="92.689" r="4.583"/>
            <path class="cls-2" d="M47.229,94.689H92.313a8.916,8.916,0,0,1,8.916,8.916v38.916H89.062v-33H58.4A11.167,11.167,0,0,1,47.229,98.354Z"/>
            <path class="cls-2" d="M34.9,94.689H79.98A8.916,8.916,0,0,1,88.9,103.6v38.916H76.729v-33H46.062A11.167,11.167,0,0,1,34.9,98.354Z"/>
            <polygon class="cls-1" points="117.896 150.521 91.729 150.521 91.729 142.521 117.896 145.854 117.896 150.521"/>
            <path class="cls-1" d="M65.229,73.854l11.5,19,9.333-5-13.833-23L70.1,55.931a17.467,17.467,0,0,0-16.989-13.41H46.437A17.875,17.875,0,0,0,28.562,60.4V76.6H34.9V94.689h30Z"/>
            <polygon class="cls-1" points="103.396 155.188 78.562 150.521 78.562 142.521 103.396 150.521 103.396 155.188"/>
            <path class="cls-1" d="M40.592,55.021,39.4,71.567a4.368,4.368,0,0,0,1.034,3.149L54.062,90.688l-8.409,7.5-16.575-21.2"/>
            <circle class="cls-1" cx="53.016" cy="98.187" r="4.583"/>
            <path class="cls-2" d="M59.117,43.588l-6.1,23.376L46.437,42.521S54.385,40.964,59.117,43.588Z"/>
            <polyline class="cls-3" points="65.463 47.644 64.309 55.464 61.392 55.464 62.392 63.797 53.301 66.964"/>
            <polyline class="cls-3" points="39.975 45.089 43.225 55.021 45.475 55.714 45.475 62.964 53.016 66.964"/>
            <rect class="cls-1" x="48.142" y="37.28" width="10.677" height="7.809"/>
            <path class="cls-2" d="M64.637,11.476s6.978,6.93-.166,15.762C58.472,27.238,56.467,16.551,64.637,11.476Z"/>
            <path class="cls-1" d="M64.472,19.976v8.91A10.323,10.323,0,0,1,54.148,39.209h0A10.323,10.323,0,0,1,43.825,28.886V15.266H59.762a4.71,4.71,0,0,1,4.71,4.71Z"/>
            <path class="cls-2" d="M43.825,24.922s-.314-5.809,8.321-6.28A13.44,13.44,0,0,0,65.021,6.552c-6.2,0-20.961-1.806-24.964,8.714S43.825,24.922,43.825,24.922Z"/>
            <path class="cls-1" d="M45.4,29.553H42.8a2.316,2.316,0,0,1-2.316-2.316h0A2.316,2.316,0,0,1,42.8,24.922H45.4"/>
          </g>
          <g>
            <polyline class="cls-1" points="115.138 93.538 115.138 105.705 142.638 105.705 142.638 97.705 139.388 94.455 134.388 94.455 131.763 97.08 124.462 97.08 124.462 93.538"/>
            <path class="cls-1" d="M123.087,80.619H88.171a3.91,3.91,0,0,1-.918-2.005c-.317-2.58,2.507-4.388,2.125-8.583a4.459,4.459,0,0,0-1.11-2.871,4.676,4.676,0,0,0-3.6-1.213,5.55,5.55,0,0,0-3.255,1.406c-2.569,2.216-2.28,6.089-2.412,7.386a11.407,11.407,0,0,0,3.334,8.87v18.005a3,3,0,0,0,3,3h37.75a3,3,0,0,0,3-3V83.619A3,3,0,0,0,123.087,80.619Z"/>
            <path class="cls-1" d="M140.878,74.655h-1.628a12.185,12.185,0,0,0-12.1-10.792h-7.875a12.188,12.188,0,1,0,0,24.375h21.6a3.083,3.083,0,0,0,3.083-3.083V77.739A3.083,3.083,0,0,0,140.878,74.655Z"/>
            <rect class="cls-4" x="107.087" y="70.374" width="10.625" height="20.49" rx="5.312" ry="5.312"/>
            <polyline class="cls-1" points="108.388 97.163 108.388 109.33 135.888 109.33 135.888 101.33 132.638 98.08 127.638 98.08 125.013 100.705 117.712 100.705 117.712 97.163"/>
            <polyline class="cls-1" points="90.263 91.85 87.013 100.705 89.013 100.705 91.638 98.08 96.638 98.08 99.888 101.33 99.888 109.33 77.689 109.33 77.689 97.163 82.695 83.094"/>
          </g>
          <rect class="cls-1" x="1" y="94.689" width="19.072" height="60.499"/>
          <rect class="cls-1" x="208.072" y="94.689" width="19.072" height="60.499"/>
          <line class="cls-1" x1="1" y1="94.689" x2="28.562" y2="71.714"/>
          <line class="cls-1" x1="20.072" y1="94.689" x2="32.938" y2="81.927"/>
          <line class="cls-1" x1="208.072" y1="94.689" x2="198.616" y2="81.927"/>
          <line class="cls-1" x1="227.144" y1="94.689" x2="203.344" y2="68.605"/>
          <rect class="cls-1" x="174.695" y="35.375" width="10.677" height="7.809"/>
          <circle class="cls-1" cx="168.95" cy="23" r="4.583"/>
          <path class="cls-1" d="M168.95,9.979h21.625a0,0,0,0,1,0,0V28.226a4.087,4.087,0,0,1-4.087,4.087H172.572a3.622,3.622,0,0,1-3.622-3.622V9.979A0,0,0,0,1,168.95,9.979Z"/>
          <path class="cls-2" d="M168.95,26.688l6.069,4.75a5.947,5.947,0,0,1,5.3-2.75,6.182,6.182,0,0,1,4.7,2.75l5.556-4.75v2.75a8.611,8.611,0,0,1-8.718,8.5h-4.188a8.611,8.611,0,0,1-8.718-8.5Z"/>
          <path class="cls-1" d="M188.284,19.6h4.375a4.083,4.083,0,1,1,0,8.167h-3.917"/>
          <path class="cls-2" d="M170.721,19.6h-2.687V8.75A7.75,7.75,0,0,1,175.784,1h6.875a4.562,4.562,0,0,1,4.562,4.562h0a5.292,5.292,0,0,1,5.292,5.292V19.6h-3.3V16.838a7.463,7.463,0,0,0-7.463-7.463h-3.528a7.463,7.463,0,0,0-7.462,7.371Z"/>
        </g>
        <circle class="cls-5" cx="54.062" cy="76.09" r="3.876"/>
        <line class="cls-6" x1="53.016" y1="66.964" x2="54.062" y2="72.214"/>
      </g>
    </g>
  </g>
</svg>
