<svg xmlns="http://www.w3.org/2000/svg" viewBox="0 0 117.25 121.158">
  <defs>
    <style>
      .cls-1 {
        fill: #fff;
      }

      .cls-2 {
        fill: #aff6e5;
      }

      .cls-3 {
        fill: #cdf9f0;
      }

      .cls-4 {
        fill: #00d2c6;
      }
    </style>
  </defs>
  <title>Ganancias</title>
  <g id="Capa_2" data-name="Capa 2">
    <g id="Capa_1-2" data-name="Capa 1">
      <g id="filled_outline" data-name="filled outline">
        <rect class="cls-1" x="1.954" y="60.579" width="113.342" height="58.625"/>
        <rect class="cls-1" x="1.954" y="50.809" width="113.342" height="58.625"/>
        <rect class="cls-1" x="1.954" y="41.038" width="113.342" height="58.625"/>
        <rect class="cls-1" x="1.954" y="31.267" width="113.342" height="58.625"/>
        <rect class="cls-2" x="1.954" y="21.496" width="113.342" height="58.625"/>
        <path class="cls-3" d="M1.954,21.5H103.571V70.35A9.772,9.772,0,0,1,93.8,80.121H1.954V21.5Z"/>
        <path class="cls-1" d="M91.846,70.35h-72.3a7.817,7.817,0,0,0-7.817-7.817h0V39.083h0a7.817,7.817,0,0,0,7.817-7.817h84.029V58.625A11.724,11.724,0,0,1,91.846,70.35Z"/>
        <ellipse class="cls-3" cx="58.625" cy="50.809" rx="17.588" ry="19.542"/>
        <circle class="cls-3" cx="25.404" cy="50.809" r="5.863"/>
        <rect class="cls-1" x="50.808" y="21.496" width="15.633" height="97.709"/>
        <rect class="cls-3" x="50.808" y="80.121" width="15.633" height="39.083"/>
        <path class="cls-3" d="M103.571,70.35h0A9.772,9.772,0,0,0,93.8,60.579H87.938V1.954H93.8a9.772,9.772,0,0,1,9.771,9.771Z"/>
        <path class="cls-4" d="M115.3,19.542h-9.771V11.725A11.737,11.737,0,0,0,93.8,0H87.937a1.955,1.955,0,0,0-1.954,1.954V19.542H1.954A1.955,1.955,0,0,0,0,21.5V119.2a1.955,1.955,0,0,0,1.954,1.954H115.3a1.955,1.955,0,0,0,1.954-1.954V21.5A1.955,1.955,0,0,0,115.3,19.542Zm-1.954,3.908V78.167H102.516a11.66,11.66,0,0,0,3.009-7.817V23.45Zm0,64.488H68.4V82.075h44.946Zm-25.4-25.4H93.8a7.8,7.8,0,0,1,5.55,2.322,9.8,9.8,0,0,1-7.5,3.541h-22a22.033,22.033,0,0,0,8.317-17.588,22.081,22.081,0,0,0-8.305-17.588H85.983V60.579A1.955,1.955,0,0,0,87.937,62.533ZM68.4,37.129a18.309,18.309,0,0,1,5.863,13.679A18.563,18.563,0,0,1,68.4,64.476Zm0,35.175h23.45a13.727,13.727,0,0,0,9.507-3.863,7.69,7.69,0,0,1,.264,1.909A7.817,7.817,0,0,1,93.8,78.167H68.4Zm0,29.312h44.946v5.863H68.4v-5.863Zm0-3.908V91.846h44.946v5.863Zm21.5-93.8H93.8a7.817,7.817,0,0,1,7.817,7.817V61.619c-.033-.029-.072-.051-.106-.08a11.672,11.672,0,0,0-1.46-1.09L99.8,60.3a11.677,11.677,0,0,0-1.655-.827l-.244-.09a11.723,11.723,0,0,0-1.853-.533.977.977,0,0,1-.18-.027,11.854,11.854,0,0,0-2.07-.193H89.891V3.908Zm-3.908,25.4H68.4V23.45H85.983Zm-21.5-5.863V78.167H52.762V23.45ZM48.854,97.709H3.908V91.846H48.854ZM3.908,101.617H48.854v5.863H3.908ZM48.854,87.938H3.908V82.075H48.854Zm0-50.808V64.488a18.567,18.567,0,0,1-5.863-13.679A18.319,18.319,0,0,1,48.854,37.129ZM39.083,50.809A22.035,22.035,0,0,0,47.4,68.4H21.3a9.8,9.8,0,0,0-7.621-7.621V40.842A9.8,9.8,0,0,0,21.3,33.221H47.39A22.069,22.069,0,0,0,39.083,50.809ZM3.908,23.45H48.854v5.863H19.542a1.955,1.955,0,0,0-1.954,1.954,5.862,5.862,0,0,1-5.863,5.863,1.955,1.955,0,0,0-1.954,1.954v23.45a1.955,1.955,0,0,0,1.954,1.954,5.862,5.862,0,0,1,5.863,5.863A1.955,1.955,0,0,0,19.542,72.3H48.854v5.863H3.908Zm0,87.938H48.854v5.863H3.908Zm48.854,5.862V82.075H64.488V117.25Zm15.633,0v-5.863h44.946v5.863Z"/>
        <path class="cls-4" d="M17.587,50.809A7.817,7.817,0,1,0,25.4,42.992,7.817,7.817,0,0,0,17.587,50.809ZM25.4,46.9A3.908,3.908,0,1,1,21.5,50.809,3.907,3.907,0,0,1,25.4,46.9Z"/>
      </g>
    </g>
  </g>
</svg>
