<svg xmlns="http://www.w3.org/2000/svg" viewBox="0 0 119.997 119.991">
  <defs>
    <style>
      .cls-1 {
        fill: #cdf9f0;
      }

      .cls-2 {
        fill: #fff;
      }

      .cls-3 {
        fill: #00d2c6;
      }

      .cls-4 {
        fill: none;
      }

      .cls-5 {
        fill: #00d1c5;
      }
    </style>
  </defs>
  <title>Tiempo</title>
  <g id="Capa_2" data-name="Capa 2">
    <g id="Capa_1-2" data-name="Capa 1">
      <g>
        <path class="cls-1" d="M110.137,16H87.209a27.933,27.933,0,0,0-48.418,0H15.863a6.479,6.479,0,0,0-6.857,6,6.414,6.414,0,0,0,6.347,5.984A6,6,0,0,0,21.005,36h.342A6,6,0,0,0,27,44H38.791a27.932,27.932,0,0,0,48.418,0H99a6,6,0,0,0,5.657-8H105a6,6,0,0,0,5.652-8.015A6.41,6.41,0,0,0,116.994,22,6.478,6.478,0,0,0,110.137,16ZM21,32a2,2,0,1,1,0-4h8V24H15.863c-1.548,0-2.857-.916-2.857-2s1.308-2,2.857-2H36.881a27.56,27.56,0,0,0,0,20H27a2,2,0,0,1,0-4h4V32ZM65,53.9V48H61v5.9A24.017,24.017,0,0,1,39.1,32H45V28H39.1A24.09,24.09,0,0,1,61,6.105V12h4v-5.9A24.091,24.091,0,0,1,86.9,28H81v4h5.9A24.017,24.017,0,0,1,65,53.9ZM110.137,24H97v4h8a2,2,0,1,1,0,4H95v4h4a2,2,0,1,1,0,4H89.119a27.558,27.558,0,0,0,0-20h21.018c1.549,0,2.857.916,2.857,2S111.686,24,110.137,24Z"/>
        <path class="cls-1" d="M115.985,86.91a12.892,12.892,0,0,1-5.058,10.574L96.917,106.4a2,2,0,0,0-.926,1.687v1.629h-16v6.274h16v-1.629a2,2,0,0,1,.926-1.687l14.01-8.917a12.9,12.9,0,0,0,5.062-10.766Z"/>
        <path class="cls-2" d="M84.816,100.376l2.355,3.234L101.91,92.871a2.152,2.152,0,0,0,.236-.2,6.61,6.61,0,0,0,1.141-7.811,6.6,6.6,0,0,1-1.142,1.537,2.152,2.152,0,0,1-.236.2l-1.832,1.334a2.594,2.594,0,0,1-.666,1.811Z"/>
        <path class="cls-2" d="M115.957,57.66c0-3.228-1.709-5.661-3.966-5.661h-.383a5.107,5.107,0,0,0-4.316,4.911l-4.16,21.411-.974,5.011a6.619,6.619,0,0,1-.012,9.335,2.152,2.152,0,0,1-.236.2L87.172,103.61l-2.355-3.234L99.41,89.743A2.6,2.6,0,0,0,96.482,85.6a2.541,2.541,0,0,0-.51.262L80.883,96.476a2.085,2.085,0,0,0-.87,1.56c0,.051-.019.1-.019.152v11.528h16v-1.629a2,2,0,0,1,.926-1.687l14.01-8.917a12.892,12.892,0,0,0,5.058-10.574Z"/>
        <path class="cls-3" d="M75.995,98.189v19.8a2,2,0,0,0,2,2h20a2,2,0,0,0,2-2V115.46l13.125-8.354A16.934,16.934,0,0,0,119.99,92.99l-.033-35.334c-.006-5.505-3.429-9.657-7.966-9.657h-.383a8.781,8.781,0,0,0-8.263,8.284l-4.9,25.171a6.591,6.591,0,0,0-4.777,1.136L78.582,93.2A6.1,6.1,0,0,0,75.995,98.189Zm4,0a2.093,2.093,0,0,1,.888-1.713l15.09-10.614a2.608,2.608,0,0,1,3.437,3.88L84.816,100.376l2.355,3.234L101.91,92.871a2.152,2.152,0,0,0,.236-.2,6.61,6.61,0,0,0,.012-9.335l5.134-26.423A5.006,5.006,0,0,1,111.608,52h.383c2.257,0,3.962,2.433,3.966,5.661l.033,35.332a12.9,12.9,0,0,1-5.062,10.766l-14.01,8.917a2,2,0,0,0-.926,1.687v1.629h-16Z"/>
        <circle class="cls-2" cx="32.003" cy="59.998" r="2.275"/>
        <circle class="cls-2" cx="87.997" cy="59.998" r="2.275"/>
        <circle class="cls-2" cx="60" cy="79.996" r="2.275"/>
        <path class="cls-1" d="M60,3.422c-.71,0-1.411.037-2.105.1a24.581,24.581,0,0,1-7.456,47.135A24.583,24.583,0,1,0,60,3.422Z"/>
        <path class="cls-2" d="M72.913,26.168A24.586,24.586,0,0,0,57.9,3.518a24.581,24.581,0,0,0-7.456,47.135A24.577,24.577,0,0,0,72.913,26.168Z"/>
        <path class="cls-3" d="M62,26V14H58V28a2,2,0,0,0,2,2H70V26Z"/>
        <path class="cls-3" d="M68,78a6.006,6.006,0,0,1-6-6,2,2,0,0,0-4,0,6.006,6.006,0,0,1-6,6,2,2,0,0,0,0,4,6.006,6.006,0,0,1,6,6,2,2,0,0,0,4,0,6.006,6.006,0,0,1,6-6,2,2,0,0,0,0-4ZM60,82A10.057,10.057,0,0,0,57.995,80,10.064,10.064,0,0,0,60,77.99,10.063,10.063,0,0,0,62.006,80,10.07,10.07,0,0,0,60,82Z"/>
        <path class="cls-3" d="M96,58a6.006,6.006,0,0,1-6-6,2,2,0,1,0-4,0,6.006,6.006,0,0,1-6,6,2,2,0,0,0,0,4,6.006,6.006,0,0,1,6,6,2,2,0,1,0,4,0,6.006,6.006,0,0,1,6-6,2,2,0,0,0,0-4ZM88,62A10.057,10.057,0,0,0,85.991,60,10.063,10.063,0,0,0,88,57.993,10.064,10.064,0,0,0,90,60,10.07,10.07,0,0,0,88,62Z"/>
        <path class="cls-3" d="M40,58a6.006,6.006,0,0,1-6-6,2,2,0,0,0-4,0,6.006,6.006,0,0,1-6,6,2,2,0,1,0,0,4,6.006,6.006,0,0,1,6,6,2,2,0,1,0,4,0,6.006,6.006,0,0,1,6-6,2,2,0,1,0,0-4ZM32,62A10.057,10.057,0,0,0,30,60,10.063,10.063,0,0,0,32,57.993,10.063,10.063,0,0,0,34.009,60,10.07,10.07,0,0,0,32,62Z"/>
        <path class="cls-4" d="M58,51.9V46h4v5.9A24,24,0,0,0,80.772,39.963H39.229A24,24,0,0,0,58,51.9Z"/>
        <path class="cls-4" d="M62,4.106V10H58v-5.9A23.992,23.992,0,0,0,38.787,16.88H81.213A23.991,23.991,0,0,0,62,4.106Z"/>
        <path class="cls-2" d="M12.863,18c-1.549,0-2.857.916-2.857,2s1.309,2,2.857,2H26v4h-8a2,2,0,1,0,0,4H28v4H24a2,2,0,1,0,0,4h9.877a27.56,27.56,0,0,1,0-20Z"/>
        <path class="cls-2" d="M107.137,18H86.119a27.558,27.558,0,0,1,0,20H96a2,2,0,1,0,0-4H92V30h10a2,2,0,0,0,0-4H94V22h13.141c1.549,0,2.857-.916,2.857-2S108.686,18,107.137,18Z"/>
        <path class="cls-3" d="M107.137,14H84.209a27.933,27.933,0,0,0-48.418,0H12.863a6.479,6.479,0,0,0-6.857,6,6.414,6.414,0,0,0,6.347,5.984A6,6,0,0,0,18.005,34h.342A6,6,0,0,0,24,42H35.792a27.932,27.932,0,0,0,48.418,0H96a6,6,0,0,0,5.657-8H102a6,6,0,0,0,5.652-8.015A6.41,6.41,0,0,0,113.994,20,6.478,6.478,0,0,0,107.137,14ZM18.005,30a2,2,0,1,1,0-4h8V22H12.863c-1.548,0-2.857-.916-2.857-2s1.308-2,2.857-2H33.881a27.56,27.56,0,0,0,0,20H24a2,2,0,1,1,0-4h4V30ZM62,51.9V46H58v5.9A24.017,24.017,0,0,1,36.1,30H42V26H36.1A24.09,24.09,0,0,1,58,4.106V10h4v-5.9A24.091,24.091,0,0,1,83.9,26H78v4h5.9A24.017,24.017,0,0,1,62,51.9ZM107.137,22H94v4h8a2,2,0,0,1,0,4H92v4h4a2,2,0,1,1,0,4H86.119a27.558,27.558,0,0,0,0-20h21.018c1.549,0,2.857.916,2.857,2S108.686,22,107.137,22Z"/>
        <polygon class="cls-5" points="83.896 30.001 83.896 30.002 83.896 30.002 83.896 30.001"/>
        <path class="cls-1" d="M29.379,111.238a2,2,0,0,0-.926-1.687l-14.01-8.917A12.9,12.9,0,0,1,9.382,89.867l.033-35.332a8.229,8.229,0,0,1,.28-2.148A4.962,4.962,0,0,0,8.389,52H8.006C5.749,52,4.044,54.432,4.04,57.66L4.007,92.992a12.9,12.9,0,0,0,5.062,10.766l14.01,8.917A2,2,0,0,1,24,114.363v1.629H40v-3.125H29.379Z"/>
        <path class="cls-2" d="M39.984,98.036a2.085,2.085,0,0,0-.87-1.56L24.024,85.862a2.608,2.608,0,0,0-3.437,3.88l14.594,10.634-2.355,3.234L18.087,92.871a2.152,2.152,0,0,1-.236-.2,6.61,6.61,0,0,1-.012-9.335L12.7,56.91a4.991,4.991,0,0,0-3.01-4.523,8.229,8.229,0,0,0-.28,2.148L9.382,89.867a12.9,12.9,0,0,0,5.062,10.766l14.01,8.917a2,2,0,0,1,.926,1.687v1.629H40V98.189C40,98.137,39.988,98.088,39.984,98.036Z"/>
        <path class="cls-3" d="M41.415,93.2,26.324,82.591a6.591,6.591,0,0,0-4.777-1.136l-4.9-25.171A8.781,8.781,0,0,0,8.389,48H8.006C3.47,48,.046,52.151.04,57.656L.007,92.99a16.934,16.934,0,0,0,6.872,14.116L20,115.46v2.531a2,2,0,0,0,2,2H42a2,2,0,0,0,2-2v-19.8A6.1,6.1,0,0,0,41.415,93.2ZM40,115.991H24v-1.629a2,2,0,0,0-.926-1.687l-14.01-8.917A12.9,12.9,0,0,1,4.007,92.992L4.04,57.66C4.044,54.432,5.749,52,8.006,52h.383A5.006,5.006,0,0,1,12.7,56.91l5.134,26.423a6.61,6.61,0,0,0,.012,9.335,2.152,2.152,0,0,0,.236.2L32.825,103.61l2.355-3.234L20.587,89.743a2.608,2.608,0,0,1,3.437-3.88l15.09,10.614A2.093,2.093,0,0,1,40,98.189Z"/>
      </g>
    </g>
  </g>
</svg>
