<svg xmlns="http://www.w3.org/2000/svg" viewBox="0 0 16.777 18.863">
  <defs>
    <style>
      .cls-1 {
        fill: #fff;
      }
    </style>
  </defs>
  <title>Cancelar</title>
  <g id="Capa_2" data-name="Capa 2">
    <g id="Capa_1-2" data-name="Capa 1">
      <g>
        <path class="cls-1" d="M16.253,2.715H12.328v-.64A2.077,2.077,0,0,0,10.254,0H6.523A2.077,2.077,0,0,0,4.448,2.075v.64H.524a.524.524,0,1,0,0,1.047H1.47v12.3a2.8,2.8,0,0,0,2.8,2.8h8.237a2.8,2.8,0,0,0,2.8-2.8V3.762h.946a.524.524,0,1,0,0-1.047ZM5.5,2.075A1.029,1.029,0,0,1,6.523,1.047h3.731a1.029,1.029,0,0,1,1.028,1.028v.64H5.5ZM14.26,16.063a1.756,1.756,0,0,1-1.753,1.753H4.27a1.756,1.756,0,0,1-1.753-1.753V3.762H14.264v12.3Z"/>
        <path class="cls-1" d="M8.388,15.939a.521.521,0,0,0,.524-.524V6.162a.524.524,0,0,0-1.047,0v9.249A.525.525,0,0,0,8.388,15.939Z"/>
        <path class="cls-1" d="M4.972,15.361a.521.521,0,0,0,.524-.524v-8.1a.524.524,0,0,0-1.047,0v8.1A.524.524,0,0,0,4.972,15.361Z"/>
        <path class="cls-1" d="M11.8,15.361a.521.521,0,0,0,.524-.524v-8.1a.524.524,0,0,0-1.047,0v8.1A.521.521,0,0,0,11.8,15.361Z"/>
      </g>
    </g>
  </g>
</svg>
