<svg xmlns="http://www.w3.org/2000/svg" viewBox="0 0 22.651 22.652">
  <defs>
    <style>
      .cls-1 {
        fill: #666;
      }
    </style>
  </defs>
  <title>Cerrar sesion</title>
  <g id="Capa_2" data-name="Capa 2">
    <g id="Capa_1-2" data-name="Capa 1">
      <g>
        <path class="cls-1" d="M12.944.809h0A.809.809,0,0,0,12.135,0H2.427A2.427,2.427,0,0,0,0,2.427v17.8a2.427,2.427,0,0,0,2.427,2.427h9.708a.809.809,0,1,0,0-1.618H2.427a.809.809,0,0,1-.809-.809V2.427a.809.809,0,0,1,.809-.809h9.708A.809.809,0,0,0,12.944.809Z"/>
        <path class="cls-1" d="M5.663,11.326a.809.809,0,0,0,.809.809H19.89L17.225,14.8l-.02.02a.809.809,0,1,0,1.164,1.124L22.414,11.9a.811.811,0,0,0,0-1.145L18.37,6.709a.809.809,0,0,0-1.144,1.144l2.664,2.664H6.472A.809.809,0,0,0,5.663,11.326Z"/>
      </g>
    </g>
  </g>
</svg>
