<svg xmlns="http://www.w3.org/2000/svg" viewBox="0 0 25.413 31.925">
  <defs>
    <style>
      .cls-1 {
        fill: #666;
      }
    </style>
  </defs>
  <title>Conocer</title>
  <g id="Capa_2" data-name="Capa 2">
    <g id="Capa_1-2" data-name="Capa 1">
      <g>
        <path id="path0_fill" data-name="path0 fill" class="cls-1" d="M11.277,12.865a.483.483,0,0,0-.635,0,1.8,1.8,0,0,1-1.271.476A1.8,1.8,0,0,1,8.1,12.865c-.318-.159-.476-.159-.635,0a.483.483,0,0,0,0,.635,2.63,2.63,0,0,0,1.906.794,3.331,3.331,0,0,0,1.747-.635C11.436,13.342,11.436,13.183,11.277,12.865Z"/>
        <path id="path1_fill" data-name="path1 fill" class="cls-1" d="M6.671,9.53a.716.716,0,0,0-.476.476v.476a.421.421,0,0,0,.476.476.421.421,0,0,0,.476-.476v-.476A.507.507,0,0,0,6.671,9.53Z"/>
        <path id="path2_fill" data-name="path2 fill" class="cls-1" d="M11.912,9.53a.507.507,0,0,0-.476.476v.476a.476.476,0,0,0,.953,0v-.476A.507.507,0,0,0,11.912,9.53Z"/>
        <path id="path3_fill" data-name="path3 fill" class="cls-1" d="M16.042,19.06a.421.421,0,0,0-.476.476v.476a.476.476,0,1,0,.953,0v-.476A.507.507,0,0,0,16.042,19.06Z"/>
        <path id="path4_fill" data-name="path4 fill" class="cls-1" d="M20.33,19.06a.421.421,0,0,0-.476.476v.476a.476.476,0,1,0,.953,0v-.476C20.648,19.377,20.489,19.06,20.33,19.06Z"/>
        <path id="path5_fill" data-name="path5 fill" class="cls-1" d="M16.677,29.7a.421.421,0,0,0-.476.476V31.29a.476.476,0,0,0,.953,0V30.178C17,30.019,16.836,29.7,16.677,29.7Z"/>
        <path id="path6_fill" data-name="path6 fill" class="cls-1" d="M19.7,29.7a.421.421,0,0,0-.476.476V31.29a.476.476,0,0,0,.953,0V30.178A.507.507,0,0,0,19.7,29.7Z"/>
        <path id="path7_fill" data-name="path7 fill" class="cls-1" d="M25.413,17.154a35.8,35.8,0,0,0-3.177-3.335.483.483,0,0,0-.635,0l-.953.953a12.039,12.039,0,0,0-2.541-.476,3.1,3.1,0,0,0-1.271.159c-.159-1.747-.318-4.13-.318-7.147A7.189,7.189,0,0,0,9.212,0,7.36,7.36,0,0,0,2.065,7.306,76.081,76.081,0,0,1,1.588,16.2c0,.159,0,.318.318.476.159,0,2.065.953,4.13,1.588l-.159.159L1.429,20.807A2.148,2.148,0,0,0,0,22.713v2.224a1.373,1.373,0,0,0,.476.953v5.559a.421.421,0,0,0,.476.476.421.421,0,0,0,.476-.476v-5.4H3.177v5.4c0,.159.159.318.476.318a.421.421,0,0,0,.476-.476V24.3a.421.421,0,0,0-.476-.476.421.421,0,0,0-.476.476v.635H.953V22.713a.871.871,0,0,1,.635-.953l2.382-1.271a5.686,5.686,0,0,0,5.4,3.812,5.566,5.566,0,0,0,4.447-2.224,4.968,4.968,0,0,0,.794,1.588,2.258,2.258,0,0,0,.318.953l-.953,6.671c0,.318.159.476.318.476h0a.507.507,0,0,0,.476-.476l.794-6.194a.492.492,0,0,1,.318.159,2.715,2.715,0,0,0,2.065,1.112,2.715,2.715,0,0,0,2.065-1.112c.159,0,.159,0,.318-.159l.794,6.194a.507.507,0,0,0,.476.476h0c.318,0,.476-.318.318-.476l-.953-6.671a1.7,1.7,0,0,0,.318-.953,5.766,5.766,0,0,0,1.112-2.7,6.4,6.4,0,0,0,2.541-3.335C25.413,17.472,25.413,17.313,25.413,17.154ZM3.018,7.306A6.51,6.51,0,0,1,9.371.794a6.408,6.408,0,0,1,6.353,6.512c0,3.177.159,5.877.318,7.465h-.159l-.953-.953h0a6.656,6.656,0,0,0,.635-2.382v-.476c0-2.7-2.065-3.177-4.447-3.812a11.169,11.169,0,0,1-4.13-1.271c-.318-.159-.635,0-.635.159A4.923,4.923,0,0,1,3.494,8.418a.583.583,0,0,0-.476.159Zm11.595,3.812a5.321,5.321,0,1,1-10.642,0,.421.421,0,0,0-.476-.476.635.635,0,0,1,0-1.271h.159A5.385,5.385,0,0,0,6.83,6.83,17.372,17.372,0,0,0,10.8,8.259C13.342,8.736,14.613,9.212,14.613,11.118ZM2.541,16.2a25.684,25.684,0,0,0,.318-4.765.492.492,0,0,1,.318.159,6.3,6.3,0,0,0,3.177,5.083v.794A17.41,17.41,0,0,1,2.541,16.2Zm6.83,7.147a4.621,4.621,0,0,1-4.447-3.335l1.271-.635a2.2,2.2,0,0,0,1.112-1.906V17a3.974,3.974,0,0,0,2.065.476,5.71,5.71,0,0,0,1.747-.318h0a.3.3,0,0,0,0,.476,7.057,7.057,0,0,0,2.541,3.335A5.439,5.439,0,0,1,9.371,23.348ZM13.5,19.06v.794a6.935,6.935,0,0,1-1.588-2.382,22.068,22.068,0,0,1,2.541-2.7l.635.635A5.17,5.17,0,0,0,13.5,19.06Zm4.606,6.512a1.213,1.213,0,0,1-.794-.318,1.586,1.586,0,0,0,.794-.635,1.586,1.586,0,0,0,.794.635A1.213,1.213,0,0,1,18.107,25.572Zm-.476-3.335a.635.635,0,1,1,.635.635A.582.582,0,0,1,17.63,22.236Zm4.288-1.588A6.755,6.755,0,0,1,21.6,22.4l-.476-.476a.449.449,0,0,0-.635.635,1.213,1.213,0,0,1,.318.794A1.086,1.086,0,0,1,19.7,24.46a1.194,1.194,0,0,1-1.112-.794,1.389,1.389,0,0,0,.953-1.429,1.567,1.567,0,0,0-1.429-1.588,1.467,1.467,0,0,0-1.429,1.588,1.609,1.609,0,0,0,.953,1.429,1.194,1.194,0,0,1-1.112.794,1.086,1.086,0,0,1-1.112-1.112,1.213,1.213,0,0,1,.318-.794.449.449,0,0,0-.635-.635l-.476.476a3.142,3.142,0,0,1-.318-1.747V19.06a3.656,3.656,0,1,1,7.306,0v1.588Zm.953-.794V19.06a4.551,4.551,0,0,0-1.588-3.494l.635-.635a14.2,14.2,0,0,1,2.541,2.7A14.9,14.9,0,0,1,22.872,19.854Z"/>
      </g>
    </g>
  </g>
</svg>
