<svg xmlns="http://www.w3.org/2000/svg" viewBox="0 0 197.556 119.016">
  <defs>
    <style>
      .cls-1 {
        fill: #ceedea;
      }

      .cls-2 {
        fill: #b5d5d2;
      }

      .cls-3 {
        fill: #d7a77d;
      }

      .cls-4 {
        fill: #ac7852;
      }

      .cls-5 {
        fill: #4a2816;
      }

      .cls-6 {
        fill: #e4be9c;
      }

      .cls-7 {
        fill: #86593f;
      }

      .cls-8 {
        fill: #6d4329;
      }

      .cls-9 {
        fill: #443c37;
      }

      .cls-10 {
        fill: #fff;
      }

      .cls-11 {
        fill: #9e572f;
      }

      .cls-12 {
        fill: #2c180a;
      }

      .cls-13 {
        fill: #f0942f;
      }

      .cls-14 {
        fill: #ff6c31;
      }

      .cls-15 {
        font-size: 28.87px;
        fill: #7ad2c4;
        font-family: Axis, Axis;
        font-weight: 700;
      }
    </style>
  </defs>
  <title>Dog</title>
  <g id="Capa_2" data-name="Capa 2">
    <g id="Capa_1-2" data-name="Capa 1">
      <g>
        <ellipse class="cls-1" cx="98.778" cy="107.751" rx="98.778" ry="11.265"/>
        <ellipse class="cls-2" cx="97.896" cy="106.466" rx="33.675" ry="5.513"/>
        <g>
          <path class="cls-3" d="M87.075,82.656S74.066,81.158,69.786,95c-3.639-1.784-4.495-6.7-1.57-8.52-5.066-1.825-6.35,4.454-4.566,7.022s5.387,3.241,5.387,3.241S67.812,107,77.039,107h45.614s4.53.692,4.53-3.267-4.53-3.791-4.53-3.791Z"/>
          <path class="cls-4" d="M88.522,86.478s-1.352,10.827,8.541,16.582S114,107.1,117.326,105.2a2.8,2.8,0,0,1,1.213-2.021,3.006,3.006,0,0,1,2.622-.945,15.843,15.843,0,0,0,1.492-1.695Z"/>
          <path class="cls-5" d="M92.83,89.719c-.991,1.8,4.6,6.806,8.633,9.275,1.757,1.076,8.4,5.141,15.981,3.139,2.179-.575,4.188-1.105,4.352-2.212C122.433,95.631,94.8,86.152,92.83,89.719Z"/>
          <path class="cls-3" d="M122.653,100.54a14.447,14.447,0,0,0,8.942-2.378c3.744-2.643,4.744-6.553,6.183-12.176a45.854,45.854,0,0,0,.285-21.4c-1.454-7.565-3.424-8.962-4.661-9.323a23.514,23.514,0,0,0-4.661-.19c-3.006,0-3.216.2-4.09-.1-2.036-.69-2.187-2.2-4.186-3.52a9.674,9.674,0,0,0-5.327-1.332c-1.663-.066-5.468.129-11.891,4.756-3.715,2.676-10.952,7.89-14.459,17.694-1.346,3.763-2.743,7.667-1.237,11.891.942,2.642,2.99,5.326,9.227,8.752A62.344,62.344,0,0,0,122.653,100.54Z"/>
          <path class="cls-6" d="M138.064,64.582c-1.454-7.565-3.424-8.962-4.661-9.323a23.513,23.513,0,0,0-4.661-.19c-3.006,0-3.216.2-4.091-.1-2.036-.69-2.187-2.2-4.186-3.52a9.674,9.674,0,0,0-5.327-1.332c-1.663-.066-5.468.129-11.891,4.756a45.451,45.451,0,0,0-8.859,7.935,55.37,55.37,0,0,1,5.539-4.431c6.423-4.627,10.228-4.822,11.891-4.756a9.674,9.674,0,0,1,5.327,1.332c2,1.319,2.149,2.83,4.186,3.52.875.3,1.084.1,4.09.1a23.514,23.514,0,0,1,4.661.19c1.238.36,3.208,1.757,4.661,9.323a45.855,45.855,0,0,1-.285,21.4c-.92,3.6-1.665,6.49-3.059,8.8.065-.044.131-.084.2-.129,3.744-2.643,4.744-6.553,6.183-12.176A45.854,45.854,0,0,0,138.064,64.582Z"/>
          <path class="cls-7" d="M122.035,76.425a15.915,15.915,0,0,0-5.47-2.236,18.231,18.231,0,0,0-6.835-.02l.1.02a15.915,15.915,0,0,1,5.47,2.236c4.7,3.1,9.7,10.224,7.372,16.362-1.595,4.211-6,6.276-10.6,6.926,6.191.884,14.941-.6,17.337-6.926C131.731,86.649,126.736,79.524,122.035,76.425Z"/>
          <path class="cls-8" d="M122.671,92.787C125,86.649,120,79.524,115.3,76.425a15.915,15.915,0,0,0-5.47-2.236l-.1-.02a14.508,14.508,0,0,0-7.006,3.4c-.787.7-5.433,4.839-4.9,10.416.627,6.556,7.97,10.468,12.985,11.51.405.084.827.157,1.261.219C116.666,99.063,121.076,97,122.671,92.787Z"/>
          <ellipse cx="118.105" cy="77.251" rx="4.655" ry="4.192"/>
          <ellipse class="cls-9" cx="119.228" cy="76.948" rx="3.068" ry="2.854"/>
          <ellipse class="cls-10" cx="120.174" cy="75.976" rx="1.552" ry="1.275"/>
          <path class="cls-11" d="M107.742,71.669c-1.847-.709-4.49-2.65-4.316-4.923.232-3.035,5.316-4.307,6.207-4.53.667-.167,6.372-1.59,8.1,1.284,1.144,1.907-.115,4.764-1.5,6.314A7.838,7.838,0,0,1,107.742,71.669Z"/>
          <circle cx="111.499" cy="67.174" r="2.83"/>
          <circle class="cls-9" cx="112.272" cy="68.755" r="0.749"/>
          <circle class="cls-10" cx="110.762" cy="66.223" r="0.975"/>
          <path class="cls-11" d="M128.04,67.709a4.275,4.275,0,0,0-3.853.606c-1.986,1.652-1.471,5.815.464,8.276,1.786,2.272,5.588,4.118,7.634,2.461,1.529-1.237,1.385-3.93,1.035-5.315-.423-1.673-1.441-2.718-3-4.316A5.875,5.875,0,0,0,128.04,67.709Z"/>
          <circle cx="127.148" cy="73.262" r="2.83"/>
          <circle class="cls-9" cx="127.921" cy="74.843" r="0.749"/>
          <circle class="cls-10" cx="126.411" cy="72.311" r="0.975"/>
          <path class="cls-12" d="M114.971,59.849c.926.165,2.047-.36,2.069-.856.023-.513-1.129-1.055-2.093-1.165-1.719-.2-3.27.929-3.187,1.213.059.2.892-.138,2.093.309C114.473,59.58,114.511,59.767,114.971,59.849Z"/>
          <path class="cls-12" d="M129.137,65.53c-.847-.408-1.449-1.49-1.176-1.905s1.533-.194,2.379.281c1.509.847,2.107,2.668,1.873,2.849-.164.128-.642-.634-1.878-.975C129.7,65.6,129.559,65.733,129.137,65.53Z"/>
          <circle class="cls-5" cx="105.459" cy="80.48" r="0.963"/>
          <circle class="cls-5" cx="109.561" cy="83.619" r="0.963"/>
          <circle class="cls-5" cx="111.487" cy="78.839" r="0.963"/>
          <circle class="cls-5" cx="120.406" cy="86.723" r="0.963"/>
          <circle class="cls-5" cx="122.296" cy="82.014" r="0.963"/>
          <circle class="cls-5" cx="125.614" cy="86.723" r="0.963"/>
          <ellipse cx="115.224" cy="91.189" rx="2.247" ry="1.766" transform="translate(-8.51 170.446) rotate(-71)"/>
          <path class="cls-8" d="M95.351,56.02a20.043,20.043,0,0,1,4.9-6.278c2.348-1.928,3.8-3.122,6.041-3.234,2.218-.111,5.351.8,6.041,2.949.629,1.961-1.086,3.982-2.45,5.589a16.815,16.815,0,0,1-11.13,5.31c-1.34.068-3.456.15-4.114-1.005C94.45,59.019,94.209,58.3,95.351,56.02Z"/>
          <path class="cls-8" d="M138.206,74.522a13.356,13.356,0,0,1-.476-6.754c.4-2.6.607-3.944,1.807-5.042a5.208,5.208,0,0,1,5.857-.87c2.036,1.2,2.21,3.85,2.276,4.865.247,3.77-2.23,6.419-4.233,8.562-2.023,2.163-2.928,2.067-3.234,2C139.148,77.049,138.64,75.685,138.206,74.522Z"/>
          <circle class="cls-13" cx="106.203" cy="102.679" r="1.594"/>
          <circle class="cls-14" cx="106.203" cy="102.679" r="1.058"/>
          <path class="cls-6" d="M78.276,95.213a5.022,5.022,0,0,1,6.088,1.76c1.76,2.473-1.094,5.85-2.331,6.183,3.282.666,4.661,1.893,4.661,3.9h3.139s-1-4.372-4.709-4.372c2.711-1.569,1.712-5.659.333-7.229S80.416,92.6,78.276,95.213Z"/>
          <path class="cls-6" d="M124.5,100.469h-4.64s-2.537-.226-2.537,4.732a3.759,3.759,0,0,1,3.835-2.967h4.453s1.57.075,1.57,1.5C127.183,102.419,126.483,100.469,124.5,100.469Z"/>
        </g>
        <g>
          <ellipse class="cls-2" cx="33.792" cy="105.99" rx="14.724" ry="3.15"/>
          <polygon class="cls-1" points="22.676 87.262 25.218 105.711 42.13 105.711 44.85 87.262 22.676 87.262"/>
          <path class="cls-1" d="M32.472,82.157s.158-6.347,1.419-10.289a49.115,49.115,0,0,0,1.853-15.217,21.782,21.782,0,0,0-1.38-6.268s-5.558-1.1-6.307-6.465c4.415-2.562,8.2,2.641,7.963,6.189a5.761,5.761,0,0,0-4.493-3.637c1.932.67,4.06,2.258,5.084,7.106a30.99,30.99,0,0,1,.394,12.378c-.67,3.706-2.247,8.239-2.641,11.077a27.63,27.63,0,0,0-.237,5.125Z"/>
          <path class="cls-1" d="M36.66,65.974s1.8-4.938,4.228-6.889c2.838.177,5.588-.384,6.918-2.1a13.843,13.843,0,0,1,1.951-2.158l.177-.207a.429.429,0,0,0-.325-.473,11.224,11.224,0,0,0-4.376-.976c-2.247.03-4.642,2.365-4.878,5.292,1.153-1.774,4.317-2.247,4.317-2.247a12.786,12.786,0,0,0-7.3,6.837A13.486,13.486,0,0,0,36.66,65.974Z"/>
          <path class="cls-1" d="M33.97,79.25s2.129-6.741,6.517-8.01c2.678.957,5.476,1.179,7.229-.1a13.843,13.843,0,0,1,2.473-1.533l.228-.15a.429.429,0,0,0-.181-.545,11.224,11.224,0,0,0-3.934-2.15c-2.167-.594-5.116.986-6.154,3.733,1.6-1.385,4.77-.963,4.77-.963s-6.1.2-10.653,6.435C33.727,76.636,34.26,78.564,33.97,79.25Z"/>
          <path class="cls-1" d="M35.271,66.638s-1.892-5.292-4.317-7.244c-2.838.177-5.588-.384-6.918-2.1a13.843,13.843,0,0,0-1.951-2.158l-.177-.207a.429.429,0,0,1,.325-.473,11.224,11.224,0,0,1,4.376-.976c2.247.03,4.642,2.365,4.878,5.292C30.333,57,27.17,56.526,27.17,56.526s4.084,1.018,8.308,8.325C35.81,65.642,35.182,65.9,35.271,66.638Z"/>
          <path class="cls-1" d="M33.665,76.8s-1.892-5.292-4.317-7.244c-2.838.177-5.588-.384-6.918-2.1A13.843,13.843,0,0,0,20.479,65.3l-.177-.207a.429.429,0,0,1,.325-.473A11.224,11.224,0,0,1,25,63.64c2.247.03,4.642,2.365,4.878,5.292-1.153-1.774-4.317-2.247-4.317-2.247s4.084,1.018,8.308,8.325C34.2,75.8,33.576,76.058,33.665,76.8Z"/>
          <polyline class="cls-1" points="19.896 82.157 21.434 86.099 46.033 86.099 47.846 82.157 19.896 82.157"/>
        </g>
        <g>
          <ellipse class="cls-2" cx="160.033" cy="107.046" rx="10.165" ry="2.175"/>
          <polygon class="cls-1" points="152.358 94.116 154.114 106.853 165.789 106.853 167.667 94.116 152.358 94.116"/>
          <path class="cls-1" d="M159.121,90.591a32,32,0,0,1,.98-7.1,33.908,33.908,0,0,0,1.279-10.505,15.038,15.038,0,0,0-.953-4.327s-3.837-.762-4.355-4.463c3.048-1.769,5.661,1.823,5.5,4.273a3.977,3.977,0,0,0-3.1-2.511c1.334.463,2.8,1.559,3.51,4.906a21.4,21.4,0,0,1,.272,8.546c-.463,2.558-1.551,5.688-1.823,7.648a19.075,19.075,0,0,0-.163,3.538Z"/>
          <path class="cls-1" d="M162.013,79.419s1.245-3.409,2.919-4.756c1.96.122,3.858-.265,4.776-1.449a9.557,9.557,0,0,1,1.347-1.49l.122-.143a.3.3,0,0,0-.225-.327,7.749,7.749,0,0,0-3.021-.674,3.892,3.892,0,0,0-3.368,3.654c.8-1.225,2.98-1.551,2.98-1.551a8.827,8.827,0,0,0-5.037,4.72A9.31,9.31,0,0,0,162.013,79.419Z"/>
          <path class="cls-1" d="M160.156,88.584s1.47-4.654,4.5-5.53c1.849.661,3.78.814,4.991-.069a9.557,9.557,0,0,1,1.707-1.058l.157-.1a.3.3,0,0,0-.125-.376,7.749,7.749,0,0,0-2.716-1.484,3.892,3.892,0,0,0-4.249,2.577c1.1-.956,3.293-.665,3.293-.665a10.293,10.293,0,0,0-7.354,4.443C159.988,86.78,160.356,88.111,160.156,88.584Z"/>
          <path class="cls-1" d="M161.054,79.877s-1.306-3.654-2.98-5c-1.96.122-3.858-.265-4.776-1.449a9.557,9.557,0,0,0-1.347-1.49l-.122-.143a.3.3,0,0,1,.225-.327,7.749,7.749,0,0,1,3.021-.674,3.892,3.892,0,0,1,3.368,3.654c-.8-1.225-2.98-1.551-2.98-1.551s2.82.7,5.736,5.747C161.426,79.19,160.993,79.367,161.054,79.877Z"/>
          <path class="cls-1" d="M159.945,86.891s-1.306-3.654-2.98-5c-1.96.122-3.858-.265-4.776-1.449a9.557,9.557,0,0,0-1.347-1.49l-.122-.143a.3.3,0,0,1,.225-.327,7.749,7.749,0,0,1,3.021-.674,3.892,3.892,0,0,1,3.368,3.654c-.8-1.225-2.98-1.551-2.98-1.551s2.82.7,5.736,5.747C160.317,86.2,159.884,86.381,159.945,86.891Z"/>
          <polyline class="cls-1" points="150.44 90.591 151.501 93.313 168.484 93.313 169.736 90.591 150.44 90.591"/>
        </g>
        <path class="cls-1" d="M106.288,29.842a6.241,6.241,0,0,0-1.515.193.982.982,0,0,1-.065-1.907,6.292,6.292,0,0,1,2.119-.23,9.238,9.238,0,0,0-16.288-4.643,6.324,6.324,0,0,1,2.129,4.734.986.986,0,0,1-1.971,0,4.41,4.41,0,0,0-.022-.443c-.008-.077-.023-.151-.034-.227s-.017-.136-.031-.2c-.021-.1-.05-.206-.078-.308-.01-.035-.016-.071-.027-.1-.036-.117-.079-.232-.125-.345-.007-.017-.012-.035-.019-.052-.052-.126-.111-.248-.175-.368l0-.009a4.388,4.388,0,0,0-.733-1h0a4.369,4.369,0,0,0-7.383,4.059,6.856,6.856,0,0,0,2.206,13.349h22.017a6.248,6.248,0,0,0,0-12.5Z"/>
        <path class="cls-1" d="M126.817,6.5a4.077,4.077,0,0,1,.99.126.642.642,0,0,0,.043-1.245,4.11,4.11,0,0,0-1.384-.15A6.034,6.034,0,0,1,137.1,2.2a4.131,4.131,0,0,0-1.391,3.092.644.644,0,1,0,1.287,0,2.881,2.881,0,0,1,.015-.29c.005-.05.015-.1.022-.148s.011-.089.02-.132c.014-.068.033-.135.051-.2.006-.023.011-.046.018-.069.024-.077.052-.151.081-.225l.012-.034c.034-.082.073-.162.114-.24l0-.006a2.866,2.866,0,0,1,.479-.653h0a2.854,2.854,0,0,1,4.822,2.651,4.479,4.479,0,0,1-1.441,8.72H126.817a4.081,4.081,0,0,1,0-8.163Z"/>
        <text class="cls-15" transform="translate(128.075 48.451)">?</text>
      </g>
    </g>
  </g>
</svg>
