<svg xmlns="http://www.w3.org/2000/svg" viewBox="0 0 30.375 25.637">
  <defs>
    <style>
      .cls-1 {
        fill: #666;
      }
    </style>
  </defs>
  <title>Mascotas</title>
  <g id="Capa_2" data-name="Capa 2">
    <g id="Capa_1-2" data-name="Capa 1">
      <g>
        <path class="cls-1" d="M4.927,22.309a5.325,5.325,0,0,1-.375-3.17,5.213,5.213,0,0,1,2.305-3.591c2.528-1.58,5.091-3.105,7.64-4.652.363-.22.73-.433,1.2-.715A3.473,3.473,0,0,0,15.224,10,3.542,3.542,0,0,1,12.3,6.924a3.971,3.971,0,0,1,1.313-3.847c.727-.6,1.352-1.33,2.024-2A3.464,3.464,0,0,1,18.241,0c1.265.02,2.531.006,3.8,0a3.223,3.223,0,0,1,2.345.968c.465.457.924.921,1.389,1.379a3.377,3.377,0,0,0,2.467.976,9.032,9.032,0,0,1,1.125.026c.689.087,1.2.728.945,1.3-.634,1.425-1.268,2.907-2.751,3.665a6,6,0,0,1-2.138.564c-1,.094-2.014.023-3.109.023,0,.737-.014,1.459.014,2.18,0,.12.178.244.29.347a5.517,5.517,0,0,1-.465,8.731,1,1,0,0,0-.33.56c-.1.5-.144,1.013-.216,1.564l.722.241a3.145,3.145,0,0,1,1.682,1.34,1.1,1.1,0,0,1-.945,1.76c-1.344.018-2.689.011-4.034,0a1.078,1.078,0,0,1-1.173-1.186c-.014-.85,0-1.7-.005-2.551,0-.212-.018-.425-.027-.623-1.667-.333-2.342-.012-2.72,1.184A13.9,13.9,0,0,1,16.5,23.924a1.06,1.06,0,0,1-.924,1.7q-6.97.018-13.94,0a1.657,1.657,0,1,1,.052-3.313C2.732,22.3,3.779,22.309,4.927,22.309ZM18.961,1.139c0,1.834.005,3.612,0,5.39a3.239,3.239,0,0,1-1.769,3.063.7.7,0,0,0-.461.82.652.652,0,0,1-.423.739c-.882.484-1.752.994-2.615,1.513C11.644,13.9,9.577,15.1,7.567,16.391a4.415,4.415,0,0,0,1.96,8.078c1.414.118,2.844.058,4.266.073.563.006,1.126,0,1.762,0-.466-.907-1.365-1.022-2.083-1.469a5.712,5.712,0,0,0,1-3.123,4.658,4.658,0,0,0-1.288-3.061l.775-.747a5.659,5.659,0,0,1,1.654,4.017l2.2-.153L17.888,19h1.09v5.5h4.068c-.609-1.094-1.706-1.006-2.681-1.229.114-.937.256-1.814.315-2.7a1.671,1.671,0,0,1,.813-1.37c2.228-1.59,2.682-4.555.806-6.373a3.509,3.509,0,0,1-1.128-3.171c.021-.215-.016-.437.007-.652a1.207,1.207,0,0,0-.38-.994,7.818,7.818,0,0,1-.759-1.228l.2-.223c.373.127.88.145,1.092.4A2.057,2.057,0,0,0,23,7.815c.573,0,1.149-.034,1.72.008a3.607,3.607,0,0,0,3.946-2.507c-.093-.072-.3-.152-.361-.294-.248-.539-.742-.574-1.219-.742a7.489,7.489,0,0,1-1.868-.963c-.555-.4-.967-.993-1.507-1.42a2.955,2.955,0,0,0-1.374-.723C21.246,1.066,20.137,1.139,18.961,1.139ZM17.8,1.013a9.854,9.854,0,0,0-1.356.852c-.691.616-1.271,1.362-1.989,1.94A3.05,3.05,0,0,0,13.4,6.822a2.2,2.2,0,0,0,1.434,1.937,2.136,2.136,0,0,0,2.306-.473,2.483,2.483,0,0,0,.712-2c0-1.519,0-3.038,0-4.556C17.85,1.562,17.829,1.389,17.8,1.013ZM6.505,24.542l.074-.127a9.192,9.192,0,0,0-.766-.714,1.269,1.269,0,0,0-.657-.291c-1.1-.029-2.206-.014-3.309-.013-.372,0-.686.11-.706.539-.021.469.309.6.7.6C3.4,24.546,4.951,24.542,6.505,24.542Z"/>
        <path class="cls-1" d="M23.164,4.432A.816.816,0,1,1,23.111,2.8a.816.816,0,1,1,.052,1.631Z"/>
      </g>
    </g>
  </g>
</svg>
