<svg xmlns="http://www.w3.org/2000/svg" viewBox="0 0 18.647 18.687">
  <defs>
    <style>
      .cls-1 {
        fill: #4d4d4d;
      }
    </style>
  </defs>
  <title>Modificar</title>
  <g id="Capa_2" data-name="Capa 2">
    <g id="Capa_1-2" data-name="Capa 1">
      <path class="cls-1" d="M.02,14.015,0,17.859a.835.835,0,0,0,.237.591.789.789,0,0,0,.572.237l3.824-.02A.789.789,0,0,0,5.2,18.43L18.411,5.224a.833.833,0,0,0,0-1.163L14.626.237a.833.833,0,0,0-1.163,0L10.822,2.9.256,13.443A.878.878,0,0,0,.02,14.015ZM14.054,1.971l2.661,2.661-1.5,1.5L12.556,3.469Zm-12.4,12.4,9.738-9.738,2.661,2.661L4.317,17.011l-2.681.02Z"/>
    </g>
  </g>
</svg>
