<svg xmlns="http://www.w3.org/2000/svg" viewBox="0 0 23.012 26.545">
  <defs>
    <style>
      .cls-1 {
        fill: #666;
      }
    </style>
  </defs>
  <title>Perfil</title>
  <g id="Capa_2" data-name="Capa 2">
    <g id="Capa_1-2" data-name="Capa 1">
      <g>
        <g>
          <path class="cls-1" d="M11.249,0C7.853,0,5.1,3.275,5.1,7.316s2.753,7.316,6.149,7.316S17.4,11.356,17.4,7.316,14.645,0,11.249,0Zm0,13.224c-2.743,0-4.966-2.645-4.966-5.909s2.223-5.909,4.966-5.909,4.966,2.645,4.966,5.909S13.992,13.224,11.249,13.224Z"/>
          <path class="cls-1" d="M.021,23.924H1.34V20.679a3.165,3.165,0,0,1,1.535-2.442C4.34,17.4,7.969,16.143,8.143,15.9s.035-1.012-.349-1.047a6.163,6.163,0,0,0-1.884.628,34.993,34.993,0,0,0-4.187,1.884,3.694,3.694,0,0,0-1.64,2.9A35.27,35.27,0,0,0,.021,23.924Z"/>
          <path class="cls-1" d="M22.99,23.924H21.672V20.679a3.165,3.165,0,0,0-1.535-2.442c-1.465-.837-5.094-2.093-5.269-2.338s-.035-1.012.349-1.047a6.163,6.163,0,0,1,1.884.628,34.993,34.993,0,0,1,4.187,1.884,3.694,3.694,0,0,1,1.64,2.9A35.27,35.27,0,0,1,22.99,23.924Z"/>
        </g>
        <path class="cls-1" d="M1.34,23.924a37.729,37.729,0,0,0,9.909,1.4,37.735,37.735,0,0,0,10.423-1.4H22.99v.294a.822.822,0,0,1-.591.792,39.46,39.46,0,0,1-11.15,1.534A39.455,39.455,0,0,1,.611,25.01a.821.821,0,0,1-.59-.792v-.293Z"/>
      </g>
    </g>
  </g>
</svg>
