<svg xmlns="http://www.w3.org/2000/svg" viewBox="0 0 97.651 128.639">
  <defs>
    <style>
      .cls-1, .cls-4 {
        fill: #fff;
      }

      .cls-1, .cls-2, .cls-3, .cls-4, .cls-5, .cls-6 {
        stroke: #333;
        stroke-miterlimit: 10;
        stroke-width: 3px;
      }

      .cls-2, .cls-3 {
        fill: none;
      }

      .cls-3, .cls-4, .cls-5, .cls-6 {
        stroke-linecap: round;
      }

      .cls-5 {
        fill: #00d2c6;
      }

      .cls-6 {
        fill: #ffd62c;
      }

      .cls-7 {
        fill: #333;
      }
    </style>
  </defs>
  <title>Icon Transfer</title>
  <g id="Capa_2" data-name="Capa 2">
    <g id="Capa_1-2" data-name="Capa 1">
      <path class="cls-1" d="M93.684,21.558,48.825,1.641,3.967,21.558A4.136,4.136,0,0,0,1.5,25.334v4.42H96.151v-4.42A4.136,4.136,0,0,0,93.684,21.558Z"/>
      <line class="cls-2" x1="6.489" y1="29.753" x2="6.489" y2="78.206"/>
      <line class="cls-2" x1="14.693" y1="29.753" x2="14.693" y2="78.206"/>
      <line class="cls-2" x1="83.198" y1="29.753" x2="83.198" y2="78.206"/>
      <line class="cls-2" x1="91.833" y1="29.753" x2="91.833" y2="78.206"/>
      <line class="cls-3" x1="1.5" y1="78.206" x2="19.154" y2="78.206"/>
      <line class="cls-3" x1="96.151" y1="78.206" x2="78.161" y2="78.206"/>
      <line class="cls-3" x1="26.446" y1="29.753" x2="26.446" y2="40.691"/>
      <line class="cls-3" x1="34.985" y1="29.753" x2="34.985" y2="39.156"/>
      <line class="cls-3" x1="63.481" y1="29.753" x2="63.481" y2="39.156"/>
      <line class="cls-3" x1="71.541" y1="29.753" x2="71.541" y2="40.691"/>
      <rect class="cls-4" x="26.446" y="45.824" width="45.095" height="81.314" rx="11.625" ry="11.625"/>
      <path class="cls-5" d="M38.151,45.824h21.3a0,0,0,0,1,0,0v3.6a5.75,5.75,0,0,1-5.75,5.75H43.9a5.75,5.75,0,0,1-5.75-5.75v-3.6A0,0,0,0,1,38.151,45.824Z"/>
      <rect class="cls-3" x="34.41" y="105.551" width="29.072" height="11.801" rx="3.125" ry="3.125"/>
      <rect class="cls-6" x="34.41" y="89.576" width="29.072" height="18.997" rx="3.125" ry="3.125"/>
      <line class="cls-3" x1="40.742" y1="99.075" x2="46.067" y2="99.075"/>
      <path class="cls-3" d="M38.151,67.58a17.794,17.794,0,0,1,21.3,0"/>
      <path class="cls-3" d="M41.893,74.9a8.1,8.1,0,0,1,13.384,0"/>
      <line class="cls-3" x1="47.65" y1="80.221" x2="49.953" y2="80.221"/>
      <path class="cls-7" d="M46.986,21.759a7.631,7.631,0,0,1-1.939-.5,7.376,7.376,0,0,1-1.708-.966l1.206-1.762a9.157,9.157,0,0,0,1.229.8,4.66,4.66,0,0,0,1.29.456V17.324a10.553,10.553,0,0,1-1.46-.51,3.65,3.65,0,0,1-1.036-.664,2.529,2.529,0,0,1-.618-.9,3.193,3.193,0,0,1-.208-1.2v-.031a2.87,2.87,0,0,1,.232-1.174,2.675,2.675,0,0,1,.657-.912,3.354,3.354,0,0,1,1.027-.626,5.052,5.052,0,0,1,1.329-.316v-.9h1.607v.927a6.7,6.7,0,0,1,1.538.41,6.623,6.623,0,0,1,1.336.733l-1.035,1.809a8.9,8.9,0,0,0-.942-.549,4.758,4.758,0,0,0-.974-.363v2.333a5.882,5.882,0,0,1,2.557,1.252,2.753,2.753,0,0,1,.8,2.07v.031a2.731,2.731,0,0,1-.9,2.086,3.47,3.47,0,0,1-1.028.634,4.814,4.814,0,0,1-1.344.324v1.53H46.986Zm.077-8.839a1.4,1.4,0,0,0-.811.332.852.852,0,0,0-.255.626v.03a.91.91,0,0,0,.216.61,2.066,2.066,0,0,0,.85.487Zm1.453,6.938q1.1-.17,1.1-.988v-.031a.941.941,0,0,0-.232-.657,2.228,2.228,0,0,0-.865-.486Z"/>
    </g>
  </g>
</svg>
