<svg xmlns="http://www.w3.org/2000/svg" viewBox="0 0 634.46 259.211">
  <defs>
    <style>
      .cls-1 {
        font-size: 23.13px;
        font-family: GothamMedium, Gotham Medium;
      }

      .cls-1, .cls-3 {
        fill: #181e0d;
      }

      .cls-2, .cls-7 {
        fill: none;
      }

      .cls-2 {
        stroke: #949494;
        stroke-miterlimit: 10;
      }

      .cls-3 {
        font-size: 23px;
        font-family: GothamLight, Gotham Light;
      }

      .cls-4 {
        fill: #fff;
      }

      .cls-5 {
        fill: #f1f1f1;
      }

      .cls-6 {
        fill: #989898;
      }

      .cls-8 {
        fill: #cbcbcb;
      }
    </style>
  </defs>
  <title>Recurso 2</title>
  <g id="Capa_2" data-name="Capa 2">
    <g id="Capa_1-2" data-name="Capa 1">
      <text class="cls-1" transform="translate(1.631 19.66)">CON LA CONFIANZA Y SEGURIDAD QUE NECESITAS</text>
      <line class="cls-2" x1="185.541" y1="102.058" x2="185.541" y2="208.305"/>
      <line class="cls-2" x1="422.17" y1="102.058" x2="422.17" y2="208.305"/>
      <text class="cls-3" transform="translate(1.633 204.104)">Cuidadores<tspan x="-1.633" y="25.633">certificados</tspan></text>
      <text class="cls-3" transform="translate(246.891 204.104)">Cobertura<tspan x="-2.3" y="25.633">veterinaria</tspan></text>
      <text class="cls-3" transform="translate(468.104 204.104)">Fotos y videos<tspan x="45.586" y="25.633">diarios</tspan></text>
      <g id="Capa_2-2" data-name="Capa 2">
        <g id="Capa_1-2-2" data-name="Capa 1-2">
          <g>
            <path class="cls-4" d="M66.2,90.657l25.926,11.965V123.79s1.2,20.146-25.732,29.963c-20.183-9.715-25.705-18.509-25.705-31.548V102.417Z"/>
            <g id="surface1">
              <circle class="cls-5" cx="66.205" cy="121.445" r="17.564"/>
              <polygon class="cls-4" points="63.635 119.221 66.742 113.085 69.503 119.681 75.83 119.681 70.117 124.321 72.571 132.029 65.668 127.389 60.069 131.109 61.641 124.206 56.963 119.489 63.635 119.221"/>
              <path class="cls-5" d="M85.84,100.872v20.672a30.047,30.047,0,0,1-5.676,15.7A30.386,30.386,0,0,1,66.512,147.6a29.992,29.992,0,0,1-8.9,1.867l7.056,3.272a13.028,13.028,0,0,0,8.13-1.994c4.3-2.608,11.5-6.289,15.033-14.112s4.3-12.732,4.3-17.794-.92-16.926-.92-16.926Z"/>
              <path class="cls-6" d="M69.771,117.863l-2.4-7.383a1.227,1.227,0,0,0-2.332,0l-2.4,7.383H54.875a1.227,1.227,0,0,0-.721,2.22l6.283,4.563-2.4,7.384a1.227,1.227,0,0,0,1.889,1.372l6.278-4.563,6.281,4.563a1.227,1.227,0,0,0,1.889-1.372l-2.4-7.384,6.279-4.563a1.227,1.227,0,0,0-.717-2.22Zm.04,5.322a1.227,1.227,0,0,0-.445,1.373l1.5,4.639-3.941-2.867a1.227,1.227,0,0,0-1.443,0L61.542,129.2l1.507-4.639a1.227,1.227,0,0,0-.446-1.373l-3.951-2.867H63.53a1.227,1.227,0,0,0,1.166-.848l1.509-4.64,1.508,4.64a1.227,1.227,0,0,0,1.166.848h4.877Z"/>
              <path class="cls-5" d="M31.921,114.389H39.9s.537,14.879,1.074,15.57l.537.69H31.231l4.218-8.091Z"/>
              <path class="cls-5" d="M100.642,114.389H92.666s-.537,14.879-1.074,15.57l-.537.69h10.278l-4.218-8.091Z"/>
              <path class="cls-6" d="M66.2,101.911A19.635,19.635,0,1,0,85.84,121.546,19.635,19.635,0,0,0,66.2,101.911Zm0,36.815a17.18,17.18,0,1,1,17.18-17.18,17.18,17.18,0,0,1-17.18,17.18Z"/>
              <path class="cls-6" d="M98.3,122.771l4.56-7.977a1.227,1.227,0,0,0-1.065-1.841H93.2v-10.62a1.227,1.227,0,0,0-.715-1.115L66.717,89.408a1.227,1.227,0,0,0-1.023,0L39.923,101.219a1.227,1.227,0,0,0-.715,1.115v10.621h-8.59a1.227,1.227,0,0,0-1.065,1.841l4.561,7.977-4.561,7.977a1.227,1.227,0,0,0,1.065,1.841h10.4A32.035,32.035,0,0,0,57.86,151.118l7.837,3.591a1.227,1.227,0,0,0,1.023,0l7.829-3.591a32.034,32.034,0,0,0,16.839-18.53h10.4a1.227,1.227,0,0,0,1.065-1.841Zm-65.561,7.362,3.859-6.749a1.227,1.227,0,0,0,0-1.217l-3.859-6.758h6.473v6.649a31.692,31.692,0,0,0,1.064,8.074Zm40.8,18.754L66.2,152.247l-7.328-3.358a29.589,29.589,0,0,1-17.215-26.83V103.122L66.2,91.87l24.543,11.249v18.939A29.589,29.589,0,0,1,73.532,148.888Zm18.6-18.754a31.661,31.661,0,0,0,1.066-8.075v-6.649h6.473l-3.859,6.749a1.227,1.227,0,0,0,0,1.217l3.859,6.758Z"/>
            </g>
            <rect class="cls-7" x="29.39" y="85.243" width="73.63" height="73.63"/>
          </g>
        </g>
      </g>
      <g id="Capa_2-3" data-name="Capa 2">
        <g id="Capa_1-2-3" data-name="Capa 1-2">
          <g>
            <rect class="cls-7" x="268.06" y="85.244" width="72.869" height="72.869"/>
            <path class="cls-5" d="M311.364,146.561s6.286-7.617,9.506-11.072c1.719-1.845,2.523-4.32,1.055-6.37s-4.639-2.888-6.37-1.055c-3.3,3.492-11.04,12.79-11.04,12.79"/>
            <path class="cls-8" d="M321.922,129.119A5.048,5.048,0,0,0,320,127.53L307.04,142.958l4.324,3.6s6.286-7.617,9.506-11.072C322.59,133.644,323.392,131.17,321.922,129.119Z"/>
            <path class="cls-5" d="M319.354,146.561s6.286-7.617,9.506-11.072c1.719-1.845,2.523-4.32,1.055-6.37s-4.639-2.888-6.37-1.055c-3.3,3.492-11.04,12.79-11.04,12.79"/>
            <path class="cls-8" d="M329.915,129.119a4.953,4.953,0,0,0-1.306-1.244l-13.056,15.517,3.8,3.169s6.286-7.617,9.506-11.072C330.579,133.644,331.383,131.17,329.915,129.119Z"/>
            <path class="cls-4" d="M337.991,135.061c-3.218,3.455-9.506,11.072-9.506,11.072l-20.95,10.475a4.566,4.566,0,0,1-3.813.121l-19.752-8.314H269.13V135.86s5.708-6.848,18.263-6.848a18.644,18.644,0,0,1,12.556,4.566l14.4,3.631a4.565,4.565,0,0,1,3.151,3.654l4.14-.436s7.74-9.3,11.04-12.79c1.731-1.833,4.9-1,6.37,1.055S339.711,133.216,337.991,135.061Z"/>
            <path class="cls-5" d="M339.046,128.691a4.993,4.993,0,0,0-1.5-1.365,5.683,5.683,0,0,1-1.752,4.768c-3.218,3.455-9.506,11.072-9.506,11.072l-18.756,10.019a4.566,4.566,0,0,1-3.813.121l-19.751-8.315H269.13v3.424h14.84l19.752,8.319a4.566,4.566,0,0,0,3.813-.121l20.95-10.475s6.286-7.617,9.506-11.072C339.711,133.216,340.514,130.742,339.046,128.691Z"/>
            <path class="cls-5" d="M304.515,90.1c-18.1-11.71-26.423,6.674-20.227,15.97a77.241,77.241,0,0,0,20.227,20.221,77.241,77.241,0,0,0,20.227-20.221C330.938,96.775,322.613,78.391,304.515,90.1Z"/>
            <path class="cls-8" d="M316.414,86.368c6.388,3.3,8.224,12.721,4.333,18.56a78.03,78.03,0,0,1-19.011,19.4c1.716,1.293,2.779,1.969,2.779,1.969a77.241,77.241,0,0,0,20.227-20.223C329.351,99.155,325.923,87.21,316.414,86.368Z"/>
            <g>
              <path class="cls-4" d="M296.811,110.006a7.7,7.7,0,0,1,15.409,0c0,4.255-3.45,5.993-7.7,5.993S296.811,114.26,296.811,110.006Z"/>
              <path class="cls-4" d="M297.666,97.164c0-1.419,1.15-3.424,2.568-3.424s2.568,2,2.568,3.424a2.568,2.568,0,1,1-5.137,0h0Z"/>
              <path class="cls-4" d="M306.228,97.164c0-1.419,1.15-3.424,2.568-3.424s2.568,2,2.568,3.424a2.568,2.568,0,1,1-5.137,0h0Z"/>
              <path class="cls-4" d="M313.076,102.3c0-1.419,1.15-3.424,2.568-3.424s2.568,2,2.568,3.424a2.568,2.568,0,1,1-5.137,0Z"/>
              <path class="cls-4" d="M290.818,102.3c0-1.419,1.15-3.424,2.568-3.424s2.568,2,2.568,3.424a2.568,2.568,0,0,1-5.137,0Z"/>
            </g>
            <path class="cls-5" d="M317.311,139.331q-.028.109-.061.219a4.566,4.566,0,0,1-5.718,3l-11.676-3.218H290.58v2.283h9.274l11.676,3.218a4.565,4.565,0,0,0,5.781-5.5Z"/>
            <path class="cls-6" d="M339.917,128.068a6.118,6.118,0,0,0-4.441-2.5A4.4,4.4,0,0,0,331.9,126.9c-.375.4-.805.866-1.275,1.386a6.12,6.12,0,0,0-4.279-2.3,4.4,4.4,0,0,0-3.577,1.336c-.157.166-.324.346-.5.536a6.109,6.109,0,0,0-3.914-1.872,4.4,4.4,0,0,0-3.577,1.336c-1.32,1.4-3.47,3.845-6.391,7.272l-7.908-1.989a19.868,19.868,0,0,0-13.085-4.665c-12.908,0-18.838,6.936-19.085,7.231a1.07,1.07,0,0,0,1.576,1.443q.036-.035.068-.073c.054-.064,5.526-6.463,17.441-6.463a17.792,17.792,0,0,1,11.8,4.251,1.085,1.085,0,0,0,.494.279l14.366,3.623a3.5,3.5,0,0,1-2.109,6.666l-.035-.01-11.677-3.218a1.1,1.1,0,0,0-.284-.039h-9.132a1.07,1.07,0,1,0,0,2.14H299.8l11.521,3.173a5.636,5.636,0,0,0,7.291-5.132l3.133-.33a1.071,1.071,0,0,0,.71-.373c.077-.093,7.756-9.312,11-12.74,1.346-1.425,3.75-.415,4.722.943,1.5,2.088-.364,4.368-.968,5.018-2.973,3.19-8.425,9.761-9.4,10.945L307.056,155.65a3.492,3.492,0,0,1-2.92.095l-19.752-8.319a1.069,1.069,0,0,0-.415-.084H269.13a1.07,1.07,0,0,0,0,2.14h14.623l19.553,8.233a5.672,5.672,0,0,0,4.71-.149l20.95-10.475a1.069,1.069,0,0,0,.347-.276c.061-.076,6.3-7.632,9.463-11.023C341.1,133.294,341.536,130.335,339.917,128.068ZM310.7,135.185c2.522-2.948,4.458-5.145,5.631-6.386a2.3,2.3,0,0,1,1.876-.668,3.982,3.982,0,0,1,2.621,1.329c-1.816,2.046-4.043,4.651-5.881,6.823a3.424,3.424,0,0,0-.341-.113Zm10.391,4.222-2.793.294a5.672,5.672,0,0,0-1.507-2.287c2.526-2.983,5.708-6.692,7.53-8.616a2.3,2.3,0,0,1,1.876-.668,3.981,3.981,0,0,1,2.846,1.613,1.894,1.894,0,0,1,.121.187C326.046,133.487,322.169,138.117,321.093,139.407Z"/>
            <path class="cls-6" d="M295.74,110.006c0,4.423,3.279,7.063,8.775,7.063s8.775-2.64,8.775-7.063a8.775,8.775,0,1,0-17.549,0Zm8.775-6.635a6.642,6.642,0,0,1,6.635,6.635c0,4.283-4.157,4.922-6.635,4.922s-6.635-.639-6.635-4.922A6.642,6.642,0,0,1,304.515,103.371Z"/>
            <path class="cls-6" d="M300.235,100.8a3.643,3.643,0,0,0,3.639-3.639c0-1.789-1.451-4.494-3.639-4.494s-3.639,2.705-3.639,4.494A3.643,3.643,0,0,0,300.235,100.8Zm0-5.993c.644,0,1.5,1.342,1.5,2.354a1.5,1.5,0,1,1-3,0h0C298.737,96.152,299.591,94.81,300.235,94.81Z"/>
            <path class="cls-6" d="M308.8,100.8a3.643,3.643,0,0,0,3.639-3.639c0-1.789-1.451-4.494-3.639-4.494s-3.639,2.705-3.639,4.494A3.643,3.643,0,0,0,308.8,100.8Zm0-5.993c.644,0,1.5,1.342,1.5,2.354a1.5,1.5,0,0,1-3,0v0C307.3,96.152,308.151,94.81,308.8,94.81Z"/>
            <path class="cls-6" d="M315.644,105.939a3.643,3.643,0,0,0,3.639-3.639c0-1.789-1.451-4.494-3.639-4.494s-3.639,2.705-3.639,4.494A3.643,3.643,0,0,0,315.644,105.939Zm0-5.993c.644,0,1.5,1.342,1.5,2.354a1.5,1.5,0,1,1-3,0v0c0-1.012.854-2.354,1.5-2.354Z"/>
            <path class="cls-6" d="M293.386,105.939a3.643,3.643,0,0,0,3.639-3.638c0-1.789-1.451-4.494-3.639-4.494s-3.639,2.705-3.639,4.494A3.643,3.643,0,0,0,293.386,105.939Zm0-5.993c.644,0,1.5,1.342,1.5,2.354a1.5,1.5,0,1,1-3,0c0-1.012.854-2.354,1.5-2.354Z"/>
            <path class="cls-6" d="M302.232,110.219h1.214v1.214a1.07,1.07,0,0,0,2.14,0v-1.214H306.8a1.07,1.07,0,0,0,0-2.14h-1.217v-1.214a1.07,1.07,0,0,0-2.14,0v1.214h-1.214a1.07,1.07,0,0,0,0,2.14Z"/>
            <path class="cls-6" d="M303.941,127.2a1.079,1.079,0,0,0,1.149,0,77.525,77.525,0,0,0,20.542-20.536,14.893,14.893,0,0,0-1.783-17.925c-2.209-2.24-8.468-6.642-19.334.1-10.866-6.74-17.124-2.337-19.334-.1a14.893,14.893,0,0,0-1.783,17.925A77.534,77.534,0,0,0,303.941,127.2ZM286.7,90.241a9.466,9.466,0,0,1,6.96-2.836c3.068,0,6.571,1.2,10.269,3.595a1.07,1.07,0,0,0,1.163,0c6.976-4.513,13.255-4.79,17.231-.759a12.659,12.659,0,0,1,1.526,15.235,77.348,77.348,0,0,1-19.337,19.532,77.192,77.192,0,0,1-19.336-19.532A12.662,12.662,0,0,1,286.7,90.241Z"/>
          </g>
        </g>
      </g>
      <g id="Capa_2-4" data-name="Capa 2">
        <g id="Capa_1-2-4" data-name="Capa 1-2">
          <g>
            <rect class="cls-7" x="514.468" y="85.243" width="73.63" height="73.63"/>
            <g>
              <path class="cls-5" d="M525.838,104.878h54.386V145.9a1.624,1.624,0,0,1-1.624,1.624H525.838V104.878Z"/>
              <path class="cls-6" d="M585.961,104.047h-61.02a1.089,1.089,0,0,0-1.09,1.088h0v47.944a1.089,1.089,0,0,0,1.088,1.09h61.021a1.089,1.089,0,0,0,1.09-1.088h0V105.136a1.089,1.089,0,0,0-1.088-1.09Zm-1.09,47.944H526.029V106.228h58.843Z"/>
              <rect class="cls-4" x="515.549" y="96.492" width="60.891" height="33.897"/>
              <rect class="cls-7" x="515.549" y="96.492" width="60.891" height="47.672"/>
              <polygon class="cls-5" points="515.797 143.636 515.797 130.39 541.749 107.299 548.419 112.957 559.132 100.787 576.44 115.378 576.44 144.165 515.549 144.165 515.797 143.636"/>
              <path class="cls-6" d="M576.581,95.313h-61.02a1.089,1.089,0,0,0-1.09,1.088h0v47.944a1.089,1.089,0,0,0,1.089,1.089h61.02a1.089,1.089,0,0,0,1.09-1.088h0V96.4a1.089,1.089,0,0,0-1.088-1.09Zm-1.09,47.944h-58.84V97.492h58.843Z"/>
              <path class="cls-6" d="M525.838,113.367a6.068,6.068,0,1,0-6.068-6.068h0A6.074,6.074,0,0,0,525.838,113.367Zm0-9.957a3.889,3.889,0,1,1-3.889,3.89A3.889,3.889,0,0,1,525.838,103.41Z"/>
              <path class="cls-6" d="M515.735,131.344a1.087,1.087,0,0,0,.719-.271l25.709-22.519,8.222,8.218a1.09,1.09,0,1,0,1.576-1.506l-.035-.035L549.687,113l10-10.956,15.838,14.5A1.09,1.09,0,0,0,577,114.933L560.36,99.7a1.124,1.124,0,0,0-.785-.285,1.092,1.092,0,0,0-.756.354l-10.672,11.688-5.168-5.166a1.091,1.091,0,0,0-1.49-.048l-26.474,23.194a1.09,1.09,0,0,0,.72,1.908Z"/>
              <g>
                <g>
                  <path class="cls-6" d="M568.412,130.257l-3.921-7.368c-.268-.5-3.318-.985-2.871-1.271,4.05-2.591,3.162-2.118,4.05-2.591h0a2.856,2.856,0,0,1,3.862,1.179l3.921,7.369a2.856,2.856,0,0,1-1.179,3.862h0A2.856,2.856,0,0,1,568.412,130.257Z"/>
                  <path class="cls-6" d="M570.94,132.929a4.016,4.016,0,0,1-3.55-2.129l-3.805-7.149c-.27-.115-.817-.278-1.133-.371-1.143-.339-1.9-.562-2.022-1.432a1.219,1.219,0,0,1,.566-1.206c2.013-1.288,2.8-1.813,3.191-2.076a7.349,7.349,0,0,1,.94-.561,4.018,4.018,0,0,1,5.428,1.657l3.921,7.37a4.011,4.011,0,0,1-3.535,5.9Zm-6.812-11.549a2.257,2.257,0,0,1,1.386.965l3.921,7.368a1.7,1.7,0,1,0,2.994-1.593l-3.921-7.37a1.7,1.7,0,0,0-2.3-.7,5.684,5.684,0,0,0-.738.44C565.235,120.652,564.848,120.911,564.127,121.379Z"/>
                </g>
                <g>
                  <path class="cls-6" d="M534.912,130.257l3.921-7.368c.268-.5,3.318-.985,2.871-1.271-4.05-2.591-3.162-2.118-4.05-2.591h0a2.856,2.856,0,0,0-3.862,1.179l-3.924,7.368a2.856,2.856,0,0,0,1.179,3.862h0a2.856,2.856,0,0,0,3.863-1.177Z"/>
                  <path class="cls-6" d="M532.384,132.929a4.014,4.014,0,0,1-3.538-5.9l3.924-7.368A4.018,4.018,0,0,1,538.2,118a7.349,7.349,0,0,1,.94.561c.393.263,1.178.789,3.191,2.076a1.22,1.22,0,0,1,.566,1.207c-.123.87-.879,1.094-2.022,1.432-.316.094-.863.256-1.133.371l-3.806,7.152A4.018,4.018,0,0,1,532.384,132.929Zm3.931-13.078a1.7,1.7,0,0,0-1.5.9l-3.924,7.368a1.7,1.7,0,0,0,3,1.6l1.023.545-1.021-.547,3.921-7.368a2.26,2.26,0,0,1,1.386-.965c-.72-.468-1.107-.728-1.348-.889a5.684,5.684,0,0,0-.738-.44A1.685,1.685,0,0,0,536.316,119.851Z"/>
                </g>
                <g>
                  <path class="cls-4" d="M569.553,137.456c0,1.8-.563,6.71-.563,6.71H534.3s-.52-4.982-.52-6.71c0-11.51,8.008-20.842,17.887-20.842S569.553,125.945,569.553,137.456Z"/>
                  <path class="cls-6" d="M570.023,145.323H533.256l-.109-1.038c-.021-.206-.526-5.063-.526-6.83,0-12.131,8.544-22,19.045-22s19.045,9.87,19.045,22c0,1.843-.548,6.638-.571,6.841Zm-34.674-2.317h32.6c.163-1.522.444-4.329.444-5.551,0-10.853-7.5-19.683-16.728-19.683s-16.728,8.83-16.728,19.683C534.938,138.633,535.2,141.466,535.349,143.006Z"/>
                </g>
                <path class="cls-8" d="M540.018,143.24s-1.949-23.42,11.265-25.732c-4.024-.256-19.328,4.551-16.145,25.758C539.14,143.266,540.018,143.24,540.018,143.24Z"/>
                <rect class="cls-6" x="543.423" y="127.877" width="1.555" height="2.994" rx="0.406" ry="0.406"/>
                <rect class="cls-6" x="558.354" y="127.877" width="1.555" height="2.994" rx="0.406" ry="0.406"/>
                <path class="cls-6" d="M549.951,136.039a3.792,3.792,0,0,1-2.259-.743l-.578-.427a1.159,1.159,0,1,1,1.379-1.863l.577.427a1.488,1.488,0,0,0,1.889-.1l.735-.677.777.629a1.5,1.5,0,0,0,1.992-.014l.208-.189a1.159,1.159,0,0,1,1.558,1.715l-.207.189a28.385,28.385,0,0,0-6.072,1.054Z"/>
                <path class="cls-6" d="M553.338,130.482l-1.568.389-1.568-.389a.687.687,0,0,1-.687-.687h0a.687.687,0,0,1,.687-.687h3.137a.687.687,0,0,1,.687.687h0a.687.687,0,0,1-.687.687Z"/>
              </g>
            </g>
          </g>
        </g>
      </g>
    </g>
  </g>
</svg>
