<svg xmlns="http://www.w3.org/2000/svg" viewBox="0 0 26.807 26.439">
  <defs>
    <style>
      .cls-1 {
        fill: #038aef;
      }

      .cls-2 {
        fill: #0d7ad9;
      }

      .cls-3 {
        fill: #3d5858;
      }

      .cls-4 {
        fill: #fff;
      }
    </style>
  </defs>
  <title>Descuento</title>
  <g id="Capa_2" data-name="Capa 2">
    <g id="Capa_1-2" data-name="Capa 1">
      <g>
        <path class="cls-1" d="M22.877,2.184,15.787.137A1.741,1.741,0,0,0,14.06.551L.489,14.123a1.837,1.837,0,0,0,.1,2.592l4.731,4.731L23.885,2.88A2.013,2.013,0,0,0,22.877,2.184Z"/>
        <path class="cls-2" d="M12.316,25.95,25.888,12.379a1.741,1.741,0,0,0,.414-1.727l-2.046-7.09a1.99,1.99,0,0,0-.371-.682L5.319,21.446l4.405,4.405A1.837,1.837,0,0,0,12.316,25.95Z"/>
        <path class="cls-3" d="M19.167,2.439h7.775a.875.875,0,0,1,.875.875v0a.875.875,0,0,1-.875.875H19.167a0,0,0,0,1,0,0V2.439a0,0,0,0,1,0,0Z" transform="translate(4.537 17.582) rotate(-45)"/>
        <circle class="cls-4" cx="19.165" cy="7.642" r="2.375"/>
      </g>
    </g>
  </g>
</svg>
