<svg xmlns="http://www.w3.org/2000/svg" viewBox="0 0 60.122 76.002">
  <defs>
    <style>
      .cls-1 {
        fill: #6b1c9b;
      }

      .cls-1, .cls-2 {
        stroke: #333;
        stroke-linejoin: round;
      }

      .cls-2 {
        fill: #fff;
      }
    </style>
  </defs>
  <title>Pin morado</title>
  <g id="Capa_2" data-name="Capa 2">
    <g id="Capa_1-2" data-name="Capa 1">
      <g>
        <path class="cls-1" d="M59.622,30.98c-.5,8.525-3.771,16.023-8.256,23.066A91.617,91.617,0,0,1,34.548,73.467c-3.067,2.71-6.065,2.725-9.127-.026C16.4,65.339,8.674,56.228,3.826,44.977.66,37.629-.582,30.03,1.59,22.132a29.446,29.446,0,0,1,57.424,2.891C59.336,26.989,59.425,28.993,59.622,30.98ZM30.047,17.734A12.286,12.286,0,1,0,42.294,30.05,12.281,12.281,0,0,0,30.047,17.734Z"/>
        <path class="cls-2" d="M30.073,11.552A18.468,18.468,0,1,1,11.509,29.911,18.459,18.459,0,0,1,30.073,11.552Z"/>
      </g>
    </g>
  </g>
</svg>
