<svg xmlns="http://www.w3.org/2000/svg" viewBox="0 0 21.608 19.097">
  <defs>
    <style>
      .cls-1 {
        fill: none;
        stroke: #7ad2c4;
        stroke-linejoin: round;
        stroke-width: 2px;
      }
    </style>
  </defs>
  <title>Favorito</title>
  <g id="Capa_2" data-name="Capa 2">
    <g id="Capa_1-2" data-name="Capa 1">
      <path class="cls-1" d="M18.784,2.339q-.17-.137-.356-.265A5.254,5.254,0,0,0,13.7,1.285,5.147,5.147,0,0,0,10.8,4.441,5.147,5.147,0,0,0,7.913,1.285a5.254,5.254,0,0,0-4.733.789q-.187.127-.356.265A5.2,5.2,0,0,0,2.477,9.93l7.386,7.764a1.3,1.3,0,0,0,1.88,0L19.13,9.93A5.2,5.2,0,0,0,18.784,2.339Z"/>
    </g>
  </g>
</svg>
