<?xml version="1.0" encoding="utf-8"?>
<!-- Generator: Adobe Illustrator 22.0.1, SVG Export Plug-In . SVG Version: 6.00 Build 0)  -->
<svg version="1.1" id="Capa_1" xmlns="http://www.w3.org/2000/svg" xmlns:xlink="http://www.w3.org/1999/xlink" x="0px" y="0px"
	 viewBox="0 0 1032 1009" style="enable-background:new 0 0 1032 1009;" xml:space="preserve">
<style type="text/css">
	.st0{fill:#FF5809;}
	.st1{fill:#649E93;}
	.st2{fill:none;}
	.st3{fill:#7AD2C4;}
	.st4{fill:#00D2C6;}
	.st5{fill:#B2EDE2;}
	.st6{fill:#FFFFFF;}
	.st7{opacity:0.2;}
	.st8{opacity:0.15;fill:#FFFFFF;}
</style>
<g>
	<g>
		<path class="st0" d="M520.9,882.8c-1.5,2.3-4,2.3-5.5,0l-54.6-85.4c-1.5-2.3-0.4-4.2,2.3-4.2h112.4c2.8,0,3.8,1.9,2.2,4.2
			L520.9,882.8z"/>
	</g>
	<path class="st1" d="M583.5,282.9c-3.1-2.4-6.2-4.5-9.4-6.5c41.7,38.8,46.2,103.6,11.2,148.6c-34.4,44.3-97.6,55-144.7,25.9
		c2.6,2.4,5.4,4.8,8.3,7c47.8,36.5,116.9,27.3,153.6-19.8C639.5,390.4,632.3,320.5,583.5,282.9z"/>
	<g>
		<path class="st2" d="M406.5,369.5c0,61.8,48.8,111.3,109.9,111.3c60.1,0,109.5-49.3,110-108.9c0.5-60.3-47.7-111.4-109.2-111.7
			C456.2,259.8,406.5,309.2,406.5,369.5z"/>
		<path class="st2" d="M485.7,717.1c-0.2-0.2-0.3-0.4-0.5-0.6C485.2,716.5,485.4,716.7,485.7,717.1z"/>
		<path class="st3" d="M576.2,129c0.9,0.2,1.9,0.5,2.8,0.7C578,129.4,577.1,129.2,576.2,129z"/>
		<path class="st3" d="M550.9,124.2c-7.6-1-15.2-1.7-22.9-2c-0.1,0-0.2,0-0.2,0C535.4,122.5,543.2,123.2,550.9,124.2z"/>
		<path class="st3" d="M588.6,132.4c0.7,0.2,1.3,0.4,2,0.6C589.9,132.7,589.2,132.6,588.6,132.4z"/>
		<path class="st3" d="M582.3,130.5c0.8,0.2,1.7,0.5,2.5,0.7C583.9,131,583.1,130.8,582.3,130.5z"/>
		<path class="st4" d="M309.8,278.1c-13.5,33.9-18.7,69.1-13.8,105.5c4.4,33.2,15.4,64.1,33.5,92.2c10.4,16.2,22.2,31.5,33.7,47
			c49.9,67.5,100,134.9,149.9,202.3c1.1,1.5,2.2,2.9,3.3,4.4c37.4-50.7,74.8-101.3,112.1-152c20.1-27.2,40.1-54.3,60.3-81.4
			c12.4-16.7,23-34.4,31.1-53.6c16.9-40.2,22.4-81.8,14.1-124.7c-9.7-50.1-33.4-92.7-69.8-128.3c-25.6-25-55.4-43.1-89.3-54.6
			c-19.1-6.4-38.4-10.3-58.1-12c-27,2.1-53,8.3-77.7,19.4C377.5,169.9,334.8,215.7,309.8,278.1z M626.4,371.8
			c-0.5,59.7-49.9,108.9-110,108.9c-61.1,0-109.9-49.5-109.9-111.3c0-60.3,49.8-109.7,110.6-109.4
			C578.7,260.4,626.9,311.5,626.4,371.8z"/>
		<path class="st3" d="M485.2,716.4C485.2,716.4,485.2,716.4,485.2,716.4c0.2,0.2,0.3,0.4,0.5,0.6c0,0,0,0,0,0
			C485.5,716.9,485.3,716.6,485.2,716.4z"/>
		<path class="st3" d="M525.3,122.1c0.9,0,1.7,0,2.6,0.1c-2.4-0.1-4.8-0.2-7.2-0.2c0.5,0,1,0,1.6,0
			C523.3,122.1,524.3,122.1,525.3,122.1z"/>
		<path class="st3" d="M272.6,356.4c0-4.4,0.2-8.8,0.5-13.2C272.8,347.5,272.6,351.9,272.6,356.4z"/>
		<path class="st3" d="M279.7,303.7c1.2-4.3,2.4-8.6,3.9-12.9C282.1,295.1,280.8,299.4,279.7,303.7z"/>
		<path class="st3" d="M316.9,224.5c6.8-9.7,14.2-18.8,22.3-27.4C331.1,205.7,323.6,214.8,316.9,224.5z"/>
		<path class="st3" d="M570.1,127.6c1,0.2,2,0.4,3.1,0.7C572.2,128,571.2,127.8,570.1,127.6z"/>
		<path class="st3" d="M739.7,446.4c-1.5,3.4-3.1,6.8-4.7,10.1C736.7,453.2,738.2,449.8,739.7,446.4z"/>
		<path class="st3" d="M552.2,124.4c1.3,0.2,2.6,0.4,4,0.6C554.8,124.8,553.5,124.6,552.2,124.4z"/>
		<path class="st3" d="M564.2,126.4c1.1,0.2,2.2,0.4,3.3,0.6C566.3,126.8,565.2,126.6,564.2,126.4z"/>
		<path class="st3" d="M558.2,125.3c1.2,0.2,2.4,0.4,3.6,0.6C560.5,125.7,559.3,125.5,558.2,125.3z"/>
		<path class="st3" d="M518.4,122c0.2,0,0.3,0,0.5,0c-1.8,0-3.6,0-5.4,0c0.8,0,1.6,0,2.5,0C516.8,122,517.6,122,518.4,122z"/>
		<path class="st3" d="M280.5,414c5.9,21.8,15,42.5,27.4,61.8c7.8,12.1,16.4,23.8,25.1,35.4c-8.6-11.6-17.2-23.2-25.1-35.4
			C295.5,456.4,286.4,435.8,280.5,414z"/>
		<path class="st3" d="M272.6,356.5c0,8.9,0.6,18,1.8,27.1c1.4,10.4,3.4,20.5,6.1,30.4c-2.7-9.9-4.7-20.1-6.1-30.4
			C273.2,374.5,272.6,365.4,272.6,356.5z"/>
		<path class="st3" d="M506.3,122.2c-0.1,0-0.2,0-0.4,0C506.1,122.2,506.2,122.2,506.3,122.2C506.4,122.2,506.3,122.2,506.3,122.2z"
			/>
		<path class="st3" d="M503.8,122.3c-2.4,0.1-4.8,0.3-7.3,0.4c-6.9,0.5-13.7,1.3-20.4,2.3c6.7-1,13.6-1.8,20.4-2.3
			C499,122.6,501.4,122.4,503.8,122.3z"/>
		<path class="st3" d="M341.6,522.7c-2.9-3.9-5.8-7.7-8.6-11.6C335.9,515,338.7,518.9,341.6,522.7c47.8,64.6,95.7,129.1,143.5,193.7
			v0C437.3,651.8,389.4,587.3,341.6,522.7z"/>
		<path class="st3" d="M511.2,122.1c-1.6,0-3.2,0.1-4.9,0.2c0.4,0,0.8,0,1.1,0C508.7,122.1,510,122.1,511.2,122.1z"/>
		<path class="st3" d="M310.3,234.4c-8.5,13.5-15.8,28.1-22.1,43.7c-0.8,2.1-1.7,4.2-2.4,6.4c0.8-2.1,1.6-4.3,2.4-6.4
			C294.5,262.5,301.8,247.9,310.3,234.4z"/>
		<path class="st3" d="M695.3,516.4c5-6.8,10-13.6,15.1-20.3c1.6-2.1,3.1-4.2,4.6-6.3c-1.5,2.1-3,4.2-4.6,6.3
			C705.4,502.8,700.4,509.6,695.3,516.4z"/>
		<path class="st1" d="M685.7,189.4c13.7,13.3,25.5,27.7,35.6,43C711.2,217.1,699.4,202.8,685.7,189.4c-25.6-25-55.4-43.1-89.3-54.6
			c-1.9-0.7-3.9-1.3-5.8-1.9c1.9,0.6,3.9,1.2,5.8,1.9C630.3,146.3,660.1,164.5,685.7,189.4z"/>
		<path class="st1" d="M730.7,248.1c2.9,5.3,5.6,10.8,8.1,16.4C736.3,258.9,733.6,253.5,730.7,248.1z"/>
		<path class="st1" d="M584.8,131.2c1.3,0.4,2.5,0.7,3.8,1.1C587.3,132,586.1,131.6,584.8,131.2z"/>
		<path class="st1" d="M758.8,341.7c-0.6-8-1.7-16-3.2-24c-2.4-12.5-5.7-24.6-9.9-36.2c4.2,11.6,7.5,23.6,9.9,36.2
			C757.1,325.7,758.2,333.8,758.8,341.7z"/>
		<path class="st1" d="M579,129.7c1.1,0.3,2.2,0.6,3.3,0.9C581.2,130.3,580.1,130,579,129.7z"/>
		<path class="st1" d="M759.2,349.7c1.2,31.7-5.1,62.6-17.7,92.8c-0.6,1.3-1.2,2.7-1.8,4c0.6-1.3,1.2-2.6,1.8-4
			C754.1,412.3,760.4,381.4,759.2,349.7z"/>
		<path class="st1" d="M546.1,718.4C546.1,718.4,546.1,718.4,546.1,718.4c34.7-47,69.3-94,104-141c15-20.4,30.1-40.7,45.2-61.1
			c-15.1,20.3-30.1,40.7-45.2,61.1C615.5,624.4,580.8,671.4,546.1,718.4z"/>
		<path class="st1" d="M723.6,476.8c-2.7,4.4-5.6,8.7-8.6,12.9C718,485.5,720.9,481.2,723.6,476.8z"/>
		<path class="st1" d="M735,456.5c-3.5,6.9-7.3,13.7-11.4,20.2C727.7,470.2,731.5,463.5,735,456.5z"/>
		<polygon class="st1" points="506.3,122.2 506.3,122.2 506.3,122.2 		"/>
		<path class="st1" d="M573.2,128.3c1,0.2,2,0.5,3,0.7C575.2,128.7,574.2,128.5,573.2,128.3z"/>
		<path class="st1" d="M550.9,124.2c0.4,0.1,0.9,0.1,1.3,0.2C551.7,124.3,551.3,124.3,550.9,124.2z"/>
		<path class="st1" d="M561.7,125.9c0.8,0.1,1.6,0.3,2.4,0.4C563.3,126.2,562.5,126.1,561.7,125.9z"/>
		<path class="st1" d="M556.1,125c0.7,0.1,1.3,0.2,2,0.3C557.5,125.2,556.8,125.1,556.1,125z"/>
		<path class="st1" d="M567.4,127c0.9,0.2,1.8,0.4,2.7,0.6C569.2,127.4,568.3,127.2,567.4,127z"/>
		<path class="st1" d="M515.9,122c0.8,0,1.6,0,2.4,0C517.6,122,516.8,122,515.9,122z"/>
		<path class="st1" d="M507.5,122.2c-0.4,0-0.8,0-1.1,0c0,0,0,0,0,0c0,0,0,0,0,0C506.7,122.2,507.1,122.2,507.5,122.2z"/>
		<path class="st1" d="M759.2,349.7c-0.1-2.6-0.2-5.3-0.4-7.9c-0.6-8-1.7-16-3.2-24c-2.4-12.5-5.7-24.6-9.9-36.2
			c-2.1-5.8-4.4-11.5-6.9-17c-2.5-5.6-5.2-11-8.1-16.4c-2.9-5.3-6.1-10.6-9.4-15.7c-10-15.3-21.9-29.7-35.6-43
			c-25.6-25-55.4-43.1-89.3-54.6c-1.9-0.7-3.9-1.3-5.8-1.9c-0.7-0.2-1.3-0.4-2-0.6c-1.3-0.4-2.5-0.8-3.8-1.1
			c-0.8-0.2-1.7-0.5-2.5-0.7c-1.1-0.3-2.2-0.6-3.3-0.9c-0.9-0.2-1.9-0.5-2.8-0.7c-1-0.2-2-0.5-3-0.7c-1-0.2-2-0.5-3.1-0.7
			c-0.9-0.2-1.8-0.4-2.7-0.6c-1.1-0.2-2.2-0.4-3.3-0.6c-0.8-0.2-1.6-0.3-2.4-0.4c-1.2-0.2-2.4-0.4-3.6-0.6c-0.7-0.1-1.3-0.2-2-0.3
			c-1.3-0.2-2.6-0.4-4-0.6c-0.4-0.1-0.9-0.1-1.3-0.2c-7.7-1-15.4-1.7-23.2-2c-3.2,0.1-6.3,0.3-9.5,0.5c-0.5,0-1,0.1-1.4,0.1
			c19.6,1.6,39,5.5,58.1,12c33.9,11.5,63.7,29.6,89.3,54.6c36.5,35.6,60.1,78.2,69.8,128.3c8.3,43,2.8,84.5-14.1,124.7
			c-8.1,19.2-18.6,36.9-31.1,53.6c-20.2,27.1-40.2,54.2-60.3,81.4c-37.4,50.7-74.8,101.3-112.1,152c1.6,2.1,3.2,4.2,4.7,6.4
			c8.1-1.3,16.9-6.7,25.7-19.4c-0.1,0.3-0.4,1-0.7,2c34.7-47,69.3-94,104-141c15-20.4,30.1-40.7,45.2-61.1c5-6.8,10-13.6,15.1-20.3
			c1.6-2.1,3.1-4.2,4.6-6.3c3-4.2,5.9-8.5,8.6-12.9c4.1-6.6,7.9-13.3,11.4-20.2c1.7-3.3,3.2-6.7,4.7-10.1c0.6-1.3,1.2-2.6,1.8-4
			C754.1,412.3,760.4,381.4,759.2,349.7z"/>
		<path class="st1" d="M522.3,122.1c1,0,2,0,3,0.1C524.3,122.1,523.3,122.1,522.3,122.1z"/>
		<path class="st5" d="M512.1,122c0.5,0,0.9,0,1.4,0c-0.8,0-1.5,0-2.3,0C511.5,122.1,511.8,122.1,512.1,122
			C512.1,122,512.1,122,512.1,122z"/>
		<path class="st5" d="M503.8,122.3c0.7,0,1.4-0.1,2.1-0.1C505.3,122.3,504.6,122.3,503.8,122.3z"/>
		<path class="st5" d="M518.9,122c0.6,0,1.3,0,1.9,0C520.1,122,519.5,122,518.9,122z"/>
		<path class="st5" d="M527.9,122.2C527.9,122.2,527.9,122.2,527.9,122.2C527.9,122.2,527.9,122.2,527.9,122.2
			C527.9,122.2,527.9,122.2,527.9,122.2z"/>
		<path class="st5" d="M456.1,129c-13.2,3.2-26.1,7.6-38.7,13.2c-11.5,5.2-22.4,11-32.6,17.5c10.2-6.4,21.1-12.3,32.6-17.5
			C430,136.6,442.9,132.2,456.1,129z"/>
		<path class="st5" d="M272.6,356.5c0,0,0-0.1,0-0.1C272.6,356.4,272.6,356.4,272.6,356.5z"/>
		<path class="st5" d="M512.1,122c-0.3,0-0.6,0-0.9,0c-1.2,0-2.5,0.1-3.7,0.1C509,122.1,510.5,122.1,512.1,122z"/>
		<path class="st5" d="M522.3,122.1c-0.5,0-1,0-1.6,0c-0.6,0-1.2,0-1.9,0c-0.2,0-0.3,0-0.5,0C519.7,122,521,122,522.3,122.1z"/>
		<path class="st5" d="M527.7,122.2c0.1,0,0.2,0,0.2,0c0,0,0,0,0,0c-0.9,0-1.7,0-2.6-0.1C526.1,122.2,526.9,122.2,527.7,122.2z"/>
		<path class="st5" d="M515.9,122c-0.8,0-1.6,0-2.5,0c-0.5,0-0.9,0-1.4,0C513.4,122,514.7,122,515.9,122z"/>
		<path class="st5" d="M485.2,716.4L485.2,716.4C485.2,716.4,485.2,716.4,485.2,716.4c0.2,0.2,0.3,0.5,0.5,0.7
			c2.3,3.1,12.6,15.7,26.2,18.5c1.5-2,3-4.1,4.5-6.1c-1.1-1.5-2.2-2.9-3.3-4.4c-50-67.4-100-134.8-149.9-202.3
			c-11.5-15.5-23.3-30.8-33.7-47c-18.1-28.1-29.1-59-33.5-92.2c-4.8-36.4,0.3-71.6,13.8-105.5c24.9-62.4,67.7-108.2,129.2-135.8
			c24.7-11.1,50.7-17.2,77.7-19.4c-3.5-0.3-6.9-0.5-10.4-0.7c-0.1,0-0.3,0-0.4,0c-0.7,0-1.4,0.1-2.1,0.1c-2.4,0.1-4.8,0.3-7.3,0.4
			c-6.9,0.5-13.7,1.3-20.4,2.3s-13.4,2.4-20,4c-13.2,3.2-26.1,7.6-38.7,13.2c-11.5,5.2-22.4,11-32.6,17.5
			c-17,10.7-32.3,23.2-45.7,37.4c-8.1,8.5-15.5,17.6-22.3,27.4c-2.3,3.2-4.5,6.5-6.6,9.9c-8.5,13.5-15.8,28.1-22.1,43.7
			c-0.8,2.1-1.7,4.2-2.4,6.4c-0.8,2.1-1.5,4.3-2.2,6.4c-1.4,4.3-2.7,8.6-3.9,12.9c-3.5,13-5.7,26.1-6.6,39.4
			c-0.3,4.4-0.5,8.8-0.5,13.2c0,0,0,0.1,0,0.1c0,8.9,0.6,18,1.8,27.1c1.4,10.4,3.4,20.5,6.1,30.4c5.9,21.8,15,42.5,27.4,61.8
			c7.8,12.1,16.4,23.8,25.1,35.4c2.9,3.9,5.8,7.7,8.6,11.6C389.4,587.3,437.3,651.8,485.2,716.4z"/>
		<path class="st5" d="M512.1,122C512.1,122,512.1,122,512.1,122C512.1,122,512.1,122,512.1,122z"/>
		<path class="st5" d="M522.3,122.1c-1.3,0-2.6,0-3.9-0.1c-0.8,0-1.6,0-2.4,0c-1.3,0-2.6,0-3.8,0c0,0,0,0,0,0
			c-1.5,0-3.1,0.1-4.6,0.1c-0.4,0-0.7,0-1.1,0c3.5,0.1,6.9,0.4,10.4,0.7c0.5,0,1-0.1,1.4-0.1c3.2-0.2,6.3-0.4,9.5-0.5
			c-0.8,0-1.6-0.1-2.3-0.1C524.3,122.1,523.3,122.1,522.3,122.1z"/>
		<path class="st5" d="M521.1,735.8c-1.6-2.1-3.2-4.2-4.7-6.4c-1.5,2-3,4.1-4.5,6.1C514.8,736.2,517.9,736.3,521.1,735.8z"/>
		<path class="st6" d="M485.2,716.4C485.2,716.4,485.2,716.4,485.2,716.4L485.2,716.4C485.2,716.4,485.2,716.4,485.2,716.4
			C485.2,716.4,485.2,716.4,485.2,716.4z"/>
		<path class="st6" d="M485.2,716.4C485.2,716.4,485.2,716.4,485.2,716.4C485.2,716.4,485.2,716.4,485.2,716.4L485.2,716.4z"/>
	</g>
	<g class="st7">
		<path class="st8" d="M443.4,453.1L443.4,453.1c-0.2-0.3-0.4-0.6-0.6-0.9C443,452.5,443.2,452.8,443.4,453.1z"/>
		<path class="st6" d="M509.4,481.1c-0.9,0-1.7-0.2-2.5-0.7c-4.9,0.4-9.4-1.3-14.1-2.2c-17.9-3.6-33.8-11.5-47.8-23.3
			c-0.6-0.5-1.1-1.2-1.7-1.9c0,0,0,0,0,0c0,0,0,0,0,0l0,0c-0.2-0.3-0.4-0.6-0.6-0.9c-19.5-18.2-31.3-40.6-34.5-67.1
			c-4.9-40.2,8.5-73.6,39.4-99.4c20.3-17,43.9-25.1,69.8-24.9V122.5c-4.9,0-9.9,0-14.8,0c-3,1.5-6.3,0.9-9.5,1.2
			c-26,2.3-51,8.5-74.9,19.1c-30.8,13.7-57.9,32.6-80.8,57.4c-17.6,19.1-31.5,40.6-42.4,64.1c-8.3,17.8-14.7,36.3-18.3,55.6
			c-4.1,22.6-4.4,45.3-1.1,68.1c5.6,39.3,21.4,74.2,45,105.9c25.5,34.3,50.9,68.8,76.4,103.2c29.1,39.2,58.1,78.5,87.3,117.6
			c5.9,8,12.8,15,22.2,19.2c3.6,1.6,7.2,2.3,11,2.3v-255C514.8,481.3,512.1,481.2,509.4,481.1z"/>
		<path class="st6" d="M464.1,796.9c-1.4,2.7-0.1,5,1.2,7.3c0.2,0.4,0.5,0.8,0.8,1.2c14.7,22.9,29.3,45.9,44,68.8
			c2,3.1,4,6.1,7.4,7.8v-88.3c-15.5,0-30.9,0-46.4,0C468.3,793.7,465.6,794.1,464.1,796.9z"/>
		<path class="st6" d="M517.4,466c-23.5,4-48.5,0.5-71.2-11.9c-0.9-0.5-1.7-1.3-2.8-1.1c0,0,0,0,0,0c0.5,0.6,1,1.3,1.7,1.9
			c14,11.7,29.9,19.7,47.8,23.3c4.7,0.9,9.2,2.6,14.1,2.2c3.5,0.3,7,0.4,10.5,0.4V466z"/>
		<path class="st6" d="M507,480.4c0.7,0.5,1.6,0.6,2.5,0.7c2.7,0.1,5.4,0.2,8,0.2v-0.4C514,480.9,510.5,480.7,507,480.4z"/>
		<path class="st6" d="M443.4,453c0.1-0.5-0.3-0.6-0.6-0.8C443,452.5,443.2,452.8,443.4,453L443.4,453
			C443.4,453,443.4,453,443.4,453z"/>
		<path class="st6" d="M443.4,453.1C443.4,453.1,443.4,453.1,443.4,453.1C443.4,453.1,443.4,453.1,443.4,453.1
			C443.4,453,443.4,453,443.4,453.1L443.4,453.1z"/>
		<path class="st6" d="M443.4,453C443.4,453,443.4,453,443.4,453C443.4,453,443.4,453,443.4,453C443.4,453,443.4,453,443.4,453z"/>
	</g>
</g>
</svg>
