<svg xmlns="http://www.w3.org/2000/svg" viewBox="0 0 33.637 33.637">
  <defs>
    <style>
      .cls-1 {
        fill: #ffd62c;
      }

      .cls-2 {
        fill: #333;
      }

      .cls-3 {
        fill: #fff;
      }
    </style>
  </defs>
  <title>Reserva Inmediata</title>
  <g id="Capa_2" data-name="Capa 2">
    <g id="Capa_1-2" data-name="Capa 1">
      <g>
        <circle class="cls-1" cx="16.819" cy="16.819" r="13.569"/>
        <path class="cls-2" d="M28.711,4.926A16.819,16.819,0,0,0,4.926,28.711,16.819,16.819,0,0,0,28.711,4.926Zm-.7,23.088A15.833,15.833,0,0,1,5.623,5.623,15.833,15.833,0,0,1,28.014,28.014Z"/>
        <g>
          <path class="cls-3" d="M19.967,11.53l.308-.638a.312.312,0,0,0-.281-.448H15.749a.312.312,0,0,0-.3.214l-2.285,6.895a.312.312,0,0,0,.3.41h2.987L14.468,24.28a.312.312,0,0,0,.545.284l6.493-8.446a.312.312,0,0,0-.247-.5H17.992l1.4-2.9"/>
          <path class="cls-3" d="M18.829,12.448l-1.616,3.343a.312.312,0,0,0,.281.448h3.13L15.59,22.788l1.584-5.044a.312.312,0,0,0-.3-.406H13.9l2.078-6.271H19.5l-.092.19"/>
        </g>
      </g>
    </g>
  </g>
</svg>
