<svg id="Capa_1" data-name="Capa 1" xmlns="http://www.w3.org/2000/svg" viewBox="0 0 55.05 83.54"><defs><style>.cls-1{fill:#703888;}.cls-2{fill:#92c6cb;}.cls-3{fill:#fff;}.cls-4{fill:#9c6fa9;}.cls-5{fill:#222021;}.cls-6{font-size:6.72px;fill:#bbcb30;font-family:Gotham-Book, Gotham;}.cls-7{letter-spacing:-0.13em;}.cls-8{letter-spacing:-0.02em;}</style></defs><title>Mesa de trabajo 11</title><polygon class="cls-1" points="0 11.49 0 83.54 29.7 69.27 55.05 83.54 55.05 11.49 0 11.49"/><polygon class="cls-2" points="0 3.8 0 79.27 29.7 64.33 55.05 79.27 55.05 3.8 0 3.8"/><polygon class="cls-3" points="0 0 0 75.43 29.7 60.5 55.05 75.43 55.05 0 0 0"/><g id="Artboard-2"><polygon id="Fill-5-Copy-2" class="cls-4" points="39.43 8.6 39.43 7.91 38.56 7.91 38.56 8.6 37.89 8.6 37.89 9.49 38.56 9.49 38.56 10.17 39.43 10.17 39.43 9.49 40.1 9.49 40.1 8.6 39.43 8.6"/><polygon id="Fill-5-Copy-2-2" data-name="Fill-5-Copy-2" class="cls-4" points="42.03 27.21 42.03 26.52 41.16 26.52 41.16 27.21 40.49 27.21 40.49 28.1 41.16 28.1 41.16 28.79 42.03 28.79 42.03 28.1 42.7 28.1 42.7 27.21 42.03 27.21"/><polygon id="Fill-5-Copy-2-3" data-name="Fill-5-Copy-2" class="cls-4" points="26.45 34.57 26.45 33.88 25.57 33.88 25.57 34.57 24.91 34.57 24.91 35.46 25.57 35.46 25.57 36.15 26.45 36.15 26.45 35.46 27.12 35.46 27.12 34.57 26.45 34.57"/><path id="Fill-1" class="cls-5" d="M28.81,24.69a6.65,6.65,0,1,1,6.49-6.64,6.58,6.58,0,0,1-6.49,6.64m0-14.18a7.54,7.54,0,1,0,7.37,7.54,7.47,7.47,0,0,0-7.37-7.54"/><path id="Fill-3" class="cls-5" d="M28.65,19.7l-1.42.77.27-1.62L26.35,17.7l1.59-.24L28.65,16l.71,1.47L31,17.7,29.8,18.85l.27,1.62Zm4.18-2.62-2.89-.43L28.65,14l-1.29,2.68-2.89.43,2.09,2.08-.49,2.94,2.58-1.39,2.58,1.39-.49-2.94Z"/><polygon id="Fill-5" class="cls-5" points="39.43 8.6 39.43 7.91 38.56 7.91 38.56 8.6 37.89 8.6 37.89 9.49 38.56 9.49 38.56 10.17 39.43 10.17 39.43 9.49 40.1 9.49 40.1 8.6 39.43 8.6"/><g id="Group-22"><g id="Group-21"><polygon id="Fill-5-Copy-2-4" data-name="Fill-5-Copy-2" class="cls-4" points="15.63 24.26 15.63 23.58 14.75 23.58 14.75 24.26 14.08 24.26 14.08 25.16 14.75 25.16 14.75 25.84 15.63 25.84 15.63 25.16 16.3 25.16 16.3 24.26 15.63 24.26"/><polygon id="Fill-5-Copy" class="cls-5" points="15.9 23.99 15.9 23.31 15.02 23.31 15.02 23.99 14.35 23.99 14.35 24.89 15.02 24.89 15.02 25.57 15.9 25.57 15.9 24.89 16.57 24.89 16.57 23.99 15.9 23.99"/></g></g><polygon id="Fill-7" class="cls-5" points="42.46 26.78 42.46 26.09 41.59 26.09 41.59 26.78 40.92 26.78 40.92 27.67 41.59 27.67 41.59 28.36 42.46 28.36 42.46 27.67 43.13 27.67 43.13 26.78 42.46 26.78"/><polygon id="Fill-9" class="cls-5" points="26.88 34.13 26.88 33.45 26.01 33.45 26.01 34.13 25.34 34.13 25.34 35.03 26.01 35.03 26.01 35.71 26.88 35.71 26.88 35.03 27.55 35.03 27.55 34.13 26.88 34.13"/><path id="Fill-16" class="cls-5" d="M38,31,33.57,26.5l.7-1.16.68-.18,5.27,5.4Zm-1,3-5.73-5.87.51.21.64.27.76-1.27,4.24,4.33Zm-8-7.79-3.06,1.29-.48-.81,0,0-.44-.74-.78-1.29-1.52-.38-1.7-.43.25-3.37L19,17.8l2.14-2.59-.25-3.37,3.22-.8,1.73-2.88,3.06,1.28L32,8.16,33.71,11l3.21.8-.24,3.37,2.13,2.59-2.13,2.58.24,3.37-1.7.43-1.51.38-.78,1.29-.36.6-.11.18-.49.81Zm-8,7.79-.41-2.33,4.23-4.33.77,1.27,1.15-.48Zm-1-3-2.27-.42,5.26-5.4.69.18.7,1.16ZM36,24.92l1.9-.48-.27-3.76L40,17.8l-2.38-2.88.27-3.77-3.58-.89L32.33,7,28.91,8.48,25.5,7l-1.94,3.22L20,11.15l.27,3.77L17.87,17.8l2.38,2.88L20,24.44l1.9.48-6.07,6.21,3.84.71.7,3.94,8.4-8.59.16-.07.17.07,8.39,8.59.7-3.94L42,31.13Z"/><polygon id="Star" class="cls-4" points="28.65 19.56 27.14 20.36 27.43 18.67 26.2 17.48 27.9 17.23 28.65 15.7 29.41 17.23 31.1 17.48 29.88 18.67 30.17 20.36 28.65 19.56"/></g><text class="cls-6" transform="translate(22.59 47.97)"><tspan class="cls-7">T</tspan><tspan x="3.5" y="0">op </tspan><tspan x="-10.52" y="8.07">cuidado</tspan><tspan class="cls-8" x="16.38" y="8.07">r</tspan><tspan x="18.94" y="8.07">a</tspan></text></svg>