<svg id="Capa_1" data-name="Capa 1" xmlns="http://www.w3.org/2000/svg" viewBox="0 0 154.18 15.58"><defs><style>.cls-1{fill:#e0cc1f;}</style></defs><title>Mesa de trabajo 13</title><circle class="cls-1" cx="4.51" cy="4.51" r="4.51"/><circle class="cls-1" cx="4.57" cy="11.07" r="4.51"/><circle class="cls-1" cx="19.19" cy="4.51" r="4.51"/><circle class="cls-1" cx="19.25" cy="11.07" r="4.51"/><rect class="cls-1" x="4.51" y="4.51" width="11.79" height="6.5"/><circle class="cls-1" cx="37.12" cy="4.51" r="4.51"/><circle class="cls-1" cx="37.18" cy="11.07" r="4.51"/><circle class="cls-1" cx="51.8" cy="4.51" r="4.51"/><circle class="cls-1" cx="51.86" cy="11.07" r="4.51"/><rect class="cls-1" x="37.12" y="4.51" width="11.79" height="6.5"/><circle class="cls-1" cx="69.72" cy="4.51" r="4.51"/><circle class="cls-1" cx="69.78" cy="11.07" r="4.51"/><circle class="cls-1" cx="84.4" cy="4.51" r="4.51"/><circle class="cls-1" cx="84.46" cy="11.07" r="4.51"/><rect class="cls-1" x="69.72" y="4.51" width="11.79" height="6.5"/><circle class="cls-1" cx="102.32" cy="4.51" r="4.51"/><circle class="cls-1" cx="102.38" cy="11.07" r="4.51"/><circle class="cls-1" cx="117" cy="4.51" r="4.51"/><circle class="cls-1" cx="117.06" cy="11.07" r="4.51"/><rect class="cls-1" x="102.32" y="4.51" width="11.79" height="6.5"/><circle class="cls-1" cx="134.92" cy="4.51" r="4.51"/><circle class="cls-1" cx="134.98" cy="11.07" r="4.51"/><circle class="cls-1" cx="149.6" cy="4.51" r="4.51"/><circle class="cls-1" cx="149.66" cy="11.07" r="4.51"/><rect class="cls-1" x="134.92" y="4.51" width="11.79" height="6.5"/></svg>