<svg id="Capa_1" data-name="Capa 1" xmlns="http://www.w3.org/2000/svg" viewBox="0 0 151.22 94.56"><defs><style>.cls-1{font-size:20.36px;font-family:Gotham-Light, Gotham;}.cls-1,.cls-4{fill:#676767;}.cls-2{letter-spacing:-0.02em;}.cls-3{fill:none;stroke:#cbcaca;stroke-miterlimit:10;}</style></defs><title>Mesa de trabajo 52</title><text class="cls-1" transform="translate(26.62 83.96)">Gua<tspan class="cls-2" x="40.13" y="0">r</tspan><tspan x="47.76" y="0">dería</tspan></text><rect class="cls-3" x="0.5" y="0.5" width="150.22" height="93.56" rx="8.34" ry="8.34"/><path id="path1_fill" data-name="path1 fill" class="cls-4" d="M67.94,28.1a1.91,1.91,0,0,0-2.37-.32V21.3c0-.31-.16-.63-.16-.95h.32a1,1,0,0,1,1,.95v4.9a.47.47,0,1,0,.94,0V21.3a2.06,2.06,0,0,0-1.89-2.05,2.38,2.38,0,0,0-1.11.31,1.76,1.76,0,0,0-1-.31,2,2,0,0,0-1.89,2.05v9.32a4.89,4.89,0,0,0,.31,1.43h0l5.69,9.47c.16.16.16.64.16.95v1.9a.48.48,0,0,0,1,0v-1.9a4.55,4.55,0,0,0-.32-1.42h0l-5.69-9.48a1.79,1.79,0,0,1-.15-.95V21.3a.95.95,0,1,1,1.89,0v8.22h0a1.94,1.94,0,0,0,.63,1.42l4.43,4.58a.47.47,0,0,0,.63,0,.7.7,0,0,0,0-.79l-4.42-4.58a1.16,1.16,0,0,1,0-1.42,1,1,0,0,1,1.26,0l5.37,5.53a4.48,4.48,0,0,1,1.11,2.68v6.8a.48.48,0,0,0,1,0v-6.8a5.69,5.69,0,0,0-1.43-3.47Z"/><path id="path2_fill" data-name="path2 fill" class="cls-4" d="M86.74,19.25a2.36,2.36,0,0,0-.95.31,2.34,2.34,0,0,0-1.1-.31,1.92,1.92,0,0,0-1.9,1.89V26a.48.48,0,1,0,.95,0V21.3a1,1,0,0,1,1-.95H85a2,2,0,0,0-.16.95v6.64a2.2,2.2,0,0,0-.94-.32,2,2,0,0,0-1.43.63L77.1,33.78a5.68,5.68,0,0,0-1.42,3.48v6.79a.48.48,0,1,0,.95,0V37.26a3.83,3.83,0,0,1,1.1-2.69L83.11,29a1.2,1.2,0,0,1,.63-.31.85.85,0,0,1,.63.31,1.21,1.21,0,0,1,.32.64.83.83,0,0,1-.32.63L80,34.89a.7.7,0,0,0,0,.79.47.47,0,0,0,.63,0L85,31.1a2,2,0,0,0,.63-1.42V21.3a1,1,0,0,1,1.9,0v9.32c0,.32-.16.64-.16.95l-5.69,9.48h0a4,4,0,0,0-.31,1.42v1.9a.48.48,0,0,0,.95,0v-1.9c0-.31.15-.63.15-.95l5.69-9.47h0a3.77,3.77,0,0,0,.32-1.43V21.3A1.75,1.75,0,0,0,86.74,19.25Z"/><path id="path3_fill" data-name="path3 fill" class="cls-4" d="M74.89,16.88a.42.42,0,0,0-.47.47v5.37a1.43,1.43,0,1,1-2.85,0V17.51A3.29,3.29,0,0,1,74.89,14a3.37,3.37,0,0,1,3.32,3.48.41.41,0,0,0,.47.47h2.37v1.43a1.41,1.41,0,0,1-1.42,1.42h-.95c-.16,0-.31.16-.31.47v8.38a.47.47,0,1,0,.94,0v-7.9h.48a2.44,2.44,0,0,0,2.37-2.37v-1.9a.42.42,0,0,0-.48-.47H79.31a4.66,4.66,0,0,0-1.26-2.69,4,4,0,0,0-3.16-1.42,5,5,0,0,0-3.16,1.26,4.7,4.7,0,0,0-1.26,3.16v5.06l-1.74,2.05a.7.7,0,0,0,0,.79h.32c.15,0,.31,0,.31-.16l1.42-1.42A2.39,2.39,0,0,0,73,25.25a2.46,2.46,0,0,0,2.37-2.53V17.35A.5.5,0,0,0,74.89,16.88Z"/></svg>