<svg id="Capa_1" data-name="Capa 1" xmlns="http://www.w3.org/2000/svg" viewBox="0 0 151.22 94.56"><defs><style>.cls-1{fill:#3fa4aa;stroke:#fff;stroke-miterlimit:10;}.cls-2{font-size:20.36px;font-family:Gotham-Light, Gotham;}.cls-2,.cls-4{fill:#fff;}.cls-3{letter-spacing:-0.01em;}</style></defs><title>Mesa de trabajo 49</title><rect class="cls-1" x="0.5" y="0.5" width="150.22" height="93.56" rx="8.34" ry="8.34"/><text class="cls-2" transform="translate(41.43 83.77)"><tspan class="cls-3">P</tspan><tspan x="13.4" y="0">aseos</tspan></text><path class="cls-4" d="M71.16,34.08a3.95,3.95,0,0,0-6.43,1.73l-1,3.11a2.48,2.48,0,0,0,0,1.57,2.5,2.5,0,0,0,3.93,1.14l0,0a4.93,4.93,0,0,1,3.79-1,2.39,2.39,0,0,0,1-.05,2.57,2.57,0,0,0,.52-.21,2.44,2.44,0,0,0,1.09-1.13,2.54,2.54,0,0,0,.2-1.56,2.51,2.51,0,0,0-.77-1.37Zm2.13,4.72a1.53,1.53,0,0,1-1.63.86,5.93,5.93,0,0,0-2.41.14,5.76,5.76,0,0,0-2.15,1.09h0a1.55,1.55,0,0,1-2.43-1.69l1-3.11a3,3,0,0,1,4.88-1.32L72.93,37A1.55,1.55,0,0,1,73.29,38.8Z"/><path class="cls-4" d="M63.49,36.14a1.91,1.91,0,0,0,.77-1.44,2.57,2.57,0,0,0-1.9-2.61,1.91,1.91,0,0,0-1.6.3,2.18,2.18,0,0,0-.29,3.08,2.3,2.3,0,0,0,2.41,1A1.78,1.78,0,0,0,63.49,36.14Zm-2.25-1.23a1.25,1.25,0,0,1,.08-1.75.71.71,0,0,1,.29-.14,1,1,0,0,1,.53,0,1.56,1.56,0,0,1,.87.6,1.5,1.5,0,0,1,.3,1,1,1,0,0,1-.38.74h0A1.26,1.26,0,0,1,61.24,34.91Z"/><path class="cls-4" d="M66.23,33.17a2.74,2.74,0,0,0-1.41-5.25,2.74,2.74,0,0,0,1.41,5.25Zm-1.16-4.33a1.8,1.8,0,1,1-.93,2.08A1.63,1.63,0,0,1,65.07,28.84Z"/><path class="cls-4" d="M70.38,32.75h0a2.11,2.11,0,0,0,.62-.06,2.48,2.48,0,0,0,1.72-2.3,2.67,2.67,0,0,0-.52-1.77,2,2,0,0,0-3.14-.18,2.63,2.63,0,0,0-.72,1.69A2.36,2.36,0,0,0,70.38,32.75Zm-1.09-2.56a1.74,1.74,0,0,1,.46-1.09,1.08,1.08,0,0,1,.87-.37,1.1,1.1,0,0,1,.82.47,1.71,1.71,0,0,1,.33,1.14,1.27,1.27,0,1,1-2.48-.15Z"/><path class="cls-4" d="M75.15,31.14h0a2.34,2.34,0,0,0-1.7,4.32,1.91,1.91,0,0,0,1.18.06,2.44,2.44,0,0,0,1.58-1.47A2.21,2.21,0,0,0,75.15,31.14Zm.17,2.56a1.12,1.12,0,1,1-2-.8,1.46,1.46,0,0,1,.94-.9.89.89,0,0,1,.58,0A1.25,1.25,0,0,1,75.32,33.7Z"/><path class="cls-4" d="M85.91,19.43a3.94,3.94,0,0,0-6.43-1.71l-2.41,2.2a2.45,2.45,0,0,0-.77,1.37,2.54,2.54,0,0,0,.2,1.56A2.48,2.48,0,0,0,77.59,24a2.53,2.53,0,0,0,1.55.26h0a5,5,0,0,1,3.78,1,2.57,2.57,0,0,0,.92.46,2.1,2.1,0,0,0,.56.08A2.48,2.48,0,0,0,86,25.36a2.48,2.48,0,0,0,1-2.82Zm-.5,5.15a1.55,1.55,0,0,1-1.85-.07,5.78,5.78,0,0,0-2.16-1.08A5.7,5.7,0,0,0,79,23.3h0a1.55,1.55,0,0,1-1.26-2.68l2.41-2.2a3,3,0,0,1,2.8-.69,3,3,0,0,1,2.09,2l1,3.11A1.55,1.55,0,0,1,85.41,24.58Z"/><path class="cls-4" d="M78.24,17.38a1.89,1.89,0,0,0,1.38-.86,2.4,2.4,0,0,0,.4-1.66,2.45,2.45,0,0,0-.74-1.54,1.9,1.9,0,0,0-1.54-.55A2.21,2.21,0,0,0,76,15.3a2.31,2.31,0,0,0,1.62,2A1.67,1.67,0,0,0,78.24,17.38ZM76.9,15.19a1.24,1.24,0,0,1,.94-1.47.69.69,0,0,1,.32,0,1,1,0,0,1,.46.27,1.5,1.5,0,0,1,.45,1,1.47,1.47,0,0,1-.23,1,.94.94,0,0,1-.71.45h0A1.26,1.26,0,0,1,76.9,15.19Z"/><path class="cls-4" d="M82.09,16.18a2.57,2.57,0,0,0,3-2,2.41,2.41,0,1,0-4.62-1.23A2.58,2.58,0,0,0,82.09,16.18Zm1.15-4.33a1.62,1.62,0,0,1,.94,2.07,1.47,1.47,0,1,1-2.78-.74A1.62,1.62,0,0,1,83.24,11.85Z"/><path class="cls-4" d="M85.9,17.89h0a2.06,2.06,0,0,0,.57.25A2.47,2.47,0,0,0,89.1,17a2.7,2.7,0,0,0,.44-1.79,2,2,0,0,0-2.64-1.73,2.63,2.63,0,0,0-1.46,1.11A2.36,2.36,0,0,0,85.9,17.89Zm.33-2.77a1.78,1.78,0,0,1,.94-.72,1.09,1.09,0,0,1,.94.12,1.08,1.08,0,0,1,.48.82,1.7,1.7,0,0,1-.28,1.14,1.43,1.43,0,0,1-1.89.61A1.43,1.43,0,0,1,86.23,15.12Z"/><path class="cls-4" d="M90.84,18.87h0a2.34,2.34,0,0,0-3.63,2.89,1.84,1.84,0,0,0,1,.64,2.42,2.42,0,0,0,2.1-.48A2.21,2.21,0,0,0,90.84,18.87Zm-1.13,2.3a1.26,1.26,0,0,1-1.75,0,1.25,1.25,0,0,1,.38-1.71,1.48,1.48,0,0,1,1.26-.31,1,1,0,0,1,.5.31A1.26,1.26,0,0,1,89.71,21.17Z"/></svg>