<svg id="Capa_1" data-name="Capa 1" xmlns="http://www.w3.org/2000/svg" viewBox="0 0 151.22 94.56"><defs><style>.cls-1{fill:none;stroke:#cbcaca;stroke-miterlimit:10;}.cls-2{font-size:20.36px;font-family:Gotham-Light, Gotham;}.cls-2,.cls-3{fill:#676767;}</style></defs><title>Mesa de trabajo 51</title><rect class="cls-1" x="0.5" y="0.5" width="150.22" height="93.56" rx="8.34" ry="8.34"/><text class="cls-2" transform="translate(20.93 83.96)">Hospedaje</text><path class="cls-3" d="M89.88,26.51,73.64,11.44,57.41,26.51a.58.58,0,0,0,0,.81.57.57,0,0,0,.8,0l1.88-1.74V44.48H87.23V25.6l1.88,1.74a.51.51,0,0,0,.38.16.6.6,0,0,0,.42-.19A.57.57,0,0,0,89.88,26.51ZM86.09,43.35H61.19V24.55L73.64,13,86.09,24.55Z"/><path class="cls-3" d="M79.87,26l-.29-.22a4.33,4.33,0,0,0-3.89-.64,4.18,4.18,0,0,0-2.37,2.59,4.24,4.24,0,0,0-2.38-2.59,4.33,4.33,0,0,0-3.89.64l-.29.22a4.27,4.27,0,0,0-.29,6.24l6.07,6.38a1.08,1.08,0,0,0,1.55,0l6.07-6.38A4.27,4.27,0,0,0,79.87,26Z"/></svg>