<svg id="Capa_1" data-name="Capa 1" xmlns="http://www.w3.org/2000/svg" viewBox="0 0 91.83 79.85"><defs><style>.cls-1{font-size:23.29px;font-family:Gotham-Light, Gotham;letter-spacing:0.01em;}.cls-1,.cls-5{fill:#676767;}.cls-2{letter-spacing:0em;}.cls-3{letter-spacing:-0.02em;}.cls-4{letter-spacing:0em;}.cls-6{fill:none;stroke:#cbcaca;stroke-miterlimit:10;}</style></defs><title>Mesa de trabajo 41</title><text class="cls-1" transform="translate(19.19 65.98)">G<tspan class="cls-2" x="18.49" y="0">a</tspan><tspan class="cls-3" x="31.74" y="0">t</tspan><tspan class="cls-4" x="40.7" y="0">o</tspan></text><g id="Capa_2" data-name="Capa 2"><g id="Capa_1-2" data-name="Capa 1-2"><path class="cls-5" d="M28.58,20a.67.67,0,0,0,.66.67h0c1.34,0,3.33,1.06,3.33,4a7.21,7.21,0,0,1-1.16,3.6,10,10,0,0,0-1.51,5.07c0,3.88,2.14,6,6,6h16a.66.66,0,0,0,.66-.67V37.33a2,2,0,0,0-2-2h-.67V29.48a11.91,11.91,0,0,0,1.32-4.16,6.21,6.21,0,0,0-1-3.73,1.71,1.71,0,0,1-.36-.94V20.3a8.45,8.45,0,0,1,.13-2.3h0a4.89,4.89,0,0,1,.54,0c1.8,0,4.67-.9,4.67-3.33,0-.88-.82-1.46-1.55-2a4.56,4.56,0,0,1-.65-.51,4.13,4.13,0,0,1-.47-.63c-.46-.7-1-1.56-2-1.56-.21,0-.67-1-.67-2a.66.66,0,0,0-.66-.67h0c-2,0-2.94,2-3.22,2.84a3.5,3.5,0,0,0-2.12,3.16V20c0,.83-2,2.63-3.21,3.7-.49.43-.94.83-1.27,1.16s-.49.46-.77.7c-1.45,1.27-3.43,3-3.43,6.44v2.68A4.67,4.67,0,0,0,36.66,38h-.74c-3.14,0-4.67-1.53-4.67-4.68a8.65,8.65,0,0,1,1.34-4.44,8.47,8.47,0,0,0,1.33-4.23c0-3.46-2.41-5.34-4.67-5.34A.67.67,0,0,0,28.58,20Zm8,14.68V32c0-2.82,1.58-4.21,3-5.44.3-.27.59-.52.84-.76s.74-.7,1.2-1.12c2.08-1.84,3.66-3.36,3.66-4.69V13.3a2.3,2.3,0,0,1,1.55-2,.66.66,0,0,0,.43-.47,3.45,3.45,0,0,1,1.43-2c.18,1.12.73,2.53,1.93,2.53.25,0,.64.58.89,1a5.82,5.82,0,0,0,.64.84,5.8,5.8,0,0,0,.83.65c.31.22.95.68,1,.88,0,1.5-2.29,2-3.34,2a1.66,1.66,0,0,0-1.79.89,8.32,8.32,0,0,0-.21,2.77v.34a3,3,0,0,0,.55,1.64,5,5,0,0,1,.78,3A11.06,11.06,0,0,1,48.67,29a.7.7,0,0,0-.07.31V36a.67.67,0,0,0,.66.66H50.6a.67.67,0,0,1,.67.67V38h-4v-.67a2,2,0,0,0-1.75-2l.22-.22A4.34,4.34,0,0,0,47,30.28a4.94,4.94,0,0,0-4.38-3,.67.67,0,0,0,0,1.34h0a3.59,3.59,0,0,1,3.15,2.12,3,3,0,0,1-1,3.4l-1.33,1.34a.65.65,0,0,0,0,.94.67.67,0,0,0,.47.19h1.33a.68.68,0,0,1,.67.67V38h-6A3.33,3.33,0,0,1,36.59,34.66Z"/><path class="cls-5" d="M49.8,14.31a.67.67,0,0,0,.67-.67h0V13a.67.67,0,0,0-1.34,0v.67a.67.67,0,0,0,.67.67Z"/></g></g><rect class="cls-6" x="0.5" y="0.5" width="90.83" height="78.85" rx="8.34" ry="8.34"/></svg>