<svg id="Capa_1" data-name="Capa 1" xmlns="http://www.w3.org/2000/svg" viewBox="0 0 91.83 79.85"><defs><style>.cls-1{fill:none;}.cls-1,.cls-2{stroke:#fff;stroke-miterlimit:10;}.cls-2{fill:#3fa4aa;}.cls-3{font-size:23.29px;fill:#fff;font-family:Gotham-Light, Gotham;}.cls-4{letter-spacing:0em;}.cls-5{letter-spacing:-0.02em;}.cls-6{letter-spacing:0em;}</style></defs><title>Mesa de trabajo 35</title><g id="Capa_2" data-name="Capa 2"><g id="Capa_1-2" data-name="Capa 1-2"><path class="cls-1" d="M46.6,12.86a2.7,2.7,0,0,0,1.27,3.06c1.85,1,4.47,1.46,5.23.76s4.34-4.46,4.27-5.55-3-2.86-4.14-4-2.55-2.87-3.7-2.55-3.69,1-4.33,3.31-4,4.72-6.76,4.72-7.39-1.53-9-1.34-4.78.89-5.8,3.13-1.15,5.54,0,6.88,1.53,2.42,1.21,3.57-1.92,3.06-1.15,4.27,3.64,1.91,4,1,.32-1,0-2S29,24.33,30,23.5c0,0,2.8-3,2.93-4.84"/><path class="cls-1" d="M39.65,20.25s-.24,4.85.45,5.93,3.18,4.72,4.33,5,3.76.38,3.7-.64-.26-1.72-.89-1.91A4.31,4.31,0,0,1,46,28l.51-5.48,4.31-5.57"/><path class="cls-1" d="M31.15,22.07a20.85,20.85,0,0,0,8.53,2.05"/><path class="cls-1" d="M36,8.71s-3.57-4-8.1-1.91-3,6.08-3,6.08"/><path class="cls-1" d="M45.52,8.74c-.5-.38-.29-.24-.29-.24s1.89,2.3,2.56,2.3,2.94-2.25,3.05-2.92"/><line class="cls-1" x1="52.67" y1="10.8" x2="52.67" y2="11.18"/></g></g><rect class="cls-2" x="0.5" y="0.5" width="90.83" height="78.85" rx="8.34" ry="8.34"/><text class="cls-3" transform="translate(19.72 65.97)"><tspan class="cls-4">P</tspan><tspan x="15.44" y="0">er</tspan><tspan class="cls-5" x="38.35" y="0">r</tspan><tspan class="cls-6" x="47.08" y="0">o</tspan></text><g id="Capa_2-2" data-name="Capa 2"><g id="Capa_1-2-2" data-name="Capa 1-2"><path class="cls-1" d="M51.94,22.07a2.2,2.2,0,0,0,1,2.5c1.51.78,3.64,1.2,4.26.62s3.54-3.64,3.49-4.52-2.45-2.34-3.38-3.28-2.08-2.34-3-2.08-3,.83-3.54,2.71-3.27,3.84-5.51,3.84-6-1.24-7.33-1.09-3.91.73-4.74,2.55-.93,4.53,0,5.62,1.25,2,1,2.91-1.56,2.5-.94,3.49,3,1.56,3.28.78.27-.78,0-1.67,1-3,1.82-3.69c0,0,2.29-2.45,2.39-4"/><path class="cls-1" d="M46.27,28.11s-.2,4,.37,4.83,2.59,3.85,3.53,4.06,3.07.31,3-.52-.2-1.41-.72-1.56a3.6,3.6,0,0,1-1-.52l.41-4.47,3.52-4.55"/><path class="cls-1" d="M39.34,29.59a16.75,16.75,0,0,0,6.95,1.67"/><path class="cls-1" d="M43.3,18.69s-2.91-3.28-6.6-1.56-2.47,5-2.47,5"/><path class="cls-1" d="M51.05,18.72c-.4-.31-.23-.2-.23-.2s1.55,1.87,2.09,1.87A5.66,5.66,0,0,0,55.4,18"/><line class="cls-1" x1="56.89" y1="20.39" x2="56.89" y2="20.71"/></g></g></svg>