<svg id="Capa_1" data-name="Capa 1" xmlns="http://www.w3.org/2000/svg" viewBox="0 0 151.22 94.56"><defs><style>.cls-1{font-size:20.36px;fill:#676767;font-family:Gotham-Light, Gotham;}.cls-2{letter-spacing:-0.02em;}.cls-3{letter-spacing:-0.01em;}.cls-4,.cls-5{fill:none;stroke-miterlimit:10;}.cls-4{stroke:#cbcaca;}.cls-5{stroke:#676767;}</style></defs><title>Mesa de trabajo 54</title><text class="cls-1" transform="translate(1.8 83.77)">Ent<tspan class="cls-2" x="34.27" y="0">r</tspan><tspan x="41.9" y="0">enamien</tspan><tspan class="cls-3" x="126.76" y="0">t</tspan><tspan x="134.6" y="0">o</tspan></text><rect class="cls-4" x="0.5" y="0.5" width="150.22" height="93.56" rx="8.34" ry="8.34"/><path class="cls-5" d="M87.78,29.25a30.7,30.7,0,0,1-3.26,4.83c-1.64,1.86-1.82,3.54-.73,4.8s6.4,2.1,7.77.25-.21-6.83-.63-8.23-3.4-5.6-6.9-5.46-4.76,1.47-6.69.49a26.65,26.65,0,0,1-3.78-2.45s-4.76,3.32-2,7.24,8.75,2.91,4.9,12.12"/><line class="cls-5" x1="90.72" y1="42.84" x2="90.72" y2="39.78"/><path class="cls-5" d="M59.11,24.42l4,1.17,9.1-8.31s5.42-1.73,4.48-4.58c-1.68.38-6.25,2-6.25,2s-4.11,2.67-5.74,3-5.61-1.35-5.61-1.35"/><path class="cls-5" d="M76.54,14.4s4.1-1.46,5.26-2.4,0-1.49-.4-2-2.27-.25-3.29.17-5.9,2.2-5.9,2.2l-2.85,2.94"/><path class="cls-5" d="M67.24,21.84s3.55-.45,4.2-.64,1.63-.23,2-1.07S74.14,17.3,73,17"/></svg>