<svg id="Capa_1" data-name="Capa 1" xmlns="http://www.w3.org/2000/svg" viewBox="0 0 91.83 79.85"><defs><style>.cls-1,.cls-6{fill:none;stroke-miterlimit:10;}.cls-1{stroke:#cbcaca;}.cls-2{font-size:23.29px;fill:#676767;font-family:Gotham-Light, Gotham;}.cls-3{letter-spacing:0em;}.cls-4{letter-spacing:-0.02em;}.cls-5{letter-spacing:0em;}.cls-6{stroke:#676767;}</style></defs><title>Mesa de trabajo 40</title><rect class="cls-1" x="0.5" y="0.5" width="90.83" height="78.85" rx="8.34" ry="8.34"/><text class="cls-2" transform="translate(19.72 65.97)"><tspan class="cls-3">P</tspan><tspan x="15.44" y="0">er</tspan><tspan class="cls-4" x="38.35" y="0">r</tspan><tspan class="cls-5" x="47.08" y="0">o</tspan></text><g id="Capa_2" data-name="Capa 2"><g id="Capa_1-2" data-name="Capa 1-2"><path class="cls-6" d="M51.94,22.07a2.2,2.2,0,0,0,1,2.5c1.51.78,3.64,1.2,4.26.62s3.54-3.64,3.49-4.52-2.45-2.34-3.38-3.28-2.08-2.34-3-2.08-3,.83-3.54,2.71-3.27,3.84-5.51,3.84-6-1.24-7.33-1.09-3.91.73-4.74,2.55-.93,4.53,0,5.62,1.25,2,1,2.91-1.56,2.5-.94,3.49,3,1.56,3.28.78.27-.78,0-1.67,1-3,1.82-3.69c0,0,2.29-2.45,2.39-4"/><path class="cls-6" d="M46.27,28.11s-.2,4,.37,4.83,2.59,3.85,3.53,4.06,3.07.31,3-.52-.2-1.41-.72-1.56a3.6,3.6,0,0,1-1-.52l.41-4.47,3.52-4.55"/><path class="cls-6" d="M39.34,29.59a16.75,16.75,0,0,0,6.95,1.67"/><path class="cls-6" d="M43.3,18.69s-2.91-3.28-6.6-1.56-2.47,5-2.47,5"/><path class="cls-6" d="M51.05,18.72c-.4-.31-.23-.2-.23-.2s1.55,1.87,2.09,1.87A5.66,5.66,0,0,0,55.4,18"/><line class="cls-6" x1="56.89" y1="20.39" x2="56.89" y2="20.71"/></g></g></svg>