<svg id="Capa_1" data-name="Capa 1" xmlns="http://www.w3.org/2000/svg" viewBox="0 0 151.22 94.56"><defs><style>.cls-1{fill:#3fa4aa;stroke:#fff;stroke-miterlimit:10;}.cls-2{font-size:20.36px;font-family:Gotham-Light, Gotham;}.cls-2,.cls-5{fill:#fff;}.cls-3{letter-spacing:-0.02em;}.cls-4{letter-spacing:-0.01em;}</style></defs><title>Mesa de trabajo 50</title><rect class="cls-1" x="0.5" y="0.5" width="150.22" height="93.56" rx="8.34" ry="8.34"/><text class="cls-2" transform="translate(1.8 83.77)">Ent<tspan class="cls-3" x="34.27" y="0">r</tspan><tspan x="41.9" y="0">enamien</tspan><tspan class="cls-4" x="126.76" y="0">t</tspan><tspan x="134.6" y="0">o</tspan></text><path class="cls-5" d="M76.93,43,76,42.64c2.54-6.09.65-7.33-1.74-8.91A10.9,10.9,0,0,1,71.16,31a4.64,4.64,0,0,1-.89-3.59,7.72,7.72,0,0,1,3-4.35l.3-.22.29.23a24.89,24.89,0,0,0,3.7,2.4c1,.49,1.71.31,3,0A16.36,16.36,0,0,1,84,24.94c3.83-.16,7,4.41,7.4,5.82l0,.17c.84,2.79,1.81,6.71.5,8.49a4.21,4.21,0,0,1-3.24,1.28c-1.86.07-4.44-.48-5.31-1.49-1.28-1.49-1-3.48.74-5.46A31.54,31.54,0,0,0,87.34,29l.88.47a32.07,32.07,0,0,1-3.32,4.93c-1,1.12-1.93,2.74-.73,4.13.5.6,2.6,1.23,4.52,1.15a3.26,3.26,0,0,0,2.47-.87c.77-1,.55-3.61-.66-7.61l0-.18c-.41-1.36-3.21-5.22-6.4-5.1a15.12,15.12,0,0,0-3.3.52,4.67,4.67,0,0,1-3.63-.09,26.48,26.48,0,0,1-3.56-2.26,6.44,6.44,0,0,0-2.3,3.49A3.7,3.7,0,0,0,72,30.44a9.85,9.85,0,0,0,2.84,2.45C77.38,34.58,79.8,36.18,76.93,43Z"/><rect class="cls-5" x="90.22" y="39.78" width="1" height="3.06"/><path class="cls-5" d="M63.26,26.15,59,24.9l.27-1L63,25l9.08-8.23s3.21-1,4-2.69a1.56,1.56,0,0,0,.19-.79c-1.77.47-5.16,1.63-5.64,1.8-.51.32-4.24,2.7-5.87,3s-5.47-1.2-5.89-1.38l.39-.92c1.06.45,4.09,1.56,5.31,1.32s4.45-2.19,5.57-2.91l.11-.06c.18-.06,4.62-1.6,6.31-2l.44-.1.14.43a2.52,2.52,0,0,1-.17,2c-1,1.85-3.92,3-4.53,3.16Z"/><path class="cls-5" d="M69.72,15.7,69,15l3-3.06s4.87-1.78,5.88-2.19c.83-.34,3.13-.84,3.86,0a2.71,2.71,0,0,0,.24.23,1.73,1.73,0,0,1,.79,1.3,1.52,1.52,0,0,1-.69,1.15c-1.22,1-5.24,2.42-5.41,2.48l-.33-.95a26.52,26.52,0,0,0,5.11-2.31c.24-.18.32-.33.32-.39s-.28-.38-.45-.53-.24-.21-.33-.31a4.73,4.73,0,0,0-2.73.29c-1,.39-5.07,1.9-5.81,2.17Z"/><path class="cls-5" d="M67.3,22.34l-.13-1c1.42-.18,3.68-.49,4.13-.62l.42-.1c.65-.15,1.08-.27,1.27-.7a3.14,3.14,0,0,0,.17-2.15.43.43,0,0,0-.32-.27l.23-1a1.49,1.49,0,0,1,1,.81,4.08,4.08,0,0,1-.16,3,2.46,2.46,0,0,1-2,1.26l-.36.09C70.91,21.87,67.67,22.29,67.3,22.34Z"/></svg>