<svg id="Capa_1" data-name="Capa 1" xmlns="http://www.w3.org/2000/svg" viewBox="0 0 46.52 46.52"><defs><style>.cls-1{fill:#cbcaca;}</style></defs><title>Mesa de trabajo 75</title><path class="cls-1" d="M23.26,14.8a8.46,8.46,0,1,0,8.46,8.46A8.46,8.46,0,0,0,23.26,14.8Zm18.91,6.35A19,19,0,0,0,25.38,4.36V0H21.15V4.36A19,19,0,0,0,4.36,21.15H0v4.23H4.36A19,19,0,0,0,21.15,42.17v4.35h4.23V42.17A19,19,0,0,0,42.17,25.38h4.35V21.15ZM23.26,38.06a14.8,14.8,0,1,1,14.8-14.8A14.79,14.79,0,0,1,23.26,38.06Z"/></svg>