<svg id="Capa_1" data-name="Capa 1" xmlns="http://www.w3.org/2000/svg" viewBox="0 0 273.19 60.5"><defs><style>.cls-1{fill:#fff;stroke:#cbcaca;stroke-miterlimit:10;}.cls-2{font-size:12.31px;font-family:Gotham-Light, Gotham;}.cls-2,.cls-6{fill:#cbcaca;}.cls-3{letter-spacing:-0.01em;}.cls-4{letter-spacing:-0.02em;}.cls-5{fill:none;}.cls-7{fill:#676767;}</style></defs><title>Mesa de trabajo 71</title><rect class="cls-1" x="0.5" y="0.5" width="272.19" height="58.04" rx="5" ry="5"/><path class="cls-1" d="M233.8.5h33.89a5,5,0,0,1,5,5v48a5,5,0,0,1-5,5H233.8a0,0,0,0,1,0,0V.5a0,0,0,0,1,0,0Z"/><text class="cls-2" transform="translate(39.39 35.03)">Ubicación, e<tspan class="cls-3" x="73.89" y="0">s</tspan><tspan x="79.89" y="0">tad</tspan><tspan class="cls-4" x="100.01" y="0">o</tspan><tspan x="107.65" y="0">, municipi</tspan><tspan class="cls-4" x="165.33" y="0">o</tspan><tspan x="172.97" y="0">.</tspan></text><rect class="cls-5" x="0.5" y="0.5" width="38.89" height="38.89"/><path class="cls-6" d="M253.24,28.87a2.6,2.6,0,1,0,2.59,2.59A2.6,2.6,0,0,0,253.24,28.87ZM259,30.82a5.83,5.83,0,0,0-5.14-5.15V24.34h-1.3v1.33a5.84,5.84,0,0,0-5.15,5.15h-1.33v1.29h1.33a5.84,5.84,0,0,0,5.15,5.15v1.33h1.3V37.26A5.83,5.83,0,0,0,259,32.11h1.34V30.82ZM253.24,36a4.54,4.54,0,1,1,4.53-4.54A4.54,4.54,0,0,1,253.24,36Z"/><rect class="cls-5" x="233.79" y="0.5" width="38.89" height="58.04"/><g id="Outline"><path class="cls-7" d="M19.94,25a4.53,4.53,0,0,0-4.53,4.54c0,3.4,4.53,8.43,4.53,8.43s4.54-5,4.54-8.43A4.54,4.54,0,0,0,19.94,25ZM16.7,29.52a3.24,3.24,0,0,1,6.48,0c0,1.87-1.86,4.66-3.24,6.4C18.59,34.19,16.7,31.37,16.7,29.52Z"/><circle class="cls-7" cx="19.94" cy="29.52" r="1.62"/></g><rect class="cls-5" x="238.15" y="41.06" width="19.44" height="19.44"/></svg>