<svg id="Capa_1" data-name="Capa 1" xmlns="http://www.w3.org/2000/svg" viewBox="0 0 672.26 75.38"><defs><style>.cls-1{fill:#fff;stroke:#cbcaca;stroke-miterlimit:10;}.cls-2{font-size:15.78px;font-family:Gotham-Light, Gotham;}.cls-2,.cls-7{fill:#cbcaca;}.cls-3{letter-spacing:-0.01em;}.cls-4{letter-spacing:-0.02em;}.cls-5{letter-spacing:-0.02em;}.cls-6{fill:none;}.cls-8{fill:#676767;}</style></defs><title>Mesa de trabajo 68</title><rect class="cls-1" x="0.5" y="0.5" width="670.85" height="74.38" rx="5" ry="5"/><path class="cls-1" d="M621.93.5h44.83a5,5,0,0,1,5,5V69.88a5,5,0,0,1-5,5H621.93a0,0,0,0,1,0,0V.5A0,0,0,0,1,621.93.5Z"/><text class="cls-2" transform="translate(50.33 44.75)">Ubicación, e<tspan class="cls-3" x="94.69" y="0">s</tspan><tspan x="102.38" y="0">tad</tspan><tspan class="cls-4" x="128.16" y="0">o</tspan><tspan x="137.94" y="0">, municipi</tspan><tspan class="cls-5" x="211.87" y="0">o</tspan><tspan x="221.65" y="0">.</tspan></text><rect class="cls-6" x="0.5" y="0.5" width="49.83" height="49.83"/><path class="cls-7" d="M646.84,36.86a3.32,3.32,0,1,0,3.33,3.32A3.32,3.32,0,0,0,646.84,36.86Zm7.43,2.49a7.46,7.46,0,0,0-6.6-6.59V31H646v1.72a7.46,7.46,0,0,0-6.59,6.59h-1.71V41h1.71A7.46,7.46,0,0,0,646,47.6v1.72h1.66V47.6a7.46,7.46,0,0,0,6.6-6.59H656V39.35ZM646.84,46a5.81,5.81,0,1,1,5.82-5.81A5.81,5.81,0,0,1,646.84,46Z"/><rect class="cls-6" x="621.93" y="0.5" width="49.83" height="74.38"/><g id="Outline"><path class="cls-8" d="M25.41,31.87a5.81,5.81,0,0,0-5.81,5.82c0,4.36,5.81,10.79,5.81,10.79s5.82-6.43,5.82-10.79A5.81,5.81,0,0,0,25.41,31.87Zm-4.15,5.82a4.16,4.16,0,0,1,8.31,0c0,2.39-2.39,6-4.16,8.2C23.69,43.68,21.26,40.06,21.26,37.69Z"/><circle class="cls-8" cx="25.41" cy="37.69" r="2.08"/></g><rect class="cls-6" x="305.04" y="52.47" width="24.91" height="24.91"/></svg>