<svg id="Capa_1" data-name="Capa 1" xmlns="http://www.w3.org/2000/svg" viewBox="0 0 672.26 75.38"><defs><style>.cls-1{fill:#fff;stroke:#cbcaca;stroke-miterlimit:10;}.cls-2{fill:none;}.cls-3{fill:#cbcaca;}.cls-4{fill:#676767;}</style></defs><title>Mesa de trabajo 69</title><rect class="cls-1" x="0.5" y="0.5" width="670.85" height="74.38" rx="5" ry="5"/><path class="cls-1" d="M621.93.5h44.83a5,5,0,0,1,5,5V69.88a5,5,0,0,1-5,5H621.93a0,0,0,0,1,0,0V.5A0,0,0,0,1,621.93.5Z"/><rect class="cls-2" x="0.5" y="0.5" width="49.83" height="49.83"/><path class="cls-3" d="M646.84,36.86a3.32,3.32,0,1,0,3.33,3.32A3.32,3.32,0,0,0,646.84,36.86Zm7.43,2.49a7.46,7.46,0,0,0-6.6-6.59V31H646v1.72a7.46,7.46,0,0,0-6.59,6.59h-1.71V41h1.71A7.46,7.46,0,0,0,646,47.6v1.72h1.66V47.6a7.46,7.46,0,0,0,6.6-6.59H656V39.35ZM646.84,46a5.81,5.81,0,1,1,5.82-5.81A5.81,5.81,0,0,1,646.84,46Z"/><rect class="cls-2" x="621.93" y="0.5" width="49.83" height="74.38"/><g id="Outline"><path class="cls-4" d="M25.41,31.87a5.81,5.81,0,0,0-5.81,5.82c0,4.36,5.81,10.79,5.81,10.79s5.82-6.43,5.82-10.79A5.81,5.81,0,0,0,25.41,31.87Zm-4.15,5.82a4.16,4.16,0,0,1,8.31,0c0,2.39-2.39,6-4.16,8.2C23.69,43.68,21.26,40.06,21.26,37.69Z"/><circle class="cls-4" cx="25.41" cy="37.69" r="2.08"/></g><rect class="cls-2" x="305.04" y="52.47" width="24.91" height="24.91"/></svg>