<svg xmlns="http://www.w3.org/2000/svg" viewBox="0 0 24.25 28.964">
  <defs>
    <style>
      .cls-1 {
        fill: #666;
      }
    </style>
  </defs>
  <title>Guarderia</title>
  <g id="Capa_2" data-name="Capa 2">
    <g id="Capa_1-2" data-name="Capa 1">
      <g>
        <path id="path1_fill" data-name="path1 fill" class="cls-1" d="M5.592,13.765a1.738,1.738,0,0,0-2.151-.287V7.6c0-.287-.143-.574-.143-.86h.287a.925.925,0,0,1,.86.86v4.445a.38.38,0,0,0,.43.43.38.38,0,0,0,.43-.43V7.6A1.877,1.877,0,0,0,3.585,5.735a2.072,2.072,0,0,0-1,.287,1.537,1.537,0,0,0-.86-.287A1.778,1.778,0,0,0,0,7.6v8.46a4.187,4.187,0,0,0,.287,1.29h0l5.162,8.6c.143.143.143.574.143.86v1.721a.38.38,0,0,0,.43.43.38.38,0,0,0,.43-.43V26.813a4.187,4.187,0,0,0-.287-1.29h0L1,16.919c-.143-.143-.143-.574-.143-.86V7.6a.925.925,0,0,1,.86-.86.925.925,0,0,1,.86.86v7.456h0a1.751,1.751,0,0,0,.574,1.29L7.169,20.5a.436.436,0,0,0,.574,0,.64.64,0,0,0,0-.717L3.728,15.629a1.07,1.07,0,0,1,0-1.29.872.872,0,0,1,1.147,0L9.75,19.357a4.067,4.067,0,0,1,1,2.438V27.96a.43.43,0,0,0,.86,0V21.795a5.159,5.159,0,0,0-1.29-3.154Z"/>
        <path id="path2_fill" data-name="path2 fill" class="cls-1" d="M22.655,5.735a2.038,2.038,0,0,0-.86.287,2.072,2.072,0,0,0-1-.287A1.744,1.744,0,0,0,19.07,7.456V11.9a.43.43,0,1,0,.86,0V7.6a.925.925,0,0,1,.86-.86h.287a1.819,1.819,0,0,0-.143.86v6.022a2.038,2.038,0,0,0-.86-.287,1.752,1.752,0,0,0-1.29.574l-4.875,5.018a5.159,5.159,0,0,0-1.29,3.154v6.166a.43.43,0,0,0,.86,0V22.081a3.459,3.459,0,0,1,1-2.438l4.875-5.018a1.087,1.087,0,0,1,.574-.287.745.745,0,0,1,.574.287,1.087,1.087,0,0,1,.287.574.745.745,0,0,1-.287.574l-4.015,4.158a.64.64,0,0,0,0,.717.436.436,0,0,0,.574,0l4.015-4.158a1.817,1.817,0,0,0,.574-1.29V7.6a.86.86,0,0,1,1.721,0v8.46c0,.287-.143.574-.143.86l-5.162,8.6h0a3.424,3.424,0,0,0-.287,1.29v1.721a.43.43,0,0,0,.86,0V26.813c0-.287.143-.574.143-.86l5.162-8.6h0a3.424,3.424,0,0,0,.287-1.29V7.6A1.59,1.59,0,0,0,22.655,5.735Z"/>
        <path id="path3_fill" data-name="path3 fill" class="cls-1" d="M11.9,3.585a.38.38,0,0,0-.43.43V8.89a1.29,1.29,0,1,1-2.581,0V4.158A2.977,2.977,0,0,1,11.9,1a3.062,3.062,0,0,1,3.011,3.154.38.38,0,0,0,.43.43h2.151v1.29a1.285,1.285,0,0,1-1.29,1.29h-.86c-.143,0-.287.143-.287.43v7.6a.43.43,0,0,0,.86,0V8.03h.43A2.205,2.205,0,0,0,18.5,5.879V4.158a.38.38,0,0,0-.43-.43H15.916A4.276,4.276,0,0,0,14.769,1.29,3.61,3.61,0,0,0,11.9,0,4.554,4.554,0,0,0,9.033,1.147,4.263,4.263,0,0,0,7.886,4.015V8.6L6.309,10.467a.64.64,0,0,0,0,.717H6.6c.143,0,.287,0,.287-.143l1.29-1.29a2.157,2.157,0,0,0,2.007,1.434A2.238,2.238,0,0,0,12.331,8.89V4.015A.458.458,0,0,0,11.9,3.585Z"/>
      </g>
    </g>
  </g>
</svg>
