<svg xmlns="http://www.w3.org/2000/svg" viewBox="0 0 240 240">
  <defs>
    <style>
      .cls-1, .cls-2 {
        fill: #fff;
      }

      .cls-2, .cls-7 {
        stroke: #00d2c6;
        stroke-miterlimit: 10;
        stroke-width: 4px;
      }

      .cls-3, .cls-7 {
        fill: none;
      }

      .cls-4 {
        fill: #cffbf2;
      }

      .cls-5 {
        fill: #b1f8e7;
      }

      .cls-6 {
        fill: #00d2c6;
      }
    </style>
  </defs>
  <title>Paso 2</title>
  <g id="Capa_2" data-name="Capa 2">
    <g id="Capa_1-2" data-name="Capa 1">
      <g>
        <rect class="cls-1" x="59.144" y="55.375" width="14.375" height="34.625"/>
        <rect class="cls-1" x="112.867" y="55.375" width="14.375" height="34.625"/>
        <rect class="cls-1" x="166.492" y="55.375" width="14.375" height="34.625"/>
        <rect class="cls-2" x="46.238" y="102.822" width="149.823" height="105.511"/>
        <g>
          <rect class="cls-3" width="240" height="240"/>
          <g>
            <path class="cls-4" d="M193.762,102.822H46.347V70h9.542S53.513,90.945,66.241,90.945C80.263,90.945,74.889,70,74.889,70h36.375S106.576,90.563,120,90.945C132.883,91.312,128.514,70,128.514,70H165.18s-4.75,21,8.579,20.945C186.849,90.891,182.68,70,182.68,70h11.082Z"/>
            <polygon class="cls-4" points="113.347 146.667 120.013 134.5 126.68 146.667 140.18 150 129.68 160 132.347 173 119.976 167.5 106.625 174.833 109.013 159.333 100.347 149 113.347 146.667"/>
            <polygon class="cls-5" points="110.847 164.333 119.976 160.667 124.763 162.5 124.013 157.417 132.263 148.333 139.68 150.083 130.847 159.667 132.263 172.583 119.976 167.5 108.097 172.583 110.847 164.333"/>
            <path class="cls-2" d="M189.386,64.066h-6.251V60.94a9.377,9.377,0,0,0-18.753,0v3.125H129.377V60.94a9.377,9.377,0,0,0-18.753,0v3.125H75.618V60.94a9.377,9.377,0,0,0-18.753,0v3.125H50.614A10.639,10.639,0,0,0,39.987,74.692V200.963A10.64,10.64,0,0,0,50.614,211.59H189.386a10.639,10.639,0,0,0,10.627-10.627V74.692A10.639,10.639,0,0,0,189.386,64.066ZM170.633,60.94a3.126,3.126,0,0,1,6.251,0V81.569a3.126,3.126,0,0,1-6.251,0Zm-53.759,0a3.125,3.125,0,0,1,6.251,0V81.569a3.125,3.125,0,0,1-6.251,0Zm-53.759,0a3.126,3.126,0,0,1,6.251,0V81.569a3.126,3.126,0,0,1-6.251,0ZM193.762,200.963a4.381,4.381,0,0,1-4.376,4.375H50.614a4.381,4.381,0,0,1-4.376-4.375v-91.89H193.762Zm0-98.141H46.238V74.692a4.381,4.381,0,0,1,4.376-4.376h6.251V81.569a9.377,9.377,0,0,0,18.753,0V70.317h35.006V81.569a9.377,9.377,0,0,0,18.753,0V70.317h35.006V81.569a9.377,9.377,0,0,0,18.753,0V70.317h6.251a4.381,4.381,0,0,1,4.376,4.376Z"/>
            <path class="cls-6" d="M133.351,160.335l9.742-9.5a2.46,2.46,0,0,0-1.362-4.2l-13.464-1.956-6.021-12.2a2.46,2.46,0,0,0-4.412,0l-6.02,12.2-13.464,1.956a2.46,2.46,0,0,0-1.363,4.2l9.743,9.5-2.3,13.41A2.46,2.46,0,0,0,108,176.338l12.042-6.331,12.042,6.331a2.46,2.46,0,0,0,3.569-2.592Zm-4.36-2.619a2.46,2.46,0,0,0-.707,2.176l1.676,9.771-8.775-4.613a2.461,2.461,0,0,0-2.29,0l-8.775,4.613,1.676-9.771a2.46,2.46,0,0,0-.707-2.176l-7.1-6.921,9.811-1.426a2.461,2.461,0,0,0,1.852-1.345l4.388-8.89,4.387,8.89a2.461,2.461,0,0,0,1.852,1.345l9.811,1.426Z"/>
            <path class="cls-7" d="M119.951,180.884h-.021a3.127,3.127,0,0,0-3.1,3.146l.049,7.577a3.126,3.126,0,0,0,3.126,3.1h.02a3.126,3.126,0,0,0,3.106-3.146l-.049-7.576A3.126,3.126,0,0,0,119.951,180.884Z"/>
            <path class="cls-7" d="M155.451,163.563l-7.43-2.425a3.125,3.125,0,0,0-1.939,5.942l7.429,2.425a3.125,3.125,0,0,0,1.94-5.942Z"/>
            <path class="cls-7" d="M100.971,134.457a3.125,3.125,0,1,0,5.057-3.674l-4.81-6.621a3.125,3.125,0,1,0-5.057,3.674Z"/>
            <path class="cls-7" d="M91.955,161.139l-7.408,2.426a3.126,3.126,0,0,0,1.945,5.941L93.9,167.08a3.126,3.126,0,1,0-1.945-5.941Z"/>
            <path class="cls-7" d="M134.635,135.144a3.125,3.125,0,0,0,4.368-.681l4.832-6.621a3.126,3.126,0,0,0-5.05-3.686l-4.832,6.621A3.126,3.126,0,0,0,134.635,135.144Z"/>
          </g>
        </g>
      </g>
    </g>
  </g>
</svg>
