<svg xmlns="http://www.w3.org/2000/svg" viewBox="0 0 46.15 46.149">
  <defs>
    <style>
      .cls-1 {
        fill: #00d2c6;
      }

      .cls-2 {
        fill: #fff;
      }
    </style>
  </defs>
  <title>Perfil</title>
  <g id="Capa_2" data-name="Capa 2">
    <g id="Capa_1-2" data-name="Capa 1">
      <g>
        <path class="cls-1" d="M44.131,32.51l.047-.1q.36-.81.657-1.652c.018-.051.034-.1.052-.154a22.85,22.85,0,0,0,.893-3.437c.017-.1.036-.193.052-.29q.139-.836.217-1.692c.01-.1.016-.208.024-.312.046-.593.076-1.189.076-1.793a23.075,23.075,0,0,0-46.15,0c0,.6.031,1.2.076,1.793.008.1.014.209.024.313q.078.855.217,1.692c.016.1.035.194.052.29A22.865,22.865,0,0,0,1.262,30.6c.018.051.034.1.052.154q.3.842.657,1.652l.047.1A23.129,23.129,0,0,0,17.152,45.354l.034.034a23.158,23.158,0,0,0,11.778,0L29,45.354A23.129,23.129,0,0,0,44.131,32.51Z"/>
        <circle class="cls-2" cx="23.075" cy="15.197" r="5.973"/>
        <path class="cls-2" d="M35.02,31.284c-.06-3.962-7.984-6.132-11.946-6.132-3.982,0-11.886,2.17-11.946,6.132a14.335,14.335,0,0,0,23.891,0Z"/>
      </g>
    </g>
  </g>
</svg>
