<svg xmlns="http://www.w3.org/2000/svg" xmlns:xlink="http://www.w3.org/1999/xlink" viewBox="0 0 44.434 33.54">
  <defs>
    <style>
      .cls-1 {
        fill: #fff;
      }

      .cls-2 {
        mask: url(#mask);
      }

      .cls-3 {
        fill: #666;
      }
    </style>
    <mask id="mask" x="0" y="0" width="44.444" height="33.54" maskUnits="userSpaceOnUse">
      <g id="mask1_outline" data-name="mask1 outline">
        <g id="Clip_2" data-name="Clip 2">
          <path id="path2_fill" data-name="path2 fill" class="cls-1" d="M.016,0V33.54H44.444V0Z"/>
        </g>
      </g>
    </mask>
  </defs>
  <title>Gigante</title>
  <g id="Capa_2" data-name="Capa 2">
    <g id="Capa_1-2" data-name="Capa 1">
      <g id="_007-dog-17" data-name="007-dog-17">
        <g class="cls-2">
          <g id="Fill_1" data-name="Fill 1">
            <path id="path3_fill" data-name="path3 fill" class="cls-3" d="M44.4,3.769a.667.667,0,0,0-.414-.4l-3.3-1.137-.555-.946A1.3,1.3,0,0,0,39.26.675L36.092.042a2.084,2.084,0,0,0-2.135.845L29.33,7.611a2.131,2.131,0,0,1-1.437.887A66.067,66.067,0,0,1,17.3,9.3a16.427,16.427,0,0,0-5.582.824,14.387,14.387,0,0,0-1.551.614c-.895-.05-6.159-.2-6.951,3.125-.739,3.1,1.587,6.245,1.982,6.751l0,.1c-.056,1.915-.064,2.21-1.455,2.992A11.928,11.928,0,0,0,.31,26.149a.636.636,0,0,0-.129.365L0,32.868a.639.639,0,0,0,.192.474.7.7,0,0,0,.488.2H3.54a.691.691,0,0,0,.553-.271.632.632,0,0,0,.093-.588l-.07-.2a2.22,2.22,0,0,0-1.158-1.27c.06-1.337.476-3.835,1.967-4.524a24.046,24.046,0,0,0,2.534-1.357,4.649,4.649,0,0,1,.078,1.811.657.657,0,0,0,.559.752.774.774,0,0,0,.113.009.674.674,0,0,0,.671-.546,6.174,6.174,0,0,0-.226-2.824c.2-.143.392-.29.585-.443a9.363,9.363,0,0,0,3.3-4.328c.128-.4.473-1.359.534-1.47a2.48,2.48,0,0,1,1.341-1.137,2.636,2.636,0,0,1,1.948.066l6.714,2.972a13.912,13.912,0,0,0,5.386,1.176,19.161,19.161,0,0,1,.224,7.723,2.267,2.267,0,0,0,.211,1.492L30.163,33a.684.684,0,0,0,.609.361H33.5a.687.687,0,0,0,.59-.328.631.631,0,0,0,0-.654l-.267-.438a2.157,2.157,0,0,0-1.149-.91l-.392-1.19.553-8.942a3.217,3.217,0,0,1,.537-1.6,9.284,9.284,0,0,0,1.445-5.5c-.072-3.169,2.122-6.749,2.813-7.8l3.669.2A2.981,2.981,0,0,0,43.951,4.9l.378-.574A.629.629,0,0,0,44.4,3.769ZM4.544,14.154c.316-1.325,1.96-1.832,3.392-2.019A6.476,6.476,0,0,0,5.59,16.161c-.125.8-.208,1.512-.264,2.14A6.236,6.236,0,0,1,4.544,14.154ZM41.373,4.91,37.31,4.684a1.34,1.34,0,0,1-.94-.457l-.681-.791a.7.7,0,0,0-.959-.087.635.635,0,0,0-.091.919l.681.791a2.662,2.662,0,0,0,.883.668c-.936,1.488-2.826,4.9-2.753,8.107A8.113,8.113,0,0,1,32.223,18.6a4.488,4.488,0,0,0-.753,2.231l-.56,9.062a.623.623,0,0,0,.03.235l.545,1.654a.647.647,0,0,0,.187.282h-.478L30.117,30a1,1,0,0,1-.092-.66,21.677,21.677,0,0,0-1.9-13.168.693.693,0,0,0-.9-.333.643.643,0,0,0-.347.861,23.433,23.433,0,0,1,1.248,3.352A12.51,12.51,0,0,1,23.649,19l-6.713-2.972a4.06,4.06,0,0,0-3-.1c.239-.567.383-.864.387-.871A.642.642,0,0,0,14,14.188a.694.694,0,0,0-.907.311,38.347,38.347,0,0,0-1.851,4.877c-.331,1.038-1.665,3.712-6.906,6.132-2.813,1.3-2.75,5.975-2.745,6.173a.65.65,0,0,0,.341.553H1.381l.155-5.443a14.9,14.9,0,0,1,2.893-1.959C6.471,23.683,6.5,22.764,6.557,20.75a32.315,32.315,0,0,1,.38-4.4c.355-2.279,2.114-3.96,5.228-5a15.028,15.028,0,0,1,5.1-.753,67.453,67.453,0,0,0,10.837-.815,3.5,3.5,0,0,0,2.361-1.457l4.626-6.725a.7.7,0,0,1,.666-.292l-.13.134a.635.635,0,0,0,.036.923.7.7,0,0,0,.962-.035l.69-.714,1.637.327.188.32a.649.649,0,0,0-.395.681.673.673,0,0,0,.674.567.769.769,0,0,0,.091-.006l.627-.08,2.579.888A1.611,1.611,0,0,1,41.373,4.91Z"/>
          </g>
        </g>
      </g>
    </g>
  </g>
</svg>
