<svg xmlns="http://www.w3.org/2000/svg" xmlns:xlink="http://www.w3.org/1999/xlink" viewBox="0 0 47.474 57.373">
  <defs>
    <style>
      .cls-1 {
        fill: #fff;
      }

      .cls-2 {
        mask: url(#mask);
      }

      .cls-3 {
        fill: #7d1697;
      }

      .cls-4 {
        mask: url(#mask-2);
      }
    </style>
    <mask id="mask" x="12.497" y="33.639" width="34.977" height="23.734" maskUnits="userSpaceOnUse">
      <g id="mask0_outline" data-name="mask0 outline">
        <g id="Clip_2" data-name="Clip 2">
          <path id="path0_fill" data-name="path0 fill" class="cls-1" d="M12.5,33.639V57.373H47.469V33.639Z"/>
        </g>
      </g>
    </mask>
    <mask id="mask-2" x="0" y="0" width="47.127" height="35.565" maskUnits="userSpaceOnUse">
      <g id="mask1_outline" data-name="mask1 outline">
        <g id="Clip_2-2" data-name="Clip 2">
          <path id="path2_fill" data-name="path2 fill" class="cls-1" d="M.017,0V35.565h47.11V0Z"/>
        </g>
      </g>
    </mask>
  </defs>
  <title>Edades</title>
  <g id="Capa_2" data-name="Capa 2">
    <g id="Capa_1-2" data-name="Capa 1">
      <g>
        <g id="_003-dog-21" data-name="003-dog-21">
          <g class="cls-2">
            <g id="Fill_1" data-name="Fill 1">
              <path id="path1_fill" data-name="path1 fill" class="cls-3" d="M47.4,40.849a1.186,1.186,0,0,0-.711-.685l-2.425-.88L43.058,38.15a2.162,2.162,0,0,0-1.606-.569l-1.918.115a2.1,2.1,0,0,0-1.727,1.07l-2.3,4.274a1.471,1.471,0,0,1-1.318.754c-5.154-.043-13.925-.1-14.769.016a1.73,1.73,0,0,0-.5.144l-.359-.5a3.2,3.2,0,0,1,.014-3.825l3.019-4.118a1.134,1.134,0,0,0,.078-1.236,1.283,1.283,0,0,0-1.127-.639,1.353,1.353,0,0,0-.591.137,1.256,1.256,0,0,0-.458.381l-3.25,4.433a4.942,4.942,0,0,0-.023,5.9l.659.914c-.074.066-.15.134-.228.206a4.182,4.182,0,0,0-1.214,1.966l-.608,2.2a1.106,1.106,0,0,1-.493.646l-1.592.98a.508.508,0,0,0-.248.462l.243,4.1a1.537,1.537,0,0,0,1.573,1.4h.86a1.156,1.156,0,0,0,.866-.381,1.011,1.011,0,0,0,.244-.868,1.706,1.706,0,0,0-.914-1.186l.649-1.306,1.143-.175a5.334,5.334,0,0,0,2.505-1.079c2.077-.369,5.308.427,8.165,1.132a33.377,33.377,0,0,0,5.414,1.054q.083.416.192.828l.232.871a1.545,1.545,0,0,0,1.515,1.111h1.489a1.061,1.061,0,0,0,.846-.411.927.927,0,0,0,.131-.887,2.026,2.026,0,0,0-1.08-1.122c.034-.146.074-.291.119-.434a5.821,5.821,0,0,0,3.132-1.751,5.207,5.207,0,0,0,1.385-3.4.912.912,0,0,0,.565-.243,2.991,2.991,0,0,0,.95-2.558l-.356-2.927,1.172.41a2.568,2.568,0,0,0,3.052-1.046l.724-1.2A1.089,1.089,0,0,0,47.4,40.849ZM17.134,43.914a3.964,3.964,0,0,1,.019-4.736l3.25-4.433a.162.162,0,0,1,.06-.05.184.184,0,0,1,.082-.019.166.166,0,0,1,.151.086.148.148,0,0,1-.01.167l-3.019,4.118a4.18,4.18,0,0,0-.019,4.993l.34.471c-.087.063-.179.131-.276.205Zm29.222-2.619-.724,1.2a1.437,1.437,0,0,1-1.708.585l-1.7-.594-.083-.679a6.12,6.12,0,0,0-.98-2.635.572.572,0,0,0-.759-.165.5.5,0,0,0-.175.713,5.11,5.11,0,0,1,.82,2.2l.579,4.76a1.984,1.984,0,0,1-.494,1.563l-1.412-1.327a.9.9,0,0,1-.287-.71l.4-6.315a.53.53,0,0,0-.517-.548.54.54,0,0,0-.583.486l-.4,6.315a1.9,1.9,0,0,0,.608,1.5l1.166,1.1v.5a4.2,4.2,0,0,1-1.121,2.839,4.637,4.637,0,0,1-1.749,1.185,6.227,6.227,0,0,1,.665-.934l.331-.385a.5.5,0,0,0-.083-.728.576.576,0,0,0-.775.077l-.331.385a7.109,7.109,0,0,0-1.638,3.482.512.512,0,0,0,.314.549l.373.162a.965.965,0,0,1,.482.451H35.185a.454.454,0,0,1-.446-.327l-.232-.871a12.043,12.043,0,0,1-.377-3.96.53.53,0,0,0-.514-.551.541.541,0,0,0-.586.482,13.013,13.013,0,0,0,.052,2.4,35.912,35.912,0,0,1-4.969-1.006,31.957,31.957,0,0,0-7.4-1.261c.046-.069.091-.138.134-.21l.535-.891a.5.5,0,0,0-.209-.705.571.571,0,0,0-.751.2l-.535.891a4.079,4.079,0,0,1-2.906,1.906l-1.431.219a.549.549,0,0,0-.411.292l-1.038,2.089a.49.49,0,0,0,.023.48.557.557,0,0,0,.434.255.687.687,0,0,1,.636.539.02.02,0,0,1-.005.02.024.024,0,0,1-.02.008h-.86a.462.462,0,0,1-.473-.42l-.225-3.806,1.327-.816a2.147,2.147,0,0,0,.956-1.252l.608-2.2a3.159,3.159,0,0,1,.917-1.486c1.5-1.372,2.055-1.507,2.152-1.52.547-.074,6.143-.076,14.6-.006a2.575,2.575,0,0,0,2.312-1.322l2.3-4.274a.989.989,0,0,1,.813-.5l1.918-.115a1.02,1.02,0,0,1,.757.268l.814.764-.193.121a.5.5,0,0,0-.153.718.561.561,0,0,0,.459.231.571.571,0,0,0,.305-.087l.515-.322,2.268.823a.115.115,0,0,1,.071.069A.105.105,0,0,1,46.356,41.294Z"/>
            </g>
          </g>
        </g>
        <g id="_007-dog-17" data-name="007-dog-17">
          <g class="cls-4">
            <g id="Fill_1-2" data-name="Fill 1">
              <path id="path3_fill" data-name="path3 fill" class="cls-3" d="M47.077,4a.707.707,0,0,0-.439-.426l-3.5-1.205-.588-1a1.375,1.375,0,0,0-.92-.646L38.271.045a2.21,2.21,0,0,0-2.264.9L31.1,8.071a2.26,2.26,0,0,1-1.523.94,70.056,70.056,0,0,1-11.232.848,17.418,17.418,0,0,0-5.919.874,15.256,15.256,0,0,0-1.644.652c-.949-.053-6.531-.21-7.371,3.314-.784,3.288,1.682,6.622,2.1,7.158,0,.035,0,.071,0,.106-.059,2.031-.068,2.343-1.543,3.172C1.126,26.732.4,27.63.329,27.727a.674.674,0,0,0-.137.387L0,34.853a.677.677,0,0,0,.2.5.738.738,0,0,0,.518.209H3.754a.732.732,0,0,0,.586-.287.67.67,0,0,0,.1-.624l-.075-.215a2.354,2.354,0,0,0-1.228-1.346c.064-1.418.5-4.067,2.086-4.8a25.5,25.5,0,0,0,2.687-1.439,4.929,4.929,0,0,1,.082,1.92.7.7,0,0,0,.593.8.82.82,0,0,0,.12.009A.714.714,0,0,0,9.415,29a6.547,6.547,0,0,0-.239-2.995c.209-.151.416-.308.621-.47a9.928,9.928,0,0,0,3.5-4.589c.136-.426.5-1.441.566-1.559a2.63,2.63,0,0,1,1.422-1.206,2.8,2.8,0,0,1,2.066.07l7.119,3.151a14.752,14.752,0,0,0,5.711,1.247,20.318,20.318,0,0,1,.237,8.189,2.4,2.4,0,0,0,.224,1.582L31.985,35a.725.725,0,0,0,.646.383h2.888a.728.728,0,0,0,.626-.347.669.669,0,0,0,0-.694l-.283-.465a2.287,2.287,0,0,0-1.218-.964l-.416-1.262.586-9.482a3.411,3.411,0,0,1,.57-1.7,9.844,9.844,0,0,0,1.532-5.831c-.076-3.361,2.25-7.156,2.983-8.266l3.89.216A3.161,3.161,0,0,0,46.6,5.2l.4-.609A.667.667,0,0,0,47.077,4ZM4.819,15.008c.335-1.405,2.078-1.943,3.6-2.141a6.867,6.867,0,0,0-2.488,4.27c-.133.853-.22,1.6-.28,2.269A6.612,6.612,0,0,1,4.819,15.008Zm39.052-9.8-4.308-.24a1.421,1.421,0,0,1-1-.484l-.722-.839a.743.743,0,0,0-1.016-.093.673.673,0,0,0-.1.975l.723.838a2.823,2.823,0,0,0,.936.709c-.993,1.577-3,5.194-2.919,8.6a8.6,8.6,0,0,1-1.3,5.049,4.759,4.759,0,0,0-.8,2.365l-.594,9.609a.661.661,0,0,0,.032.25l.578,1.754a.686.686,0,0,0,.2.3h-.507l-1.141-2.189a1.061,1.061,0,0,1-.1-.7,22.986,22.986,0,0,0-2.012-13.963.735.735,0,0,0-.952-.353.682.682,0,0,0-.368.913,24.848,24.848,0,0,1,1.323,3.554,13.266,13.266,0,0,1-4.751-1.109L17.958,17a4.3,4.3,0,0,0-3.181-.109c.253-.6.407-.916.41-.924a.68.68,0,0,0-.343-.922.736.736,0,0,0-.962.329,40.662,40.662,0,0,0-1.963,5.172c-.351,1.1-1.765,3.936-7.323,6.5-2.982,1.377-2.916,6.336-2.911,6.546a.689.689,0,0,0,.361.587H1.464l.165-5.772A15.8,15.8,0,0,1,4.7,26.331C6.862,25.113,6.89,24.138,6.953,22a34.266,34.266,0,0,1,.4-4.661c.376-2.416,2.241-4.2,5.544-5.3a15.936,15.936,0,0,1,5.412-.8A71.526,71.526,0,0,0,29.8,10.38a3.711,3.711,0,0,0,2.5-1.545L37.212,1.7a.743.743,0,0,1,.706-.309l-.137.142a.673.673,0,0,0,.039.979.744.744,0,0,0,1.02-.038l.732-.758,1.736.347.2.34a.688.688,0,0,0-.419.722.713.713,0,0,0,.715.6.816.816,0,0,0,.1-.006l.665-.085,2.735.942A1.708,1.708,0,0,1,43.871,5.207Z"/>
            </g>
          </g>
        </g>
      </g>
    </g>
  </g>
</svg>
