<svg xmlns="http://www.w3.org/2000/svg" viewBox="0 0 48.342 57.738">
  <defs>
    <style>
      .cls-1 {
        fill: #7d1697;
      }
    </style>
  </defs>
  <title>Experiencia</title>
  <g id="Capa_2" data-name="Capa 2">
    <g id="Capa_1-2" data-name="Capa 1">
      <g>
        <path id="path1_fill" data-name="path1 fill" class="cls-1" d="M11.147,27.44a3.465,3.465,0,0,0-4.287-.572V15.149c0-.572-.286-1.143-.286-1.715h.572a1.844,1.844,0,0,1,1.715,1.715V24.01a.758.758,0,0,0,.857.857.758.758,0,0,0,.857-.857V15.149a3.743,3.743,0,0,0-3.43-3.716,4.131,4.131,0,0,0-2,.572,3.065,3.065,0,0,0-1.715-.572A3.544,3.544,0,0,0,0,15.149V32.013a8.346,8.346,0,0,0,.572,2.572h0l10.29,17.15c.286.286.286,1.143.286,1.715v3.43a.758.758,0,0,0,.857.857.758.758,0,0,0,.857-.857v-3.43a8.346,8.346,0,0,0-.572-2.572h0L2,33.728c-.286-.286-.286-1.143-.286-1.715V15.149A1.844,1.844,0,0,1,3.43,13.434a1.844,1.844,0,0,1,1.715,1.715V30.012h0a3.492,3.492,0,0,0,1.143,2.572l8,8.289a.869.869,0,0,0,1.143,0,1.276,1.276,0,0,0,0-1.429l-8-8.289a2.133,2.133,0,0,1,0-2.572,1.739,1.739,0,0,1,2.287,0l9.718,10a8.108,8.108,0,0,1,2,4.859V55.737a.857.857,0,0,0,1.715,0V43.446a10.285,10.285,0,0,0-2.572-6.288Z"/>
        <path id="path2_fill" data-name="path2 fill" class="cls-1" d="M45.161,11.433A4.063,4.063,0,0,0,43.446,12a4.131,4.131,0,0,0-2-.572,3.476,3.476,0,0,0-3.43,3.43v8.861a.857.857,0,0,0,1.715,0V15.149a1.844,1.844,0,0,1,1.715-1.715h.572a3.625,3.625,0,0,0-.286,1.715v12a4.063,4.063,0,0,0-1.715-.572,3.492,3.492,0,0,0-2.572,1.143l-9.718,10a10.285,10.285,0,0,0-2.572,6.288V56.309a.857.857,0,0,0,1.715,0V44.018c0-1.715.857-4,2-4.859l9.718-10a2.167,2.167,0,0,1,1.143-.572,1.485,1.485,0,0,1,1.143.572,2.167,2.167,0,0,1,.572,1.143,1.485,1.485,0,0,1-.572,1.143l-8,8.289a1.276,1.276,0,0,0,0,1.429.869.869,0,0,0,1.143,0l8-8.289A3.623,3.623,0,0,0,43.161,30.3V15.149a1.715,1.715,0,0,1,3.43,0V32.013c0,.572-.286,1.143-.286,1.715l-10.29,17.15h0a6.826,6.826,0,0,0-.572,2.572v3.43a.857.857,0,0,0,1.715,0v-3.43c0-.572.286-1.143.286-1.715l10.29-17.15h0a6.826,6.826,0,0,0,.572-2.572V15.149A3.169,3.169,0,0,0,45.161,11.433Z"/>
        <path id="path3_fill" data-name="path3 fill" class="cls-1" d="M23.724,7.146A.758.758,0,0,0,22.867,8v9.718a2.572,2.572,0,1,1-5.145,0V8.289a5.935,5.935,0,0,1,6-6.288,6.1,6.1,0,0,1,6,6.288.758.758,0,0,0,.857.857h4.287v2.572A2.562,2.562,0,0,1,32.3,14.292H30.584c-.286,0-.572.286-.572.857V30.3a.857.857,0,1,0,1.715,0V16.007h.857a4.4,4.4,0,0,0,4.287-4.287V8.289a.758.758,0,0,0-.857-.857H31.727a8.523,8.523,0,0,0-2.287-4.859A7.2,7.2,0,0,0,23.724,0a9.077,9.077,0,0,0-5.717,2.287A8.5,8.5,0,0,0,15.721,8V17.15l-3.144,3.716a1.276,1.276,0,0,0,0,1.429h.572c.286,0,.572,0,.572-.286l2.572-2.572a4.3,4.3,0,0,0,4,2.858,4.461,4.461,0,0,0,4.287-4.573V8A.913.913,0,0,0,23.724,7.146Z"/>
      </g>
    </g>
  </g>
</svg>
