<svg xmlns="http://www.w3.org/2000/svg" viewBox="0 0 61.246 51.605">
  <defs>
    <style>
      .cls-1 {
        fill: none;
        stroke: #7d1697;
        stroke-linecap: round;
        stroke-linejoin: round;
        stroke-width: 2.5px;
      }
    </style>
  </defs>
  <title>Mascotas</title>
  <g id="Capa_2" data-name="Capa 2">
    <g id="Capa_1-2" data-name="Capa 1">
      <g>
        <g>
          <path class="cls-1" d="M18.2,27.853s-3.694,3.325-4.064,7.61S7.635,46.1,7.635,46.1l2.66,2.881s.3,1.33-1.256,1.33H6.305a1.623,1.623,0,0,1-1.773-.96,32.54,32.54,0,0,1-1.773-4.581,3.244,3.244,0,0,1,.3-1.995c.517-1.182,2.808-5.394,2.808-5.394s-3.62-6.132-4.137-7.832-.739-5.985,0-7.167,4.581-8.275,4.581-8.275S5.049,7.683,8.744,5.91s9.9-2.512,13.521.3,3.4,6.871,2.66,8.127l-.739,1.256s-1.348,1.589-2.6,1.515c0,0-3.308-.541-2.92-2.813"/>
          <path class="cls-1" d="M9.113,15.164s3.209-6.366,12.3-1.158"/>
          <path class="cls-1" d="M30.059,16.272s-.406-3.546-4.691-3.1"/>
          <path class="cls-1" d="M28.338,13.683s2.109-3.174,9.091-2.066c.443-2.494,2.826-9.7,10.418-9.7s7.37,8.312,7.37,8.312"/>
          <path class="cls-1" d="M52.169,12.338a4.207,4.207,0,0,1,4.821-1.995c3.38.831,2.992,1.995,2.992,1.995s-2.161,5.652-3.1,5.929a26.144,26.144,0,0,1-4.71,0"/>
          <path class="cls-1" d="M40.92,18.156l8.589,8.257a8.059,8.059,0,0,0,5.929-8.023"/>
          <path class="cls-1" d="M14.463,33.751h5.954s7.388,3.633,8.5,3.633h2.438"/>
          <path class="cls-1" d="M30.059,30.587l2.623,14.407s3.1,1.4,3.694,3.1,1.33,2.351,3.473,2.247a36.984,36.984,0,0,1,3.759,0,.762.762,0,0,0,.443-1.323c-.776-1.053-4.017-2.937-4.017-2.937l2.217-9.309a14.543,14.543,0,0,0,6.78-10.823"/>
        </g>
        <path class="cls-1" d="M52.568,5.919V1.365S47.106.375,45.746,4.21s2.476,6.36,2.476,6.36l1.165-4.224"/>
      </g>
    </g>
  </g>
</svg>
