<svg xmlns="http://www.w3.org/2000/svg" viewBox="0 0 55.539 46.095">
  <defs>
    <style>
      .cls-1 {
        fill: #7d1697;
      }
    </style>
  </defs>
  <title>Monto máximo</title>
  <g id="Capa_2" data-name="Capa 2">
    <g id="Capa_1-2" data-name="Capa 1">
      <g>
        <path id="path1_fill" data-name="path1 fill" class="cls-1" d="M55.112,14.511l-2.988-2.134.854-1.707c.854-2.134.427-4.268-1.707-5.122l-2.134-1.28V.854A.918.918,0,0,0,48.284,0c-.427,0-.854,0-.854.427L46.15,2.561H45.3c-2.561,0-5.548.854-7.256,2.988L32.492,11.1a5.081,5.081,0,0,1-4.695,1.28,3.942,3.942,0,0,0,1.28-3.841c-.427-1.707-2.134-3.414-4.695-4.268a16.146,16.146,0,0,0-12.8.854C7.31,6.829,4.323,8.963,3.469,10.67a4.063,4.063,0,0,0-.854,2.988c.427,1.707,2.134,2.988,2.561,3.414a15,15,0,0,0-2.988,3.841C.055,24.755-.8,30.73.908,35a7.634,7.634,0,0,0,3.841,4.268l2.134,4.695c.854.854,1.707,1.707,2.561,1.707h2.561c.427,0,.854,0,.854-.427.854-.427.854-1.28.854-2.134l-.427-.854a3.332,3.332,0,0,0-1.707-1.707l.854-2.134h.854c2.988,0,5.975-.854,9.39.427a24.329,24.329,0,0,0,9.39,1.707l3.414,4.695a3.26,3.26,0,0,0,2.134.854H40.6c.427,0,.854,0,.854-.427.854-.427.854-1.28.854-2.134a5.3,5.3,0,0,0-3.414-2.561h-.427v-1.28h.427c.854,0,.854-.427,1.707-.854a18.545,18.545,0,0,0,8.963-8.109,15.555,15.555,0,0,0,1.707-11.524,9.293,9.293,0,0,0,3.414-2.134l.854-1.707A1.322,1.322,0,0,0,55.112,14.511ZM47.43,3.841v.854l-3.414,6.829a4.063,4.063,0,0,1,.854-2.988ZM4.323,13.231a2.566,2.566,0,0,1,.427-1.707c1.28-1.707,4.695-3.841,7.256-4.695,2.988-.854,7.256-2.134,11.524-.854,2.134.854,3.414,1.707,3.841,2.988s-.854,2.561-1.28,2.988c-1.28-.427-3.841-.854-8.536,3.414-2.561,2.134-5.122,3.414-7.256,2.988-.854,0-1.28-.427-2.134-.854S6.03,15.365,5.176,14.938C4.749,14.085,4.323,14.085,4.323,13.231ZM9.871,42.254c.427.427.427.427.854.427.854,0,.854.427,1.28.854l.427.854H9.871a.918.918,0,0,1-.854-.854L7.31,40.12a9.4,9.4,0,0,0,3.414-.427l-.854,2.134Zm26.889-.427a.918.918,0,0,0,.854.854h.854a3.629,3.629,0,0,1,2.134,1.28H37.187c-.427,0-.854,0-.854-.427L33.772,40.12a7.263,7.263,0,0,0,2.988-.427ZM52.978,16.219c-.854.854-1.707,1.707-2.988,1.707H47.857A2.705,2.705,0,0,0,45.3,20.06c0,.427,0,.854.427.854h.427A.918.918,0,0,0,47,20.06c0-.427.854-.854,1.28-.854h1.707a15.329,15.329,0,0,1-1.28,10.67,17.787,17.787,0,0,1-8.963,7.682,1.49,1.49,0,0,0-.854.427c-2.134.427-9.39,1.28-15.365-.854a12.026,12.026,0,0,0-10.243.427,13.144,13.144,0,0,1-6.829.854A5.708,5.708,0,0,1,3.469,35c-1.28-3.414-.854-8.963.854-12.8a13.6,13.6,0,0,1,2.561-3.414A4.2,4.2,0,0,0,10.3,20.06h.854c2.134,0,4.695-1.28,7.682-3.414,4.695-3.841,7.256-2.988,7.256-2.988h0c2.561,1.707,5.975.854,8.109-.854l5.122-5.548c1.707-1.707,3.414-2.134,5.975-2.134L42.735,7.682c-1.28,2.134-1.28,4.268,0,5.975,0,.427.427.427.854.427s.854,0,.854-.427L48.71,5.975l2.134,1.28c.854.854,1.707,2.134.854,3.414L50.844,12.8c-.427.427,0,.854.427.854l2.988,1.707Z"/>
        <path id="path2_fill" data-name="path2 fill" class="cls-1" d="M48.284,13.231l-1.707.427c-.427,0-.854.854-.854.854a.918.918,0,0,0,.854.854H47l1.707-.427c.427,0,.854-.854.854-.854C48.71,13.658,48.71,13.231,48.284,13.231Z"/>
      </g>
    </g>
  </g>
</svg>
