<svg xmlns="http://www.w3.org/2000/svg" viewBox="0 0 69.985 57.81">
  <defs>
    <style>
      .cls-1 {
        fill: #7d1697;
      }
    </style>
  </defs>
  <title>Detalles Prop</title>
  <g id="Capa_2" data-name="Capa 2">
    <g id="Capa_1-2" data-name="Capa 1">
      <g>
        <path class="cls-1" d="M34.859,15.484c-9.453,0-18.905.01-28.358-.022a7.632,7.632,0,0,1-1.883-.5,7.052,7.052,0,0,1,.591-1.983A25.29,25.29,0,0,1,18,3.12c12.19-4.385,24.345-4.229,36.262.983A23.427,23.427,0,0,1,64.8,12.991a7.253,7.253,0,0,1,.572,1.987,7.792,7.792,0,0,1-1.878.484C53.947,15.493,44.4,15.484,34.859,15.484ZM7.111,13.473H62.6c-.011-.178.014-.285-.028-.346-.128-.188-.281-.359-.424-.537A27.117,27.117,0,0,0,47.46,3.573,46.317,46.317,0,0,0,18.678,4.9,24.923,24.923,0,0,0,7.111,13.473Z"/>
        <path class="cls-1" d="M35.569,36.766c2.5,0,4.855,0,7.213,0a4.583,4.583,0,0,1,1.493.046c.427.155,1.116.128,1.116.92,0,.759-.737.884-1.125.9-2.049.094-4.1.05-6.158.053-.771,0-1.543,0-2.426,0V50.474c.993,0,1.943-.029,2.889.006a3.373,3.373,0,0,1,3.2,3.268A1.517,1.517,0,0,1,40.727,54.8c-4.06.076-8.121.055-12.182.039-.818,0-1.092-.512-1.022-1.284a3.4,3.4,0,0,1,3.256-3.078c.906-.029,1.813-.005,2.82-.005V38.688H30.262c-1.688,0-3.381.066-5.062-.044-.493-.032-1.294-.508-1.361-.885-.171-.969.7-.982,1.4-.986,2.282-.012,4.563-.006,6.845-.006H33.7V35.133q0-8.419,0-16.838a2.875,2.875,0,0,1,.083-1.212c.17-.337.617-.757.922-.741s.658.5.821.85a2.788,2.788,0,0,1,.041,1.082q0,8.419,0,16.838ZM29.861,52.883h9.7C38.222,52.05,30.829,52.113,29.861,52.883Z"/>
        <path class="cls-1" d="M35,57.779q-16.5,0-33.006,0A3.044,3.044,0,0,1,.781,57.72,1.5,1.5,0,0,1,0,56.8c-.04-.215.43-.641.753-.773a3.36,3.36,0,0,1,1.217-.078q33.006,0,66.013.012c.782,0,2.036-.375,2,.949-.033,1.164-1.208.854-1.974.855Q51.507,57.791,35,57.779Z"/>
        <path class="cls-1" d="M46.4,43.8a8.55,8.55,0,0,1-2.075-.039c-.458-.128-1.221.044-1.221-.931,0-.719.8-.8,1.208-.813,2.142-.084,4.288-.043,6.433-.044,1.552,0,3.1-.033,4.654.013.777.023,1.1-.268,1.324-1.019C57.915,36.9,59.169,32.855,60.4,28.8c.2-.663.356-1.484,1.284-1.235,1.039.278.682,1.09.468,1.8-1.223,4.055-2.477,8.1-3.628,12.178a5.287,5.287,0,0,0-.043,2.616c.77,3.046,1.679,6.056,2.529,9.082.188.668.427,1.445-.5,1.708-.946.27-1.12-.557-1.307-1.209-.854-2.977-1.715-5.953-2.51-8.946a1.12,1.12,0,0,0-1.311-1.008c-1.961.051-3.925.054-5.886,0a1.21,1.21,0,0,0-1.427,1.05c-.84,2.933-1.763,5.843-2.681,8.753a2.621,2.621,0,0,1-.643,1.153.972.972,0,0,1-.95-.017,1.654,1.654,0,0,1-.282-1.213c.555-2.019,1.2-4.013,1.807-6.019C45.67,46.327,46,45.159,46.4,43.8Z"/>
        <path class="cls-1" d="M22.929,43.8c.931,3.047,1.822,5.958,2.71,8.87.106.349.338.728.272,1.043a4.667,4.667,0,0,1-.634,1.192c-.359-.208-.886-.332-1.043-.642a13.8,13.8,0,0,1-.738-2.2c-.843-2.737-1.682-5.476-2.538-8.264-2.461,0-4.834-.04-7.2.043a1.509,1.509,0,0,0-1.021.921c-.908,2.963-1.734,5.951-2.58,8.933-.19.671-.35,1.492-1.274,1.248-1.02-.269-.693-1.081-.489-1.8.87-3.07,1.756-6.137,2.557-9.225a4.189,4.189,0,0,0-.021-2.109c-1.2-4.162-2.494-8.294-3.675-12.46-.148-.521.023-1.559.343-1.7.964-.437,1.167.476,1.38,1.181,1.187,3.927,2.419,7.841,3.527,11.791A1.6,1.6,0,0,0,14.4,42c3.424-.07,6.85-.032,10.276-.019.669,0,1.522-.1,1.543.893s-.8.923-1.494.928C24.182,43.805,23.64,43.8,22.929,43.8Z"/>
      </g>
    </g>
  </g>
</svg>
