<svg xmlns="http://www.w3.org/2000/svg" viewBox="0 0 57.59 57.738">
  <defs>
    <style>
      .cls-1 {
        fill: #7d1697;
      }
    </style>
  </defs>
  <title>Propiedad</title>
  <g id="Capa_2" data-name="Capa 2">
    <g id="Capa_1-2" data-name="Capa 1">
      <g>
        <path id="path0_fill" data-name="path0 fill" class="cls-1" d="M28.507,37.818c-3.464,0-6.351,2.6-6.351,5.774,0,1.732.866,2.6,2.31,2.6.577,0,1.443-.289,2.31-.289.577,0,1.155-.289,1.732-.289a3.139,3.139,0,0,1,1.443.289,6.357,6.357,0,0,0,2.31.289,2.125,2.125,0,0,0,2.31-2.31A5.92,5.92,0,0,0,28.507,37.818Zm4.042,6.351H32.26c-.577,0-1.155-.289-1.732-.289a4.913,4.913,0,0,0-2.021-.289c-.577,0-1.443.289-2.021.289s-1.155.289-1.732.289h-.289v-.289c0-2.021,2.021-3.753,4.33-3.753s4.33,1.732,4.33,3.753C32.548,43.881,32.548,44.17,32.548,44.17Z"/>
        <path id="path1_fill" data-name="path1 fill" class="cls-1" d="M25.331,36.086a2.939,2.939,0,0,0-2.6-3.176,2.939,2.939,0,0,0-2.6,3.176,2.939,2.939,0,0,0,2.6,3.176A2.939,2.939,0,0,0,25.331,36.086Zm-3.464,0c0-.577.289-1.155.577-1.155s.577.577.577,1.155-.289,1.155-.577,1.155S21.867,36.664,21.867,36.086Z"/>
        <path id="path2_fill" data-name="path2 fill" class="cls-1" d="M28.507,37.241a2.939,2.939,0,0,0,2.6-3.176,2.939,2.939,0,0,0-2.6-3.176,2.939,2.939,0,0,0-2.6,3.176A2.939,2.939,0,0,0,28.507,37.241Zm0-4.33c.289,0,.577.577.577,1.155s-.289,1.155-.577,1.155-.577-.577-.577-1.155S28.218,32.911,28.507,32.911Z"/>
        <path id="path3_fill" data-name="path3 fill" class="cls-1" d="M34.569,32.911a2.939,2.939,0,0,0-2.6,3.176,2.939,2.939,0,0,0,2.6,3.176,2.939,2.939,0,0,0,2.6-3.176A2.756,2.756,0,0,0,34.569,32.911Zm0,4.33c-.289,0-.577-.577-.577-1.155s.289-1.155.577-1.155.577.577.577,1.155A.852.852,0,0,1,34.569,37.241Z"/>
        <path id="path4_fill" data-name="path4 fill" class="cls-1" d="M56.51,19.631,30.816.577A4.172,4.172,0,0,0,28.8,0h0a4.172,4.172,0,0,0-2.021.577L1.081,19.631A3.5,3.5,0,0,0,.5,23.961l2.021,2.887A2.814,2.814,0,0,0,5.123,28a2.6,2.6,0,0,0,1.443-.289V54.562a3.2,3.2,0,0,0,3.176,3.176H47.849a3.2,3.2,0,0,0,3.176-3.176V27.714A2.6,2.6,0,0,0,52.468,28a4.3,4.3,0,0,0,2.6-1.155l2.021-2.887A3.5,3.5,0,0,0,56.51,19.631ZM47.849,55.717H9.742a1.242,1.242,0,0,1-1.155-1.155V26.271L28.8,11.548,49,26.56V54.851A1.289,1.289,0,0,1,47.849,55.717Zm7.506-32.911-2.021,2.887c-.289.289-.577.577-.866.577s-.577,0-.577-.289L29.661,9.527c-.289,0-.289-.289-.577-.289s-.289,0-.577.289L5.989,25.982c-.289,0-.577.289-.866.289s-.577-.289-.866-.577L2.236,22.807a.952.952,0,0,1,0-1.443L27.929,2.31a1.443,1.443,0,0,1,1.732,0L55.355,21.363A.952.952,0,0,1,55.355,22.807Z"/>
        <path id="path5_fill" data-name="path5 fill" class="cls-1" d="M36.3,24.25A10.483,10.483,0,0,0,28.8,27.426a10.483,10.483,0,0,0-7.506-3.176,10.041,10.041,0,0,0-10.1,10.1,12.462,12.462,0,0,0,2.887,7.795,23.351,23.351,0,0,0,6.062,5.774,65.232,65.232,0,0,0,8.372,5.2h.577a36.791,36.791,0,0,0,8.661-4.908,23.351,23.351,0,0,0,6.063-5.774,15.323,15.323,0,0,0,2.887-8.083A10.686,10.686,0,0,0,36.3,24.25ZM28.8,51.387c-2.31-1.155-15.589-8.083-15.589-16.744a8.136,8.136,0,0,1,8.372-8.083,8.631,8.631,0,0,1,6.64,3.176,1.061,1.061,0,0,0,.866.289c.289,0,.577-.289.866-.289a8.212,8.212,0,0,1,6.64-3.176,8.322,8.322,0,0,1,8.372,8.083C44.385,44.17,31.393,50.232,28.8,51.387Z"/>
      </g>
    </g>
  </g>
</svg>
