<svg xmlns="http://www.w3.org/2000/svg" viewBox="0 0 55.214 55.214">
  <defs>
    <style>
      .cls-1 {
        fill: #fff;
      }

      .cls-2 {
        fill: #7ad2c4;
      }

      .cls-3 {
        fill: #cffbf2;
      }

      .cls-4 {
        fill: #b1f8e7;
      }

      .cls-5 {
        fill: #333;
      }
    </style>
  </defs>
  <title>RESERVAR</title>
  <g id="Capa_2" data-name="Capa 2">
    <g id="Capa_1-2" data-name="Capa 1">
      <g>
        <rect class="cls-1" x="1.534" y="19.351" width="52.042" height="34.25"/>
        <polygon class="cls-2" points="19.7 33.497 25.138 32.434 27.621 27.934 30.388 32.622 36.038 33.809 32.214 37.753 33.075 43.372 27.555 40.747 22.075 43.372 22.992 37.753 19.7 33.497"/>
        <rect class="cls-3" x="1.534" y="6.018" width="52.042" height="12"/>
        <rect class="cls-4" x="7.7" y="1.622" width="3" height="10.219"/>
        <rect class="cls-4" x="26.121" y="1.622" width="3" height="10.219"/>
        <rect class="cls-4" x="44.558" y="1.622" width="3" height="10.219"/>
        <path class="cls-5" d="M51.548,4.314H49.391V3.235a3.235,3.235,0,0,0-6.47,0V4.314H30.842V3.235a3.235,3.235,0,0,0-6.47,0V4.314H12.294V3.235a3.235,3.235,0,1,0-6.47,0V4.314H3.667A3.671,3.671,0,0,0,0,7.98V51.548a3.671,3.671,0,0,0,3.667,3.667H51.548a3.671,3.671,0,0,0,3.667-3.667V7.98A3.671,3.671,0,0,0,51.548,4.314Zm-6.47-1.078a1.078,1.078,0,0,1,2.157,0v7.117a1.078,1.078,0,0,1-2.157,0Zm-18.548,0a1.078,1.078,0,1,1,2.157,0v7.117a1.078,1.078,0,1,1-2.157,0Zm-18.548,0a1.078,1.078,0,1,1,2.157,0v7.117a1.078,1.078,0,1,1-2.157,0ZM3.667,6.47H5.823v3.882a3.235,3.235,0,1,0,6.47,0V6.47H24.372v3.882a3.235,3.235,0,1,0,6.47,0V6.47H42.92v3.882a3.235,3.235,0,1,0,6.47,0V6.47h2.157a1.512,1.512,0,0,1,1.51,1.51v9.706H2.157V7.98A1.512,1.512,0,0,1,3.667,6.47ZM51.548,53.057H3.667a1.512,1.512,0,0,1-1.51-1.51v-31.7h50.9v31.7A1.512,1.512,0,0,1,51.548,53.057Z"/>
        <path class="cls-5" d="M33.457,38.134l4.271-4.163a1.079,1.079,0,0,0-.6-1.84l-5.9-.858-2.64-5.349a1.079,1.079,0,0,0-1.934,0l-2.64,5.349-5.9.858a1.079,1.079,0,0,0-.6,1.84l4.271,4.163-1.008,5.879a1.079,1.079,0,0,0,1.565,1.137l5.28-2.776L32.9,45.15a1.079,1.079,0,0,0,1.565-1.137Zm-1.912-1.148a1.079,1.079,0,0,0-.31.954l.735,4.284L28.123,40.2a1.079,1.079,0,0,0-1,0l-3.847,2.022.735-4.284a1.079,1.079,0,0,0-.31-.954l-3.113-3.034,4.3-.625a1.079,1.079,0,0,0,.812-.59l1.924-3.9,1.923,3.9a1.079,1.079,0,0,0,.812.59l4.3.625Z"/>
        <path class="cls-5" d="M27.59,44.62h-.007a1.079,1.079,0,0,0-1.071,1.086l.017,2.614a1.078,1.078,0,0,0,1.078,1.071h.007a1.079,1.079,0,0,0,1.072-1.086l-.017-2.614A1.079,1.079,0,0,0,27.59,44.62Z"/>
        <path class="cls-5" d="M39.839,38.643l-2.564-.837a1.078,1.078,0,0,0-.669,2.05l2.563.837a1.078,1.078,0,1,0,.669-2.05Z"/>
        <path class="cls-5" d="M21.041,28.6a1.078,1.078,0,1,0,1.745-1.268l-1.66-2.284a1.078,1.078,0,1,0-1.745,1.268Z"/>
        <path class="cls-5" d="M17.931,37.807l-2.556.837a1.078,1.078,0,0,0,.671,2.05l2.556-.837a1.078,1.078,0,1,0-.671-2.05Z"/>
        <path class="cls-5" d="M32.657,28.838a1.078,1.078,0,0,0,1.507-.235l1.667-2.284a1.079,1.079,0,0,0-1.742-1.272l-1.667,2.284A1.079,1.079,0,0,0,32.657,28.838Z"/>
      </g>
    </g>
  </g>
</svg>
