<svg xmlns="http://www.w3.org/2000/svg" viewBox="0 0 57.8 57.77">
  <defs>
    <style>
      .cls-1 {
        fill: #7d1697;
      }
    </style>
  </defs>
  <title>Tamaños</title>
  <g id="Capa_2" data-name="Capa 2">
    <g id="Capa_1-2" data-name="Capa 1">
      <g>
        <path class="cls-1" d="M9.239,42.351a8.761,8.761,0,0,1-.618-5.215,8.577,8.577,0,0,1,3.793-5.907c4.16-2.6,8.376-5.109,12.571-7.653.6-.362,1.2-.713,1.982-1.176a5.714,5.714,0,0,0-.788-.3,5.827,5.827,0,0,1-4.808-5.061c-.29-2.454.114-4.629,2.16-6.329,1.2-.994,2.225-2.189,3.329-3.292a5.7,5.7,0,0,1,4.284-1.77c2.081.033,4.164.01,6.246.007a5.3,5.3,0,0,1,3.858,1.592c.766.752,1.52,1.516,2.285,2.269a5.557,5.557,0,0,0,4.059,1.606,14.86,14.86,0,0,1,1.851.043c1.133.144,1.97,1.2,1.555,2.132-1.042,2.345-2.086,4.782-4.525,6.03a9.877,9.877,0,0,1-3.518.928c-1.644.154-3.313.039-5.115.039,0,1.213-.023,2.4.022,3.586.007.2.293.4.477.572a9.077,9.077,0,0,1-.765,14.365,1.64,1.64,0,0,0-.544.922c-.167.823-.237,1.666-.355,2.572l1.188.4a5.175,5.175,0,0,1,2.767,2.2,1.813,1.813,0,0,1-1.554,2.9c-2.212.029-4.424.018-6.636,0a1.773,1.773,0,0,1-1.93-1.951c-.022-1.4,0-2.8-.008-4.2,0-.349-.03-.7-.045-1.025-2.743-.548-3.853-.02-4.476,1.947a22.864,22.864,0,0,1,2.295,2.421,1.744,1.744,0,0,1-1.52,2.8q-11.467.029-22.935,0a2.726,2.726,0,1,1,.085-5.451C5.628,42.336,7.35,42.351,9.239,42.351ZM32.328,7.52c0,3.017.009,5.943,0,8.868a5.329,5.329,0,0,1-2.911,5.039,1.15,1.15,0,0,0-.758,1.35,1.073,1.073,0,0,1-.7,1.216c-1.452.8-2.882,1.635-4.3,2.489-3.369,2.027-6.769,4.007-10.075,6.131a7.264,7.264,0,0,0,3.225,13.291c2.327.195,4.678.1,7.019.12.926.01,1.853,0,2.9,0-.767-1.493-2.247-1.682-3.426-2.416a9.4,9.4,0,0,0,1.65-5.138,7.663,7.663,0,0,0-2.119-5.037l1.276-1.229a9.31,9.31,0,0,1,2.721,6.61l3.619-.252.118-1.656h1.793v9.045H39.05c-1-1.8-2.807-1.655-4.412-2.023.187-1.542.422-2.985.519-4.437A2.749,2.749,0,0,1,36.5,37.24c3.665-2.616,4.413-7.495,1.326-10.485a5.774,5.774,0,0,1-1.856-5.218c.035-.354-.026-.719.012-1.072a1.986,1.986,0,0,0-.624-1.636,12.862,12.862,0,0,1-1.248-2.02l.327-.367c.614.21,1.448.239,1.8.666a3.384,3.384,0,0,0,2.746,1.4c.943.008,1.891-.057,2.829.013,3.119.231,5.261-1.086,6.492-4.124-.153-.119-.486-.25-.594-.484-.408-.887-1.22-.944-2.005-1.22A12.322,12.322,0,0,1,42.622,11.1c-.913-.657-1.591-1.634-2.479-2.337a4.862,4.862,0,0,0-2.261-1.19C36.088,7.4,34.264,7.52,32.328,7.52Zm-1.9-.207a16.212,16.212,0,0,0-2.231,1.4c-1.136,1.014-2.092,2.24-3.272,3.192a5.019,5.019,0,0,0-1.741,4.962,3.627,3.627,0,0,0,2.36,3.187,3.515,3.515,0,0,0,3.793-.778A4.085,4.085,0,0,0,30.505,16c0-2.5,0-5,0-7.5C30.5,8.215,30.467,7.932,30.425,7.313ZM11.836,46.025l.121-.21a15.123,15.123,0,0,0-1.26-1.174,2.087,2.087,0,0,0-1.081-.479c-1.814-.048-3.629-.022-5.445-.021-.612,0-1.129.181-1.161.887-.035.772.509.99,1.156.993C6.723,46.031,9.279,46.025,11.836,46.025Z"/>
        <path class="cls-1" d="M39.243,12.937a1.342,1.342,0,1,1-.086-2.683,1.342,1.342,0,1,1,.086,2.683Z"/>
        <path class="cls-1" d="M56.3,45.029c1.665.474,1.862.955,1,2.461-.392.684-.755,1.391-1.209,2.033a1.081,1.081,0,0,1-1.941,0c-.431-.612-.769-1.29-1.143-1.942-.924-1.614-.768-2.043.952-2.57V5.09c-1.689-.472-1.877-.941-1.008-2.465.353-.62.69-1.252,1.076-1.851.669-1.037,1.528-1.032,2.2.019.425.664.8,1.36,1.184,2.049.728,1.3.453,1.857-1.112,2.177Q56.3,25.013,56.3,45.029Z"/>
        <path class="cls-1" d="M45.044,53.917c.452-1.6,1.017-1.821,2.5-.964.683.4,1.388.76,2.03,1.214a1.085,1.085,0,0,1-.03,1.941c-.655.436-1.362.794-2.051,1.178-1.516.844-2.018.636-2.457-1.034H5.12c-.461,1.666-.96,1.875-2.458,1.043-.591-.328-1.185-.652-1.761-1.006-1.185-.728-1.2-1.6-.045-2.317.637-.4,1.29-.77,1.948-1.134,1.3-.716,1.909-.427,2.233,1.079Z"/>
      </g>
    </g>
  </g>
</svg>
