<svg xmlns="http://www.w3.org/2000/svg" viewBox="0 0 120 120">
  <defs>
    <style>
      .cls-1 {
        fill: #fff;
      }

      .cls-2 {
        fill: #cffbf2;
      }

      .cls-3 {
        fill: #00d2c6;
      }

      .cls-4 {
        fill: none;
      }
    </style>
  </defs>
  <title>Km_Certificado</title>
  <g id="Capa_2" data-name="Capa 2">
    <g id="Capa_1-2" data-name="Capa 1">
      <g>
        <path class="cls-1" d="M60,8.822l42.253,19.5v34.5s1.954,32.833-41.938,48.833C27.421,95.822,18.421,81.489,18.421,60.239V27.989Z"/>
        <g id="surface1">
          <circle class="cls-2" cx="60" cy="59" r="28.625"/>
          <polygon class="cls-1" points="55.812 55.375 60.875 45.375 65.375 56.125 75.687 56.125 66.375 63.688 70.375 76.25 59.125 68.688 50 74.75 52.562 63.5 44.937 55.813 55.812 55.375"/>
          <path class="cls-2" d="M92,25.471V59.162A48.97,48.97,0,0,1,82.75,84.75,49.523,49.523,0,0,1,60.5,101.625,48.88,48.88,0,0,1,46,104.667L57.5,110a21.233,21.233,0,0,0,13.25-3.25c7-4.25,18.75-10.25,24.5-23s7-20.75,7-29-1.5-27.585-1.5-27.585Z"/>
          <path class="cls-3" d="M65.811,53.162,61.9,41.129a2,2,0,0,0-3.8,0L54.189,53.162H41.535A2,2,0,0,0,40.36,56.78L50.6,64.217,46.691,76.251a2,2,0,0,0,3.078,2.236L60,71.05l10.237,7.437a2,2,0,0,0,3.078-2.236L69.4,64.217,79.634,56.78a2,2,0,0,0-1.169-3.618Zm.066,8.673a2,2,0,0,0-.726,2.237L67.6,71.633l-6.423-4.672a2,2,0,0,0-2.352,0L52.4,71.633l2.456-7.561a2,2,0,0,0-.727-2.237l-6.439-4.673H55.64a2,2,0,0,0,1.9-1.382L60,48.218l2.458,7.562a2,2,0,0,0,1.9,1.382h7.948Z"/>
          <path class="cls-2" d="M4.125,47.5h13S18,71.75,18.875,72.875L19.75,74H3L9.875,60.813Z"/>
          <path class="cls-2" d="M116.125,47.5h-13s-.875,24.25-1.75,25.375L100.5,74h16.75l-6.875-13.187Z"/>
          <path class="cls-3" d="M60,27.165a32,32,0,1,0,32,32A32,32,0,0,0,60,27.165Zm0,60a28,28,0,1,1,28-28A28,28,0,0,1,60,87.16Z"/>
          <path class="cls-3" d="M112.3,61.162l7.432-13a2,2,0,0,0-1.736-3H104V27.854a2,2,0,0,0-1.166-1.818l-42-19.249a2,2,0,0,0-1.668,0l-42,19.249A2,2,0,0,0,16,27.854V45.163H2a2,2,0,0,0-1.736,3l7.433,13-7.433,13a2,2,0,0,0,1.736,3H18.957A52.21,52.21,0,0,0,46.4,107.36l12.773,5.853a2,2,0,0,0,1.668,0L73.6,107.36a52.208,52.208,0,0,0,27.444-30.2H118a2,2,0,0,0,1.736-3ZM5.45,73.161l6.289-11a2,2,0,0,0,0-1.984L5.45,49.163H16V60a51.651,51.651,0,0,0,1.734,13.159Zm66.491,30.565L60,109.2l-11.943-5.473A48.224,48.224,0,0,1,20,60V29.138L60,10.8l40,18.333V60A48.223,48.223,0,0,1,71.941,103.726Zm30.321-30.565A51.6,51.6,0,0,0,104,60V49.163H114.55l-6.289,11a2,2,0,0,0,0,1.984l6.289,11.014Z"/>
        </g>
        <rect class="cls-4" width="120" height="120"/>
      </g>
    </g>
  </g>
</svg>
