<svg xmlns="http://www.w3.org/2000/svg" viewBox="0 0 120 120">
  <defs>
    <style>
      .cls-1, .cls-8 {
        fill: none;
      }

      .cls-2 {
        fill: #cffbf2;
      }

      .cls-3, .cls-5 {
        fill: #00d2c6;
      }

      .cls-4, .cls-6 {
        fill: #fff;
      }

      .cls-5, .cls-6, .cls-8 {
        stroke: #00d2c6;
        stroke-miterlimit: 10;
        stroke-width: 3px;
      }

      .cls-7 {
        fill: #b1f8e7;
      }

      .cls-8 {
        stroke-linecap: round;
      }
    </style>
  </defs>
  <title>Km_Fotografía</title>
  <g id="Capa_2" data-name="Capa 2">
    <g id="Capa_1-2" data-name="Capa 1">
      <g>
        <rect class="cls-1" width="120" height="120"/>
        <g>
          <path class="cls-2" d="M18.531,32h88.636a0,0,0,0,1,0,0V98.854a2.646,2.646,0,0,1-2.646,2.646H18.531a0,0,0,0,1,0,0V32A0,0,0,0,1,18.531,32Z"/>
          <path class="cls-3" d="M116.518,30.645H17.069a1.775,1.775,0,0,0-1.776,1.776v78.138a1.775,1.775,0,0,0,1.776,1.776h99.448a1.775,1.775,0,0,0,1.776-1.776V32.421A1.775,1.775,0,0,0,116.518,30.645Zm-1.776,78.138h-95.9V34.2h95.9Z"/>
          <rect class="cls-4" x="1.762" y="18.333" width="99.238" height="55.244"/>
          <rect class="cls-1" x="1.762" y="18.333" width="99.238" height="77.695"/>
          <polygon class="cls-2" points="2.167 95.167 2.167 73.578 44.462 35.945 55.333 45.167 72.793 25.333 101 49.112 101 96.029 1.762 96.029 2.167 95.167"/>
          <path class="cls-3" d="M101.231,16.411H1.783A1.775,1.775,0,0,0,.007,18.187V96.325A1.775,1.775,0,0,0,1.783,98.1h99.448a1.775,1.775,0,0,0,1.776-1.776V18.187A1.775,1.775,0,0,0,101.231,16.411ZM99.455,94.549H3.559V19.963h95.9Z"/>
          <path class="cls-3" d="M18.531,45.835a9.89,9.89,0,1,0-9.89-9.89A9.9,9.9,0,0,0,18.531,45.835Zm0-16.228a6.338,6.338,0,1,1-6.338,6.34A6.346,6.346,0,0,1,18.531,29.607Z"/>
          <path class="cls-3" d="M2.065,75.133a1.771,1.771,0,0,0,1.172-.442l41.9-36.7,13.4,13.394a1.776,1.776,0,1,0,2.511-2.511L57.4,45.234l16.3-17.855L99.512,51.006a1.776,1.776,0,1,0,2.4-2.619L74.793,23.558a1.832,1.832,0,0,0-1.279-.465,1.779,1.779,0,0,0-1.232.577L54.889,42.719,46.466,34.3a1.778,1.778,0,0,0-2.429-.078L.891,72.023a1.776,1.776,0,0,0,1.174,3.11Z"/>
          <g>
            <path class="cls-5" d="M87.917,73.361l-6.39-12.008c-.437-.821-5.408-1.605-4.679-2.072,6.6-4.222,5.153-3.452,6.6-4.222h0a4.654,4.654,0,0,1,6.294,1.922l6.39,12.009a4.654,4.654,0,0,1-1.922,6.294h0A4.654,4.654,0,0,1,87.917,73.361Z"/>
            <path class="cls-5" d="M33.32,73.361l6.39-12.008c.437-.821,5.408-1.605,4.679-2.072-6.6-4.222-5.153-3.452-6.6-4.222h0a4.654,4.654,0,0,0-6.294,1.922L25.1,68.989a4.654,4.654,0,0,0,1.922,6.294h0A4.654,4.654,0,0,0,33.32,73.361Z"/>
            <path class="cls-6" d="M89.776,85.094c0,2.931-.918,10.935-.918,10.935H32.322s-.848-8.12-.848-10.935c0-18.759,13.051-33.967,29.151-33.967S89.776,66.334,89.776,85.094Z"/>
            <path class="cls-7" d="M41.641,94.521S38.464,56.351,60,52.583C53.441,52.166,28.5,60,33.687,94.563,40.21,94.563,41.641,94.521,41.641,94.521Z"/>
            <rect class="cls-3" x="47.19" y="69.483" width="2.535" height="4.88" rx="0.661" ry="0.661"/>
            <rect class="cls-3" x="71.525" y="69.483" width="2.535" height="4.88" rx="0.661" ry="0.661"/>
            <path class="cls-8" d="M54.33,79.36l.94.695a4.313,4.313,0,0,0,5.481-.294h0l.077.063a4.313,4.313,0,0,0,5.627-.156l.338-.307"/>
            <path class="cls-3" d="M63.35,73.729l-2.556.634-2.556-.634a1.12,1.12,0,0,1-1.12-1.12h0a1.12,1.12,0,0,1,1.12-1.12H63.35a1.12,1.12,0,0,1,1.12,1.12h0A1.12,1.12,0,0,1,63.35,73.729Z"/>
          </g>
        </g>
      </g>
    </g>
  </g>
</svg>
