<svg xmlns="http://www.w3.org/2000/svg" viewBox="0 0 120 120.071">
  <defs>
    <style>
      .cls-1 {
        fill: none;
      }

      .cls-2 {
        fill: #cffbf2;
      }

      .cls-3 {
        fill: #b1f8e7;
      }

      .cls-4 {
        fill: #fff;
      }

      .cls-5 {
        fill: #00d2c6;
      }
    </style>
  </defs>
  <title>Km_Veterinario_1</title>
  <g id="Capa_2" data-name="Capa 2">
    <g id="Capa_1-2" data-name="Capa 1">
      <g>
        <rect class="cls-1" width="120" height="120"/>
        <path class="cls-2" d="M71.312,100.976S81.664,88.432,86.966,82.743c2.831-3.038,4.155-7.114,1.738-10.49s-7.639-4.756-10.49-1.738c-5.433,5.751-18.18,21.062-18.18,21.062"/>
        <path class="cls-3" d="M88.7,72.253a8.313,8.313,0,0,0-3.163-2.617L64.192,95.043l7.12,5.933S81.664,88.432,86.966,82.743C89.8,79.705,91.121,75.63,88.7,72.253Z"/>
        <path class="cls-2" d="M84.47,100.976s10.352-12.544,15.654-18.233c2.831-3.038,4.155-7.114,1.738-10.49s-7.639-4.756-10.49-1.738c-5.433,5.751-18.18,21.062-18.18,21.062"/>
        <path class="cls-3" d="M101.862,72.253a8.156,8.156,0,0,0-2.15-2.049l-21.5,25.553,6.263,5.219s10.352-12.544,15.654-18.233C102.956,79.705,104.279,75.63,101.862,72.253Z"/>
        <path class="cls-4" d="M115.162,82.038c-5.3,5.689-15.654,18.233-15.654,18.233l-34.5,17.251a7.519,7.519,0,0,1-6.28.2L26.2,104.031H1.762V83.354s9.4-11.278,30.076-11.278c13.158,0,20.677,7.519,20.677,7.519l23.708,5.979a7.518,7.518,0,0,1,5.189,6.017l6.817-.718s12.746-15.311,18.18-21.062c2.851-3.019,8.073-1.639,10.49,1.738S117.994,79,115.162,82.038Z"/>
        <path class="cls-2" d="M116.9,71.548a8.222,8.222,0,0,0-2.468-2.248c.514,2.713-.761,5.574-2.885,7.852-5.3,5.689-15.654,18.233-15.654,18.233l-30.887,16.5a7.519,7.519,0,0,1-6.28.2L26.2,98.392H1.762v5.639H26.2l32.528,13.7a7.519,7.519,0,0,0,6.28-.2l34.5-17.251s10.352-12.544,15.654-18.233C117.994,79,119.317,74.925,116.9,71.548Z"/>
        <path class="cls-2" d="M60.034,8c-29.8-19.284-43.513,10.99-33.309,26.3A127.2,127.2,0,0,0,60.034,67.6,127.2,127.2,0,0,0,93.343,34.3C103.547,18.989,89.837-11.285,60.034,8Z"/>
        <path class="cls-3" d="M79.629,1.851C90.148,7.287,93.172,22.8,86.764,32.416A128.5,128.5,0,0,1,55.457,64.361c2.826,2.129,4.576,3.243,4.576,3.243A127.2,127.2,0,0,0,93.342,34.3C100.934,22.908,95.289,3.237,79.629,1.851Z"/>
        <g>
          <path class="cls-4" d="M47.346,40.777a12.688,12.688,0,1,1,25.376,0c0,7.007-5.681,9.869-12.688,9.869S47.346,47.784,47.346,40.777Z"/>
          <path class="cls-4" d="M48.755,19.63c0-2.336,1.894-5.639,4.229-5.639s4.229,3.3,4.229,5.639a4.229,4.229,0,0,1-8.459,0Z"/>
          <path class="cls-4" d="M62.854,19.63c0-2.336,1.893-5.639,4.229-5.639s4.229,3.3,4.229,5.639a4.229,4.229,0,0,1-8.459,0Z"/>
          <path class="cls-4" d="M74.132,28.089c0-2.336,1.893-5.639,4.229-5.639s4.229,3.3,4.229,5.639a4.229,4.229,0,0,1-8.459,0Z"/>
          <path class="cls-4" d="M37.477,28.089c0-2.336,1.894-5.639,4.229-5.639s4.229,3.3,4.229,5.639a4.229,4.229,0,0,1-8.459,0Z"/>
        </g>
        <path class="cls-2" d="M81.106,89.07q-.046.18-.1.36a7.519,7.519,0,0,1-9.417,4.938l-19.228-5.3H37.086v3.76H52.358l19.228,5.3a7.518,7.518,0,0,0,9.52-9.057Z"/>
        <path class="cls-5" d="M118.333,70.522a10.075,10.075,0,0,0-7.314-4.122,7.249,7.249,0,0,0-5.891,2.2c-.618.654-1.326,1.426-2.1,2.282A10.079,10.079,0,0,0,95.981,67.1a7.251,7.251,0,0,0-5.891,2.2c-.258.273-.534.57-.822.882A10.061,10.061,0,0,0,82.823,67.1a7.25,7.25,0,0,0-5.891,2.2c-2.173,2.3-5.715,6.332-10.524,11.976L53.385,78a32.719,32.719,0,0,0-21.548-7.683C10.58,70.313.814,81.739.408,82.225A1.779,1.779,0,0,0,.487,84.57a1.78,1.78,0,0,0,2.629-.088c.089-.106,9.1-10.644,28.722-10.644a29.3,29.3,0,0,1,19.433,7,1.787,1.787,0,0,0,.813.46l23.658,5.966a5.757,5.757,0,0,1-3.473,10.977l-.057-.017-19.229-5.3a1.812,1.812,0,0,0-.468-.064H37.477a1.762,1.762,0,0,0,0,3.524h14.8l18.972,5.225a9.281,9.281,0,0,0,12.006-8.451l5.159-.543A1.763,1.763,0,0,0,89.584,92c.127-.153,12.773-15.335,18.107-20.98,2.217-2.347,6.175-.684,7.777,1.553,2.462,3.439-.6,7.194-1.594,8.263C108.978,86.089,100,96.91,98.387,98.861L64.218,115.945a5.75,5.75,0,0,1-4.808.156l-32.528-13.7a1.761,1.761,0,0,0-.684-.138H1.762a1.762,1.762,0,0,0,0,3.524H25.843l32.2,13.558A9.341,9.341,0,0,0,65.8,119.1l34.5-17.251a1.761,1.761,0,0,0,.571-.455c.1-.125,10.379-12.568,15.584-18.153C120.284,79.128,121,74.255,118.333,70.522ZM70.222,82.242c4.153-4.855,7.342-8.473,9.273-10.517a3.789,3.789,0,0,1,3.089-1.1A6.557,6.557,0,0,1,86.9,72.814c-2.991,3.37-6.658,7.66-9.684,11.236a5.638,5.638,0,0,0-.561-.186Zm17.112,6.953-4.6.484a9.34,9.34,0,0,0-2.481-3.766c4.16-4.912,9.4-11.021,12.4-14.188a3.789,3.789,0,0,1,3.089-1.1,6.556,6.556,0,0,1,4.687,2.657c.072.1.14.2.2.308C95.491,79.446,89.107,87.071,87.334,89.195Z"/>
        <path class="cls-5" d="M45.583,40.777c0,7.283,5.4,11.631,14.45,11.631s14.45-4.348,14.45-11.631a14.45,14.45,0,0,0-28.9,0ZM60.034,29.851A10.938,10.938,0,0,1,70.96,40.777c0,7.053-6.846,8.106-10.926,8.106S49.108,47.83,49.108,40.777A10.938,10.938,0,0,1,60.034,29.851Z"/>
        <path class="cls-5" d="M52.985,25.622a6,6,0,0,0,5.992-5.992c0-2.946-2.39-7.4-5.992-7.4s-5.992,4.455-5.992,7.4A6,6,0,0,0,52.985,25.622Zm0-9.869c1.061,0,2.467,2.21,2.467,3.877a2.467,2.467,0,0,1-4.934,0C50.518,17.963,51.924,15.753,52.985,15.753Z"/>
        <path class="cls-5" d="M67.083,25.622a6,6,0,0,0,5.992-5.992c0-2.946-2.39-7.4-5.992-7.4s-5.992,4.455-5.992,7.4A6,6,0,0,0,67.083,25.622Zm0-9.869c1.061,0,2.467,2.21,2.467,3.877a2.467,2.467,0,1,1-4.934,0C64.616,17.963,66.022,15.753,67.083,15.753Z"/>
        <path class="cls-5" d="M78.361,34.08a6,6,0,0,0,5.992-5.992c0-2.946-2.39-7.4-5.992-7.4s-5.992,4.455-5.992,7.4A6,6,0,0,0,78.361,34.08Zm0-9.869c1.061,0,2.467,2.21,2.467,3.877a2.467,2.467,0,1,1-4.934,0C75.894,26.422,77.3,24.212,78.361,24.212Z"/>
        <path class="cls-5" d="M41.707,34.08A6,6,0,0,0,47.7,28.089c0-2.946-2.39-7.4-5.992-7.4s-5.992,4.455-5.992,7.4A6,6,0,0,0,41.707,34.08Zm0-9.869c1.061,0,2.467,2.21,2.467,3.877a2.467,2.467,0,0,1-4.934,0C39.239,26.422,40.646,24.212,41.707,24.212Z"/>
        <path class="cls-5" d="M56.274,41.129h2v2a1.762,1.762,0,0,0,3.524,0v-2h2a1.762,1.762,0,1,0,0-3.524h-2v-2a1.762,1.762,0,0,0-3.524,0v2h-2a1.762,1.762,0,0,0,0,3.524Z"/>
        <path class="cls-5" d="M59.088,69.091a1.777,1.777,0,0,0,1.892,0A127.668,127.668,0,0,0,94.809,35.273c5.822-8.733,4.505-21.976-2.936-29.519-3.638-3.689-13.945-10.938-31.839.159-17.894-11.1-28.2-3.848-31.84-.159-7.441,7.544-8.758,20.786-2.936,29.519A127.682,127.682,0,0,0,59.088,69.091ZM30.7,8.229a15.589,15.589,0,0,1,11.462-4.67c5.052,0,10.821,1.979,16.911,5.92a1.762,1.762,0,0,0,1.915,0C72.476,2.047,82.817,1.591,89.364,8.229c6.33,6.418,7.457,17.672,2.513,25.089C79.982,51.159,64.045,62.733,60.033,65.484c-4.011-2.748-19.933-14.3-31.842-32.166C23.247,25.9,24.374,14.646,30.7,8.229Z"/>
      </g>
    </g>
  </g>
</svg>
