<svg xmlns="http://www.w3.org/2000/svg" viewBox="0 0 28.374 28.429">
  <defs>
    <style>
      .cls-1 {
        fill: #666;
      }
    </style>
  </defs>
  <title>Paseos</title>
  <g id="Capa_2" data-name="Capa 2">
    <g id="Capa_1-2" data-name="Capa 1">
      <g>
        <g>
          <path class="cls-1" d="M10.151,21.079a3.59,3.59,0,0,0-5.838,1.567l-.9,2.823A2.272,2.272,0,0,0,7,27.929l.025-.02A4.466,4.466,0,0,1,10.467,27a2.26,2.26,0,0,0,.931-.05,2.288,2.288,0,0,0,.476-.188,2.272,2.272,0,0,0,.467-3.689Zm1.931,4.281a1.4,1.4,0,0,1-1.484.785,5.332,5.332,0,0,0-4.136,1.109l-.016.013A1.408,1.408,0,0,1,4.239,25.73l.9-2.823a2.725,2.725,0,0,1,4.433-1.189l2.19,1.994A1.4,1.4,0,0,1,12.082,25.359Z"/>
          <path class="cls-1" d="M3.184,22.945a1.743,1.743,0,0,0,.7-1.306,2.252,2.252,0,0,0-.441-1.489,2.253,2.253,0,0,0-1.282-.876,1.743,1.743,0,0,0-1.458.268,2,2,0,0,0-.262,2.795,2.1,2.1,0,0,0,2.193.869A1.65,1.65,0,0,0,3.184,22.945ZM1.143,21.828a1.14,1.14,0,0,1,.072-1.588.8.8,0,0,1,.266-.126.975.975,0,0,1,.482,0,1.388,1.388,0,0,1,.786.544,1.387,1.387,0,0,1,.277.915.894.894,0,0,1-.35.673h0A1.139,1.139,0,0,1,1.143,21.828Z"/>
          <path class="cls-1" d="M5.673,20.254A2.334,2.334,0,0,0,7.126,17.31a2.334,2.334,0,0,0-2.731-1.822,2.334,2.334,0,0,0-1.452,2.944A2.334,2.334,0,0,0,5.673,20.254ZM4.618,16.323a1.478,1.478,0,0,1,1.672,1.211A1.478,1.478,0,0,1,5.45,19.42a1.478,1.478,0,0,1-1.672-1.211A1.478,1.478,0,0,1,4.618,16.323Z"/>
          <path class="cls-1" d="M9.443,19.87h0A1.765,1.765,0,0,0,10,19.813a2.244,2.244,0,0,0,1.557-2.082,2.42,2.42,0,0,0-.466-1.6,1.83,1.83,0,0,0-2.855-.168A2.42,2.42,0,0,0,7.59,17.5,2.14,2.14,0,0,0,9.443,19.87Zm-.99-2.323a1.556,1.556,0,0,1,.412-.99.968.968,0,0,1,1.541.091A1.556,1.556,0,0,1,10.7,17.68a1.285,1.285,0,0,1-1.205,1.328A1.285,1.285,0,0,1,8.453,17.548Z"/>
          <path class="cls-1" d="M13.772,18.41h0a2,2,0,0,0-2.5,1.279,2,2,0,0,0,.957,2.638,1.693,1.693,0,0,0,1.067.054,2.189,2.189,0,0,0,1.433-1.333A2,2,0,0,0,13.772,18.41Zm.153,2.322a1.14,1.14,0,0,1-1.379.791,1.14,1.14,0,0,1-.469-1.518,1.327,1.327,0,0,1,.846-.815.844.844,0,0,1,.533.024A1.14,1.14,0,0,1,13.925,20.732Z"/>
        </g>
        <g>
          <path class="cls-1" d="M23.538,7.781A3.59,3.59,0,0,0,17.7,6.227l-2.186,2a2.272,2.272,0,0,0,1.882,3.922l.032-.005a4.466,4.466,0,0,1,3.434.927,2.26,2.26,0,0,0,.831.421,2.288,2.288,0,0,0,.506.075A2.272,2.272,0,0,0,24.442,10.6Zm-.461,4.673A1.4,1.4,0,0,1,21.4,12.4a5.332,5.332,0,0,0-4.138-1.1l-.021,0a1.408,1.408,0,0,1-1.146-2.433l2.186-2a2.725,2.725,0,0,1,4.435,1.18l.9,2.821A1.4,1.4,0,0,1,23.077,12.455Z"/>
          <path class="cls-1" d="M16.569,5.924a1.743,1.743,0,0,0,1.261-.781,2.252,2.252,0,0,0,.361-1.511,2.253,2.253,0,0,0-.675-1.4,1.743,1.743,0,0,0-1.4-.495A2,2,0,0,0,14.5,4.03a2.1,2.1,0,0,0,1.468,1.847A1.65,1.65,0,0,0,16.569,5.924ZM15.357,3.938a1.14,1.14,0,0,1,.854-1.34.8.8,0,0,1,.293.023.975.975,0,0,1,.417.24,1.388,1.388,0,0,1,.409.864,1.387,1.387,0,0,1-.216.931.894.894,0,0,1-.639.409h0A1.139,1.139,0,0,1,15.357,3.938Z"/>
          <path class="cls-1" d="M20.069,4.833A2.334,2.334,0,0,0,22.8,3.006,2.334,2.334,0,0,0,21.338.064a2.334,2.334,0,0,0-2.727,1.828A2.334,2.334,0,0,0,20.069,4.833ZM21.116.9a1.478,1.478,0,0,1,.845,1.884A1.478,1.478,0,0,1,20.291,4a1.478,1.478,0,0,1-.845-1.884A1.478,1.478,0,0,1,21.116.9Z"/>
          <path class="cls-1" d="M23.527,6.381h0a1.765,1.765,0,0,0,.516.23,2.244,2.244,0,0,0,2.388-1.028,2.42,2.42,0,0,0,.4-1.622,1.83,1.83,0,0,0-2.391-1.569A2.42,2.42,0,0,0,23.105,3.4,2.14,2.14,0,0,0,23.527,6.381Zm.3-2.507a1.556,1.556,0,0,1,.851-.653.968.968,0,0,1,1.291.847,1.556,1.556,0,0,1-.261,1.04A1.285,1.285,0,0,1,24,5.658,1.285,1.285,0,0,1,23.828,3.874Z"/>
          <path class="cls-1" d="M28.008,7.275h0a2,2,0,0,0-2.8-.138A2,2,0,0,0,24.717,9.9a1.693,1.693,0,0,0,.9.579,2.189,2.189,0,0,0,1.906-.44A2,2,0,0,0,28.008,7.275ZM26.982,9.364a1.14,1.14,0,0,1-1.59,0,1.14,1.14,0,0,1,.351-1.55,1.327,1.327,0,0,1,1.14-.285.844.844,0,0,1,.45.287A1.14,1.14,0,0,1,26.982,9.364Z"/>
        </g>
      </g>
    </g>
  </g>
</svg>
