<svg xmlns="http://www.w3.org/2000/svg" xmlns:xlink="http://www.w3.org/1999/xlink" viewBox="0 0 240 240">
  <defs>
    <style>
      .cls-1, .cls-6 {
        fill: #fff;
      }

      .cls-2, .cls-4 {
        fill: none;
      }

      .cls-2, .cls-6, .cls-7 {
        stroke: #00d2c6;
        stroke-miterlimit: 10;
        stroke-width: 4px;
      }

      .cls-3 {
        clip-path: url(#clip-path);
      }

      .cls-5, .cls-7 {
        fill: #cffbf2;
      }

      .cls-8 {
        clip-path: url(#clip-path-2);
      }

      .cls-9 {
        fill: #00d2c6;
      }
    </style>
    <clipPath id="clip-path">
      <path class="cls-1" d="M131.285,142.678c-6.49-1.675-15.1-3.818-23.674-5.79a4.913,4.913,0,0,1-.921,2.207,16.906,16.906,0,0,1-28.482,0,4.913,4.913,0,0,1-.921-2.207c-9.885,2.273-18.5,4.433-25.579,6.287C41.555,145.833,37.847,147,34.362,150.36c-5.692,5.488-6.9,13.074-7.185,17.346v33.53H49.616l-.373,10.355h86.413l-.373-10.355h22.439v-33.53h0"/>
    </clipPath>
    <clipPath id="clip-path-2">
      <path class="cls-2" d="M131.285,142.678c-6.49-1.675-15.1-3.818-23.674-5.79a4.913,4.913,0,0,1-.921,2.207,16.906,16.906,0,0,1-28.482,0,4.913,4.913,0,0,1-.921-2.207c-9.885,2.273-18.5,4.433-25.579,6.287C41.555,145.833,37.847,147,34.362,150.36c-5.692,5.488-6.9,13.074-7.185,17.346v33.53H49.616l-.373,10.355h86.413l-.373-10.355h22.439v-33.53h0"/>
    </clipPath>
  </defs>
  <title>Paso 1</title>
  <g id="Capa_2" data-name="Capa 2">
    <g id="Capa_1-2" data-name="Capa 1">
      <g>
        <polyline class="cls-1" points="77.287 147.688 77.287 124.253 107.611 124.253 107.611 147.688"/>
        <g>
          <path class="cls-1" d="M131.285,142.678c-6.49-1.675-15.1-3.818-23.674-5.79a4.913,4.913,0,0,1-.921,2.207,16.906,16.906,0,0,1-28.482,0,4.913,4.913,0,0,1-.921-2.207c-9.885,2.273-18.5,4.433-25.579,6.287C41.555,145.833,37.847,147,34.362,150.36c-5.692,5.488-6.9,13.074-7.185,17.346v33.53H49.616l-.373,10.355h86.413l-.373-10.355h22.439v-33.53h0"/>
          <g class="cls-3">
            <circle class="cls-1" cx="92.449" cy="129.492" r="26.296"/>
          </g>
        </g>
        <rect class="cls-1" x="131.645" y="109.522" width="81.728" height="57.691" rx="14.375" ry="14.375"/>
        <rect class="cls-4" width="240" height="240"/>
        <path class="cls-5" d="M35.694,116.562s23.33,17.687,57.187,17.687a90.437,90.437,0,0,0,38.438-8.367c.914-8.09,4.387-12.535,4.387-12.535s3.526-3.305,7.435-3.228a84.388,84.388,0,0,1-5.024-21.393C135.842,69.1,135.273,28.41,92.881,28.41s-47.8,31.865-49.79,58.325S35.694,116.562,35.694,116.562Z"/>
        <path class="cls-2" d="M142.992,109.736a88.94,88.94,0,0,1-4.873-21.009C135.842,69.1,135.273,28.41,92.881,28.41s-47.8,31.865-49.79,58.325-7.4,29.827-7.4,29.827,23.33,17.687,57.187,17.687a91.715,91.715,0,0,0,38.214-8.262"/>
        <path class="cls-5" d="M180.066,167.213s17.833-6.046,17.833-19.879V109.522s14.923.605,14.923,14.375v31.471s-1,11.844-16.378,11.844Z"/>
        <polyline class="cls-6" points="77.287 136.888 77.287 121.191 107.611 121.191 107.611 136.888"/>
        <path class="cls-7" d="M27.177,201.235H49.616a0,0,0,0,1,0,0V211.59a0,0,0,0,1,0,0H37.532a10.355,10.355,0,0,1-10.355-10.355v0A0,0,0,0,1,27.177,201.235Z"/>
        <path class="cls-7" d="M145.637,201.235h12.084a0,0,0,0,1,0,0V211.59a0,0,0,0,1,0,0H135.282a0,0,0,0,1,0,0v0A10.355,10.355,0,0,1,145.637,201.235Z" transform="translate(293.003 412.825) rotate(180)"/>
        <path class="cls-6" d="M59.825,69.782a46.436,46.436,0,0,0-3.8,7.829l-.129-.052a5.431,5.431,0,0,0-2.831-.4,9.985,9.985,0,1,0,0,19.97,8.648,8.648,0,0,0,1.406-.1l.327-.048a37.167,37.167,0,0,0,36.234,29.55,36.787,36.787,0,0,0,36.265-29.7l.1.025a8.234,8.234,0,0,0,2.346.276,9.985,9.985,0,0,0,0-19.97,8.456,8.456,0,0,0-3.534.641l-.085.035c-1.207-3.646-4.85-9.415-7.059-12.451"/>
        <path class="cls-4" d="M157.721,167.706c-.288-4.272-1.493-11.858-7.185-17.346-3.485-3.36-7.192-4.527-17.346-7.185-7.081-1.854-15.694-4.014-25.579-6.287a4.913,4.913,0,0,1-.921,2.207,16.906,16.906,0,0,1-28.482,0,4.913,4.913,0,0,1-.921-2.207c-9.885,2.273-18.5,4.433-25.579,6.287C41.555,145.833,37.847,147,34.362,150.36c-5.692,5.488-6.9,13.074-7.185,17.346v33.53H49.616l-.373,10.355h86.413l-.373-10.355h22.439Z"/>
        <g>
          <g class="cls-8">
            <circle class="cls-2" cx="92.449" cy="129.492" r="26.296"/>
          </g>
          <path class="cls-2" d="M131.285,142.678c-6.49-1.675-15.1-3.818-23.674-5.79a4.913,4.913,0,0,1-.921,2.207,16.906,16.906,0,0,1-28.482,0,4.913,4.913,0,0,1-.921-2.207c-9.885,2.273-18.5,4.433-25.579,6.287C41.555,145.833,37.847,147,34.362,150.36c-5.692,5.488-6.9,13.074-7.185,17.346v33.53H49.616l-.373,10.355h86.413l-.373-10.355h22.439v-33.53h0"/>
        </g>
        <rect class="cls-2" x="131.094" y="109.522" width="81.728" height="57.691" rx="14.375" ry="14.375"/>
        <circle class="cls-9" cx="171.959" cy="138.367" r="19.045"/>
        <path class="cls-1" d="M171.356,147.083l-5.644,2.967a1.294,1.294,0,0,1-1.878-1.364l1.078-6.284a1.294,1.294,0,0,0-.372-1.146l-4.566-4.451a1.294,1.294,0,0,1,.717-2.208l6.31-.917a1.294,1.294,0,0,0,.975-.708l2.822-5.718a1.294,1.294,0,0,1,2.321,0l2.822,5.718a1.294,1.294,0,0,0,.975.708l6.31.917a1.294,1.294,0,0,1,.717,2.208l-4.566,4.451A1.294,1.294,0,0,0,179,142.4l1.078,6.284a1.294,1.294,0,0,1-1.878,1.364l-5.644-2.967A1.294,1.294,0,0,0,171.356,147.083Z"/>
        <rect class="cls-5" x="166.596" y="167.213" width="10.601" height="44.377"/>
        <rect class="cls-2" x="166.596" y="167.213" width="10.601" height="44.377"/>
        <path class="cls-5" d="M122.429,51.585s2.39,26.3-31.3,26.3V64.737S90.6,76.727,60.289,76.727c0,0-2.287-16.183,3.24-25.142"/>
        <path class="cls-2" d="M122.429,51.62s2.39,26.3-31.3,26.3V64.772S90.6,76.762,60.289,76.762c0,0-2.287-16.183,3.24-25.142"/>
        <path class="cls-9" d="M91.143,115.5a14.435,14.435,0,0,0,14.435-14.435H76.708A14.435,14.435,0,0,0,91.143,115.5Z"/>
        <line class="cls-2" x1="49.243" y1="211.59" x2="51.566" y2="169.75"/>
        <line class="cls-2" x1="135.557" y1="211.59" x2="133.234" y2="169.75"/>
      </g>
    </g>
  </g>
</svg>
