<svg xmlns="http://www.w3.org/2000/svg" viewBox="0 0 240 240">
  <defs>
    <style>
      .cls-1 {
        fill: none;
      }

      .cls-2 {
        fill: #b1f8e7;
      }

      .cls-3 {
        fill: #fff;
      }

      .cls-4 {
        fill: #cffbf2;
      }

      .cls-5 {
        fill: #00d2c6;
      }
    </style>
  </defs>
  <title>Paso 3</title>
  <g id="Capa_2" data-name="Capa 2">
    <g id="Capa_1-2" data-name="Capa 1">
      <g>
        <rect class="cls-1" width="240" height="240"/>
        <g>
          <path class="cls-2" d="M222.436,170.985c0-21.683-23.436-39.26-52.347-39.26s-52.347,17.578-52.347,39.26,23.437,39.26,52.347,39.26S222.436,192.668,222.436,170.985Z"/>
          <path class="cls-3" d="M211.227,143.176l-5.968,47.439H185.138v-3.926a9.814,9.814,0,0,0-9.815-9.815H164.854a9.814,9.814,0,0,0-9.815,9.815v3.926H134.918l-5.967-47.439Z"/>
          <path class="cls-2" d="M145.1,186.689v3.926h9.938v-3.926a9.814,9.814,0,0,1,9.815-9.815h-9.938A9.814,9.814,0,0,0,145.1,186.689Z"/>
          <path class="cls-4" d="M201.29,143.176l-5.968,47.439h9.938l5.968-47.439Z"/>
          <path class="cls-3" d="M161.582,210.246H126.248a3.271,3.271,0,0,1-3.272-3.272v-6.543a9.814,9.814,0,0,1,9.815-9.815h22.247a9.814,9.814,0,0,1,9.815,9.815v6.543A3.271,3.271,0,0,1,161.582,210.246Z"/>
          <path class="cls-3" d="M213.929,210.246H178.595a3.271,3.271,0,0,1-3.272-3.272v-6.543a9.814,9.814,0,0,1,9.815-9.815h22.247a9.814,9.814,0,0,1,9.815,9.815v6.543A3.271,3.271,0,0,1,213.929,210.246Z"/>
          <path class="cls-4" d="M155.039,190.616h-9.815a9.814,9.814,0,0,1,9.815,9.815v6.543a3.271,3.271,0,0,1-3.272,3.272h9.815a3.271,3.271,0,0,0,3.272-3.272v-6.543A9.814,9.814,0,0,0,155.039,190.616Z"/>
          <path class="cls-4" d="M207.386,190.616h-9.815a9.814,9.814,0,0,1,9.815,9.815v6.543a3.271,3.271,0,0,1-3.272,3.272h9.815a3.271,3.271,0,0,0,3.272-3.272v-6.543A9.814,9.814,0,0,0,207.386,190.616Z"/>
          <path class="cls-4" d="M139.662,113.077H127.229A11.778,11.778,0,0,1,115.451,101.3V59.421a11.778,11.778,0,0,1,11.778-11.778h21.593a2.617,2.617,0,0,1,2.617,2.617V101.3A11.778,11.778,0,0,1,139.662,113.077Z"/>
          <path class="cls-4" d="M200.515,113.077h12.432A11.778,11.778,0,0,0,224.726,101.3V59.421a11.778,11.778,0,0,0-11.778-11.778H191.355a2.617,2.617,0,0,0-2.617,2.617V101.3A11.778,11.778,0,0,0,200.515,113.077Z"/>
          <path class="cls-2" d="M148.823,47.643h-9.829a2.617,2.617,0,0,1,2.617,2.617V101.3a11.778,11.778,0,0,1-11.778,11.778h9.829A11.778,11.778,0,0,0,151.44,101.3V50.26A2.617,2.617,0,0,0,148.823,47.643Z"/>
          <path class="cls-2" d="M212.948,47.643h-9.829A11.778,11.778,0,0,1,214.9,59.421V101.3a11.778,11.778,0,0,1-11.778,11.778h9.829A11.778,11.778,0,0,0,224.726,101.3V59.421A11.778,11.778,0,0,0,212.948,47.643Z"/>
          <path class="cls-3" d="M199.043,148.084H141.134a17.719,17.719,0,0,1-17.667-17.667V106.86a13.782,13.782,0,0,1,13.741-13.741h65.761A13.781,13.781,0,0,1,216.71,106.86v23.556A17.719,17.719,0,0,1,199.043,148.084Z"/>
          <path class="cls-4" d="M202.969,93.119h-9.828a13.782,13.782,0,0,1,13.741,13.741v23.556a17.719,17.719,0,0,1-17.667,17.667h9.828a17.719,17.719,0,0,0,17.667-17.667V106.86A13.781,13.781,0,0,0,202.969,93.119Z"/>
          <path class="cls-3" d="M202.805,93.119H137.372V68.909a13.087,13.087,0,0,1,13.087-13.087h39.26a13.087,13.087,0,0,1,13.087,13.087Z"/>
          <path class="cls-4" d="M189.719,55.822H179.9A13.087,13.087,0,0,1,192.99,68.909v24.21h9.815V68.909A13.087,13.087,0,0,0,189.719,55.822Z"/>
          <path class="cls-5" d="M157.656,74.8a4.921,4.921,0,1,0-4.908,5.29A5.109,5.109,0,0,0,157.656,74.8Z"/>
          <path class="cls-5" d="M192.336,74.8a4.921,4.921,0,1,0-4.908,5.29A5.109,5.109,0,0,0,192.336,74.8Z"/>
          <path class="cls-2" d="M175,110.459h-9.815a6.563,6.563,0,0,1-6.543-6.543V94.1a6.563,6.563,0,0,1,6.543-6.543H175a6.563,6.563,0,0,1,6.543,6.543v9.815A6.563,6.563,0,0,1,175,110.459Z"/>
          <path class="cls-5" d="M175,87.557h-9.815a6.563,6.563,0,0,1,6.543,6.543v9.815a6.563,6.563,0,0,1-6.543,6.543H175a6.563,6.563,0,0,0,6.543-6.543V94.1A6.563,6.563,0,0,0,175,87.557Z"/>
          <path class="cls-5" d="M219.164,130.416V114.105A14.224,14.224,0,0,0,227.18,101.3V59.421a14.248,14.248,0,0,0-14.232-14.232H191.355a5.077,5.077,0,0,0-5.071,5.071v3.108h-32.39V50.26a5.077,5.077,0,0,0-5.071-5.071H127.229A14.249,14.249,0,0,0,113,59.421v6.652a2.454,2.454,0,1,0,4.908,0V59.421a9.335,9.335,0,0,1,9.324-9.324h21.593a.163.163,0,0,1,.164.164v3.18a15.561,15.561,0,0,0-14.068,15.469V90.83a16.218,16.218,0,0,0-13.9,16.03v1.39a9.324,9.324,0,0,1-3.108-6.952V76.542a2.454,2.454,0,1,0-4.908,0V101.3a14.226,14.226,0,0,0,8.016,12.807v16.311a20.213,20.213,0,0,0,5.607,13.9l.138,1.1c-7.406,7.272-11.47,16.307-11.47,25.57a32.645,32.645,0,0,0,.488,5.607,2.456,2.456,0,0,0,2.414,2.031,2.461,2.461,0,0,0,2.419-2.878,27.675,27.675,0,0,1-.414-4.759,29.657,29.657,0,0,1,7.361-19.221l4.582,36.415a12.171,12.171,0,0,0-5.079,1.408,34.039,34.039,0,0,1-3.213-4.789c-3.847-6.133-3.636-4.531-4.822-3.876s-1.917,2.326.525,6.246a39.111,39.111,0,0,0,3.718,5.536,12.211,12.211,0,0,0-2.745,7.724v6.543a5.732,5.732,0,0,0,5.725,5.725h35.334a5.7,5.7,0,0,0,1.845-.311c2.206.2,4.442.311,6.661.311s4.455-.107,6.661-.311a5.694,5.694,0,0,0,1.845.311h35.334a5.732,5.732,0,0,0,5.725-5.725v-6.543a12.209,12.209,0,0,0-2.746-7.724,34.508,34.508,0,0,0,7.981-21.721c0-9.263-4.064-18.3-11.47-25.57l.138-1.1A20.214,20.214,0,0,0,219.164,130.416ZM191.355,50.1h21.593a9.335,9.335,0,0,1,9.324,9.324V101.3a9.324,9.324,0,0,1-3.108,6.952v-1.39a16.216,16.216,0,0,0-13.9-16.03V68.909A15.56,15.56,0,0,0,191.191,53.44V50.26A.163.163,0,0,1,191.355,50.1ZM139.825,68.909a10.645,10.645,0,0,1,10.633-10.633h39.26a10.644,10.644,0,0,1,10.633,10.633V90.665H183.311A9.012,9.012,0,0,0,175,85.1h-9.815a9.009,9.009,0,0,0-8.313,5.562H139.825Zm25.356,39.1a4.094,4.094,0,0,1-4.09-4.09V94.1a4.094,4.094,0,0,1,4.09-4.09H175a4.093,4.093,0,0,1,4.09,4.09v9.815a4.093,4.093,0,0,1-4.09,4.09Zm-39.26-1.145a11.3,11.3,0,0,1,11.287-11.287h18.976v8.343a9.007,9.007,0,0,0,9,9h2.454v11.451h-20.12A7.37,7.37,0,0,1,140.153,117a2.454,2.454,0,1,0-4.908,0,12.283,12.283,0,0,0,12.27,12.269h45.147A12.283,12.283,0,0,0,204.932,117a2.454,2.454,0,1,0-4.908,0,7.37,7.37,0,0,1-7.363,7.361h-20.12V112.913H175a9.007,9.007,0,0,0,9-9V95.573h18.976a11.3,11.3,0,0,1,11.287,11.287v23.556a15.26,15.26,0,0,1-15.213,15.213h-8.016a2.454,2.454,0,0,0,0,4.908h8.016a19.968,19.968,0,0,0,9.058-2.167l-5.007,39.792h-15.5v-1.472a12.282,12.282,0,0,0-12.269-12.269H164.854a12.283,12.283,0,0,0-12.269,12.269v1.472h-15.5l-5.006-39.791a19.975,19.975,0,0,0,9.057,2.166h39.424a2.454,2.454,0,0,0,0-4.908H141.134a15.262,15.262,0,0,1-15.213-15.213Zm-.491,100.114v-6.543a7.37,7.37,0,0,1,7.361-7.361h22.247a7.37,7.37,0,0,1,7.361,7.361v6.543a.817.817,0,0,1-.452.728l-.015.008a.8.8,0,0,1-.35.082h-7.688v-4.744a2.454,2.454,0,0,0-4.908,0v4.744H138.844v-4.744a2.454,2.454,0,0,0-4.908,0v4.744h-7.688A.819.819,0,0,1,125.43,206.974Zm41.823.753a5.845,5.845,0,0,0,.055-.753v-6.543a12.289,12.289,0,0,0-9.815-12.022v-1.719a7.37,7.37,0,0,1,7.361-7.361h10.469a7.37,7.37,0,0,1,7.361,7.361v1.719a12.291,12.291,0,0,0-9.815,12.022v6.543a5.845,5.845,0,0,0,.055.753C171.037,207.8,169.14,207.8,167.253,207.727Zm47.494-.753a.819.819,0,0,1-.818.818h-7.688v-4.744a2.454,2.454,0,1,0-4.908,0v4.744H191.191v-4.744a2.454,2.454,0,0,0-4.908,0v4.744h-7.688a.81.81,0,0,1-.35-.082l-.015-.008a.817.817,0,0,1-.452-.728v-6.543a7.37,7.37,0,0,1,7.361-7.361h22.247a7.37,7.37,0,0,1,7.361,7.361Zm5.235-35.989a29.665,29.665,0,0,1-6.869,18.6,12.164,12.164,0,0,0-5.074-1.406l4.582-36.417A29.66,29.66,0,0,1,219.982,170.985Z"/>
          <path class="cls-5" d="M160.11,74.8a7.362,7.362,0,1,0-7.361,7.494A7.436,7.436,0,0,0,160.11,74.8Zm-9.815,0c0-1.673,1.123-3.086,2.454-3.086S155.2,73.125,155.2,74.8s-1.123,3.086-2.454,3.086S150.295,76.47,150.295,74.8Z"/>
          <path class="cls-5" d="M187.429,82.291a7.495,7.495,0,1,0-7.361-7.494A7.436,7.436,0,0,0,187.429,82.291Zm0-10.579c1.33,0,2.454,1.413,2.454,3.086s-1.123,3.086-2.454,3.086-2.454-1.413-2.454-3.086S186.1,71.712,187.429,71.712Z"/>
          <path class="cls-5" d="M148.986,102.607a2.454,2.454,0,1,1-2.454-2.454A2.454,2.454,0,0,1,148.986,102.607Z"/>
          <path class="cls-5" d="M148.986,112.749a2.454,2.454,0,1,1-2.454-2.454A2.454,2.454,0,0,1,148.986,112.749Z"/>
          <path class="cls-5" d="M196.1,102.607a2.454,2.454,0,1,1-2.454-2.454A2.454,2.454,0,0,1,196.1,102.607Z"/>
          <path class="cls-5" d="M196.1,112.749a2.454,2.454,0,1,1-2.454-2.454A2.454,2.454,0,0,1,196.1,112.749Z"/>
          <circle class="cls-3" cx="150.866" cy="73.27" r="2.42"/>
          <circle class="cls-3" cx="185.546" cy="73.27" r="2.42"/>
        </g>
        <g id="surface1">
          <path class="cls-4" d="M87.979,198.923a5.786,5.786,0,0,1,0-11.573c16.553,0,18.224-6.973,21.255-19.631,2.751-11.485,6.174-25.779,23.535-34.355a5.786,5.786,0,0,1,5.126,10.376c-12.5,6.173-14.881,16.131-17.406,26.675-1.621,6.768-3.3,13.766-7.868,19.222C107.384,195.886,99.325,198.923,87.979,198.923Z"/>
          <path class="cls-2" d="M106.82,176.525c-2.535,7.045-6.655,10.825-18.841,10.825a5.786,5.786,0,1,0,0,11.573c7.708,0,13.9-1.4,18.718-4.263A33.243,33.243,0,0,0,106.82,176.525Z"/>
          <path class="cls-3" d="M89.261,150.87H44.845c2.157,16.8-23.763,29.032-.461,56.661a9.771,9.771,0,0,0,7.477,3.447H82.244a9.771,9.771,0,0,0,7.477-3.447C113.023,179.9,87.1,167.669,89.261,150.87Z"/>
          <path class="cls-3" d="M89.261,77.482S97.784,68,113.334,69.628a5.425,5.425,0,0,1,4.757,4.223c1.394,6.42,2.88,20.35-5.939,33.559Z"/>
          <path class="cls-2" d="M104.934,102.59a34.471,34.471,0,0,0,5.119-24.465h-.215a20.589,20.589,0,0,0-14.122,5.161Z"/>
          <path class="cls-3" d="M44.845,77.482S36.322,68,20.772,69.628a5.425,5.425,0,0,0-4.757,4.223c-1.394,6.42-2.88,20.35,5.939,33.559Z"/>
          <path class="cls-2" d="M29.172,102.59a34.471,34.471,0,0,1-5.119-24.465h.215A20.589,20.589,0,0,1,38.39,83.284Z"/>
          <path class="cls-2" d="M44.845,150.87c.5,3.892-.508,7.539-2.061,11.19a105.811,105.811,0,0,0,24.269,2.372,105.811,105.811,0,0,0,24.269-2.372c-1.553-3.651-2.561-7.3-2.061-11.19Z"/>
          <path class="cls-3" d="M67.053,155.888c24.377,0,47.063-5.089,47.063-32.239,0-35.222-24.477-51.74-47.063-51.74S19.99,88.427,19.99,123.65C19.99,150.8,42.676,155.888,67.053,155.888Z"/>
          <path class="cls-2" d="M91.349,127.374H85.666a2.136,2.136,0,1,1,0-4.272h5.682a2.136,2.136,0,1,1,0,4.272Z"/>
          <path class="cls-2" d="M48.44,127.374H42.757a2.136,2.136,0,0,1,0-4.272H48.44a2.136,2.136,0,1,1,0,4.272Z"/>
          <path class="cls-5" d="M88.524,121.242a2.136,2.136,0,0,0,2.136-2.136v-4.171a2.136,2.136,0,1,0-4.272,0v4.171A2.136,2.136,0,0,0,88.524,121.242Z"/>
          <path class="cls-5" d="M45.615,121.242a2.136,2.136,0,0,0,2.136-2.136v-4.171a2.136,2.136,0,1,0-4.272,0v4.171A2.135,2.135,0,0,0,45.615,121.242Z"/>
          <path class="cls-5" d="M67.07,127.139a7.212,7.212,0,0,0,5.445-2.428A2.136,2.136,0,1,0,69.3,121.9a3.051,3.051,0,0,1-4.459,0,2.136,2.136,0,1,0-3.216,2.811A7.21,7.21,0,0,0,67.07,127.139Z"/>
          <path class="cls-5" d="M17.871,123.65c0,13.19,5.221,22.672,15.517,28.183a43.464,43.464,0,0,0,9.249,3.58c-.611,3.687-2.444,7.358-4.372,11.213-2.807,5.614-5.988,11.978-5.77,19.55a46.749,46.749,0,0,0,1.912,9.244c.592,1.85.219-2.6.935-2.617,1.179-.033,1.457-5.572,1.424-6.751-.188-6.5,2.612-12.1,5.321-17.515,2.04-4.08,3.985-7.972,4.726-12.163a89.266,89.266,0,0,0,11.832,1.416,146.61,146.61,0,0,0,16.853,0,89.207,89.207,0,0,0,11.83-1.416c.741,4.192,2.688,8.083,4.728,12.163,2.531,5.059,5.147,10.29,5.323,16.246a21.773,21.773,0,0,1-.154,3.249c-.7,5.744-3.709,11.705-9.119,18.121a7.617,7.617,0,0,1-5.845,2.689H80.756c5.621-12.091,3.994-26.939,3.914-27.621a2.136,2.136,0,0,0-4.243.492c.019.162,1.752,15.919-4.458,27.129H69.205V181.467a2.136,2.136,0,1,0-4.272,0v27.375H58.17c-6.183-11.168-4.481-26.918-4.458-27.13a2.136,2.136,0,0,0-4.243-.491c-.079.682-1.708,15.53,3.914,27.621H51.878a7.615,7.615,0,0,1-5.844-2.689A43.829,43.829,0,0,1,38.4,193.9c-.217-.568-1.742-5.358-1.632-7.843.024-.529-.592,6.406-1.126,6.61a2.137,2.137,0,0,0-1.233,2.758,47.392,47.392,0,0,0,8.361,13.487,11.881,11.881,0,0,0,9.11,4.206H82.261a11.877,11.877,0,0,0,9.11-4.206,55.188,55.188,0,0,0,6.092-8.666c7.235-1.357,12.746-4.382,16.811-9.233,4.895-5.841,6.63-13.088,8.309-20.1a76.643,76.643,0,0,1,3.409-11.584,2.136,2.136,0,1,0-3.946-1.638,81.252,81.252,0,0,0-3.618,12.226c-1.563,6.528-3.18,13.278-7.428,18.347a22.182,22.182,0,0,1-11.222,7.05,28.815,28.815,0,0,0,1.579-5.976c.13-.868.222-1.742.267-2.62,6.117-3.525,7.715-10.192,9.7-18.5,1.336-5.579,2.851-11.9,6.079-17.73a36.28,36.28,0,0,1,16.324-15.208,3.651,3.651,0,0,1,3.233,6.547,30.171,30.171,0,0,0-10.395,8.105,2.136,2.136,0,1,0,3.322,2.685,26.03,26.03,0,0,1,8.965-6.962,8,8,0,0,0,3.624-10.549l-.03-.062a8,8,0,0,0-10.549-3.624l-.062.03a40.417,40.417,0,0,0-18.168,16.967c-3.511,6.336-5.1,12.961-6.5,18.807-1.64,6.846-2.764,11.53-5.8,14.395-.817-5.616-3.279-10.556-5.5-14.99-1.929-3.856-3.762-7.527-4.373-11.213a43.43,43.43,0,0,0,9.248-3.58c10.3-5.511,15.519-14.993,15.519-28.184a67.38,67.38,0,0,0-1.808-15.856c8.548-13.415,7.283-27.257,5.734-34.4a7.548,7.548,0,0,0-6.621-5.895,36.449,36.449,0,0,0-3.778-.2A31.5,31.5,0,0,0,88.882,74.9a49,49,0,0,0-43.625,0A31.51,31.51,0,0,0,24.343,67.3a36.428,36.428,0,0,0-3.777.2A7.547,7.547,0,0,0,13.945,73.4c-1.551,7.139-2.814,20.981,5.734,34.4A67.383,67.383,0,0,0,17.871,123.65Zm8.076-43.326a19.693,19.693,0,0,1,8,2.374c-.323.3-.639.607-.952.918a47.525,47.525,0,0,0-6.36,7.8A34.308,34.308,0,0,1,25.947,80.324Zm81.561,11.091a47.379,47.379,0,0,0-7.18-8.591c-.044-.041-.088-.085-.132-.126a19.694,19.694,0,0,1,8-2.373A34.331,34.331,0,0,1,107.508,91.415ZM109.8,71.576a32.186,32.186,0,0,1,3.332.176,3.284,3.284,0,0,1,2.891,2.553c1.28,5.891,2.356,16.8-3.236,27.83-.09-.254-.645-1.639-.8-2.09q-.724-1.8-1.567-3.508a38.079,38.079,0,0,0,1.762-18.73,2.135,2.135,0,0,0-2.091-1.818h-.236a23.667,23.667,0,0,0-13.1,3.793,46.747,46.747,0,0,0-3.848-2.665A27.686,27.686,0,0,1,109.8,71.576ZM95.548,84.292C107.018,93.875,112,109.062,112,123.649c0,11.655-4.337,19.641-13.261,24.417-8.133,4.352-17.793,5.319-26.87,5.612-.073,0-9.518,0-9.591,0-9.08-.3-18.727-1.255-26.87-5.612-8.924-4.776-13.261-12.762-13.261-24.417,0-13.519,4.056-27.181,13.79-36.921a44.63,44.63,0,0,1,59.616-2.436ZM18.119,74.3a3.286,3.286,0,0,1,2.892-2.553,32.186,32.186,0,0,1,3.332-.176A27.848,27.848,0,0,1,41.22,77.123q-1.991,1.238-3.836,2.659a23.67,23.67,0,0,0-13.1-3.793h-.236a2.135,2.135,0,0,0-2.091,1.818,38.079,38.079,0,0,0,1.762,18.73q-.848,1.719-1.573,3.522c-.174.429-.7,1.813-.79,2.077C15.764,91.1,16.84,80.2,18.119,74.3Z"/>
        </g>
      </g>
    </g>
  </g>
</svg>
