<svg xmlns="http://www.w3.org/2000/svg" viewBox="0 0 29.18 22.868">
  <defs>
    <style>
      .cls-1 {
        fill: none;
        stroke: #666;
        stroke-linecap: round;
        stroke-linejoin: round;
      }
    </style>
  </defs>
  <title>Dog</title>
  <g id="Capa_2" data-name="Capa 2">
    <g id="Capa_1-2" data-name="Capa 1">
      <g id="Capa_2-2" data-name="Capa 2">
        <g id="Capa_1-2-2" data-name="Capa 1-2">
          <g>
            <path class="cls-1" d="M19.889,7.294a2.2,2.2,0,0,0,1.04,2.5c1.508.78,3.641,1.2,4.265.624s3.537-3.641,3.485-4.526S26.234,3.548,25.3,2.611,23.218.271,22.282.532s-3.016.832-3.537,2.705-3.277,3.848-5.514,3.848S7.2,5.837,5.9,5.993,2,6.721,1.164,8.543s-.937,4.526,0,5.618,1.248,1.976.988,2.913-1.565,2.495-.937,3.483,2.965,1.56,3.277.78.264-.78,0-1.665,1.04-3.016,1.82-3.694c0,0,2.287-2.445,2.393-3.953"/>
            <path class="cls-1" d="M14.219,13.328s-.2,3.953.37,4.837,2.594,3.849,3.53,4.057,3.069.312,3.016-.52-.208-1.407-.728-1.561a3.5,3.5,0,0,1-.988-.52l.416-4.473L23.348,10.6"/>
            <path class="cls-1" d="M7.286,14.812a16.854,16.854,0,0,0,6.954,1.671"/>
            <path class="cls-1" d="M11.255,3.912S8.342.635,4.648,2.352,2.181,7.316,2.181,7.316"/>
            <path class="cls-1" d="M19,3.939c-.4-.31-.237-.2-.237-.2s1.55,1.872,2.1,1.872a5.686,5.686,0,0,0,2.485-2.38"/>
            <line class="cls-1" x1="24.843" y1="5.616" x2="24.843" y2="5.928"/>
          </g>
        </g>
      </g>
    </g>
  </g>
</svg>
