<?xml version="1.0" encoding="UTF-8" standalone="no"?>
<svg
   xmlns:dc="http://purl.org/dc/elements/1.1/"
   xmlns:cc="http://creativecommons.org/ns#"
   xmlns:rdf="http://www.w3.org/1999/02/22-rdf-syntax-ns#"
   xmlns:svg="http://www.w3.org/2000/svg"
   xmlns="http://www.w3.org/2000/svg"
   xmlns:sodipodi="http://sodipodi.sourceforge.net/DTD/sodipodi-0.dtd"
   xmlns:inkscape="http://www.inkscape.org/namespaces/inkscape"
   viewBox="0 0 30 30.072001"
   version="1.1"
   id="svg60"
   sodipodi:docname="veterinario.svg"
   width="30"
   height="30.072001"
   inkscape:version="0.92.4 (5da689c313, 2019-01-14)">
  <metadata
     id="metadata64">
    <rdf:RDF>
      <cc:Work
         rdf:about="">
        <dc:format>image/svg+xml</dc:format>
        <dc:type
           rdf:resource="http://purl.org/dc/dcmitype/StillImage" />
        <dc:title>Km_Veterinario_1</dc:title>
      </cc:Work>
    </rdf:RDF>
  </metadata>
  <sodipodi:namedview
     pagecolor="#ffffff"
     bordercolor="#666666"
     borderopacity="1"
     objecttolerance="10"
     gridtolerance="10"
     guidetolerance="10"
     inkscape:pageopacity="0"
     inkscape:pageshadow="2"
     inkscape:window-width="1366"
     inkscape:window-height="715"
     id="namedview62"
     showgrid="false"
     inkscape:zoom="11.118568"
     inkscape:cx="19.203413"
     inkscape:cy="15.354655"
     inkscape:window-x="-8"
     inkscape:window-y="-8"
     inkscape:window-maximized="1"
     inkscape:current-layer="svg60" />
  <defs
     id="defs4">
    <style
       id="style2">
      .cls-1 {
        fill: none;
      }

      .cls-2 {
        fill: #cffbf2;
      }

      .cls-3 {
        fill: #b1f8e7;
      }

      .cls-4 {
        fill: #fff;
      }

      .cls-5 {
        fill: #00d2c6;
      }
    </style>
  </defs>
  <title
     id="title6">Km_Veterinario_1</title>
  <rect
     style="fill:none;stroke-width:0.25022486"
     y="0.00026075129"
     x="0"
     id="rect8"
     height="30.053988"
     width="30"
     class="cls-1" />
  <path
     style="fill:#ffffff;stroke-width:0.25022486"
     inkscape:connector-curvature="0"
     id="path18"
     d="m 28.7905,20.546669 c -1.325,1.424809 -3.9135,4.566453 -3.9135,4.566453 l -8.625,4.320511 a 1.87975,1.8831327 0 0 1 -1.57,0.05009 L 6.55,26.054813 H 0.4405 v -5.178552 c 0,0 2.35,-2.824574 7.519,-2.824574 3.2895,0 5.16925,1.883133 5.16925,1.883133 l 5.927,1.49744 a 1.8795,1.8828823 0 0 1 1.29725,1.506957 l 1.70425,-0.179823 c 0,0 3.1865,-3.834639 4.545,-5.274976 0.71275,-0.756108 2.01825,-0.410487 2.6225,0.435282 0.60425,0.845769 0.27375,1.866102 -0.43425,2.626969 z"
     class="cls-4" />
  <g
     id="g36"
     transform="matrix(0.25,0,0,0.25044989,0,2.6075128e-4)">
    <path
       style="fill:#ffffff"
       inkscape:connector-curvature="0"
       id="path26"
       d="m 47.346,40.777 a 12.688,12.688 0 1 1 25.376,0 c 0,7.007 -5.681,9.869 -12.688,9.869 -7.007,0 -12.688,-2.862 -12.688,-9.869 z"
       class="cls-4" />
    <path
       style="fill:#ffffff"
       inkscape:connector-curvature="0"
       id="path28"
       d="m 48.755,19.63 c 0,-2.336 1.894,-5.639 4.229,-5.639 2.335,0 4.229,3.3 4.229,5.639 a 4.2295,4.2295 0 0 1 -8.459,0 z"
       class="cls-4" />
    <path
       style="fill:#ffffff"
       inkscape:connector-curvature="0"
       id="path30"
       d="m 62.854,19.63 c 0,-2.336 1.893,-5.639 4.229,-5.639 2.336,0 4.229,3.3 4.229,5.639 a 4.2295,4.2295 0 0 1 -8.459,0 z"
       class="cls-4" />
    <path
       style="fill:#ffffff"
       inkscape:connector-curvature="0"
       id="path32"
       d="m 74.132,28.089 c 0,-2.336 1.893,-5.639 4.229,-5.639 2.336,0 4.229,3.3 4.229,5.639 a 4.2295,4.2295 0 0 1 -8.459,0 z"
       class="cls-4" />
    <path
       style="fill:#ffffff"
       inkscape:connector-curvature="0"
       id="path34"
       d="m 37.477,28.089 c 0,-2.336 1.894,-5.639 4.229,-5.639 2.335,0 4.229,3.3 4.229,5.639 a 4.2295,4.2295 0 0 1 -8.459,0 z"
       class="cls-4" />
  </g>
  <path
     style="fill:#666666;stroke-width:0.25022486;fill-opacity:1"
     inkscape:connector-curvature="0"
     id="path40"
     d="m 29.58325,17.662488 a 2.51875,2.5232826 0 0 0 -1.8285,-1.032355 1.81225,1.8155113 0 0 0 -1.47275,0.55099 c -0.1545,0.163794 -0.3315,0.357142 -0.525,0.571527 a 2.51975,2.5242844 0 0 0 -1.76175,-0.947202 1.81275,1.8160122 0 0 0 -1.47275,0.55099 c -0.0645,0.06837 -0.1335,0.142757 -0.2055,0.220897 a 2.51525,2.5197763 0 0 0 -1.61125,-0.771887 1.8125,1.8157617 0 0 0 -1.47275,0.55099 c -0.54325,0.576035 -1.42875,1.585849 -2.631,2.999388 l -3.25575,-0.820474 a 8.17975,8.19447 0 0 0 -5.387,-1.924206 C 2.645,17.610144 0.2035,20.471784 0.102,20.593503 A 0.44475,0.44555035 0 0 0 0.12175,21.180808 0.445,0.4458008 0 0 0 0.779,21.158768 C 0.80125,21.132221 3.054,18.49298 7.9595,18.49298 a 7.325,7.3381818 0 0 1 4.85825,1.753149 0.44675,0.44755395 0 0 0 0.20325,0.115207 l 5.9145,1.494184 a 1.43925,1.44184 0 0 1 -0.86825,2.749188 l -0.01425,-0.0043 -4.80725,-1.327385 a 0.453,0.4538152 0 0 0 -0.117,-0.01603 h -3.7595 a 0.4405,0.44129271 0 0 0 0,0.882585 h 3.7 l 4.743,1.308601 a 2.32025,2.3244254 0 0 0 3.0015,-2.116552 l 1.28975,-0.135995 a 0.44075,0.44154316 0 0 0 0.2925,-0.154026 c 0.03175,-0.03832 3.19325,-3.840649 4.52675,-5.254439 0.55425,-0.587806 1.54375,-0.171308 1.94425,0.388949 0.6155,0.861297 -0.15,1.801736 -0.3985,2.069467 -1.224,1.315613 -3.4685,4.025732 -3.87175,4.514359 l -8.54225,4.278686 a 1.4375,1.4400869 0 0 1 -1.202,0.03907 L 6.7205,25.64658 a 0.44025,0.44104226 0 0 0 -0.171,-0.03456 h -6.109 a 0.4405,0.44129271 0 0 0 0,0.882585 h 6.02025 l 8.05,3.3956 A 2.33525,2.3394524 0 0 0 16.45,29.828843 l 8.625,-4.320511 a 0.44025,0.44104226 0 0 0 0.14275,-0.113955 c 0.025,-0.03131 2.59475,-3.147654 3.896,-4.546417 0.95725,-1.0301 1.13625,-2.250543 0.4695,-3.185472 z M 17.5555,20.597761 c 1.03825,-1.215935 1.8355,-2.122062 2.31825,-2.633982 a 0.94725,0.94895463 0 0 1 0.77225,-0.275495 1.63925,1.6421999 0 0 1 1.079,0.548235 c -0.74775,0.844016 -1.6645,1.918446 -2.421,2.814055 a 1.4095,1.4120365 0 0 0 -0.14025,-0.04658 z m 4.278,1.741378 -1.15,0.121217 a 2.335,2.339202 0 0 0 -0.62025,-0.943194 c 1.04,-1.23021 2.35,-2.760208 3.1,-3.553383 a 0.94725,0.94895463 0 0 1 0.77225,-0.275495 1.639,1.6419495 0 0 1 1.17175,0.665446 c 0.018,0.02505 0.035,0.05009 0.05,0.07714 -1.2845,1.466635 -2.8805,3.376315 -3.32375,3.908271 z"
     class="cls-5" />
  <path
     style="fill:#666666;stroke-width:0.25022486;fill-opacity:1"
     inkscape:connector-curvature="0"
     id="path42"
     d="m 11.39575,10.212856 c 0,1.824026 1.35,2.912983 3.6125,2.912983 2.2625,0 3.6125,-1.088957 3.6125,-2.912983 a 3.6125,3.6190009 0 0 0 -7.225,0 z M 15.0085,7.4764404 A 2.7345,2.7394209 0 0 1 17.74,10.212856 c 0,1.766423 -1.7115,2.030147 -2.7315,2.030147 -1.02,0 -2.7315,-0.263724 -2.7315,-2.030147 a 2.7345,2.7394209 0 0 1 2.7315,-2.7364156 z"
     class="cls-5" />
  <path
     style="fill:#666666;stroke-width:0.25022486;fill-opacity:1"
     inkscape:connector-curvature="0"
     id="path44"
     d="m 13.24625,6.4172878 a 1.5,1.5026993 0 0 0 1.498,-1.5006957 c 0,-0.7378254 -0.5975,-1.8533292 -1.498,-1.8533292 -0.9005,0 -1.498,1.1157543 -1.498,1.8533292 a 1.5,1.5026993 0 0 0 1.498,1.5006957 z m 0,-2.4716899 c 0.26525,0 0.61675,0.5534942 0.61675,0.9709942 a 0.61675,0.61785988 0 0 1 -1.2335,0 c 0,-0.4175 0.3515,-0.9709942 0.61675,-0.9709942 z"
     class="cls-5" />
  <path
     style="fill:#666666;stroke-width:0.25022486;fill-opacity:1"
     inkscape:connector-curvature="0"
     id="path46"
     d="m 16.77075,6.4172878 a 1.5,1.5026993 0 0 0 1.498,-1.5006957 c 0,-0.7378254 -0.5975,-1.8533292 -1.498,-1.8533292 -0.9005,0 -1.498,1.1157543 -1.498,1.8533292 a 1.5,1.5026993 0 0 0 1.498,1.5006957 z m 0,-2.4716899 c 0.26525,0 0.61675,0.5534942 0.61675,0.9709942 a 0.61675,0.61785988 0 1 1 -1.2335,0 c 0,-0.4175 0.3515,-0.9709942 0.61675,-0.9709942 z"
     class="cls-5" />
  <path
     style="fill:#666666;stroke-width:0.25022486;fill-opacity:1"
     inkscape:connector-curvature="0"
     id="path48"
     d="m 19.59025,8.535593 a 1.5,1.5026993 0 0 0 1.498,-1.5006957 c 0,-0.7378254 -0.5975,-1.8533292 -1.498,-1.8533292 -0.9005,0 -1.498,1.1157542 -1.498,1.8533292 a 1.5,1.5026993 0 0 0 1.498,1.5006957 z m 0,-2.47169 c 0.26525,0 0.61675,0.5534943 0.61675,0.9709943 a 0.61675,0.61785988 0 1 1 -1.2335,0 c 0,-0.4172496 0.3515,-0.9707438 0.61675,-0.9707438 z"
     class="cls-5" />
  <path
     style="fill:#666666;stroke-width:0.25022486;fill-opacity:1"
     inkscape:connector-curvature="0"
     id="path50"
     d="M 10.42675,8.535593 A 1.5,1.5026993 0 0 0 11.925,7.0351477 c 0,-0.7378254 -0.5975,-1.8533292 -1.498,-1.8533292 -0.9005,0 -1.498,1.1157543 -1.498,1.8533292 a 1.5,1.5026993 0 0 0 1.49775,1.5004453 z m 0,-2.47169 c 0.26525,0 0.61675,0.5534943 0.61675,0.9709943 a 0.61675,0.61785988 0 0 1 -1.2335,0 C 9.80975,6.6176477 10.1615,6.0641535 10.42675,6.0641535 Z"
     class="cls-5" />
  <path
     style="fill:#666666;stroke-width:0.25022486;fill-opacity:1"
     inkscape:connector-curvature="0"
     id="path52"
     d="m 14.0685,10.301014 h 0.5 v 0.5009 a 0.4405,0.44129271 0 0 0 0.881,0 v -0.5009 h 0.5 a 0.4405,0.44129271 0 1 0 0,-0.8825851 h -0.5 V 8.9175291 a 0.4405,0.44129271 0 0 0 -0.881,0 v 0.5008998 h -0.5 a 0.4405,0.44129271 0 0 0 0,0.8825851 z"
     class="cls-5" />
  <path
     style="fill:#666666;stroke-width:0.25022486;fill-opacity:1"
     inkscape:connector-curvature="0"
     id="path54"
     d="m 14.772,17.304094 a 0.44425,0.44504945 0 0 0 0.473,0 31.917,31.974437 0 0 0 8.45725,-8.4697143 C 25.15775,6.6472008 24.8285,3.3304929 22.96825,1.4413494 22.05875,0.51743977 19.482,-1.2980715 15.0085,1.481171 10.535,-1.2988228 7.9585,0.51743977 7.0485,1.4413494 5.18825,3.3307434 4.859,6.6472008 6.3145,8.8343797 A 31.9205,31.977943 0 0 0 14.772,17.304094 Z M 7.675,2.0612129 a 3.89725,3.9042633 0 0 1 2.8655,-1.16960099 c 1.263,0 2.70525,0.49564029 4.22775,1.48266339 a 0.4405,0.44129271 0 0 0 0.47875,0 c 2.872,-1.86134362 5.45725,-1.97554877 7.094,-0.3130624 1.5825,1.6073874 1.86425,4.4259505 0.62825,6.2835373 -2.97375,4.4682768 -6.958,7.3669838 -7.961,8.0559708 C 14.0055,15.712485 10.025,12.819288 7.04775,8.3447502 5.81175,6.4869129 6.0935,3.6683498 7.675,2.0612129 Z"
     class="cls-5" />
</svg>
