<svg xmlns="http://www.w3.org/2000/svg" viewBox="0 0 354.415 209.786">
  <defs>
    <style>
      .cls-1 {
        fill: #0d7ad9;
      }

      .cls-2 {
        fill: #7ad2c4;
      }

      .cls-3 {
        fill: #7d1697;
      }
    </style>
  </defs>
  <title>Club patitas</title>
  <g id="Capa_2" data-name="Capa 2">
    <g id="Capa_1-2" data-name="Capa 1">
      <g>
        <path id="path0_fill" data-name="path0 fill" class="cls-1" d="M269.271,97.48c-15.885,39.712-95.014,66.186-95.014,66.186s-24.415-68.833-8.531-108.545,52.066-62.362,80.6-50.6C275.154,16,285.45,57.769,269.271,97.48Z"/>
        <path id="path1_fill" data-name="path1 fill" class="cls-2" d="M190.436,56C206.026,96.009,166.9,169.255,166.9,169.255S101.894,136.309,86.3,96.3s-5-81.188,23.827-92.366S174.845,16.292,190.436,56Z"/>
        <path id="path2_stroke_2x" data-name="path2 stroke 2x" d="M180.435,181.316l-5,1.765,1.765,5,5-1.765Zm89.719-68.245c-7.354,17.944-29.122,33.534-50.89,45.3-10.59,5.589-20.885,10-28.239,13.237-3.824,1.471-6.766,2.647-9.119,3.53a9.958,9.958,0,0,0-2.353.882,1.027,1.027,0,0,0-.588.294h-.294l1.765,5.295L182.2,186.9h.294c.294,0,.294,0,.588-.294a13.675,13.675,0,0,1,2.647-.882c2.353-.882,5.589-2.059,9.413-3.53,7.648-3.236,18.238-7.648,29.416-13.531,21.768-11.472,47.066-28.828,55.89-50.6Zm-89.719,68.245,5-1.765h0a.911.911,0,0,0-.294-.588,18.749,18.749,0,0,1-.588-2.059c-.588-2.059-1.471-4.707-2.353-8.236a283.409,283.409,0,0,1-6.472-27.651c-4.118-22.062-5.883-47.948,1.471-66.186l-10-4.118c-8.531,21.474-6.177,50.007-2.059,72.363,2.059,11.178,4.707,21.474,6.766,28.534,1.177,3.53,2.059,6.472,2.647,8.531a20.268,20.268,0,0,0,.882,2.353,1.027,1.027,0,0,0,.294.588v.294h0C175.14,183.081,175.14,183.081,180.435,181.316ZM176.9,74.536c7.648-18.826,20-33.534,33.534-42.065s27.945-10.59,40.006-5.589l4.118-10c-16.179-6.766-34.417-3.236-50.007,6.472S175.14,49.826,166.9,70.418Zm73.54-47.654c12.355,5,20.885,16.767,24.709,32.358s2.353,34.711-5,53.831l10,4.118c8.531-20.885,10-42.359,5.589-60.3s-15-33.24-31.181-40.006Z"/>
        <path id="path3_fill" data-name="path3 fill" class="cls-3" d="M289.274,187.493c-38.829,17.944-114.428-17.061-114.428-17.061s29.416-66.774,68.539-84.718,80.6-9.413,93.543,18.532C349.577,132.485,328.1,169.549,289.274,187.493Z"/>
        <path id="path5_stroke_2x" data-name="path5 stroke 2x" d="M181.611,180.433l-5-2.059-2.059,4.707,4.707,2.353Zm113.84,13.826c-17.65,8.236-45.006,4.118-69.128-2.942-11.766-3.53-22.356-7.354-30.3-10.59-3.824-1.471-7.06-2.942-9.119-3.824l-2.353-1.177a1.027,1.027,0,0,1-.588-.294h-.294l-2.353,5-2.353,5h.294c.294,0,.294.294.588.294.588.294,1.471.588,2.647,1.177,2.059.882,5.589,2.353,9.413,4.118,7.942,3.236,19.12,7.354,31.181,10.884,24.121,7.06,55.008,12.355,76.482,2.353Zm-113.84-13.826,5,2.059h0a.911.911,0,0,1,.294-.588,14.341,14.341,0,0,0,.882-2.059c.882-1.765,2.059-4.412,3.824-7.942a271.658,271.658,0,0,1,14.12-25c12.061-19.415,28.534-39.712,46.771-48.242l-4.412-10c-21.474,10-39.123,32.946-51.478,52.36-6.177,10-11.178,19.12-14.708,26.18-1.765,3.53-2.942,6.177-3.824,8.236a17.344,17.344,0,0,0-1.177,2.353,1.027,1.027,0,0,1-.294.588v.294h0C176.61,178.374,176.61,178.374,181.611,180.433ZM252.5,98.657c18.826-8.531,37.947-10.59,53.831-7.354s28.239,12.061,33.828,24.709l9.707-4.412c-7.06-16.473-22.65-27.063-41.182-30.887s-40.006-1.471-60.6,7.942Zm87.66,17.355c5.589,12.649,4.118,27.651-3.824,42.065s-22.062,27.651-40.888,36.182l4.412,10c20.591-9.413,36.77-24.415,45.889-40.888s11.766-35.3,4.412-51.772Z"/>
        <path id="Fill-1" d="M47.768,47.473c5.589-2.942,8.825-13.531,5.589-23.239S40.12,6,31.3,8.644c-9.119,2.647-11.472,13.826-7.06,24.415,5,12.355,18.532,17.061,23.533,14.414"/>
        <path id="Fill-3" d="M86.892,27.764c5-4.412,3.236-16.473-4.707-22.944C77.479,1,68.065-1.946,63.947,1.584c-3.824,3.236-3.824,11.766.294,18.826,4.707,7.648,17.355,12.061,22.65,7.354"/>
        <path id="Fill-6" d="M40.12,140.428c7.354-4.412,6.766-18.238.882-26.474-5-6.766-16.473-11.178-21.18-8.531s-7.648,12.355-3.236,22.062c4.707,10.884,17.061,17.061,23.533,12.943"/>
        <path id="Fill-8" d="M29.825,61C25.118,53.356,15.411,46.591,8.351,49.826-1.356,54.533-.474,66.888.7,71.594c3.53,14.708,18.826,22.062,25,19.415C31,88.655,37.767,73.947,29.825,61"/>
        <path id="Fill-11" d="M89.833,38.942C70.125,41.3,53.652,53.65,44.827,73.065c-4.412,10.3,3.824,17.65,7.942,19.415S66.3,95.127,71.3,85.714,84.538,69.535,98.364,66.3s34.417,2.353,51.478,25c13.826,18.238,18.532,45.006,7.648,68.539-2.647,5.883-9.707,15-21.474,17.355s-23.533-3.236-28.828-9.413c-9.413-10.884-17.061-29.71-14.12-48.242,2.353-14.414-18.826-17.944-21.18-5A81.667,81.667,0,0,0,86.6,176.021c17.355,23.533,35.3,30,57.067,27.063,21.768-3.236,32.652-16.767,40.006-33.828,11.472-26.18,10.59-69.422-23.239-102.368C140.135,46,112.778,36,89.833,38.942"/>
      </g>
    </g>
  </g>
</svg>
