<svg xmlns="http://www.w3.org/2000/svg" viewBox="0 0 30.94 31">
  <defs>
    <style>
      .cls-1 {
        fill: none;
        stroke: #666;
        stroke-linecap: round;
        stroke-linejoin: round;
      }
    </style>
  </defs>
  <title>Entrenamiento</title>
  <g id="Capa_2" data-name="Capa 2">
    <g id="Capa_1-2" data-name="Capa 1">
      <g>
        <path class="cls-1" d="M26.513,18.172a28.277,28.277,0,0,1-2.955,4.385c-1.493,1.684-1.652,3.209-.667,4.353s5.815,1.906,7.054.222-.191-6.2-.572-7.467-3.082-5.084-6.26-4.957-4.321,1.335-6.069.445a23.887,23.887,0,0,1-3.432-2.224S9.291,15.947,11.8,19.506s7.944,2.637,4.448,10.994"/>
        <line class="cls-1" x1="29.182" y1="30.5" x2="29.182" y2="27.725"/>
        <path class="cls-1" d="M.5,13.787l3.643,1.059L12.4,7.3s4.914-1.568,4.067-4.152c-1.525.339-5.677,1.779-5.677,1.779S7.068,7.347,5.584,7.644.5,6.415.5,6.415"/>
        <path class="cls-1" d="M16.318,4.688a26.616,26.616,0,0,0,4.772-2.17c1.059-.847.02-1.354-.361-1.778S18.667.51,17.735.891s-5.348,2-5.348,2L9.8,5.555"/>
        <path class="cls-1" d="M7.871,11.443s3.221-.411,3.814-.58,1.483-.212,1.822-.974.633-2.565-.446-2.829"/>
      </g>
    </g>
  </g>
</svg>
