<svg xmlns="http://www.w3.org/2000/svg" viewBox="0 0 21.776 26.137">
  <defs>
    <style>
      .cls-1 {
        fill: #666;
      }
    </style>
  </defs>
  <title>Gato</title>
  <g id="Capa_2" data-name="Capa 2">
    <g id="Capa_1-2" data-name="Capa 1">
      <g id="Capa_2-2" data-name="Capa 2">
        <g id="Capa_1-2-2" data-name="Capa 1-2">
          <g>
            <path class="cls-1" d="M0,10.346a.544.544,0,0,0,.543.545h0c1.094,0,2.723.87,2.723,3.267A5.889,5.889,0,0,1,2.317,17.1a8.134,8.134,0,0,0-1.227,4.139c0,3.16,1.74,4.9,4.9,4.9H19.058a.545.545,0,0,0,.545-.545V24.5a1.636,1.636,0,0,0-1.631-1.631h-.545V18.1a9.649,9.649,0,0,0,1.082-3.4,5.137,5.137,0,0,0-.793-3.041,1.4,1.4,0,0,1-.3-.77v-.28a7.182,7.182,0,0,1,.1-1.875h0a2.649,2.649,0,0,1,.439-.024c1.474,0,3.812-.739,3.812-2.723,0-.713-.669-1.188-1.259-1.606a4.358,4.358,0,0,1-.534-.413,3.866,3.866,0,0,1-.385-.52c-.378-.571-.848-1.273-1.631-1.273-.17,0-.545-.79-.545-1.631A.544.544,0,0,0,16.881,0h0c-1.66,0-2.395,1.654-2.624,2.321A2.854,2.854,0,0,0,12.524,4.9v5.445c0,.682-1.64,2.146-2.621,3.017-.4.354-.761.679-1.031.951-.185.185-.4.373-.629.571a6.582,6.582,0,0,0-2.8,5.256v2.185A3.8,3.8,0,0,0,6.6,25.048H5.99c-2.565,0-3.812-1.247-3.812-3.812a7.034,7.034,0,0,1,1.1-3.624,6.931,6.931,0,0,0,1.08-3.453C4.356,11.331,2.392,9.8.544,9.8A.544.544,0,0,0,0,10.346Zm6.534,11.98V20.147c0-2.3,1.29-3.439,2.428-4.438.245-.218.479-.422.679-.622.259-.259.607-.571.987-.908,1.691-1.508,2.984-2.748,2.984-3.832V4.9a1.875,1.875,0,0,1,1.265-1.663.551.551,0,0,0,.352-.383A2.819,2.819,0,0,1,16.389,1.2c.147.919.6,2.069,1.579,2.069.2,0,.519.473.727.787a4.485,4.485,0,0,0,.521.687,5.487,5.487,0,0,0,.674.531c.253.179.779.552.8.719,0,1.223-1.87,1.631-2.723,1.631a1.354,1.354,0,0,0-1.458.722,6.809,6.809,0,0,0-.175,2.266v.279a2.415,2.415,0,0,0,.451,1.331,4.089,4.089,0,0,1,.638,2.481A9.183,9.183,0,0,1,16.4,17.718a.549.549,0,0,0-.062.252v5.445a.544.544,0,0,0,.543.545h1.091a.545.545,0,0,1,.545.545v.545H15.248V24.5a1.636,1.636,0,0,0-1.422-1.619L14,22.712a3.553,3.553,0,0,0,1.007-3.963,4.022,4.022,0,0,0-3.571-2.412.545.545,0,1,0,0,1.089h0A2.935,2.935,0,0,1,14,19.162a2.423,2.423,0,0,1-.771,2.772l-1.089,1.089a.545.545,0,0,0,.385.93h1.089a.545.545,0,0,1,.545.545v.545h-4.9A2.725,2.725,0,0,1,6.534,22.325Z"/>
            <path class="cls-1" d="M17.315,5.718a.544.544,0,0,0,.545-.543V4.628a.545.545,0,1,0-1.089,0v.545a.544.544,0,0,0,.543.545Z"/>
          </g>
        </g>
      </g>
    </g>
  </g>
</svg>
