<svg xmlns="http://www.w3.org/2000/svg" viewBox="0 0 39.994 39.994">
  <defs>
    <style>
      .cls-1 {
        fill: #fff;
      }
    </style>
  </defs>
  <title>Instagram</title>
  <g id="Capa_2" data-name="Capa 2">
    <g id="Capa_1-2" data-name="Capa 1">
      <g>
        <circle class="cls-1" cx="19.997" cy="19.997" r="15.979"/>
        <path d="M25.957,10.64H14.037a3.454,3.454,0,0,0-3.451,3.451v11.92a3.455,3.455,0,0,0,3.451,3.451h11.92a3.455,3.455,0,0,0,3.451-3.451V14.091A3.455,3.455,0,0,0,25.957,10.64ZM20,26.247a6.2,6.2,0,1,1,6.2-6.2A6.2,6.2,0,0,1,20,26.247Zm6.4-11.111a1.466,1.466,0,1,1,1.466-1.466A1.468,1.468,0,0,1,26.392,15.136Z"/>
        <path d="M20,16.473a3.578,3.578,0,1,0,3.578,3.577A3.582,3.582,0,0,0,20,16.473Z"/>
        <path d="M20,0a20,20,0,1,0,20,20A20,20,0,0,0,20,0ZM32.026,26.011a6.075,6.075,0,0,1-6.069,6.069H14.037a6.075,6.075,0,0,1-6.069-6.069V14.091a6.076,6.076,0,0,1,6.069-6.069h11.92a6.075,6.075,0,0,1,6.069,6.069Z"/>
      </g>
    </g>
  </g>
</svg>
