<svg xmlns="http://www.w3.org/2000/svg" viewBox="0 0 29.05 23.444">
  <defs>
    <style>
      .cls-1 {
        fill: #fff;
      }
    </style>
  </defs>
  <title>Ser cuidador</title>
  <g id="Capa_2" data-name="Capa 2">
    <g id="Capa_1-2" data-name="Capa 1">
      <g>
        <path class="cls-1" d="M22.971,17.948A5.1,5.1,0,0,1,21.365,22.2a4.643,4.643,0,0,1-5.069.806,3.735,3.735,0,0,0-3.561,0,4.717,4.717,0,0,1-6.618-4.108,10.262,10.262,0,0,1,.858-5.192A8.389,8.389,0,0,1,22.825,16.2C22.9,16.78,22.924,17.366,22.971,17.948Z"/>
        <path class="cls-1" d="M10.3,0a2.615,2.615,0,0,1,1.774.864,5.483,5.483,0,0,1,1.434,4.271,2.988,2.988,0,0,1-2.414,2.611A3.036,3.036,0,0,1,7.683,6.31a5.651,5.651,0,0,1-.917-3.666A3.3,3.3,0,0,1,10.3,0Z"/>
        <path class="cls-1" d="M18.661,7.855a3.168,3.168,0,0,1-3.072-4.038c.145-.545.324-1.084.516-1.615a3.2,3.2,0,0,1,6.111,1.908,17.933,17.933,0,0,1-.582,1.772A3.176,3.176,0,0,1,18.661,7.855Z"/>
        <path class="cls-1" d="M0,8.87A3.016,3.016,0,0,1,1.632,6.377,3.13,3.13,0,0,1,5.011,6.5,3.384,3.384,0,0,1,6.835,9.719a3.165,3.165,0,0,1-4.6,2.642A3.575,3.575,0,0,1,0,8.87Z"/>
        <path class="cls-1" d="M25.392,12.755a3.146,3.146,0,0,1-3.2-3.137,3.769,3.769,0,0,1,3.626-3.577,3.181,3.181,0,0,1,3.232,3.115A3.748,3.748,0,0,1,25.392,12.755Z"/>
      </g>
    </g>
  </g>
</svg>
