<svg xmlns="http://www.w3.org/2000/svg" viewBox="0 0 64.714 68.896">
  <defs>
    <style>
      .cls-1 {
        fill: #fff;
      }

      .cls-2 {
        fill: #00d2c6;
      }

      .cls-3 {
        fill: #cffbf2;
      }
    </style>
  </defs>
  <title>Servicios acupuntura</title>
  <g id="Capa_2" data-name="Capa 2">
    <g id="Capa_1-2" data-name="Capa 1">
      <g>
        <g>
          <path class="cls-1" d="M29.618,35.2l-2.143-4.752-3.05-15.29a6.334,6.334,0,1,1,5.318-1.482l3.321,15.6-.013,5.238,6.86,32.134-3.426.716ZM25.542,6.451a2.486,2.486,0,1,0,2.485,2.486A2.488,2.488,0,0,0,25.542,6.451Z"/>
          <path class="cls-2" d="M25.542,3.593a5.336,5.336,0,0,1,3.079,9.7l.015,0,3.426,16.1-.013,5.238,6.673,31.256-1.468.306-6.681-31.3-2.14-4.746L25.263,14.252a5.333,5.333,0,0,1,.28-10.659m0,8.829a3.485,3.485,0,1,0-3.485-3.485,3.485,3.485,0,0,0,3.485,3.485m0-10.829a7.333,7.333,0,0,0-1.972,14.4l2.9,14.543.045.223.094.208,2.052,4.551L35.3,66.6l.416,1.947,1.949-.407,1.468-.306,1.967-.411-.419-1.965L34.051,34.415l.013-5.025v-.213l-.044-.208L30.836,14.013a7.334,7.334,0,0,0-5.293-12.42Zm0,8.829a1.485,1.485,0,1,1,1.485-1.485,1.487,1.487,0,0,1-1.485,1.485Z"/>
        </g>
        <g>
          <path class="cls-3" d="M40.16,33.9l-1.178-5.079-.019-15.591a6.335,6.335,0,1,1,5.5-.421l.224,15.952L43.66,33.9l.48,32.854-3.5.037ZM41.266,4.836a2.508,2.508,0,1,0,.492.048A2.511,2.511,0,0,0,41.266,4.836Z"/>
          <path class="cls-2" d="M41.264,2a5.338,5.338,0,0,1,2.179,10.216h.015l.231,16.456-1.031,5.136.467,31.957-1.5.015-.468-32-1.176-5.072-.02-16.2A5.333,5.333,0,0,1,41.264,2m.009,8.853a3.511,3.511,0,1,0-.686-.068,3.509,3.509,0,0,0,.686.068M41.264,0a7.332,7.332,0,0,0-3.3,13.882l.018,14.83v.228l.051.222,1.128,4.863.464,31.784.029,1.991,1.991-.02,1.5-.015,2.009-.02-.029-2.009-.464-31.743.989-4.926.042-.209,0-.213-.214-15.29A7.34,7.34,0,0,0,41.264,0Zm.009,8.853a1.531,1.531,0,0,1-.3-.029,1.508,1.508,0,0,1,.29-2.987,1.531,1.531,0,0,1,.3.029,1.508,1.508,0,0,1-.289,2.987Z"/>
        </g>
        <g>
          <path class="cls-1" d="M41.615,66.823,49.527,34.9l.155-5.211,3.953-15.082a6.334,6.334,0,1,1,5.431,1L55.218,31.084l-2.306,4.7-7.9,31.893Zm15.753-59.8a2.477,2.477,0,1,0,1.082.251A2.46,2.46,0,0,0,57.369,7.026Z"/>
          <path class="cls-2" d="M57.37,4.156a5.339,5.339,0,0,1,.857,10.609l.015,0L54.274,30.74l-2.306,4.7L44.279,66.465,42.825,66.1l7.7-31.062.154-5.2,4.109-15.675a5.331,5.331,0,0,1,2.583-10m-.007,8.82a3.476,3.476,0,1,0-1.519-.352,3.474,3.474,0,0,0,1.519.352m.007-10.82A7.331,7.331,0,0,0,52.5,14.979l-3.76,14.345-.058.22-.007.228-.148,4.99L40.884,65.616,40.4,67.549l1.93.488,1.454.367,1.948.492.483-1.95,7.637-30.814,2.212-4.512.094-.191.051-.207L59.9,16.382A7.34,7.34,0,0,0,57.37,2.156Zm-.007,8.82a1.457,1.457,0,0,1-.643-.15,1.475,1.475,0,0,1,.648-2.8,1.475,1.475,0,0,1-.005,2.95Z"/>
        </g>
        <g>
          <path class="cls-1" d="M28.795,46.736,23.919,44.89,10.951,36.237a6.352,6.352,0,0,1-3.635,1.142,6.27,6.27,0,0,1-4.461-1.848,6.344,6.344,0,1,1,10.808-4.1l13.382,8.684,3.695,3.714L58.311,61.7l-1.917,2.929ZM7.34,28.566a2.478,2.478,0,1,0,1.753.726A2.464,2.464,0,0,0,7.34,28.566Z"/>
          <path class="cls-2" d="M7.34,25.7A5.331,5.331,0,0,1,12.6,31.947l.008-.013,13.8,8.959,3.695,3.713L56.925,61.989,56.1,63.244,29.249,45.839,24.38,44,10.9,35a5.351,5.351,0,0,1-3.585,1.377,5.289,5.289,0,0,1-3.754-1.555A5.344,5.344,0,0,1,7.34,25.7m0,8.823A3.479,3.479,0,1,0,4.88,33.5a3.468,3.468,0,0,0,2.46,1.019m0-10.823a7.339,7.339,0,1,0,3.593,13.726L23.27,45.66l.189.126.213.081,4.669,1.767L55.016,64.922l1.671,1.083,1.09-1.666.822-1.255L59.7,61.4l-1.686-1.093L31.373,43.044l-3.544-3.562-.15-.151-.179-.116L14.673,30.891A7.326,7.326,0,0,0,7.34,23.7Zm0,8.823a1.479,1.479,0,1,1,1.046-.433,1.469,1.469,0,0,1-1.046.433Z"/>
        </g>
      </g>
    </g>
  </g>
</svg>
