<svg xmlns="http://www.w3.org/2000/svg" viewBox="0 0 71.194 45.075">
  <defs>
    <style>
      .cls-1 {
        fill: #95ebf9;
      }

      .cls-2 {
        fill: #fff;
      }

      .cls-3 {
        fill: #00d2c6;
      }

      .cls-4 {
        fill: none;
        stroke: #00d2c6;
        stroke-linecap: round;
        stroke-linejoin: round;
        stroke-width: 2px;
      }

      .cls-5 {
        fill: #cdf3fc;
      }
    </style>
  </defs>
  <title>Servicios dental</title>
  <g id="Capa_2" data-name="Capa 2">
    <g id="Capa_1-2" data-name="Capa 1">
      <g>
        <polygon class="cls-1" points="38.646 1.286 38.646 7.728 42.521 14.036 53.958 14.411 70.083 13.661 70.396 7.848 65.646 2.973 57.146 3.286 43.146 2.911 38.646 1.286"/>
        <path class="cls-2" d="M38.575,5.594s1.419,3,10.937,3H69.418S68.825,5.438,67.7,4.313a7,7,0,0,0-3.594-1.469c-.094.031-13.719.125-15.5.125a53.725,53.725,0,0,1-8.094-1.125c-.812-.281-1.625-.558-1.625-.558S38.261,5.186,38.575,5.594Z"/>
        <g>
          <rect class="cls-2" x="1.575" y="36.677" width="37.071" height="7.167"/>
          <path class="cls-2" d="M39.564,31.01H69.825a0,0,0,0,1,0,0v8.667a4.167,4.167,0,0,1-4.167,4.167H39.564a0,0,0,0,1,0,0V31.01A0,0,0,0,1,39.564,31.01Z"/>
          <g id="_Trazado_compuesto_" data-name=" Trazado compuesto ">
            <path class="cls-3" d="M39.564,2a12.139,12.139,0,0,0,5.781,1.807H64.49c2.528,0,4.695,2.888,4.695,6.5V13.2H44.624c-2.528,0-4.695-2.888-5.06-6.5V2m0-2a2,2,0,0,0-2,2V6.695a2.005,2.005,0,0,0,.01.2c.478,4.732,3.509,8.3,7.05,8.3h24.57a2,2,0,0,0,2-2q0-.1-.01-.2V10.309c0-4.688-3-8.5-6.695-8.5H45.4A10.166,10.166,0,0,1,40.618.3,2,2,0,0,0,39.564,0Z"/>
          </g>
          <path class="cls-3" d="M69.17,31.666l.025,6.714c0,2.528-1.446,4.695-3.253,4.695H40.27V31.666h28.9m-31.012,5.6v5.811H2V37.264H38.158m31.012-7.6H40.27a2,2,0,0,0-2,2v3.6q-.056,0-.112,0H2a2,2,0,0,0-2,2v5.811a2,2,0,0,0,2,2H38.158a1.991,1.991,0,0,0,1.056-.3,1.991,1.991,0,0,0,1.056.3H65.941c2.9,0,5.253-3,5.253-6.695l-.025-6.721a2,2,0,0,0-2-1.993Z"/>
        </g>
        <line class="cls-4" x1="41.158" y1="29.635" x2="41.158" y2="19.677"/>
        <line class="cls-4" x1="45.561" y1="29.635" x2="45.561" y2="19.677"/>
        <line class="cls-4" x1="50.167" y1="29.635" x2="50.167" y2="19.677"/>
        <line class="cls-4" x1="54.802" y1="29.635" x2="54.802" y2="19.677"/>
        <line class="cls-4" x1="59.205" y1="29.635" x2="59.205" y2="19.677"/>
        <line class="cls-4" x1="63.811" y1="29.635" x2="63.811" y2="19.677"/>
        <line class="cls-4" x1="68.34" y1="29.635" x2="68.34" y2="19.677"/>
        <rect class="cls-5" x="35.597" y="37.264" width="2.561" height="5.83"/>
      </g>
    </g>
  </g>
</svg>
