<svg xmlns="http://www.w3.org/2000/svg" viewBox="0 0 60.25 60.25">
  <defs>
    <style>
      .cls-1, .cls-4 {
        fill: #fff;
      }

      .cls-2 {
        fill: #95ebf9;
      }

      .cls-3 {
        fill: none;
        stroke-linejoin: round;
      }

      .cls-3, .cls-4 {
        stroke: #00d2c6;
        stroke-width: 2px;
      }

      .cls-4 {
        stroke-miterlimit: 10;
      }

      .cls-5 {
        fill: #00d2c6;
      }
    </style>
  </defs>
  <title>Servicios veterinario</title>
  <g id="Capa_2" data-name="Capa 2">
    <g id="Capa_1-2" data-name="Capa 1">
      <g>
        <rect class="cls-1" x="4.76" y="25.01" width="12.898" height="13.83"/>
        <path class="cls-2" d="M38.635,5.739H26.573a.917.917,0,0,0-.917.917V19.385H23.484a2.526,2.526,0,0,1-2.526-2.526V3.526A2.526,2.526,0,0,1,23.484,1H38.635Z"/>
        <rect class="cls-1" x="24.594" y="4.917" width="14.626" height="11.993"/>
        <path class="cls-3" d="M39.292,17.433V3.62A2.62,2.62,0,0,0,36.672,1H23.578a2.62,2.62,0,0,0-2.62,2.62V17.433"/>
        <rect class="cls-1" x="43.661" y="21.501" width="15.099" height="17.34"/>
        <rect class="cls-1" x="25.556" y="44" width="13.08" height="14.363"/>
        <path class="cls-2" d="M37.391,44.146,26.573,45.6a.917.917,0,0,0-.917.917V59.25H23.484a2.526,2.526,0,0,1-2.526-2.526V43.391a2.526,2.526,0,0,1,2.526-2.526h14.09Z"/>
        <path class="cls-3" d="M20.958,42.817V56.63a2.62,2.62,0,0,0,2.62,2.62H36.672a2.62,2.62,0,0,0,2.62-2.62V42.817"/>
        <path class="cls-2" d="M17.433,25.646H6.614a.917.917,0,0,0-.917.917V39.292H3.526A2.526,2.526,0,0,1,1,36.766V23.433a2.526,2.526,0,0,1,2.526-2.526h14.09Z"/>
        <path class="cls-3" d="M42.817,39.292H56.63a2.62,2.62,0,0,0,2.62-2.62V23.578a2.62,2.62,0,0,0-2.62-2.62H42.817"/>
        <path class="cls-3" d="M17.433,20.958H3.62A2.62,2.62,0,0,0,1,23.578V36.672a2.62,2.62,0,0,0,2.62,2.62H17.433"/>
        <circle class="cls-4" cx="30.441" cy="29.845" r="15.632"/>
        <g>
          <g>
            <path class="cls-1" d="M28.259,39.84c-1.231,0-2.426-1.032-3.362-2.908A3.186,3.186,0,0,0,23.59,35.54c-1.923-1.052-2.819-2.134-2.739-3.308.146-2.121,3.732-3.939,6.565-3.939a4.627,4.627,0,0,1,2.968.934c1.883,1.537,1.843,4.5,1.177,6.768-.513,1.743-1.587,3.665-3.063,3.833A2.139,2.139,0,0,1,28.259,39.84Z"/>
            <path class="cls-5" d="M27.416,29.294A3.646,3.646,0,0,1,29.751,30c2.628,2.146.491,8.622-1.366,8.832a1.106,1.106,0,0,1-.126.007c-.8,0-1.71-.838-2.468-2.354a4.191,4.191,0,0,0-1.721-1.822C22.859,34,21.789,33.173,21.849,32.3c.1-1.391,3.075-3.007,5.566-3.008m0-2h0c-2.947,0-7.358,1.9-7.562,4.871-.163,2.382,2.411,3.791,3.256,4.254A2.191,2.191,0,0,1,24,37.38c1.115,2.232,2.627,3.461,4.257,3.461a3.129,3.129,0,0,0,.351-.02c2.471-.28,3.618-3.549,3.91-4.544.756-2.571.758-5.977-1.5-7.824a5.606,5.606,0,0,0-3.6-1.159Z"/>
          </g>
          <g>
            <path class="cls-1" d="M24.284,26.01c-1.364,0-2.716-1.607-2.729-3.245a2.786,2.786,0,0,1,1.839-2.812,1.961,1.961,0,0,1,.426-.047,3.091,3.091,0,0,1,2.659,2.474A3.493,3.493,0,0,1,25.991,25a2.157,2.157,0,0,1-1.4.98A1.823,1.823,0,0,1,24.284,26.01Z"/>
            <path class="cls-5" d="M23.82,20.907c.742,0,1.5.86,1.683,1.693.228,1.015-.321,2.267-1.081,2.4a.8.8,0,0,1-.138.012c-.806,0-1.72-1.151-1.729-2.253-.006-.7.355-1.668,1.061-1.828a.927.927,0,0,1,.2-.023m0-2a2.932,2.932,0,0,0-.645.072,3.742,3.742,0,0,0-2.621,3.795c.016,2,1.614,4.237,3.729,4.237a2.816,2.816,0,0,0,.479-.041,3.143,3.143,0,0,0,2.059-1.409,4.527,4.527,0,0,0,.633-3.4,4.072,4.072,0,0,0-3.634-3.255Z"/>
          </g>
          <g>
            <path class="cls-1" d="M37.4,39.061a3.293,3.293,0,0,1-.762-.087,3.49,3.49,0,0,1-2.145-1.588,2.159,2.159,0,0,1-.269-1.686,2.714,2.714,0,0,1,2.735-1.644,3.483,3.483,0,0,1,1.49.323,2.784,2.784,0,0,1,1.72,2.887A2.714,2.714,0,0,1,37.4,39.061Z"/>
            <path class="cls-5" d="M36.959,35.057a2.474,2.474,0,0,1,1.058.225c.634.3,1.344,1.051,1.178,1.755-.154.652-1,1.023-1.8,1.023A2.321,2.321,0,0,1,36.866,38c-1.012-.24-1.9-1.282-1.682-2.023.164-.564.954-.922,1.774-.922m0-2h0a3.657,3.657,0,0,0-3.7,2.365,3.144,3.144,0,0,0,.364,2.468,4.527,4.527,0,0,0,2.778,2.058,4.318,4.318,0,0,0,.993.113A3.667,3.667,0,0,0,41.142,37.5a3.742,3.742,0,0,0-2.262-4.019,4.477,4.477,0,0,0-1.92-.421Z"/>
          </g>
          <g>
            <path class="cls-1" d="M31.443,25.961a2.176,2.176,0,0,1-.8-.149A2.586,2.586,0,0,1,29.2,24.16a4.562,4.562,0,0,1,.368-3.667,3.8,3.8,0,0,1,2.947-1.907,2.264,2.264,0,0,1,.726.118,2.754,2.754,0,0,1,1.688,1.988,4.417,4.417,0,0,1-.062,2.514A4.053,4.053,0,0,1,31.443,25.961Z"/>
            <path class="cls-5" d="M32.519,19.586a1.265,1.265,0,0,1,.406.065c1.047.353,1.4,2.048,1,3.235a3.066,3.066,0,0,1-2.481,2.075,1.178,1.178,0,0,1-.435-.079c-1.06-.418-1.38-2.532-.577-3.876a2.81,2.81,0,0,1,2.089-1.421m0-2a4.764,4.764,0,0,0-3.806,2.395,5.6,5.6,0,0,0-.457,4.5,3.568,3.568,0,0,0,2.016,2.261,3.171,3.171,0,0,0,1.168.218,5.045,5.045,0,0,0,4.376-3.435,5.437,5.437,0,0,0,.078-3.1,3.735,3.735,0,0,0-2.333-2.672,3.267,3.267,0,0,0-1.044-.17Z"/>
          </g>
          <g>
            <path class="cls-1" d="M37.453,31.365c-1.448,0-3.09-.732-3.423-2.134a2.588,2.588,0,0,1,.534-2.125,4.559,4.559,0,0,1,3.216-1.8c.089-.007.181-.01.274-.01,1.306,0,2.895.624,3.3,2a2.757,2.757,0,0,1-.664,2.522,4.416,4.416,0,0,1-2.1,1.39A4.057,4.057,0,0,1,37.453,31.365Z"/>
            <path class="cls-5" d="M38.055,26.3c.919,0,2.081.409,2.335,1.276.311,1.061-.878,2.32-2.081,2.671a3.066,3.066,0,0,1-.856.117C36.324,30.365,35.194,29.8,35,29c-.264-1.109,1.286-2.582,2.848-2.692.067,0,.135-.007.205-.007m0-2c-.118,0-.234,0-.347.012a5.6,5.6,0,0,0-3.952,2.2,3.567,3.567,0,0,0-.7,2.948c.454,1.9,2.555,2.9,4.4,2.9a5.054,5.054,0,0,0,1.416-.2,5.436,5.436,0,0,0,2.586-1.71,3.735,3.735,0,0,0,.855-3.443c-.549-1.875-2.532-2.714-4.254-2.714Z"/>
          </g>
        </g>
      </g>
    </g>
  </g>
</svg>
