<svg xmlns="http://www.w3.org/2000/svg" viewBox="0 0 220 160.458">
  <defs>
    <style>
      .cls-1 {
        fill: #fed2ff;
      }

      .cls-2 {
        fill: #683113;
      }

      .cls-3 {
        fill: #894a20;
      }

      .cls-4 {
        fill: #1a1a1a;
      }

      .cls-5 {
        fill: #e3b180;
      }

      .cls-6 {
        fill: #e2a069;
      }

      .cls-7 {
        fill: #fff7d7;
      }

      .cls-8 {
        fill: #ffe1bf;
      }

      .cls-9 {
        fill: #dbdcde;
      }

      .cls-10 {
        fill: #fffffd;
      }

      .cls-11 {
        fill: #f8ffff;
      }

      .cls-12 {
        fill: #aba6ac;
      }

      .cls-13, .cls-28 {
        fill: #fff;
      }

      .cls-14 {
        fill: #d67a13;
      }

      .cls-15 {
        fill: #ffd17c;
      }

      .cls-16 {
        fill: #fa9e19;
      }

      .cls-17 {
        fill: #fb9d21;
      }

      .cls-18 {
        fill: #fdfdfd;
      }

      .cls-19 {
        fill: #fee2bd;
      }

      .cls-20 {
        fill: #e6b384;
      }

      .cls-21 {
        fill: #fffaff;
      }

      .cls-22 {
        fill: #e2a548;
      }

      .cls-23 {
        fill: #c27c24;
      }

      .cls-24 {
        fill: #995b10;
      }

      .cls-25 {
        fill: #c07e2a;
      }

      .cls-26 {
        fill: #c07c27;
      }

      .cls-27 {
        fill: #515556;
      }

      .cls-28 {
        stroke: #000;
        stroke-miterlimit: 10;
        stroke-width: 3px;
      }
    </style>
  </defs>
  <title>Recurso 48</title>
  <g id="Capa_2" data-name="Capa 2">
    <g id="Capa_1-2" data-name="Capa 1">
      <circle class="cls-1" cx="57.054" cy="86.236" r="49.112"/>
      <circle class="cls-1" cx="165.323" cy="106.817" r="34.314"/>
      <g>
        <g>
          <g>
            <g>
              <path class="cls-2" d="M89.22,31.361c2.4-18.232,16.313-11.275,16.313-11.275s.679-8.4,16.412-6.237c8,1.1,15.278,2.946,21.04,7.362-5.678-14.136-16.935-17.987-30.156-19.8C97.095-.75,96.416,7.647,96.416,7.647S82.5.69,80.1,18.922,78.9,44.83,78.9,61.143c0,11.682,7.48,20.287,11.727,24.232A28.592,28.592,0,0,1,88.02,73.583C88.02,57.27,86.821,49.593,89.22,31.361Z"/>
              <path class="cls-2" d="M167.221,70.24a16.946,16.946,0,0,0-2.915-5.259c-2.017-2.48-3.772-4.474-5.325-6.206.108.247.217.485.328.721v0C162.8,73.173,150,89.84,150,89.84s-35.579,15.485-54.677,1.475c-.377-1.012-.721-2.072-1.024-3.189a34.614,34.614,0,0,1-3.969-3.467c.1.239.2.482.3.716a31.231,31.231,0,0,0,2.86,2.4,34.435,34.435,0,0,0,1.942,5.391,25.747,25.747,0,0,0,8.2,10.238c19.1,14.01,54.677-1.475,54.677-1.475S171.968,84.144,167.221,70.24Zm-1.258-1.4-.023-.026Zm-1.158-1.306-.056-.064Zm-4.729-6.518-.031-.057Zm3.645,5.251-.07-.084Zm-1.012-1.256-.069-.089Zm-.94-1.271-.061-.088Zm-.876-1.321-.048-.078Z"/>
              <path class="cls-3" d="M159.308,59.494c-.11-.235-.219-.473-.326-.719-4.522-5.044-7.285-7.805-9.532-13.442a81.311,81.311,0,0,1-3.855-14.9,48.688,48.688,0,0,0-2.61-9.226,29.291,29.291,0,0,0-5.823-3.444,55.371,55.371,0,0,0-15.217-3.918c-15.734-2.159-16.412,6.237-16.412,6.237S91.618,13.13,89.22,31.361s-1.2,25.909-1.2,42.221a28.365,28.365,0,0,0,2.308,11.076A34.614,34.614,0,0,0,94.3,88.126c.3,1.117.647,2.177,1.024,3.189C114.419,105.325,150,89.84,150,89.84S162.8,73.173,159.308,59.494Z"/>
            </g>
            <path class="cls-4" d="M124.783,110.351a40.277,40.277,0,0,1-17.435-3.5c-7.359-3.535-12.329-9.74-14.775-18.448-2.2-1.655-14.723-11.732-14.723-27.261,0-4.34-.084-8.006-.165-11.552a172.788,172.788,0,0,1,1.373-30.807c.824-6.264,3.074-10.412,6.688-12.331,3.787-2.012,7.959-.963,9.955-.242a8.036,8.036,0,0,1,2.555-3.476c3.1-2.488,8.047-3.284,14.714-2.37,17.3,2.373,29.639,8.363,33.658,29.876,3.125,16.724,5.532,19.394,11.965,26.527,1.862,2.065,3.972,4.4,6.529,7.547,11.9,14.63-5.244,37.291-5.98,38.249l-.165.215-.249.108C157.792,103.3,141.332,110.35,124.783,110.351ZM90.649,7.4a8.278,8.278,0,0,0-3.928.919c-2.97,1.585-4.846,5.2-5.576,10.74a171.1,171.1,0,0,0-1.355,30.484c.081,3.557.165,7.236.165,11.6,0,15.588,14,25.669,14.143,25.769l.309.218.1.365c2.242,8.277,6.868,14.151,13.75,17.457,18.076,8.686,46.4-2.648,49.378-3.886,1.712-2.334,16.129-22.792,5.854-35.422-2.522-3.1-4.614-5.419-6.458-7.465-6.534-7.245-9.238-10.243-12.471-27.55-3.8-20.343-15.014-25.864-31.875-28.178-7.506-1.03-11.241.455-13.053,1.881a5.417,5.417,0,0,0-2.168,3.409l-.154,1.517-1.365-.671A13.433,13.433,0,0,0,90.649,7.4Z"/>
          </g>
          <g>
            <path class="cls-5" d="M106.975,78.383l8.593,15.54,9.7-4.6,4.83-20.358V68l-.1-.525C124.426,76.124,114.065,78.12,106.975,78.383Z"/>
            <path class="cls-6" d="M130,67.473,128.74,60.6,102.709,70.666l4.267,7.716C114.065,78.12,124.426,76.124,130,67.473Z"/>
            <path class="cls-4" d="M115.126,95.3,101.2,70.12l28.343-10.955,1.6,8.833v1.086l-4.975,20.969ZM104.213,71.213l11.8,21.334,8.347-3.963,4.685-19.747v-.744l-1.108-6.049Z"/>
          </g>
          <g>
            <g>
              <g>
                <path class="cls-5" d="M90.444,45.67c9.356-4.318,7.8-13.794,8.636-19.551,3.6,3.958,19.431,5.158,25.309,8.4A11.941,11.941,0,0,1,127,36.5c-1.309-2.982-3.69-7.2-7.284-9.183C113.834,24.079,98,22.88,94.4,18.922c-.84,5.757.72,15.233-8.636,19.551,0,0-.2,19.653,8.573,28.273C90.333,57.429,90.444,45.67,90.444,45.67Z"/>
                <path class="cls-7" d="M136.264,38.473a10.111,10.111,0,0,0-1.694-2.056,7.719,7.719,0,0,1,.632,2.707c.223,5.287-5.536,8.825-5.536,8.825a25.276,25.276,0,0,1-8.242,16.193c-7.882,7.2-14.668,7.916-26.543,1.32a13.384,13.384,0,0,1-1.393-.9c.261.738.542,1.469.85,2.185A14.222,14.222,0,0,0,97.4,69.059c11.875,6.6,18.661,5.877,26.543-1.32a25.276,25.276,0,0,0,8.242-16.193s5.758-3.538,5.536-8.825A8.369,8.369,0,0,0,136.264,38.473Z"/>
                <path class="cls-8" d="M121.425,64.141a25.276,25.276,0,0,0,8.242-16.193s5.758-3.538,5.536-8.825a7.719,7.719,0,0,0-.632-2.707c-2.837-2.522-4.883.357-5.8,2.153a11.138,11.138,0,0,0-.541,1.222A28.945,28.945,0,0,0,127,36.5a13.627,13.627,0,0,0-1.036-.92c-.163.368-.251.613-.251.613s-.118-.406-.35-1.064a10.435,10.435,0,0,0-.969-.616c-5.878-3.239-21.711-4.438-25.309-8.4-.84,5.757.72,15.233-8.636,19.551A63.268,63.268,0,0,0,93.49,64.561a13.384,13.384,0,0,0,1.393.9C106.757,72.058,113.543,71.338,121.425,64.141Z"/>
              </g>
              <path class="cls-4" d="M111.242,74.679c-4.154,0-8.735-1.577-14.356-4.7C84.606,63.156,84.7,39.468,84.711,38.463l.007-.666.6-.28c7.013-3.236,7.387-9.512,7.718-15.049.079-1.319.153-2.564.318-3.7l.322-2.2,1.5,1.648c1.8,1.984,7.86,3.373,13.2,4.6,4.7,1.078,9.137,2.1,11.835,3.583,4.311,2.376,6.938,7.609,8.174,10.7a5.342,5.342,0,0,1,3.578-2.7c1.782-.21,3.524.964,5.175,3.5a8.845,8.845,0,0,1,1.436,6.95c-.858,3.8-4.156,6.426-5.386,7.29a26.475,26.475,0,0,1-8.541,16.379C120.134,72.64,115.964,74.679,111.242,74.679Zm-24.42-35.55c.074,3.814.955,23.382,11.087,29.011,11.171,6.206,17.56,5.909,25.322-1.177a24.335,24.335,0,0,0,7.9-15.458l.022-.561.479-.294c.039-.024,4.06-2.545,4.895-6.274a6.822,6.822,0,0,0-1.148-5.329c-1.142-1.756-2.262-2.665-3.159-2.56-1.455.173-2.686,2.762-3,3.656l-1.1,3.1-.907-3.156c-.025-.088-2.594-8.857-8.012-11.842-2.441-1.345-6.94-2.377-11.291-3.375-5.028-1.154-9.829-2.255-12.66-3.952-.041.541-.074,1.1-.109,1.681C94.82,27.967,94.384,35.274,86.822,39.128Z"/>
            </g>
            <path class="cls-4" d="M95.47,56.478a1.052,1.052,0,0,1-.979-.666l-1.956-4.945a4.374,4.374,0,1,1,8.136-3.218l1.956,4.945a1.052,1.052,0,1,1-1.957.774l-1.956-4.945a2.27,2.27,0,1,0-4.222,1.67l1.956,4.945a1.054,1.054,0,0,1-.978,1.44Z"/>
            <path class="cls-4" d="M113.3,51.733a1.052,1.052,0,0,1-.979-.666l-1.956-4.945A4.375,4.375,0,0,1,118.5,42.9l1.956,4.945a1.052,1.052,0,1,1-1.957.774l-1.956-4.945a2.27,2.27,0,0,0-4.222,1.67l1.956,4.945a1.054,1.054,0,0,1-.978,1.44Z"/>
            <path class="cls-4" d="M108.384,63.392a10.32,10.32,0,0,1-7.562-3.673,1.052,1.052,0,0,1,1.651-1.305,8.074,8.074,0,0,0,6.835,2.813,7.567,7.567,0,0,0,6.1-5.024,1.052,1.052,0,1,1,1.989.689,9.686,9.686,0,0,1-7.815,6.423A9.276,9.276,0,0,1,108.384,63.392Z"/>
          </g>
        </g>
        <g>
          <g>
            <path class="cls-9" d="M136.131,74.558c-.192-.085-.332-.145-.4-.174l-17.445,20.23-1.315,40.142s.87-.777,2.37-2.17l1.313-40.077Z"/>
            <path class="cls-9" d="M138.1,72.279l-1.965,2.279c2.66,1.169,16.221,7.438,19.885,15.3-4.382,7.625-10.782,15.746-17.246,23.081-7.975,8.806-15.681,16.165-19.433,19.651l0,.066s10.641-9.5,21.8-21.821C147.6,103.5,154,95.373,158.384,87.749,154.455,79.324,139.143,72.722,138.1,72.279Z"/>
            <path class="cls-10" d="M138.771,112.935c6.464-7.335,12.864-15.457,17.246-23.081-3.664-7.857-17.226-14.127-19.885-15.3l-15.48,17.951-1.313,40.077C123.09,129.1,130.8,121.74,138.771,112.935Z"/>
          </g>
          <path class="cls-4" d="M116.608,135.808a1.052,1.052,0,0,1-1.052-1.087l1.315-40.142a1.049,1.049,0,0,1,.255-.653l19.753-22.905a1.054,1.054,0,0,1,1.2-.285c.68.283,16.7,7.031,20.9,16.021a1.052,1.052,0,0,1-.041.969c-12.44,21.646-41.338,47.555-41.628,47.814A1.052,1.052,0,0,1,116.608,135.808Zm2.355-40.789-1.221,37.274c6.489-6.007,28.514-27.036,39.089-45.13-3.7-7.042-15.827-12.819-18.864-14.18Z"/>
        </g>
        <g>
          <path class="cls-11" d="M127.277,98.838a4.8,4.8,0,0,1,1.036-2.983,4.829,4.829,0,1,0,5.7,7.42,4.83,4.83,0,0,1-6.739-4.437Z"/>
          <path class="cls-12" d="M130.222,95.462a4.813,4.813,0,0,0-1.909.393,4.828,4.828,0,0,0,5.7,7.42,4.826,4.826,0,0,0-3.794-7.813Z"/>
          <path class="cls-4" d="M130.222,106.174a5.882,5.882,0,1,1,5.882-5.882A5.889,5.889,0,0,1,130.222,106.174Zm0-9.66A3.778,3.778,0,1,0,134,100.292,3.782,3.782,0,0,0,130.222,96.514Z"/>
        </g>
        <g>
          <path class="cls-13" d="M166.542,114.176l-2.514,1.591a43.107,43.107,0,0,1-8.813,19.287c-10.589,12.891-21.9,15.917-34.169,16.574a10.026,10.026,0,0,1-5.351-5.274l-.276.175s.6,10.26,7.337,12.76c12.267-.658,23.58-3.683,34.169-16.574S166.542,114.176,166.542,114.176Z"/>
          <path class="cls-9" d="M121.046,151.628c12.267-.658,23.58-3.683,34.169-16.574a43.107,43.107,0,0,0,8.813-19.287L115.7,146.354A10.026,10.026,0,0,0,121.046,151.628Z"/>
          <path class="cls-4" d="M122.595,160.351l-.2-.076c-7.3-2.707-8-13.238-8.022-13.685l-.035-.619,53.149-33.635.11,1.775c.041.656.875,16.211-9.854,29.272-11.392,13.868-23.518,16.346-34.926,16.957Zm-6.066-13.279c.248,2.114,1.439,9.145,6.4,11.153,10.862-.606,22.387-3.031,33.187-16.179,8.115-9.879,9.262-21.526,9.386-25.964Z"/>
        </g>
        <g>
          <path class="cls-13" d="M65.8,114.176l2.514,1.591a43.107,43.107,0,0,0,8.813,19.287c10.589,12.891,21.9,15.917,34.169,16.574a10.026,10.026,0,0,0,5.351-5.274l.276.175s-.6,10.26-7.337,12.76c-12.267-.658-23.58-3.683-34.169-16.574S65.8,114.176,65.8,114.176Z"/>
          <path class="cls-9" d="M111.3,151.628c-12.267-.658-23.58-3.683-34.169-16.574a43.107,43.107,0,0,1-8.813-19.287l48.333,30.587A10.026,10.026,0,0,1,111.3,151.628Z"/>
          <path class="cls-4" d="M109.748,160.351l-.218-.012C98.123,159.728,86,157.25,74.605,143.382c-10.728-13.061-9.894-28.616-9.854-29.272l.11-1.775,53.149,33.635-.035.619c-.026.447-.719,10.978-8.023,13.685Zm-42.9-44.267c.129,4.443,1.285,16.1,9.384,25.963,10.8,13.148,22.325,15.573,33.187,16.179,4.957-2.008,6.148-9.039,6.4-11.153Z"/>
        </g>
        <g>
          <g>
            <path class="cls-14" d="M138.553,110.62c-1.842-5.582.132-9.988,0-10.383-.071-.212-.58-2.234-1.035-4.057a24.874,24.874,0,0,1-.687-4.425,4.62,4.62,0,0,0-2.643-.592,1.615,1.615,0,0,0-1.489,1.61h0a24.874,24.874,0,0,0,.741,6.025c.455,1.822.964,3.844,1.035,4.057.132.395-1.842,4.8,0,10.383s10.852,10.861,20.751,7.9a24.421,24.421,0,0,0,8.641-4.406,28.468,28.468,0,0,1-4.563,1.786C149.406,121.482,140.395,116.2,138.553,110.62Z"/>
            <path class="cls-15" d="M165.256,96.346l-.533-2.946a33.829,33.829,0,0,0-2.055-6.974l-.031-.074a2.877,2.877,0,0,0-2.151-1.715,1.147,1.147,0,0,0-1.163.517l-1.3,2.05a2.853,2.853,0,0,1,1.982,1.676l.031.074a33.829,33.829,0,0,1,2.055,6.974l.533,2.946s4.144,2.565,4.209,9.011a13.879,13.879,0,0,1-3.193,8.958c.074-.036.152-.07.225-.106a14.414,14.414,0,0,0,5.6-11.379C169.4,98.911,165.256,96.346,165.256,96.346Z"/>
            <path class="cls-16" d="M162.626,98.873l-.533-2.946a33.829,33.829,0,0,0-2.055-6.974l-.031-.074a2.853,2.853,0,0,0-1.982-1.676l-1.005,1.586-1.745,2.755c-.293-.033-.626-.061-.976-.085A20.989,20.989,0,0,0,140.987,95.1L137.5,92.21a4.633,4.633,0,0,0-.665-.454,24.874,24.874,0,0,0,.687,4.425l.236.945c.38,1.517.74,2.935.8,3.111.132.395-1.842,4.8,0,10.383s10.852,10.861,20.751,7.9a28.572,28.572,0,0,0,4.338-1.68,13.879,13.879,0,0,0,3.193-8.958C166.769,101.438,162.626,98.873,162.626,98.873Z"/>
          </g>
          <circle class="cls-4" cx="145.525" cy="106.737" r="2.214"/>
          <circle class="cls-4" cx="156.925" cy="103.668" r="2.214"/>
          <path class="cls-4" d="M151.9,111.812l-1.25-.8c-.755-.483-.4-1.52.6-1.764l1.991-.485c1-.244,1.793.514,1.345,1.29l-.742,1.285A1.472,1.472,0,0,1,151.9,111.812Z"/>
          <path class="cls-4" d="M151.24,116.63a3.373,3.373,0,0,1-1-.152,3.334,3.334,0,0,1-1.975-1.64l-.562-1.019a1.052,1.052,0,0,1,1.843-1.016l.571,1.036a1.256,1.256,0,0,0,1.7.54,1.25,1.25,0,0,0,.523-1.688l-.676-1.3a1.052,1.052,0,0,1,1.868-.969l.673,1.3a3.358,3.358,0,0,1-2.967,4.914Z"/>
          <path class="cls-14" d="M133.928,109.991s-14.233,2.443-14.3,19.043c-.072,18.942,21.573,8.09,24.8,2.236a22.847,22.847,0,0,0-1.118-9.339A23.705,23.705,0,0,0,133.928,109.991Z"/>
          <path class="cls-4" d="M155.611,115.228a3.361,3.361,0,0,1-3.17-2.25l-.488-1.372a1.052,1.052,0,0,1,1.982-.706l.491,1.378a1.248,1.248,0,0,0,.639.72,1.25,1.25,0,0,0,1.723-1.537l-.375-1.143a1.052,1.052,0,0,1,2-.656l.368,1.124a3.356,3.356,0,0,1-3.171,4.441Z"/>
          <path class="cls-4" d="M149.668,123.033c-7.692,0-14.324-4.266-16.038-9.463a17.627,17.627,0,0,1-.163-10.214c.034-.133.073-.289.1-.4-.095-.349-.333-1.271-.991-3.9a25.973,25.973,0,0,1-.772-6.28,2.681,2.681,0,0,1,2.459-2.66,5.633,5.633,0,0,1,4.06,1.284l2.891,2.389a22.076,22.076,0,0,1,13.674-3.355l3.7-5.843a2.2,2.2,0,0,1,2.231-.991,3.884,3.884,0,0,1,2.944,2.348l.03.073a34.919,34.919,0,0,1,2.12,7.191l.457,2.528c1.138.881,4.243,3.813,4.3,9.606.079,7.692-5.525,13.974-14.99,16.8A20.97,20.97,0,0,1,149.668,123.033ZM134.709,92.2c-.095,0-.189,0-.284.011a.566.566,0,0,0-.519.561,23.865,23.865,0,0,0,.71,5.77c.8,3.207.979,3.873,1.014,3.984a2.31,2.31,0,0,1-.121,1.34,15.655,15.655,0,0,0,.12,9.04c1.6,4.839,9.967,10.057,19.45,7.223,8.515-2.546,13.557-8.066,13.489-14.766-.059-5.8-3.674-8.1-3.711-8.127l-.4-.246-.616-3.408a32.841,32.841,0,0,0-1.992-6.756l-.03-.073a1.79,1.79,0,0,0-1.358-1.083.1.1,0,0,0-.1.043l-4.4,6.948-.655-.075a19.968,19.968,0,0,0-13.572,3.374l-.654.449-4.1-3.391A3.548,3.548,0,0,0,134.709,92.2Z"/>
          <path class="cls-4" d="M136.8,100.686l2.828-2.894-3.756-2.316a.1.1,0,0,0-.144.1Z"/>
          <path class="cls-15" d="M154.972,129.724c-1.493-4.571-8.57-8.846-10.543-8.846-.107,0-.207.007-.306.015,2.862,1.529,6.71,4.612,7.765,7.845,1.493,4.571-1.138,8.233-3.44,8.507-.049.006-.1,0-.152.006a5.3,5.3,0,0,0,3.237.981C153.834,137.957,156.465,134.3,154.972,129.724Z"/>
          <path class="cls-17" d="M151.888,128.738c-1.056-3.233-4.9-6.316-7.765-7.845-4.167.306-1.425,6.868-1.425,6.868s2.915,3.9,2.956,5.983c.024,1.2,1.205,2.589,2.642,3.507.05,0,.1,0,.152-.006C150.75,136.971,153.38,133.309,151.888,128.738Z"/>
          <path class="cls-4" d="M158.438,93.254s1.622-4.078,1.973-3.815,1.579,5.525,1.579,5.525Z"/>
          <path class="cls-4" d="M128.149,140.768a11.265,11.265,0,0,1-2.825-.34c-3.093-.8-6.773-3.43-6.743-11.4.065-17.283,15.019-20.05,15.17-20.076l.356,2.074c-.544.1-13.362,2.527-13.421,18.01-.02,5.313,1.718,8.459,5.167,9.352,6.206,1.611,15.769-4.2,17.655-7.628l1.844,1.015C143.375,135.366,135.088,140.768,128.149,140.768Z"/>
          <path class="cls-4" d="M149.838,139.281a4.294,4.294,0,0,1-2.083-.5c-1.36-.74-1.985-2.165-2.778-3.968-.276-.629-.59-1.342-.963-2.089-1.718-3.436-6.706-3.5-6.756-3.5l0-2.1c.257,0,6.333.053,8.637,4.659.4.794.721,1.532,1.008,2.184.656,1.492,1.129,2.57,1.857,2.966a3.047,3.047,0,0,0,2.167.1l.075-.017a4.615,4.615,0,0,0,2.188-1.265c1.6-1.737,1.066-4.608.763-5.762a9.8,9.8,0,0,0-4.078-5.344,12.736,12.736,0,0,0-5.177-2.215l-.151-.04-3.422-1.177.685-1.991,3.349,1.153a14.85,14.85,0,0,1,5.958,2.571,11.873,11.873,0,0,1,4.872,6.508c.826,3.146.37,5.96-1.25,7.722a6.654,6.654,0,0,1-3.27,1.892A6.95,6.95,0,0,1,149.838,139.281Z"/>
          <path class="cls-4" d="M126.473,124.956a1.049,1.049,0,0,1-.744-.308c-1.988-1.987-4.794-.664-4.912-.605a1.052,1.052,0,0,1-.929-1.889c.172-.085,4.266-2.058,7.329,1.006a1.052,1.052,0,0,1-.744,1.8Z"/>
          <path class="cls-4" d="M131.736,120.878a1.051,1.051,0,0,1-.859-.443c-2.415-3.4-7.765-1.854-7.818-1.837a1.052,1.052,0,0,1-.607-2.015c.276-.084,6.847-2.008,10.142,2.634a1.052,1.052,0,0,1-.857,1.661Z"/>
        </g>
        <g>
          <g>
            <path class="cls-9" d="M107.45,76l-2.23-4.289s-10.674-3-25.085,10.963a72.474,72.474,0,0,0,9.492,22.284,77.1,77.1,0,0,1-6.861-17.91C95.559,74.654,105.4,75.623,107.45,76Z"/>
            <path class="cls-10" d="M115.833,123.9l.929-30L107.45,76c-2.05-.374-11.891-1.343-24.684,11.049a77.1,77.1,0,0,0,6.861,17.91C101.075,122.251,115.833,123.9,115.833,123.9Z"/>
          </g>
          <path class="cls-4" d="M115.833,124.956a.986.986,0,0,1-.117-.007c-.276-.031-6.84-.819-14.673-6.43-7.168-5.134-16.791-15.476-21.928-35.588a1.052,1.052,0,0,1,.287-1.016c9.065-8.781,16.748-11.083,21.6-11.468a1.1,1.1,0,0,1,.4.044c2.506.779,4.874,1.608,4.9,1.616a1.054,1.054,0,0,1,.585.508L117.7,93.42a1.05,1.05,0,0,1,.118.518l-.929,30a1.052,1.052,0,0,1-1.052,1.02ZM81.308,83c8.434,32.135,28.528,38.537,33.511,39.644l.882-28.5-10.5-20.19c-.742-.255-2.438-.832-4.238-1.4C96.529,72.961,89.6,75.126,81.308,83Z"/>
        </g>
        <g>
          <polygon class="cls-18" points="132.853 79.53 141.688 78.478 135.948 68.793 119.192 94.007 135.725 86.107 132.853 79.53"/>
          <polygon class="cls-9" points="132.853 63.57 117.923 94.614 119.192 94.007 135.948 68.793 132.853 63.57"/>
          <path class="cls-4" d="M117.924,95.666a1.053,1.053,0,0,1-.949-1.509L131.9,63.113a1.054,1.054,0,0,1,.9-.6,1.033,1.033,0,0,1,.951.515l8.835,14.908a1.053,1.053,0,0,1-.781,1.582l-7.429.885,2.305,5.278a1.053,1.053,0,0,1-.511,1.371l-17.8,8.506A1.047,1.047,0,0,1,117.924,95.666ZM132.95,65.8,120.167,92.375,134.353,85.6l-2.465-5.644a1.053,1.053,0,0,1,.84-1.466l7.231-.861Z"/>
        </g>
        <g>
          <polygon class="cls-18" points="103.333 79.53 94.498 78.478 99.255 70.452 102.001 71.446 116.994 94.007 100.462 86.107 103.333 79.53"/>
          <polygon class="cls-9" points="108.006 73.286 118.263 94.614 116.994 94.007 102.001 71.446 108.006 73.286"/>
          <path class="cls-4" d="M118.263,95.666a1.047,1.047,0,0,1-.453-.1l-17.8-8.506a1.053,1.053,0,0,1-.511-1.371l2.305-5.279-7.428-.884a1.053,1.053,0,0,1-.781-1.582l4.757-8.026a1.05,1.05,0,0,1,1.23-.465l8.751,2.834a1.053,1.053,0,0,1,.624.545l10.257,21.328a1.053,1.053,0,0,1-.949,1.509ZM101.833,85.6l14.186,6.779-8.766-18.227-7.522-2.436-3.5,5.912,7.23.861a1.053,1.053,0,0,1,.84,1.466Z"/>
        </g>
        <g>
          <path class="cls-19" d="M121.255,141.969c2.085,1.533,9.289,2.38,14.057,2.72a9.047,9.047,0,0,0,3.131-3.225c2.368-4.012.789-8.419-4.6-8.156s-8.55-.132-9.274-1.118,3.025-.921,2.7-3.486-2.039-3.223-6.314-1.118a10.785,10.785,0,0,0-2.542,1.782C118.543,133.183,119.089,140.376,121.255,141.969Z"/>
          <path class="cls-20" d="M114.634,134.756c1.776,1.973.784,11.773.784,11.773s1.781,1.315,9.279.658c4.879-.428,8.219-1.029,10.615-2.5-4.768-.341-11.972-1.187-14.057-2.72-2.167-1.593-2.712-8.785-2.848-12.6A16.89,16.89,0,0,0,114.634,134.756Z"/>
          <path class="cls-4" d="M120.846,148.423c-4.364,0-5.773-.842-6.052-1.048l-.482-.356.06-.6c.454-4.491.384-9.959-.519-10.963l-.439-.488.245-.609c.089-.222,2.242-5.464,6.825-7.72,2.832-1.394,4.776-1.707,6.121-.986a3.57,3.57,0,0,1,1.7,2.914,3.26,3.26,0,0,1-2.009,3.376c1.009.26,3.125.524,7.491.31,2.757-.126,4.875.816,6,2.673,1.183,1.96,1.021,4.6-.434,7.069-2.609,4.42-6.95,5.568-14.561,6.235C123.263,148.369,121.958,148.423,120.846,148.423Zm-4.307-2.559c.913.27,3.228.7,8.067.274,7.044-.618,10.776-1.555,12.932-5.209a4.911,4.911,0,0,0,.445-4.911c-.7-1.164-2.154-1.754-4.091-1.658-7.736.375-9.5-.628-10.174-1.547a1.406,1.406,0,0,1-.258-1.177c.175-.712.812-1.027,1.429-1.331,1.072-.529,1.415-.814,1.331-1.466-.091-.712-.3-1.158-.611-1.327-.378-.205-1.431-.342-4.194,1.019-3.13,1.541-4.981,4.889-5.584,6.137C117.116,137.17,116.781,143.105,116.539,145.864Z"/>
        </g>
        <g>
          <path class="cls-19" d="M118.135,155.015c-1.858.016-4,0-5.869-.112-3.394-.2-7.848-2.221-11.294-7.15a16.287,16.287,0,0,1-2.913-1.225c3.42,9.076,9.734,12.5,14.207,12.76s10.49,0,10.49,0l-3.665-2.642Z"/>
          <path class="cls-20" d="M112.267,154.9c1.871.11,4.011.128,5.869.112l-1.2-2.048-1.516-3.018s-8.544-.282-14.446-2.195C104.419,152.683,108.872,154.7,112.267,154.9Z"/>
          <path class="cls-4" d="M116.992,160.458c-1.573,0-3.261-.03-4.787-.12-4.976-.292-11.564-3.977-15.129-13.439a1.052,1.052,0,0,1,1.5-1.289c5.106,2.864,16.762,3.282,16.879,3.286a1.053,1.053,0,0,1,.905.58l1.5,2.988,2.027,3.458,3.485,2.512a1.052,1.052,0,0,1-.57,1.9C122.639,160.347,120.031,160.458,116.992,160.458Zm-16.9-11.893c3.344,6.753,8.533,9.455,12.24,9.673,2.361.139,5.188.128,7.293.088l-1.146-.826a1.047,1.047,0,0,1-.292-.321l-2.157-3.68c-.011-.02-.022-.04-.032-.06l-1.238-2.466C112.564,150.865,105.248,150.379,100.088,148.565Z"/>
        </g>
        <g>
          <g>
            <path class="cls-9" d="M72.947,117.191l-3.579-.35s4.209,22.847,28.676,29.687a114.624,114.624,0,0,0,17.359,3.42s.248-2.92.294-6.366a128.116,128.116,0,0,1-16.25-3.3A39.98,39.98,0,0,1,72.947,117.191Z"/>
            <path class="cls-21" d="M114.618,133.7c-5-.191-20.389-4.133-28.282-15.2l-13.39-1.309a39.98,39.98,0,0,0,26.5,23.094,128.116,128.116,0,0,0,16.25,3.3C115.745,139.932,115.565,135.69,114.618,133.7Z"/>
          </g>
          <path class="cls-4" d="M116.044,151.086,115,151a114.771,114.771,0,0,1-17.536-3.451c-24.829-6.941-29.4-30.28-29.444-30.515a1.052,1.052,0,0,1,2.07-.382c.041.222,4.407,22.291,27.924,28.866a127.423,127.423,0,0,0,16.109,3.267c.253-3.72.481-10.971-.548-14.076-6.23-.508-20.737-4.843-28.408-15.6a1.052,1.052,0,0,1,1.713-1.222c7.67,10.751,22.816,14.579,27.465,14.756l.637.025.274.575c1.909,4.016.993,15.5.882,16.793Z"/>
        </g>
        <g>
          <path class="cls-22" d="M112.283,114.273c-5.822-8.128-12.019-8.891-12.019-8.891L87.177,120.277s.033.052.1.146l11.061-12.589s6.2.763,12.019,8.891c4.521,6.312,3.8,13.863,3.259,16.922.155.016.3.036.462.05l1.167-1.112S118.1,122.4,112.283,114.273Z"/>
          <path class="cls-23" d="M110.354,116.725c-5.822-8.128-12.019-8.891-12.019-8.891L87.273,120.423A17.7,17.7,0,0,0,88.6,122.1c2.124-1.413,6-2.743,11.8-.11a13.678,13.678,0,0,1,7.892,10.836,49.222,49.222,0,0,0,5.318.82C114.158,130.588,114.875,123.037,110.354,116.725Z"/>
          <path class="cls-24" d="M108.295,132.828a13.678,13.678,0,0,0-7.892-10.836c-5.8-2.632-9.677-1.3-11.8.11C91.142,124.982,97.256,130.489,108.295,132.828Z"/>
          <path class="cls-4" d="M114.628,134.789l-.476-.044c-.094-.008-.185-.019-.277-.029l-.193-.021a50.45,50.45,0,0,1-5.432-.838C97,131.474,90.728,125.906,87.988,122.8a18.569,18.569,0,0,1-1.409-1.784c-.075-.11-.115-.172-.115-.172l-.422-.666.519-.595,13.454-15.312.552.068c.272.033,6.726.916,12.747,9.323h0c6.046,8.441,3.239,18.775,3.116,19.21l-.079.278ZM88.691,120.345c.211.276.5.638.875,1.061,2.568,2.912,8.467,8.135,19.121,10.391a48.343,48.343,0,0,0,5.189.8l.593-.564c.378-1.617,2.073-10.251-2.867-17.148h0c-4.5-6.278-9.234-7.952-10.779-8.348Z"/>
        </g>
        <g>
          <path class="cls-24" d="M90.328,119.449l-.063.062,9.672,4.094s-6.468.074-8.309,5.135c-1.4,3.84-2.155,5.662-4.42,5.231,4.063,2.075,4.81.447,6.577-4.407,1.842-5.06,8.309-5.135,8.309-5.135Z"/>
          <path class="cls-25" d="M91.628,128.74c1.842-5.06,11.233-4.508,11.233-4.508a6.568,6.568,0,0,0-1.126-4.952c-2.087-2.52-6.96-2.929-11.283,0-.368.363-2.628,2.653-4.327,4.623-1.872,2.17-3.982,7.3.556,9.794.185.1.354.186.526.274C89.473,134.4,90.231,132.58,91.628,128.74Z"/>
        </g>
        <g>
          <g>
            <g>
              <path class="cls-24" d="M71.553,92.619c4.559-7.616,10.44-9.537,14.019-9.947q-.486-.11-1-.2s-10.194-1.809-17.232,9.948-5.393,21.162,5,25.174a34.391,34.391,0,0,0,13.218,2.522,37.96,37.96,0,0,1-9.009-2.319C66.159,113.781,64.515,104.375,71.553,92.619Z"/>
              <path class="cls-22" d="M99.966,97.6c-2.418-5.854-4.775-12.753-14.394-14.924-.429.049-.892.121-1.38.22,8.456,2.5,10.7,9,13,14.557,2.5,6.051.2,14.6-4.012,18.81-2.037,2.037-5.206,3.306-9.1,3.63.5.085,1,.162,1.488.222,4.49-.13,8.136-1.449,10.393-3.706C100.163,112.2,102.465,103.646,99.966,97.6Z"/>
              <path class="cls-26" d="M97.189,97.449c-2.3-5.558-4.542-12.057-13-14.557-3.59.732-8.626,3.023-12.639,9.727-7.037,11.757-5.393,21.162,5,25.174a38.987,38.987,0,0,0,7.521,2.1c3.9-.325,7.068-1.594,9.1-3.63C97.386,112.05,99.688,103.5,97.189,97.449Z"/>
            </g>
            <path class="cls-4" d="M84.812,121.185A36.384,36.384,0,0,1,71.9,118.572c-4.765-1.84-7.866-4.761-9.215-8.682-1.694-4.92-.417-11.15,3.693-18.015C73.7,79.636,84.249,81.354,84.7,81.432h0c10.514,1.918,13.45,9.1,15.809,14.87l.365.891c2.748,6.653.026,15.69-4.241,19.956C93.959,119.825,89.765,121.185,84.812,121.185Zm-1.9-37.776c-2.9,0-9.62,1.012-14.729,9.547-3.78,6.315-4.993,11.934-3.508,16.249,1.138,3.307,3.824,5.8,7.983,7.4,9.3,3.59,18.334,3.209,22.489-.946,3.786-3.787,6.211-11.788,3.783-17.665l-.368-.9C96.172,91.257,93.7,85.216,84.328,83.5A9.006,9.006,0,0,0,82.911,83.409Z"/>
          </g>
          <path class="cls-4" d="M81.179,110.359s-7.366-2.74-5.262-6.787,9.838-1.636,11.8.1S88.282,110.144,81.179,110.359Z"/>
          <path class="cls-27" d="M78.6,104.041s4.4-.395,5.514,1.381,0,2.039,0,2.039,4.144-.14,2.762-2.339S80.257,102.923,78.6,104.041Z"/>
          <path class="cls-4" d="M71.819,118.6a1.052,1.052,0,0,1-.037-2.1c1.566-.058,6.007-.683,7.729-2.858a3.571,3.571,0,0,0,.636-3.077,1.052,1.052,0,0,1,2.065-.407,5.628,5.628,0,0,1-1.053,4.794c-2.681,3.382-9.033,3.642-9.3,3.651Z"/>
          <path class="cls-4" d="M90.289,120.334c-1.827,0-5.369-.345-7.844-2.753-2-1.946-2.852-4.774-2.534-8.407a1.052,1.052,0,0,1,2.1.184c-.259,2.967.379,5.224,1.9,6.707,2.669,2.608,7.281,2.129,7.328,2.123a1.052,1.052,0,0,1,.238,2.091A11.32,11.32,0,0,1,90.289,120.334Z"/>
          <circle class="cls-4" cx="78.181" cy="93.961" r="2.286"/>
          <circle class="cls-4" cx="88.043" cy="94.701" r="2.286"/>
          <path class="cls-4" d="M72.749,86.052A5.979,5.979,0,0,0,66.1,87.532c-2.828,3.157-5.13,5.656-8.748,1.513C53.319,84.43,63.4,75.233,70.042,77.667s7.612,5.657,7.612,5.657Z"/>
          <path class="cls-27" d="M60.308,89.177s-1.973-7.213,6.182-10.085c-4.407,1.008-8.353,4.757-7.893,6.731A8.354,8.354,0,0,0,60.308,89.177Z"/>
          <path class="cls-4" d="M96.686,90.645s2.952-1.337,5.188,2.741,1.381,7.688,7.037,6.179.329-13.282-3.157-14.795-6.355-2.729-13.536.839A32.413,32.413,0,0,1,96.686,90.645Z"/>
          <path class="cls-27" d="M103.519,86.348s3.88,2.5,4.209,6.38-.855,5.2-.855,5.2a4.486,4.486,0,0,0,2.1-4.341C108.781,90.426,106.084,88.058,103.519,86.348Z"/>
        </g>
        <path class="cls-4" d="M89.992,135.915a8.348,8.348,0,0,1-3.817-1.295,5.91,5.91,0,0,1-3.163-4.171,9.419,9.419,0,0,1,2.316-7.233c1.879-2.179,4.167-4.424,4.264-4.518a1.052,1.052,0,0,1,1.473,1.5c-.023.023-2.323,2.279-4.143,4.39a7.336,7.336,0,0,0-1.839,5.485,3.78,3.78,0,0,0,2.1,2.7c1.579.867,2.625,1.184,3.2.969.818-.308,1.486-2,2.411-4.54,2.067-5.678,8.993-5.823,9.286-5.827a1.04,1.04,0,0,1,1.065,1.04,1.053,1.053,0,0,1-1.038,1.065c-.094,0-5.773.154-7.334,4.442-1.081,2.972-1.863,5.119-3.648,5.79A3.188,3.188,0,0,1,89.992,135.915Z"/>
        <g>
          <path class="cls-26" d="M92.536,144.592s-.292,3.971-6.964,2.779c2.448,3.894,10.753,4.372,12.651-.427C97.138,146.359,92.536,144.592,92.536,144.592Z"/>
          <path class="cls-4" d="M92.115,151.47c-3.112,0-6.079-1.383-7.434-3.539a1.052,1.052,0,0,1,1.076-1.6c2.249.4,3.948.215,4.918-.537a2.12,2.12,0,0,0,.811-1.283,1.052,1.052,0,0,1,1.426-.905c.477.183,4.7,1.808,5.809,2.407a1.052,1.052,0,0,1,.479,1.313c-.921,2.328-3.154,3.82-6.128,4.1Q92.593,151.47,92.115,151.47Zm-3.463-2.852a8.331,8.331,0,0,0,4.227.713,5.509,5.509,0,0,0,3.885-1.9c-1-.434-2.473-1.019-3.571-1.45a4.312,4.312,0,0,1-1.227,1.484A6.05,6.05,0,0,1,88.652,148.618Z"/>
        </g>
      </g>
      <circle class="cls-28" cx="19.125" cy="46.613" r="17.625"/>
      <circle class="cls-28" cx="183.613" cy="36.101" r="7.113"/>
      <circle class="cls-28" cx="204.613" cy="108.851" r="13.887"/>
      <circle class="cls-28" cx="42.256" cy="111.972" r="3.256"/>
    </g>
  </g>
</svg>
